<svg width="90" height="40" viewBox="0 0 90 40" fill="none" xmlns="http://www.w3.org/2000/svg">
<g clip-path="url(#clip0_1663_36169)">
<path d="M32.2062 18.7843L34.7243 14.6791H37.0076L33.8333 19.6636L37.1391 24.6481H34.8559L32.2062 20.5429L29.5699 24.6481H27.2866L30.5924 19.6636L27.4182 14.6791H29.7014L32.2062 18.7843Z" fill="#9B9B9B"/>
<path d="M45.9273 23.6922C45.8041 23.8138 45.6775 23.9237 45.546 24.0203L46.8716 25.4492H44.3519L44.0371 25.0529L43.789 24.7414C43.6041 24.7681 43.4159 24.7814 43.2244 24.7814H41.8871C41.7622 24.7814 41.6406 24.7764 41.5224 24.7664C40.5947 24.6898 39.792 24.3084 39.1192 23.6273C38.3931 22.8928 38.03 22.0135 38.03 20.991V18.3396C38.03 17.2721 38.4147 16.3695 39.1841 15.625C39.9452 14.9073 40.8445 14.5492 41.8871 14.5492H42.3967C41.8238 14.9889 41.5224 15.5951 41.5224 16.3062V16.3162C41.0844 16.4044 40.7196 16.6576 40.4299 17.0806C40.1684 17.457 40.0368 17.8767 40.0368 18.3396V20.9893C40.0368 21.6721 40.2816 22.2184 40.7713 22.628C41.0078 22.8212 41.2576 22.9478 41.5224 23.0078C41.6406 23.0344 41.7622 23.0477 41.8871 23.0477H43.2244C43.5408 23.0477 43.8273 22.9728 44.0771 22.8229C44.2753 22.7046 44.4535 22.5414 44.6117 22.3299C44.635 22.2983 44.6583 22.2666 44.68 22.2333C44.9331 21.857 45.0597 21.4423 45.0597 20.9876V18.3396C45.0597 17.805 44.9098 17.3537 44.6117 16.9873C44.5251 16.8808 44.4252 16.7808 44.3136 16.6876C44.237 16.6243 44.1587 16.5677 44.0771 16.5194C43.8156 16.3611 43.5308 16.2812 43.2244 16.2812H42.057C42.0636 15.7083 42.3168 15.2487 42.818 14.9039C43.0762 14.7257 43.3543 14.6158 43.6557 14.5708C44.5551 14.6608 45.3345 15.0388 45.9923 15.7033C46.1738 15.8865 46.332 16.0797 46.4669 16.2812C46.5835 16.4527 46.6818 16.6309 46.765 16.8158C46.9749 17.2821 47.0798 17.7901 47.0798 18.3413V20.991C47.0831 22.0468 46.6968 22.9478 45.9273 23.6922Z" fill="#9B9B9B"/>
<path d="M48.6171 14.6791H50.6373V20.8577C50.6373 21.5488 50.8871 22.1001 51.385 22.5098C51.7081 22.7812 52.0712 22.9161 52.4742 22.9161H53.5501C54.1529 22.9161 54.6392 22.6497 55.0056 22.1167C55.2687 21.7404 55.3986 21.3207 55.3986 20.8577V14.6791H57.4054V20.8577C57.4054 21.9252 57.0207 22.8295 56.2513 23.5723C55.4902 24.2901 54.5893 24.6481 53.5484 24.6481H52.4725C51.3884 24.6481 50.4657 24.2634 49.7047 23.494C48.9785 22.7596 48.6155 21.8803 48.6155 20.8577V14.6791H48.6171Z" fill="#9B9B9B"/>
<path d="M67.1911 14.6791H59.084V16.4111H66.2469L67.1911 14.6791Z" fill="#9B9B9B"/>
<path d="M65.0761 18.851H59.084V20.583H65.0761V18.851Z" fill="#9B9B9B"/>
<path d="M59.084 24.6482H67.1911L66.2469 22.9178H59.084V24.6482Z" fill="#9B9B9B"/>
<path d="M68.3203 17.5252C68.3203 16.7209 68.6967 16.038 69.4478 15.4785C70.1739 14.9455 71.0399 14.6791 72.0458 14.6791H73.3831C74.1959 14.6791 74.9836 14.8673 75.7447 15.2436C76.0594 15.4102 76.3126 15.5851 76.5058 15.7682L74.7488 17.1189C74.4607 16.7175 74.066 16.4844 73.568 16.4244C73.5064 16.4161 73.4448 16.4111 73.3848 16.4111H72.0475C71.3913 16.4111 70.8967 16.5943 70.5653 16.9623C70.4171 17.1455 70.3421 17.3337 70.3421 17.5269C70.3421 17.8683 70.7052 18.1614 71.4313 18.4062C71.6595 18.4845 72.0425 18.5944 72.5854 18.7343C73.8978 19.0757 74.8154 19.4071 75.34 19.7319C76.1977 20.2565 76.6307 20.9476 76.639 21.8053C76.639 22.6014 76.2543 23.2792 75.4849 23.8388C74.7238 24.3817 73.8228 24.6515 72.7819 24.6515H71.4446C70.5969 24.6515 69.7742 24.4633 68.9782 24.0869C68.6451 23.9204 68.3836 23.7455 68.1904 23.5623L69.9224 22.225C70.2289 22.6097 70.6569 22.8379 71.2081 22.9078C71.2947 22.9161 71.3747 22.9211 71.4446 22.9211H72.7819C73.4897 22.9211 74.0243 22.7329 74.3824 22.3566C74.5406 22.1817 74.6189 21.9985 74.6189 21.8053C74.6189 21.4206 74.2558 21.1009 73.5297 20.8477C73.4248 20.8044 72.7903 20.6245 71.6278 20.3098C70.2905 19.9517 69.3795 19.5187 68.8999 19.0108C68.5119 18.5878 68.3203 18.0948 68.3203 17.5252Z" fill="#9B9B9B"/>
<path d="M80.5395 14.6791L79.4637 16.4111H77.7117V14.6791H80.5395ZM82.4081 24.6481H80.388V16.4377C80.388 15.8515 80.6411 15.3835 81.149 15.0338C81.4905 14.7973 81.8702 14.6791 82.2898 14.6791H85.2676V16.4111H82.4081V24.6481Z" fill="#9B9B9B"/>
<path d="M15.1692 14.3743C15.5606 13.6715 14.7945 13.6931 13.6753 14.0162C13.1341 14.1061 12.6994 14.2677 12.348 14.4692C10.7759 15.0721 9.11548 15.8981 8.9073 16.1362C8.9073 16.1362 7.48672 16.3011 6.76893 18.1231C6.26931 19.3904 7.76151 20.6062 11.6802 17.4602C13.667 15.9697 16.0952 15.0321 19.3194 18.9474C18.2585 17.3387 16.6731 15.2253 15.1692 14.3743Z" fill="#7835BA"/>
<mask id="mask0_1663_36169" style="mask-type:luminance" maskUnits="userSpaceOnUse" x="6" y="13" width="14" height="7">
<path d="M15.1692 14.3743C15.5606 13.6715 14.7945 13.6931 13.6753 14.0162C13.1341 14.1061 12.6994 14.2677 12.348 14.4692C10.7759 15.0721 9.11548 15.8981 8.9073 16.1362C8.9073 16.1362 7.48672 16.3011 6.76893 18.1231C6.26931 19.3904 7.76151 20.6062 11.6802 17.4602C13.667 15.9697 16.0952 15.0321 19.3194 18.9474C18.2585 17.3387 16.6731 15.2253 15.1692 14.3743Z" fill="white"/>
</mask>
<g mask="url(#mask0_1663_36169)">
<path opacity="0.39" d="M6.93384 17.7933C6.93384 17.7933 9.03057 15.5867 12.453 15.6416C15.8737 15.6966 15.8737 18.0698 16.4266 18.9525C16.9779 19.8351 19.7924 19.8351 19.7924 19.8351L21.7792 17.7384L20.0672 15.2003L16.2051 13.1036L12.453 12.8821L8.75578 14.261L6.9355 16.0264V17.7933H6.93384Z" fill="url(#paint0_linear_1663_36169)"/>
</g>
<path d="M19.3193 18.9508C20.0754 20.0999 20.5634 20.9942 20.5634 20.9942C20.1704 20.1749 19.7523 19.5021 19.3193 18.9508Z" fill="url(#paint1_linear_1663_36169)"/>
<path d="M9.74851 27.8923C9.74851 27.8923 8.36956 27.0646 8.12142 26.8165C7.80666 26.5017 6.37275 24.9829 7.40363 22.8978C8.75594 20.1665 13.419 20.6345 15.2393 22.8978C17.0596 25.1611 17.9439 25.3259 19.8741 23.7805C21.806 22.235 20.0357 31.6445 9.74851 27.8923Z" fill="#7835BA"/>
<mask id="mask1_1663_36169" style="mask-type:luminance" maskUnits="userSpaceOnUse" x="7" y="21" width="14" height="8">
<path d="M9.74851 27.8923C9.74851 27.8923 8.36956 27.0646 8.12142 26.8165C7.80666 26.5017 6.37275 24.9829 7.40363 22.8978C8.75594 20.1665 13.419 20.6345 15.2393 22.8978C17.0596 25.1611 17.9439 25.3259 19.8741 23.7805C21.806 22.235 20.0357 31.6445 9.74851 27.8923Z" fill="white"/>
</mask>
<g mask="url(#mask1_1663_36169)">
<path opacity="0.72" d="M7.76172 26.8981C7.76172 26.8981 15.8189 28.1672 15.8189 21.877L24.2625 22.7596L25.4216 26.7333L20.7318 31.2032L10.413 30.9817L8.58942 27.7258L7.76172 26.8981Z" fill="url(#paint2_linear_1663_36169)"/>
</g>
<mask id="mask2_1663_36169" style="mask-type:luminance" maskUnits="userSpaceOnUse" x="7" y="21" width="14" height="8">
<path d="M9.74851 27.8923C9.74851 27.8923 8.36956 27.0646 8.12142 26.8165C7.80666 26.5017 6.37275 24.9829 7.40363 22.8978C8.75594 20.1665 13.419 20.6345 15.2393 22.8978C17.0596 25.1611 17.9439 25.3259 19.8741 23.7805C21.806 22.235 20.0357 31.6445 9.74851 27.8923Z" fill="white"/>
</mask>
<g mask="url(#mask2_1663_36169)">
<path opacity="0.14" d="M7.70664 26.4018C7.70664 26.4018 10.0249 28.2787 13.3357 27.7258C16.6465 27.1745 16.7015 24.0835 16.4816 23.5323C16.2601 22.981 21.5578 23.091 21.5578 23.091L22.8817 25.0778L20.84 29.0514L16.48 31.2031L10.2997 30.7618L8.53434 28.0022L7.41187 25.8589" fill="url(#paint3_linear_1663_36169)"/>
</g>
<path d="M14.2467 13.2402C10.9142 13.2402 8.04809 15.2354 6.77905 18.0982C7.9798 16.3662 10.0116 15.2271 12.3165 15.2271C16.0037 15.2271 18.9931 18.1432 18.9931 21.7388C18.9931 25.3344 16.0037 28.2505 12.3165 28.2505C10.7227 28.2505 9.2605 27.7059 8.11137 26.7966C9.60856 28.4986 11.8019 29.5745 14.2467 29.5745C18.7566 29.5745 22.4138 25.9172 22.4138 21.4073C22.4138 16.8974 18.7566 13.2402 14.2467 13.2402Z" fill="#7935BA"/>
<mask id="mask3_1663_36169" style="mask-type:luminance" maskUnits="userSpaceOnUse" x="6" y="13" width="17" height="17">
<path d="M14.2467 13.2402C10.9142 13.2402 8.04809 15.2354 6.77905 18.0982C7.9798 16.3662 10.0116 15.2271 12.3165 15.2271C16.0037 15.2271 18.9931 18.1432 18.9931 21.7388C18.9931 25.3344 16.0037 28.2505 12.3165 28.2505C10.7227 28.2505 9.2605 27.7059 8.11137 26.7966C9.60856 28.4986 11.8019 29.5745 14.2467 29.5745C18.7566 29.5745 22.4138 25.9172 22.4138 21.4073C22.4138 16.8974 18.7566 13.2402 14.2467 13.2402Z" fill="white"/>
</mask>
<g mask="url(#mask3_1663_36169)">
<path opacity="0.44" d="M12.2864 28.2238C16.6443 28.2238 20.1771 24.9132 20.1771 20.8294C20.1771 16.7456 16.6443 13.4351 12.2864 13.4351C7.92852 13.4351 4.39575 16.7456 4.39575 20.8294C4.39575 24.9132 7.92852 28.2238 12.2864 28.2238Z" fill="url(#paint4_linear_1663_36169)"/>
</g>
<path d="M3.51482 28.4852C6.97719 31.9476 12.0283 32.8519 16.3217 31.1982C13.2757 31.7511 9.98156 30.8234 7.58672 28.4286C3.75464 24.5965 3.67803 18.4612 7.41518 14.7257C11.1523 10.9902 17.2877 11.0668 21.1181 14.8972C22.7735 16.5527 23.7278 18.6394 23.9759 20.7761C24.1907 17.452 23.0266 14.0546 20.4869 11.5148C15.8005 6.82839 8.20125 6.82839 3.51482 11.5148C-1.17161 16.1996 -1.17161 23.7971 3.51482 28.4852Z" fill="url(#paint5_linear_1663_36169)"/>
<mask id="mask4_1663_36169" style="mask-type:luminance" maskUnits="userSpaceOnUse" x="0" y="8" width="25" height="24">
<path d="M3.51482 28.4852C6.97719 31.9476 12.0283 32.8519 16.3217 31.1982C13.2757 31.7511 9.98156 30.8234 7.58672 28.4286C3.75464 24.5965 3.67803 18.4612 7.41518 14.7257C11.1523 10.9902 17.2877 11.0668 21.1181 14.8972C22.7735 16.5527 23.7278 18.6394 23.9759 20.7761C24.1907 17.452 23.0266 14.0546 20.4869 11.5148C15.8005 6.82839 8.20125 6.82839 3.51482 11.5148C-1.17161 16.1996 -1.17161 23.7971 3.51482 28.4852Z" fill="white"/>
</mask>
<g mask="url(#mask4_1663_36169)">
<path opacity="0.44" d="M5.23521 14.4376C9.47864 10.1942 16.5899 10.4257 21.1181 14.9539C25.6463 19.4821 25.8778 26.5933 21.6344 30.8368C17.3909 35.0802 10.2797 34.8487 5.75148 30.3205C1.22326 25.7906 0.991771 18.681 5.23521 14.4376Z" fill="url(#paint6_linear_1663_36169)"/>
</g>
</g>
<defs>
<linearGradient id="paint0_linear_1663_36169" x1="14.2088" y1="14.2144" x2="14.5655" y2="22.7893" gradientUnits="userSpaceOnUse">
<stop offset="0.00317383" stop-color="#234796" stop-opacity="0"/>
<stop offset="0.9968" stop-color="#263F6B"/>
</linearGradient>
<linearGradient id="paint1_linear_1663_36169" x1="19.913" y1="19.2702" x2="19.9928" y2="21.1888" gradientUnits="userSpaceOnUse">
<stop stop-color="#0172A6"/>
<stop offset="0.6756" stop-color="#47C5DC"/>
<stop offset="0.9992" stop-color="#65E8F3"/>
</linearGradient>
<linearGradient id="paint2_linear_1663_36169" x1="15.917" y1="24.6552" x2="19.2075" y2="30.6736" gradientUnits="userSpaceOnUse">
<stop offset="0.00317383" stop-color="#234796" stop-opacity="0"/>
<stop offset="0.9968" stop-color="#263F6B"/>
</linearGradient>
<linearGradient id="paint3_linear_1663_36169" x1="15.2249" y1="24.7523" x2="14.471" y2="31.7265" gradientUnits="userSpaceOnUse">
<stop offset="0.00317383" stop-color="#234796" stop-opacity="0"/>
<stop offset="0.9968" stop-color="#263F6B"/>
</linearGradient>
<linearGradient id="paint4_linear_1663_36169" x1="13.0799" y1="29.3653" x2="11.6205" y2="13.6506" gradientUnits="userSpaceOnUse">
<stop offset="0.00317383" stop-color="#FCC100" stop-opacity="0"/>
<stop offset="0.6695" stop-color="#FD714B" stop-opacity="0.6684"/>
<stop offset="1" stop-color="#FD4E6B"/>
</linearGradient>
<linearGradient id="paint5_linear_1663_36169" x1="19.7005" y1="11.5725" x2="3.12732" y2="28.1458" gradientUnits="userSpaceOnUse">
<stop stop-color="#832BC1"/>
<stop offset="1" stop-color="#002AA7"/>
</linearGradient>
<linearGradient id="paint6_linear_1663_36169" x1="21.4805" y1="12.9424" x2="6.66859" y2="30.7871" gradientUnits="userSpaceOnUse">
<stop offset="0.00317383" stop-color="#FCC100" stop-opacity="0"/>
<stop offset="0.6695" stop-color="#FD714B" stop-opacity="0.6684"/>
<stop offset="1" stop-color="#FD4E6B"/>
</linearGradient>
<clipPath id="clip0_1663_36169">
<rect width="90" height="40" fill="white"/>
</clipPath>
</defs>
</svg>
