<svg width="80" height="40" viewBox="0 0 80 40" fill="none" xmlns="http://www.w3.org/2000/svg">
<g clip-path="url(#clip0_1391_11712)">
<path d="M9.71579 16.3892L12.814 13.2275L17.7439 13.1017L17.301 17.8596L14.2547 20.9689L9.59314 21.4209L9.71579 16.3892Z" fill="#111827"/>
<path d="M5.74596 20.9694L2.69902 17.8595L0 10.8L7.18481 13.2286L10.2836 16.3909L10.4081 21.4232L5.74596 20.9694Z" fill="#111827"/>
<path d="M2.69786 22.9394L5.74421 19.8301L10.4057 19.3781L10.2825 24.4098L7.18483 27.5715L2.255 27.6973L2.69786 22.9394Z" fill="#111827"/>
<path d="M12.814 27.5702L9.71519 24.4079L9.59076 19.3756L14.2529 19.8294L17.2998 22.9393L20 30L12.814 27.5702Z" fill="#111827"/>
<path d="M5.78903 19.0758L3.98929 17.2389L1.33508 12.0609L6.61519 14.584L8.95509 16.9723L9.99943 20.3994L5.78903 19.0758Z" fill="#78DFFF"/>
<path d="M3.98865 23.5599L5.79901 21.7121L9.99939 20.3994L8.95386 23.8283L6.61514 26.2154L3.7345 26.2888L3.98865 23.5599Z" fill="#FFC947"/>
<path d="M13.3836 26.2148L11.0437 23.8259L9.99939 20.3994L14.1992 21.7121L16.0089 23.5599L18.6661 28.7403L13.3836 26.2148Z" fill="#78DFFF"/>
<path d="M11.0443 16.9705L13.3836 14.5828L16.2643 14.51L16.0101 17.2389L14.2122 19.0747L9.99939 20.3994L11.0443 16.9705Z" fill="#FFC947"/>
</g>
<path d="M32.5156 26.5H29.7295C29.0439 25.6211 28.3643 24.7451 27.6904 23.8721C27.0166 22.999 26.3398 22.1201 25.6602 21.2354H28.4023L29.4746 22.6328C29.9551 21.9355 30.1953 21.1328 30.1953 20.2246C30.1953 19.1113 29.8057 18.1416 29.0264 17.3154C28.2588 16.5303 27.3418 16.1377 26.2754 16.1377C25.1445 16.1377 24.2129 16.5303 23.4805 17.3154C22.7305 18.0713 22.3555 19.041 22.3555 20.2246C22.3555 21.5664 22.8213 22.6299 23.7529 23.415C24.4326 23.9658 25.1973 24.2676 26.0469 24.3203L27.6816 26.3857C27.4648 26.4268 27.2393 26.4561 27.0049 26.4736C26.7705 26.4912 26.5273 26.5 26.2754 26.5C24.4824 26.5 22.9883 25.8848 21.793 24.6543C20.5977 23.3887 20 21.9121 20 20.2246C20 19.0469 20.2812 17.9805 20.8438 17.0254C21.418 16.0586 22.1826 15.2939 23.1377 14.7314C24.0928 14.1748 25.1387 13.8965 26.2754 13.8965C28.0215 13.8965 29.4775 14.5117 30.6436 15.7422C31.874 16.9785 32.4893 18.4727 32.4893 20.2246C32.4893 21.8594 31.9678 23.2773 30.9248 24.4785L32.5156 26.5ZM40.5664 13.8965H42.9131V21.8857C42.9131 22.5244 42.79 23.125 42.5439 23.6875C42.3037 24.2441 41.9727 24.7305 41.5508 25.1465C41.1348 25.5625 40.6455 25.8936 40.083 26.1396C39.5264 26.3799 38.9287 26.5 38.29 26.5C37.6514 26.5 37.0508 26.3799 36.4883 26.1396C35.9316 25.8936 35.4453 25.5625 35.0293 25.1465C34.6133 24.7305 34.2822 24.2441 34.0361 23.6875C33.7959 23.125 33.6758 22.5244 33.6758 21.8857V13.8965H36.0225V21.9385C36.0225 22.2549 36.0811 22.5508 36.1982 22.8262C36.3213 23.1016 36.4854 23.3418 36.6904 23.5469C36.8955 23.752 37.1357 23.9131 37.4111 24.0303C37.6865 24.1475 37.9795 24.2061 38.29 24.2061C38.6064 24.2061 38.9023 24.1475 39.1777 24.0303C39.4531 23.9131 39.6934 23.752 39.8984 23.5469C40.1035 23.3418 40.2646 23.1016 40.3818 22.8262C40.5049 22.5508 40.5664 22.2549 40.5664 21.9385V13.8965ZM52.4756 13.8965V16.2432H47.2549V19.0557H52.4756V21.3408H47.2549V24.1533H52.4756V26.5H44.9082V13.8965H52.4756ZM58.1445 26.5C56.457 26.5 55.1738 25.624 54.2949 23.8721L56.2549 22.7031C56.8291 23.7812 57.4795 24.3203 58.2061 24.3203C58.5869 24.3203 58.9209 24.209 59.208 23.9863C59.4658 23.7461 59.5947 23.4854 59.5947 23.2041C59.5947 22.9287 59.5039 22.6504 59.3223 22.3691C59.2051 22.2344 59.0352 22.0674 58.8125 21.8682C58.5898 21.6631 58.3115 21.4199 57.9775 21.1387C57.3389 20.6055 56.8086 20.1367 56.3867 19.7324C55.9707 19.3223 55.666 18.9736 55.4727 18.6865C55.0625 18.1006 54.8574 17.5264 54.8574 16.9639C54.8574 16.1201 55.1738 15.3965 55.8066 14.793C56.4629 14.1953 57.2422 13.8965 58.1445 13.8965C58.7656 13.8965 59.3428 14.0459 59.876 14.3447C60.1514 14.4795 60.4355 14.6729 60.7285 14.9248C61.0215 15.1768 61.332 15.4844 61.6602 15.8477L59.9287 17.3506C59.3486 16.5361 58.7539 16.1289 58.1445 16.1289C57.8047 16.1289 57.5645 16.2021 57.4238 16.3486C57.2363 16.4951 57.1426 16.6826 57.1426 16.9111C57.1426 17.0869 57.1982 17.2686 57.3096 17.4561C57.4209 17.5732 57.6143 17.7578 57.8896 18.0098C58.1709 18.2559 58.5371 18.5752 58.9883 18.9678C59.5156 19.4072 59.917 19.7559 60.1924 20.0137C60.374 20.1777 60.5088 20.2949 60.5967 20.3652C61.417 21.1562 61.8271 22.0645 61.8271 23.0898C61.8271 24.0977 61.4902 24.918 60.8164 25.5508C60.1484 26.1836 59.2578 26.5 58.1445 26.5ZM71.9082 13.8965V16.252H70.7656H68.4629V26.5H65.9932V16.252H63.752H62.6094V13.8965H71.9082Z" fill="#111827"/>
<defs>
<clipPath id="clip0_1391_11712">
<rect width="20" height="20" fill="white" transform="translate(0 10)"/>
</clipPath>
</defs>
</svg>
