<svg width="124" height="22" viewBox="0 0 124 22" fill="none" xmlns="http://www.w3.org/2000/svg">
<g clip-path="url(#clip0_254_8599)">
<path d="M38.7867 13.4192C38.7867 14.6123 38.4086 15.6069 37.6502 16.3964C36.8941 17.1881 35.9388 17.5828 34.7889 17.5828C33.6391 17.5828 32.6793 17.1881 31.912 16.3964C31.1447 15.6047 30.7621 14.6123 30.7621 13.4192V0.297729H26.1738V13.4192C26.1738 15.0401 26.5452 16.5044 27.2857 17.8078C28.0284 19.1111 29.0552 20.1321 30.3662 20.8665C31.6771 21.6031 33.1514 21.9713 34.7867 21.9713C36.422 21.9713 37.8784 21.6031 39.1849 20.8665C40.4913 20.1299 41.5159 19.1111 42.2587 17.8078C43.0014 16.5044 43.3705 15.0423 43.3705 13.4192V0.297729H38.7822V13.4192H38.7867Z" fill="black"/>
<path d="M46.6602 0.297729V21.7023H51.2462H59.9531V17.3579H51.2485V12.837H59.0001V8.4926H51.2485V4.64216H59.9531V0.297729H51.2462H46.6602Z" fill="black"/>
<path d="M77.1757 11.4565C76.7462 11.0243 76.254 10.6405 75.6992 10.3075C75.1444 9.97453 74.5583 9.70107 73.9431 9.48716C73.3278 9.27325 72.7149 9.07918 72.1041 8.90496C71.4934 8.73075 70.9095 8.56094 70.3547 8.39775C69.7999 8.23456 69.3078 8.05372 68.8782 7.85965C68.4487 7.66559 68.1087 7.42521 67.8559 7.13632C67.6031 6.84743 67.4778 6.51002 67.4778 6.12188C67.4778 5.60364 67.7172 5.18464 68.1959 4.86046C68.6747 4.53628 69.3033 4.37529 70.0818 4.37529C70.9699 4.37529 71.9073 4.59582 72.8894 5.03909C73.8737 5.48235 74.7641 6.0866 75.5627 6.85184L78.2271 3.27044C77.3994 2.3354 76.2428 1.55693 74.7596 0.935036C73.2764 0.313143 71.8379 0.00219727 70.4442 0.00219727C68.2339 0.00219727 66.4174 0.617474 64.9924 1.84582C63.5696 3.07417 62.8582 4.60905 62.8582 6.45047C62.8582 7.27746 62.9834 8.01623 63.2362 8.66679C63.489 9.31956 63.8268 9.85324 64.2496 10.2722C64.6747 10.6913 65.1602 11.0573 65.7105 11.3771C66.2608 11.6947 66.838 11.9549 67.4442 12.1534C68.0505 12.3518 68.6568 12.5349 69.2697 12.6981C69.8805 12.8613 70.4599 13.0222 71.0102 13.1766C71.5605 13.331 72.0482 13.4986 72.471 13.6772C72.8961 13.8558 73.2339 14.0896 73.4867 14.3785C73.7395 14.6674 73.8648 15.0004 73.8648 15.3775C73.8648 16.0545 73.5627 16.597 72.9565 17.005C72.3502 17.413 71.5583 17.6159 70.5784 17.6159C69.3861 17.6159 68.3122 17.3578 67.3525 16.8396C66.3928 16.3214 65.4487 15.5914 64.5203 14.6453L61.583 17.9445C62.5226 19.1089 63.838 20.077 65.536 20.8466C67.2317 21.6185 68.9118 22.0044 70.5784 22.0044C71.8088 22.0044 72.9386 21.8169 73.9632 21.4443C74.9878 21.0716 75.8312 20.571 76.4911 19.9447C77.1511 19.3184 77.6656 18.6083 78.028 17.8188C78.3904 17.0293 78.5739 16.2045 78.5739 15.3488C78.5739 14.4932 78.4486 13.7632 78.1958 13.1016C77.943 12.44 77.603 11.8931 77.1734 11.4609L77.1757 11.4565Z" fill="black"/>
<path d="M79.5312 4.64216H85.86V21.7023H90.4461V4.64216H96.8062V0.297729H79.5312V4.64216Z" fill="black"/>
<path d="M23.5097 11C23.5097 8.94026 23.0265 7.07017 22.0645 5.38753C21.1003 3.7071 19.7715 2.38833 18.0757 1.43123C16.3778 0.478548 14.4896 0 12.4114 0V4.40397C14.2279 4.40397 15.7424 5.03248 16.9527 6.2917C18.163 7.55092 18.7692 9.12109 18.7692 11C18.7692 12.354 18.4471 13.5581 17.8006 14.6123L15.2256 11.7917H10.4248L12.4091 13.986L15.1339 17.0006C14.3263 17.4086 13.4181 17.6115 12.4091 17.6115V22C14.5993 22 16.5523 21.4818 18.2681 20.4475L19.418 21.7023H24.2188L20.9929 18.1209C22.6685 16.1008 23.5052 13.7279 23.5052 11.0022L23.5097 11Z" fill="black"/>
<path d="M6.52566 15.7171C5.31538 14.4535 4.70912 12.8811 4.70912 11C4.70912 9.11889 5.31538 7.54872 6.52566 6.2917C7.73593 5.03248 9.25046 4.40397 11.067 4.40397V0C8.98648 0 7.10283 0.478548 5.41157 1.43344C3.72032 2.38833 2.39595 3.7071 1.43623 5.38974C0.478742 7.07017 0 8.94026 0 11C0 13.0597 0.478742 14.9298 1.43846 16.6125C2.39818 18.2951 3.72255 19.6117 5.41381 20.5688C7.10507 21.5237 8.98872 22.0022 11.0692 22.0022V17.6137C9.25269 17.6137 7.73817 16.9808 6.52789 15.7171H6.52566ZM10.3959 21.3208C8.7046 21.2281 7.1431 20.7827 5.7449 19.9932C4.16774 19.1022 2.91496 17.8563 2.02235 16.2883C1.12527 14.7159 0.671134 12.9362 0.671134 11C0.671134 9.06375 1.12527 7.28629 2.02235 5.71171C2.91719 4.14374 4.16998 2.89775 5.7449 2.00682C7.14086 1.21732 8.70236 0.771852 10.3959 0.67923V3.76885C8.68671 3.90998 7.22363 4.60465 6.03796 5.8352C4.70912 7.21572 4.03799 8.95349 4.03799 11C4.03799 13.0465 4.71136 14.7865 6.03796 16.1714C7.22363 17.4086 8.68671 18.1032 10.3959 18.2466V21.3208Z" fill="black"/>
<path d="M121.581 0.297729H116.22L109.209 10.7001L101.76 21.7001H107.165L111.874 14.7005L114.63 10.6406L121.581 0.297729ZM111.317 14.3344L106.807 21.0385H103.017L109.771 11.0662L116.583 0.959317H120.332L114.075 10.2723L111.319 14.3344H111.317Z" fill="black"/>
<path d="M110.818 6.65779L106.547 0.297729H101.051L108.093 10.7023L110.818 6.65779Z" fill="black"/>
<path d="M115.75 10.6427L112.994 14.7026L117.732 21.7022H123.2L115.75 10.6427Z" fill="black"/>
</g>
<defs>
<clipPath id="clip0_254_8599">
<rect width="123.2" height="22" fill="white"/>
</clipPath>
</defs>
</svg>
