<svg width="86" height="24" viewBox="0 0 86 24" fill="none" xmlns="http://www.w3.org/2000/svg">
<path d="M32.2067 10.7839L34.7248 6.67871H37.008L33.8338 11.6632L37.1396 16.6478H34.8563L32.2067 12.5426L29.5704 16.6478H27.2871L30.5929 11.6632L27.4187 6.67871H29.7019L32.2067 10.7839Z" fill="white"/>
<path d="M45.9276 15.6919C45.8044 15.8134 45.6778 15.9234 45.5462 16.0199L46.8719 17.4489H44.3521L44.0374 17.0525L43.7892 16.7411C43.6044 16.7677 43.4162 16.781 43.2246 16.781H41.8873C41.7624 16.781 41.6409 16.776 41.5226 16.766C40.595 16.6894 39.7923 16.3081 39.1194 15.6269C38.3933 14.8925 38.0303 14.0131 38.0303 12.9906V10.3393C38.0303 9.27175 38.415 8.36911 39.1844 7.62468C39.9455 6.90689 40.8448 6.54883 41.8873 6.54883H42.3969C41.824 6.98849 41.5226 7.5947 41.5226 8.30582V8.31582C41.0846 8.40408 40.7199 8.65722 40.4301 9.08023C40.1686 9.45661 40.0371 9.87629 40.0371 10.3393V12.9889C40.0371 13.6717 40.2819 14.218 40.7715 14.6277C41.008 14.8209 41.2578 14.9474 41.5226 15.0074C41.6409 15.034 41.7624 15.0474 41.8873 15.0474H43.2246C43.5411 15.0474 43.8275 14.9724 44.0773 14.8225C44.2755 14.7043 44.4537 14.5411 44.6119 14.3296C44.6352 14.2979 44.6586 14.2663 44.6802 14.233C44.9333 13.8566 45.0599 13.4419 45.0599 12.9873V10.3393C45.0599 9.80468 44.91 9.35336 44.6119 8.98697C44.5253 8.88039 44.4254 8.78046 44.3138 8.6872C44.2372 8.62391 44.1589 8.56729 44.0773 8.51899C43.8159 8.36078 43.5311 8.28084 43.2246 8.28084H42.0572C42.0639 7.70795 42.317 7.2483 42.8183 6.90356C43.0764 6.72536 43.3545 6.61544 43.656 6.57048C44.5553 6.66041 45.3347 7.03846 45.9925 7.70295C46.1741 7.88614 46.3323 8.07933 46.4672 8.28084C46.5838 8.45238 46.682 8.63058 46.7653 8.81543C46.9751 9.28175 47.08 9.78969 47.08 10.3409V12.9906C47.0834 14.0465 46.697 14.9474 45.9276 15.6919Z" fill="white"/>
<path d="M48.6179 6.67871H50.638V12.8573C50.638 13.5485 50.8878 14.0997 51.3858 14.5094C51.7089 14.7809 52.0719 14.9158 52.4749 14.9158H53.5508C54.1537 14.9158 54.64 14.6493 55.0063 14.1164C55.2695 13.74 55.3994 13.3203 55.3994 12.8573V6.67871H57.4062V12.8573C57.4062 13.9249 57.0215 14.8292 56.2521 15.5719C55.491 16.2897 54.59 16.6478 53.5491 16.6478H52.4733C51.3891 16.6478 50.4665 16.2631 49.7054 15.4937C48.9793 14.7592 48.6162 13.8799 48.6162 12.8573V6.67871H48.6179Z" fill="white"/>
<path d="M67.1921 6.67871H59.085V8.41072H66.2478L67.1921 6.67871Z" fill="white"/>
<path d="M65.0771 10.8506H59.085V12.5826H65.0771V10.8506Z" fill="white"/>
<path d="M59.085 16.6473H67.1921L66.2478 14.917H59.085V16.6473Z" fill="white"/>
<path d="M68.3213 9.52488C68.3213 8.72049 68.6977 8.03768 69.4488 7.4781C70.1749 6.94517 71.0409 6.67871 72.0468 6.67871H73.3841C74.1968 6.67871 74.9846 6.8669 75.7457 7.24328C76.0604 7.40982 76.3136 7.58469 76.5067 7.76788L74.7497 9.11852C74.4616 8.71716 74.0669 8.484 73.569 8.42405C73.5074 8.41572 73.4457 8.41072 73.3858 8.41072H72.0485C71.3923 8.41072 70.8977 8.59392 70.5663 8.96197C70.418 9.14517 70.3431 9.33336 70.3431 9.52654C70.3431 9.86795 70.7062 10.1611 71.4323 10.4059C71.6604 10.4841 72.0435 10.5941 72.5864 10.734C73.8987 11.0754 74.8164 11.4068 75.341 11.7315C76.1986 12.2561 76.6316 12.9473 76.64 13.8049C76.64 14.601 76.2553 15.2788 75.4858 15.8384C74.7248 16.3813 73.8238 16.6511 72.7829 16.6511H71.4456C70.5979 16.6511 69.7752 16.4629 68.9791 16.0865C68.6461 15.92 68.3846 15.7451 68.1914 15.5619L69.9234 14.2246C70.2299 14.6093 70.6579 14.8375 71.2091 14.9074C71.2957 14.9158 71.3756 14.9208 71.4456 14.9208H72.7829C73.4907 14.9208 74.0253 14.7326 74.3834 14.3562C74.5416 14.1813 74.6198 13.9981 74.6198 13.8049C74.6198 13.4202 74.2568 13.1005 73.5307 12.8473C73.4258 12.804 72.7912 12.6242 71.6288 12.3094C70.2915 11.9514 69.3805 11.5184 68.9009 11.0104C68.5128 10.5874 68.3213 10.0944 68.3213 9.52488Z" fill="white"/>
<path d="M80.5398 6.67871L79.4639 8.41072H77.7119V6.67871H80.5398ZM82.4083 16.6478H80.3882V8.43737C80.3882 7.85115 80.6413 7.38317 81.1493 7.03344C81.4907 6.79695 81.8704 6.67871 82.2901 6.67871H85.2678V8.41072H82.4083V16.6478Z" fill="white"/>
<path d="M15.1692 6.37413C15.5606 5.67133 14.7945 5.69298 13.6753 6.01607C13.1341 6.106 12.6994 6.26754 12.348 6.46906C10.7759 7.07193 9.11548 7.89797 8.9073 8.13612C8.9073 8.13612 7.48672 8.30099 6.76893 10.1229C6.26931 11.3903 7.76151 12.606 11.6802 9.46011C13.667 7.96958 16.0952 7.03196 19.3194 10.9473C18.2585 9.33854 16.6731 7.22515 15.1692 6.37413Z" fill="#7835BA"/>
<mask id="mask0_2785_8153" style="mask-type:luminance" maskUnits="userSpaceOnUse" x="6" y="5" width="14" height="7">
<path d="M15.1692 6.37413C15.5606 5.67133 14.7945 5.69298 13.6753 6.01607C13.1341 6.106 12.6994 6.26754 12.348 6.46906C10.7759 7.07193 9.11548 7.89797 8.9073 8.13612C8.9073 8.13612 7.48672 8.30099 6.76893 10.1229C6.26931 11.3903 7.76151 12.606 11.6802 9.46011C13.667 7.96958 16.0952 7.03196 19.3194 10.9473C18.2585 9.33854 16.6731 7.22515 15.1692 6.37413Z" fill="white"/>
</mask>
<g mask="url(#mask0_2785_8153)">
<path opacity="0.39" d="M6.93359 9.79309C6.93359 9.79309 9.03033 7.58644 12.4527 7.6414C15.8735 7.69636 15.8735 10.0696 16.4264 10.9522C16.9776 11.8349 19.7921 11.8349 19.7921 11.8349L21.779 9.73814L20.0669 7.20007L16.2049 5.10333L12.4527 4.88184L8.75554 6.26079L6.93526 8.02611V9.79309H6.93359Z" fill="url(#paint0_linear_2785_8153)"/>
</g>
<path d="M19.3193 10.9502C20.0754 12.0993 20.5634 12.9936 20.5634 12.9936C20.1704 12.1743 19.7523 11.5014 19.3193 10.9502Z" fill="url(#paint1_linear_2785_8153)"/>
<path d="M9.74827 19.8921C9.74827 19.8921 8.36932 19.0644 8.12117 18.8162C7.80641 18.5015 6.37251 16.9826 7.40339 14.8975C8.75569 12.1663 13.4188 12.6343 15.2391 14.8975C17.0594 17.1608 17.9437 17.3257 19.8739 15.7802C21.8058 14.2347 20.0354 23.6442 9.74827 19.8921Z" fill="#7835BA"/>
<mask id="mask1_2785_8153" style="mask-type:luminance" maskUnits="userSpaceOnUse" x="7" y="13" width="14" height="8">
<path d="M9.74827 19.8921C9.74827 19.8921 8.36932 19.0644 8.12117 18.8162C7.80641 18.5015 6.37251 16.9826 7.40339 14.8975C8.75569 12.1663 13.4188 12.6343 15.2391 14.8975C17.0594 17.1608 17.9437 17.3257 19.8739 15.7802C21.8058 14.2347 20.0354 23.6442 9.74827 19.8921Z" fill="white"/>
</mask>
<g mask="url(#mask1_2785_8153)">
<path opacity="0.72" d="M7.76172 18.8981C7.76172 18.8981 15.8189 20.1672 15.8189 13.877L24.2625 14.7596L25.4216 18.7333L20.7318 23.2032L10.413 22.9817L8.58942 19.7258L7.76172 18.8981Z" fill="url(#paint2_linear_2785_8153)"/>
</g>
<mask id="mask2_2785_8153" style="mask-type:luminance" maskUnits="userSpaceOnUse" x="7" y="13" width="14" height="8">
<path d="M9.74827 19.8921C9.74827 19.8921 8.36932 19.0644 8.12117 18.8162C7.80641 18.5015 6.37251 16.9826 7.40339 14.8975C8.75569 12.1663 13.4188 12.6343 15.2391 14.8975C17.0594 17.1608 17.9437 17.3257 19.8739 15.7802C21.8058 14.2347 20.0354 23.6442 9.74827 19.8921Z" fill="white"/>
</mask>
<g mask="url(#mask2_2785_8153)">
<path opacity="0.14" d="M7.70688 18.4018C7.70688 18.4018 10.0251 20.2787 13.3359 19.7258C16.6467 19.1745 16.7017 16.0835 16.4819 15.5323C16.2604 14.981 21.558 15.091 21.558 15.091L22.882 17.0778L20.8402 21.0514L16.4802 23.2031L10.2999 22.7618L8.53459 20.0022L7.41211 17.8589" fill="url(#paint3_linear_2785_8153)"/>
</g>
<path d="M14.2469 5.24023C10.9145 5.24023 8.04833 7.23538 6.7793 10.0982C7.98005 8.36619 10.0118 7.22705 12.3167 7.22705C16.0039 7.22705 18.9933 10.1432 18.9933 13.7388C18.9933 17.3344 16.0039 20.2505 12.3167 20.2505C10.723 20.2505 9.26074 19.7059 8.11162 18.7966C9.60881 20.4986 11.8021 21.5745 14.2469 21.5745C18.7568 21.5745 22.4141 17.9172 22.4141 13.4073C22.4141 8.89745 18.7568 5.24023 14.2469 5.24023Z" fill="#7935BA"/>
<mask id="mask3_2785_8153" style="mask-type:luminance" maskUnits="userSpaceOnUse" x="6" y="5" width="17" height="17">
<path d="M14.2469 5.24023C10.9145 5.24023 8.04833 7.23538 6.7793 10.0982C7.98005 8.36619 10.0118 7.22705 12.3167 7.22705C16.0039 7.22705 18.9933 10.1432 18.9933 13.7388C18.9933 17.3344 16.0039 20.2505 12.3167 20.2505C10.723 20.2505 9.26074 19.7059 8.11162 18.7966C9.60881 20.4986 11.8021 21.5745 14.2469 21.5745C18.7568 21.5745 22.4141 17.9172 22.4141 13.4073C22.4141 8.89745 18.7568 5.24023 14.2469 5.24023Z" fill="white"/>
</mask>
<g mask="url(#mask3_2785_8153)">
<path opacity="0.44" d="M12.2871 20.2243C16.645 20.2243 20.1778 16.9137 20.1778 12.8299C20.1778 8.74612 16.645 5.43555 12.2871 5.43555C7.92925 5.43555 4.39648 8.74612 4.39648 12.8299C4.39648 16.9137 7.92925 20.2243 12.2871 20.2243Z" fill="url(#paint4_linear_2785_8153)"/>
</g>
<path d="M3.51482 20.4852C6.97719 23.9476 12.0283 24.8519 16.3217 23.1982C13.2757 23.7511 9.98156 22.8234 7.58672 20.4286C3.75464 16.5965 3.67803 10.4612 7.41518 6.72571C11.1523 2.99022 17.2877 3.06683 21.1181 6.89725C22.7735 8.55265 23.7278 10.6394 23.9759 12.7761C24.1907 9.45197 23.0266 6.05455 20.4869 3.51482C15.8005 -1.17161 8.20125 -1.17161 3.51482 3.51482C-1.17161 8.19959 -1.17161 15.7971 3.51482 20.4852Z" fill="url(#paint5_linear_2785_8153)"/>
<mask id="mask4_2785_8153" style="mask-type:luminance" maskUnits="userSpaceOnUse" x="0" y="0" width="25" height="24">
<path d="M3.51482 20.4852C6.97719 23.9476 12.0283 24.8519 16.3217 23.1982C13.2757 23.7511 9.98156 22.8234 7.58672 20.4286C3.75464 16.5965 3.67803 10.4612 7.41518 6.72571C11.1523 2.99022 17.2877 3.06683 21.1181 6.89725C22.7735 8.55265 23.7278 10.6394 23.9759 12.7761C24.1907 9.45197 23.0266 6.05455 20.4869 3.51482C15.8005 -1.17161 8.20125 -1.17161 3.51482 3.51482C-1.17161 8.19959 -1.17161 15.7971 3.51482 20.4852Z" fill="white"/>
</mask>
<g mask="url(#mask4_2785_8153)">
<path opacity="0.44" d="M5.23545 6.4376C9.47888 2.19416 16.5901 2.42565 21.1184 6.95387C25.6466 11.4821 25.8781 18.5933 21.6346 22.8368C17.3912 27.0802 10.2799 26.8487 5.75172 22.3205C1.2235 17.7906 0.992015 10.681 5.23545 6.4376Z" fill="url(#paint6_linear_2785_8153)"/>
</g>
<defs>
<linearGradient id="paint0_linear_2785_8153" x1="14.2086" y1="6.21414" x2="14.5652" y2="14.7891" gradientUnits="userSpaceOnUse">
<stop offset="0.00317383" stop-color="#234796" stop-opacity="0"/>
<stop offset="0.9968" stop-color="#263F6B"/>
</linearGradient>
<linearGradient id="paint1_linear_2785_8153" x1="19.913" y1="11.2696" x2="19.9928" y2="13.1882" gradientUnits="userSpaceOnUse">
<stop stop-color="#0172A6"/>
<stop offset="0.6756" stop-color="#47C5DC"/>
<stop offset="0.9992" stop-color="#65E8F3"/>
</linearGradient>
<linearGradient id="paint2_linear_2785_8153" x1="15.917" y1="16.6552" x2="19.2075" y2="22.6736" gradientUnits="userSpaceOnUse">
<stop offset="0.00317383" stop-color="#234796" stop-opacity="0"/>
<stop offset="0.9968" stop-color="#263F6B"/>
</linearGradient>
<linearGradient id="paint3_linear_2785_8153" x1="15.2252" y1="16.7523" x2="14.4713" y2="23.7265" gradientUnits="userSpaceOnUse">
<stop offset="0.00317383" stop-color="#234796" stop-opacity="0"/>
<stop offset="0.9968" stop-color="#263F6B"/>
</linearGradient>
<linearGradient id="paint4_linear_2785_8153" x1="13.0807" y1="21.3658" x2="11.6213" y2="5.65112" gradientUnits="userSpaceOnUse">
<stop offset="0.00317383" stop-color="#FCC100" stop-opacity="0"/>
<stop offset="0.6695" stop-color="#FD714B" stop-opacity="0.6684"/>
<stop offset="1" stop-color="#FD4E6B"/>
</linearGradient>
<linearGradient id="paint5_linear_2785_8153" x1="19.7005" y1="3.57254" x2="3.12732" y2="20.1458" gradientUnits="userSpaceOnUse">
<stop stop-color="#832BC1"/>
<stop offset="1" stop-color="#002AA7"/>
</linearGradient>
<linearGradient id="paint6_linear_2785_8153" x1="21.4807" y1="4.94242" x2="6.66883" y2="22.7871" gradientUnits="userSpaceOnUse">
<stop offset="0.00317383" stop-color="#FCC100" stop-opacity="0"/>
<stop offset="0.6695" stop-color="#FD714B" stop-opacity="0.6684"/>
<stop offset="1" stop-color="#FD4E6B"/>
</linearGradient>
</defs>
</svg>
