<svg width="90" height="40" viewBox="0 0 90 40" fill="none" xmlns="http://www.w3.org/2000/svg">
<g clip-path="url(#clip0_1960_326258)">
<path d="M32.2063 18.7843L34.7244 14.6791H37.0076L33.8334 19.6636L37.1392 24.6481H34.8559L32.2063 20.5429L29.57 24.6481H27.2867L30.5925 19.6636L27.4183 14.6791H29.7015L32.2063 18.7843Z" fill="#9B9B9B"/>
<path d="M45.9275 23.6922C45.8043 23.8138 45.6777 23.9237 45.5461 24.0203L46.8718 25.4492H44.352L44.0373 25.0529L43.7891 24.7414C43.6043 24.7681 43.4161 24.7814 43.2246 24.7814H41.8873C41.7624 24.7814 41.6408 24.7764 41.5225 24.7664C40.5949 24.6898 39.7922 24.3084 39.1194 23.6273C38.3933 22.8928 38.0302 22.0135 38.0302 20.991V18.3396C38.0302 17.2721 38.4149 16.3695 39.1843 15.625C39.9454 14.9073 40.8447 14.5492 41.8873 14.5492H42.3969C41.824 14.9889 41.5225 15.5951 41.5225 16.3062V16.3162C41.0845 16.4044 40.7198 16.6576 40.43 17.0806C40.1686 17.457 40.037 17.8767 40.037 18.3396V20.9893C40.037 21.6721 40.2818 22.2184 40.7714 22.628C41.0079 22.8212 41.2577 22.9478 41.5225 23.0078C41.6408 23.0344 41.7624 23.0477 41.8873 23.0477H43.2246C43.541 23.0477 43.8274 22.9728 44.0773 22.8229C44.2754 22.7046 44.4536 22.5414 44.6119 22.3299C44.6352 22.2983 44.6585 22.2666 44.6801 22.2333C44.9333 21.857 45.0598 21.4423 45.0598 20.9876V18.3396C45.0598 17.805 44.91 17.3537 44.6119 16.9873C44.5252 16.8808 44.4253 16.7808 44.3137 16.6876C44.2371 16.6243 44.1589 16.5677 44.0773 16.5194C43.8158 16.3611 43.531 16.2812 43.2246 16.2812H42.0571C42.0638 15.7083 42.3169 15.2487 42.8182 14.9039C43.0764 14.7257 43.3545 14.6158 43.6559 14.5708C44.5552 14.6608 45.3346 15.0388 45.9925 15.7033C46.174 15.8865 46.3322 16.0797 46.4671 16.2812C46.5837 16.4527 46.6819 16.6309 46.7652 16.8158C46.975 17.2821 47.08 17.7901 47.08 18.3413V20.991C47.0833 22.0468 46.6969 22.9478 45.9275 23.6922Z" fill="#9B9B9B"/>
<path d="M48.6171 14.6791H50.6373V20.8577C50.6373 21.5488 50.8871 22.1001 51.385 22.5098C51.7081 22.7812 52.0712 22.9161 52.4742 22.9161H53.55C54.1529 22.9161 54.6392 22.6497 55.0056 22.1167C55.2687 21.7404 55.3986 21.3207 55.3986 20.8577V14.6791H57.4054V20.8577C57.4054 21.9252 57.0207 22.8295 56.2513 23.5723C55.4902 24.2901 54.5893 24.6481 53.5484 24.6481H52.4725C51.3884 24.6481 50.4657 24.2634 49.7046 23.494C48.9785 22.7596 48.6155 21.8803 48.6155 20.8577V14.6791H48.6171Z" fill="#9B9B9B"/>
<path d="M67.1913 14.6791H59.0842V16.4111H66.247L67.1913 14.6791Z" fill="#9B9B9B"/>
<path d="M65.0763 18.851H59.0842V20.583H65.0763V18.851Z" fill="#9B9B9B"/>
<path d="M59.0842 24.6482H67.1913L66.247 22.9178H59.0842V24.6482Z" fill="#9B9B9B"/>
<path d="M68.3205 17.5252C68.3205 16.7209 68.6968 16.038 69.4479 15.4785C70.174 14.9455 71.04 14.6791 72.0459 14.6791H73.3833C74.196 14.6791 74.9837 14.8673 75.7448 15.2436C76.0596 15.4102 76.3127 15.5851 76.5059 15.7682L74.7489 17.1189C74.4608 16.7175 74.0661 16.4844 73.5681 16.4244C73.5065 16.4161 73.4449 16.4111 73.3849 16.4111H72.0476C71.3914 16.4111 70.8968 16.5943 70.5654 16.9623C70.4172 17.1455 70.3422 17.3337 70.3422 17.5269C70.3422 17.8683 70.7053 18.1614 71.4314 18.4062C71.6596 18.4845 72.0426 18.5944 72.5855 18.7343C73.8979 19.0757 74.8155 19.4071 75.3401 19.7319C76.1978 20.2565 76.6308 20.9476 76.6391 21.8053C76.6391 22.6014 76.2544 23.2792 75.485 23.8388C74.7239 24.3817 73.8229 24.6515 72.7821 24.6515H71.4447C70.5971 24.6515 69.7743 24.4633 68.9783 24.0869C68.6452 23.9204 68.3837 23.7455 68.1906 23.5623L69.9226 22.225C70.229 22.6097 70.657 22.8379 71.2083 22.9078C71.2949 22.9161 71.3748 22.9211 71.4447 22.9211H72.7821C73.4899 22.9211 74.0244 22.7329 74.3825 22.3566C74.5407 22.1817 74.619 21.9985 74.619 21.8053C74.619 21.4206 74.2559 21.1009 73.5298 20.8477C73.4249 20.8044 72.7904 20.6245 71.6279 20.3098C70.2906 19.9517 69.3796 19.5187 68.9 19.0108C68.512 18.5878 68.3205 18.0948 68.3205 17.5252Z" fill="#9B9B9B"/>
<path d="M80.5395 14.6791L79.4636 16.4111H77.7116V14.6791H80.5395ZM82.4081 24.6481H80.3879V16.4377C80.3879 15.8515 80.6411 15.3835 81.149 15.0338C81.4904 14.7973 81.8701 14.6791 82.2898 14.6791H85.2675V16.4111H82.4081V24.6481Z" fill="#9B9B9B"/>
<path d="M15.1693 14.3743C15.5606 13.6715 14.7946 13.6931 13.6754 14.0162C13.1342 14.1061 12.6995 14.2677 12.3481 14.4692C10.7759 15.0721 9.11555 15.8981 8.90737 16.1362C8.90737 16.1362 7.48679 16.3011 6.769 18.1231C6.26938 19.3904 7.76158 20.6062 11.6803 17.4602C13.6671 15.9697 16.0952 15.0321 19.3194 18.9474C18.2586 17.3387 16.6731 15.2253 15.1693 14.3743Z" fill="#7835BA"/>
<mask id="mask0_1960_326258" style="mask-type:luminance" maskUnits="userSpaceOnUse" x="6" y="13" width="14" height="7">
<path d="M15.1693 14.3743C15.5606 13.6715 14.7946 13.6931 13.6754 14.0162C13.1342 14.1061 12.6995 14.2677 12.3481 14.4692C10.7759 15.0721 9.11555 15.8981 8.90737 16.1362C8.90737 16.1362 7.48679 16.3011 6.769 18.1231C6.26938 19.3904 7.76158 20.6062 11.6803 17.4602C13.6671 15.9697 16.0952 15.0321 19.3194 18.9474C18.2586 17.3387 16.6731 15.2253 15.1693 14.3743Z" fill="white"/>
</mask>
<g mask="url(#mask0_1960_326258)">
<path opacity="0.39" d="M6.93388 17.7933C6.93388 17.7933 9.03061 15.5867 12.453 15.6416C15.8737 15.6966 15.8737 18.0698 16.4266 18.9525C16.9779 19.8351 19.7924 19.8351 19.7924 19.8351L21.7792 17.7384L20.0672 15.2003L16.2051 13.1036L12.453 12.8821L8.75582 14.261L6.93554 16.0264V17.7933H6.93388Z" fill="url(#paint0_linear_1960_326258)"/>
</g>
<path d="M19.3194 18.9508C20.0755 20.0999 20.5635 20.9942 20.5635 20.9942C20.1705 20.1749 19.7524 19.5021 19.3194 18.9508Z" fill="url(#paint1_linear_1960_326258)"/>
<path d="M9.7484 27.8923C9.7484 27.8923 8.36945 27.0646 8.1213 26.8165C7.80654 26.5017 6.37264 24.9829 7.40352 22.8978C8.75582 20.1665 13.4189 20.6345 15.2392 22.8978C17.0595 25.1611 17.9438 25.3259 19.874 23.7805C21.8059 22.235 20.0356 31.6445 9.7484 27.8923Z" fill="#7835BA"/>
<mask id="mask1_1960_326258" style="mask-type:luminance" maskUnits="userSpaceOnUse" x="7" y="21" width="14" height="8">
<path d="M9.7484 27.8923C9.7484 27.8923 8.36945 27.0646 8.1213 26.8165C7.80654 26.5017 6.37264 24.9829 7.40352 22.8978C8.75582 20.1665 13.4189 20.6345 15.2392 22.8978C17.0595 25.1611 17.9438 25.3259 19.874 23.7805C21.8059 22.235 20.0356 31.6445 9.7484 27.8923Z" fill="white"/>
</mask>
<g mask="url(#mask1_1960_326258)">
<path opacity="0.72" d="M7.76158 26.8981C7.76158 26.8981 15.8188 28.1672 15.8188 21.877L24.2623 22.7596L25.4215 26.7333L20.7317 31.2032L10.4129 30.9817L8.58928 27.7258L7.76158 26.8981Z" fill="url(#paint2_linear_1960_326258)"/>
</g>
<mask id="mask2_1960_326258" style="mask-type:luminance" maskUnits="userSpaceOnUse" x="7" y="21" width="14" height="8">
<path d="M9.7484 27.8923C9.7484 27.8923 8.36945 27.0646 8.1213 26.8165C7.80654 26.5017 6.37264 24.9829 7.40352 22.8978C8.75582 20.1665 13.4189 20.6345 15.2392 22.8978C17.0595 25.1611 17.9438 25.3259 19.874 23.7805C21.8059 22.235 20.0356 31.6445 9.7484 27.8923Z" fill="white"/>
</mask>
<g mask="url(#mask2_1960_326258)">
<path opacity="0.14" d="M7.70662 26.4018C7.70662 26.4018 10.0249 28.2787 13.3357 27.7258C16.6465 27.1745 16.7014 24.0835 16.4816 23.5323C16.2601 22.981 21.5577 23.091 21.5577 23.091L22.8817 25.0778L20.8399 29.0514L16.4799 31.2031L10.2996 30.7618L8.53432 28.0022L7.41184 25.8589" fill="url(#paint3_linear_1960_326258)"/>
</g>
<path d="M14.2466 13.2402C10.9142 13.2402 8.04803 15.2354 6.779 18.0982C7.97975 16.3662 10.0115 15.2271 12.3164 15.2271C16.0036 15.2271 18.993 18.1432 18.993 21.7388C18.993 25.3344 16.0036 28.2505 12.3164 28.2505C10.7227 28.2505 9.26044 27.7059 8.11132 26.7966C9.60851 28.4986 11.8018 29.5745 14.2466 29.5745C18.7565 29.5745 22.4138 25.9172 22.4138 21.4073C22.4138 16.8974 18.7565 13.2402 14.2466 13.2402Z" fill="#7935BA"/>
<mask id="mask3_1960_326258" style="mask-type:luminance" maskUnits="userSpaceOnUse" x="6" y="13" width="17" height="17">
<path d="M14.2466 13.2402C10.9142 13.2402 8.04803 15.2354 6.779 18.0982C7.97975 16.3662 10.0115 15.2271 12.3164 15.2271C16.0036 15.2271 18.993 18.1432 18.993 21.7388C18.993 25.3344 16.0036 28.2505 12.3164 28.2505C10.7227 28.2505 9.26044 27.7059 8.11132 26.7966C9.60851 28.4986 11.8018 29.5745 14.2466 29.5745C18.7565 29.5745 22.4138 25.9172 22.4138 21.4073C22.4138 16.8974 18.7565 13.2402 14.2466 13.2402Z" fill="white"/>
</mask>
<g mask="url(#mask3_1960_326258)">
<path opacity="0.44" d="M12.2865 28.2238C16.6444 28.2238 20.1771 24.9132 20.1771 20.8294C20.1771 16.7456 16.6444 13.4351 12.2865 13.4351C7.92858 13.4351 4.39581 16.7456 4.39581 20.8294C4.39581 24.9132 7.92858 28.2238 12.2865 28.2238Z" fill="url(#paint4_linear_1960_326258)"/>
</g>
<path d="M3.51481 28.4852C6.97718 31.9476 12.0283 32.8519 16.3217 31.1982C13.2757 31.7511 9.98156 30.8234 7.58671 28.4286C3.75463 24.5965 3.67802 18.4612 7.41518 14.7257C11.1523 10.9902 17.2877 11.0668 21.1181 14.8972C22.7735 16.5527 23.7278 18.6394 23.9759 20.7761C24.1907 17.452 23.0266 14.0546 20.4869 11.5148C15.8005 6.82839 8.20124 6.82839 3.51481 11.5148C-1.17162 16.1996 -1.17162 23.7971 3.51481 28.4852Z" fill="url(#paint5_linear_1960_326258)"/>
<mask id="mask4_1960_326258" style="mask-type:luminance" maskUnits="userSpaceOnUse" x="0" y="8" width="25" height="24">
<path d="M3.51481 28.4852C6.97718 31.9476 12.0283 32.8519 16.3217 31.1982C13.2757 31.7511 9.98156 30.8234 7.58671 28.4286C3.75463 24.5965 3.67802 18.4612 7.41518 14.7257C11.1523 10.9902 17.2877 11.0668 21.1181 14.8972C22.7735 16.5527 23.7278 18.6394 23.9759 20.7761C24.1907 17.452 23.0266 14.0546 20.4869 11.5148C15.8005 6.82839 8.20124 6.82839 3.51481 11.5148C-1.17162 16.1996 -1.17162 23.7971 3.51481 28.4852Z" fill="white"/>
</mask>
<g mask="url(#mask4_1960_326258)">
<path opacity="0.44" d="M5.23517 14.4376C9.47861 10.1942 16.5899 10.4257 21.1181 14.9539C25.6463 19.4821 25.8778 26.5933 21.6343 30.8368C17.3909 35.0802 10.2797 34.8487 5.75145 30.3205C1.22323 25.7906 0.99174 18.681 5.23517 14.4376Z" fill="url(#paint6_linear_1960_326258)"/>
</g>
</g>
<defs>
<linearGradient id="paint0_linear_1960_326258" x1="14.2088" y1="14.2144" x2="14.5655" y2="22.7893" gradientUnits="userSpaceOnUse">
<stop offset="0.00317383" stop-color="#234796" stop-opacity="0"/>
<stop offset="0.9968" stop-color="#263F6B"/>
</linearGradient>
<linearGradient id="paint1_linear_1960_326258" x1="19.9131" y1="19.2702" x2="19.9929" y2="21.1888" gradientUnits="userSpaceOnUse">
<stop stop-color="#0172A6"/>
<stop offset="0.6756" stop-color="#47C5DC"/>
<stop offset="0.9992" stop-color="#65E8F3"/>
</linearGradient>
<linearGradient id="paint2_linear_1960_326258" x1="15.9168" y1="24.6552" x2="19.2073" y2="30.6736" gradientUnits="userSpaceOnUse">
<stop offset="0.00317383" stop-color="#234796" stop-opacity="0"/>
<stop offset="0.9968" stop-color="#263F6B"/>
</linearGradient>
<linearGradient id="paint3_linear_1960_326258" x1="15.2249" y1="24.7523" x2="14.471" y2="31.7265" gradientUnits="userSpaceOnUse">
<stop offset="0.00317383" stop-color="#234796" stop-opacity="0"/>
<stop offset="0.9968" stop-color="#263F6B"/>
</linearGradient>
<linearGradient id="paint4_linear_1960_326258" x1="13.08" y1="29.3653" x2="11.6206" y2="13.6506" gradientUnits="userSpaceOnUse">
<stop offset="0.00317383" stop-color="#FCC100" stop-opacity="0"/>
<stop offset="0.6695" stop-color="#FD714B" stop-opacity="0.6684"/>
<stop offset="1" stop-color="#FD4E6B"/>
</linearGradient>
<linearGradient id="paint5_linear_1960_326258" x1="19.7005" y1="11.5725" x2="3.12731" y2="28.1458" gradientUnits="userSpaceOnUse">
<stop stop-color="#832BC1"/>
<stop offset="1" stop-color="#002AA7"/>
</linearGradient>
<linearGradient id="paint6_linear_1960_326258" x1="21.4804" y1="12.9424" x2="6.66856" y2="30.7871" gradientUnits="userSpaceOnUse">
<stop offset="0.00317383" stop-color="#FCC100" stop-opacity="0"/>
<stop offset="0.6695" stop-color="#FD714B" stop-opacity="0.6684"/>
<stop offset="1" stop-color="#FD4E6B"/>
</linearGradient>
<clipPath id="clip0_1960_326258">
<rect width="90" height="40" fill="white"/>
</clipPath>
</defs>
</svg>
