<svg width="96" height="97" viewBox="0 0 96 97" fill="none" xmlns="http://www.w3.org/2000/svg">
<g clip-path="url(#clip0_2714_33923)">
<path d="M59.265 89.3605C59.83 89.2898 60.0419 89.3605 60.2538 89.2898C73.1787 81.5059 81.9366 70.467 85.2562 55.607C86.1037 51.8566 85.9625 47.9646 84.9737 44.1435C82.9254 35.9351 76.0745 30.2741 67.6697 29.7787C63.2908 29.4957 59.0531 29.991 55.2391 32.3969C54.9566 34.449 54.7448 36.5011 54.321 38.4117C53.6147 41.5253 51.9902 44.0727 49.0945 45.6295C46.9756 46.8324 44.8568 46.8324 43.7267 45.7002C42.2435 44.2142 42.2435 42.2329 43.1617 40.6054C44.433 38.341 45.9868 36.2181 47.6113 34.2368C48.6707 32.963 50.0833 31.9016 51.3546 30.8402C50.1539 22.844 42.5967 19.4475 33.5563 22.7733C33.2737 23.9055 32.9912 25.1084 32.6381 26.2406C31.2255 30.4156 28.6123 33.5999 24.3746 35.0859C22.7501 35.652 20.9844 35.8643 19.5718 34.3783C18.5124 33.2461 18.5124 31.2647 19.6425 29.2834C21.4788 26.1699 24.2333 23.9762 27.1997 22.0657C28.2591 21.4288 29.3186 20.7919 30.378 20.2258C28.9654 7.84244 17.8768 -0.932077 7 4.02128C7.07063 3.10137 7 2.32299 7.28251 1.89841C7.63565 1.40308 8.41256 1.12003 9.04822 0.978504C15.0516 -0.153692 20.6313 0.55393 25.2221 4.94119C28.6829 8.19625 31.0136 12.1589 32.5675 16.6877C32.7793 17.3246 32.9912 17.9614 33.2737 18.5983C33.2737 18.6691 33.415 18.7398 33.6975 18.9521C34.3332 18.8814 35.1101 18.8814 35.887 18.7398C45.3512 17.2538 50.2952 19.8013 54.6741 28.6465C55.5217 28.3635 56.5105 28.0804 57.4286 27.7266C62.867 25.8868 68.3054 25.7453 73.8144 27.5851C82.7842 30.5571 88.5757 38.2702 89.2114 48.0354C89.5645 53.3426 88.6463 58.4374 86.7394 63.3908C82.0779 75.3496 74.45 84.761 63.0083 90.9173C62.4432 91.2711 61.8076 91.5542 61.2425 91.908C61.1719 91.9788 61.1013 92.1203 60.8894 92.5449C63.2908 93.111 65.5509 92.8987 67.811 92.7571C70.0005 92.6864 72.2606 92.4741 74.6619 92.3326C74.45 94.1724 73.4613 94.88 72.2606 95.3046C70.848 95.7291 69.4354 96.2952 68.0229 96.366C64.2089 96.5075 60.3244 96.5783 56.4398 96.366C53.4028 96.1537 52.5553 94.5262 53.8972 92.0495C56.793 86.8131 59.7594 81.5767 62.7257 76.3403C63.2201 75.4911 63.8558 74.7835 64.6327 73.7929C65.9747 75.3496 65.4096 76.4818 64.9152 77.5433C62.9376 81.3644 61.1719 85.1856 59.265 89.3605ZM21.6907 32.2554C26.564 31.6186 29.6011 28.505 29.8129 24.1178C26.564 26.2406 23.4564 28.1512 21.6907 32.2554ZM45.5631 43.2236C49.7301 42.2329 51.7077 39.4024 51.284 35.0859C48.6001 37.3503 46.2694 39.4732 45.5631 43.2236Z" fill="white"/>
</g>
<defs>
<clipPath id="clip0_2714_33923">
<rect width="96" height="96" fill="white" transform="translate(0 0.5)"/>
</clipPath>
</defs>
</svg>
