<svg width="48" height="48" viewBox="0 0 48 48" fill="none" xmlns="http://www.w3.org/2000/svg">
<mask id="mask0_334_3221" style="mask-type:alpha" maskUnits="userSpaceOnUse" x="0" y="0" width="48" height="48">
<circle cx="24" cy="24" r="24" fill="#EAEAEA"/>
</mask>
<g mask="url(#mask0_334_3221)">
<circle cx="24" cy="24" r="24" fill="#D0D4E0"/>
<path d="M27.2752 26.6638H20.8825C17.0639 26.6638 13.957 29.7707 13.957 33.5892V34.6547C13.957 34.8864 14.1067 35.0915 14.3273 35.1624C14.4668 35.2066 17.8081 36.2529 24.0788 36.2529C30.3495 36.2529 33.6908 35.2066 33.8303 35.1624C34.0509 35.0915 34.2006 34.8864 34.2006 34.6547V33.5892C34.2006 29.7707 31.0937 26.6638 27.2752 26.6638Z" fill="white"/>
<path d="M24.0797 24.5326C27.3799 24.5326 29.9397 20.8099 29.9397 17.6072C29.9397 14.3762 27.3107 11.7472 24.0797 11.7472C20.8487 11.7472 18.2197 14.3762 18.2197 17.6072C18.2197 20.8099 20.7795 24.5326 24.0797 24.5326Z" fill="white"/>
</g>
</svg>
