<svg width="1920" height="1200" viewBox="0 0 1920 1200" fill="none" xmlns="http://www.w3.org/2000/svg">
<g opacity="0.05">
<path d="M1297.98 -0.108444C1339.72 -75.0704 1258.01 -72.7611 1138.64 -38.2999C1080.91 -28.7076 1034.55 -11.4771 997.066 10.0167C829.379 74.3206 652.277 162.428 630.072 187.829C630.072 187.829 478.55 205.415 401.989 399.748C348.698 534.928 507.859 664.602 925.835 329.049C1137.75 170.066 1396.74 70.0574 1740.65 487.677C1627.49 316.082 1458.38 90.663 1297.98 -0.108444Z" fill="#7835BA"/>
<mask id="mask0_2571_183624" style="mask-type:luminance" maskUnits="userSpaceOnUse" x="392" y="-62" width="1349" height="604">
<path d="M1297.98 -0.108444C1339.72 -75.0704 1258.01 -72.7611 1138.64 -38.2999C1080.91 -28.7076 1034.55 -11.4771 997.066 10.0167C829.379 74.3206 652.277 162.428 630.072 187.829C630.072 187.829 478.55 205.415 401.989 399.748C348.698 534.928 507.859 664.602 925.835 329.049C1137.75 170.066 1396.74 70.0574 1740.65 487.677C1627.49 316.082 1458.38 90.663 1297.98 -0.108444Z" fill="white"/>
</mask>
<g mask="url(#mask0_2571_183624)">
<path opacity="0.39" d="M419.552 364.579C419.552 364.579 643.195 129.213 1008.23 135.074C1373.1 140.936 1373.1 394.066 1432.07 488.213C1490.87 582.359 1791.07 582.359 1791.07 582.359L2002.99 358.717L1820.38 88.0012L1408.45 -135.641L1008.23 -159.267L613.885 -12.185L419.73 176.108V364.579H419.552Z" fill="url(#paint0_linear_2571_183624)"/>
</g>
<path d="M1740.64 488.037C1821.29 610.605 1873.34 705.995 1873.34 705.995C1831.41 618.599 1786.83 546.834 1740.64 488.037Z" fill="url(#paint1_linear_2571_183624)"/>
<path d="M719.772 1441.76C719.772 1441.76 572.69 1353.47 546.222 1327.01C512.649 1293.43 359.705 1131.43 469.661 909.031C613.901 617.71 1111.28 667.625 1305.43 909.031C1499.59 1150.44 1593.91 1168.02 1799.79 1003.18C2005.85 838.332 1817.02 1841.97 719.772 1441.76Z" fill="#7835BA"/>
<mask id="mask1_2571_183624" style="mask-type:luminance" maskUnits="userSpaceOnUse" x="430" y="708" width="1444" height="829">
<path d="M719.772 1441.76C719.772 1441.76 572.69 1353.47 546.222 1327.01C512.649 1293.43 359.705 1131.43 469.661 909.031C613.901 617.71 1111.28 667.625 1305.43 909.031C1499.59 1150.44 1593.91 1168.02 1799.79 1003.18C2005.85 838.332 1817.02 1841.97 719.772 1441.76Z" fill="white"/>
</mask>
<g mask="url(#mask1_2571_183624)">
<path opacity="0.72" d="M507.83 1335.72C507.83 1335.72 1367.23 1471.07 1367.23 800.146L2267.84 894.293L2391.47 1318.13L1891.25 1794.9L790.624 1771.28L596.114 1424L507.83 1335.72Z" fill="url(#paint2_linear_2571_183624)"/>
</g>
<mask id="mask2_2571_183624" style="mask-type:luminance" maskUnits="userSpaceOnUse" x="430" y="708" width="1444" height="829">
<path d="M719.772 1441.76C719.772 1441.76 572.69 1353.47 546.222 1327.01C512.649 1293.43 359.705 1131.43 469.661 909.031C613.901 617.71 1111.28 667.625 1305.43 909.031C1499.59 1150.44 1593.91 1168.02 1799.79 1003.18C2005.85 838.332 1817.02 1841.97 719.772 1441.76Z" fill="white"/>
</mask>
<g mask="url(#mask2_2571_183624)">
<path opacity="0.14" d="M501.981 1282.77C501.981 1282.77 749.249 1482.97 1102.39 1423.99C1455.53 1365.2 1461.39 1035.51 1437.94 976.709C1414.31 917.911 1979.37 929.635 1979.37 929.635L2120.59 1141.55L1902.81 1565.39L1437.76 1794.9L778.559 1747.82L590.266 1453.48L470.54 1224.86" fill="url(#paint3_linear_2571_183624)"/>
</g>
<path d="M1199.56 -121.065C844.11 -121.065 538.4 91.7415 403.042 397.096C531.117 212.356 747.832 90.8533 993.679 90.8533C1386.96 90.8533 1705.82 401.892 1705.82 785.406C1705.82 1168.92 1386.96 1479.96 993.679 1479.96C823.682 1479.96 667.719 1421.87 545.15 1324.88C704.844 1506.43 938.79 1621.18 1199.56 1621.18C1680.59 1621.18 2070.68 1231.09 2070.68 750.057C2070.68 269.021 1680.59 -121.065 1199.56 -121.065Z" fill="#7935BA"/>
<mask id="mask3_2571_183624" style="mask-type:luminance" maskUnits="userSpaceOnUse" x="403" y="-122" width="1668" height="1744">
<path d="M1199.56 -121.065C844.11 -121.065 538.4 91.7415 403.042 397.096C531.117 212.356 747.832 90.8533 993.679 90.8533C1386.96 90.8533 1705.82 401.892 1705.82 785.406C1705.82 1168.92 1386.96 1479.96 993.679 1479.96C823.682 1479.96 667.719 1421.87 545.15 1324.88C704.844 1506.43 938.79 1621.18 1199.56 1621.18C1680.59 1621.18 2070.68 1231.09 2070.68 750.057C2070.68 269.021 1680.59 -121.065 1199.56 -121.065Z" fill="white"/>
</mask>
<g mask="url(#mask3_2571_183624)">
<path opacity="0.44" d="M990.469 1477.11C1455.29 1477.11 1832.1 1124 1832.1 688.414C1832.1 252.828 1455.29 -100.285 990.469 -100.285C525.647 -100.285 148.834 252.828 148.834 688.414C148.834 1124 525.647 1477.11 990.469 1477.11Z" fill="url(#paint4_linear_2571_183624)"/>
</g>
<path d="M54.8986 1505C424.202 1874.3 962.969 1970.76 1420.91 1794.37C1096.02 1853.34 744.655 1754.4 489.216 1498.96C80.4781 1090.22 72.3069 435.814 470.92 37.3789C869.533 -361.056 1523.94 -352.885 1932.5 55.6753C2109.07 232.244 2210.85 454.821 2237.32 682.727C2260.24 328.167 2136.07 -34.208 1865.18 -305.101C1365.31 -804.966 554.763 -804.966 54.8986 -305.101C-444.966 194.586 -444.966 1004.96 54.8986 1505Z" fill="url(#paint5_linear_2571_183624)"/>
<mask id="mask4_2571_183624" style="mask-type:luminance" maskUnits="userSpaceOnUse" x="-320" y="-680" width="2560" height="2560">
<path d="M54.8986 1505C424.202 1874.3 962.969 1970.76 1420.91 1794.37C1096.02 1853.34 744.655 1754.4 489.216 1498.96C80.4781 1090.22 72.3069 435.814 470.92 37.3789C869.533 -361.056 1523.94 -352.885 1932.5 55.6753C2109.07 232.244 2210.85 454.821 2237.32 682.727C2260.24 328.167 2136.07 -34.208 1865.18 -305.101C1365.31 -804.966 554.763 -804.966 54.8986 -305.101C-444.966 194.586 -444.966 1004.96 54.8986 1505Z" fill="white"/>
</mask>
<g mask="url(#mask4_2571_183624)">
<path opacity="0.44" d="M238.372 6.64825C690.986 -445.966 1449.49 -421.274 1932.48 61.7151C2415.47 544.705 2440.16 1303.21 1987.54 1755.82C1534.93 2208.43 776.429 2183.74 293.439 1700.75C-189.551 1217.59 -214.242 459.262 238.372 6.64825Z" fill="url(#paint6_linear_2571_183624)"/>
</g>
</g>
<defs>
<linearGradient id="paint0_linear_2571_183624" x1="1195.52" y1="-17.1605" x2="1233.56" y2="897.459" gradientUnits="userSpaceOnUse">
<stop offset="0.00317383" stop-color="#234796" stop-opacity="0"/>
<stop offset="0.9968" stop-color="#263F6B"/>
</linearGradient>
<linearGradient id="paint1_linear_2571_183624" x1="1803.96" y1="522.107" x2="1812.47" y2="726.746" gradientUnits="userSpaceOnUse">
<stop stop-color="#0172A6"/>
<stop offset="0.6756" stop-color="#47C5DC"/>
<stop offset="0.9992" stop-color="#65E8F3"/>
</linearGradient>
<linearGradient id="paint2_linear_2571_183624" x1="1377.69" y1="1096.48" x2="1728.66" y2="1738.42" gradientUnits="userSpaceOnUse">
<stop offset="0.00317383" stop-color="#234796" stop-opacity="0"/>
<stop offset="0.9968" stop-color="#263F6B"/>
</linearGradient>
<linearGradient id="paint3_linear_2571_183624" x1="1303.9" y1="1106.84" x2="1223.49" y2="1850.72" gradientUnits="userSpaceOnUse">
<stop offset="0.00317383" stop-color="#234796" stop-opacity="0"/>
<stop offset="0.9968" stop-color="#263F6B"/>
</linearGradient>
<linearGradient id="paint4_linear_2571_183624" x1="1075.11" y1="1598.87" x2="919.445" y2="-77.2918" gradientUnits="userSpaceOnUse">
<stop offset="0.00317383" stop-color="#FCC100" stop-opacity="0"/>
<stop offset="0.6695" stop-color="#FD714B" stop-opacity="0.6684"/>
<stop offset="1" stop-color="#FD4E6B"/>
</linearGradient>
<linearGradient id="paint5_linear_2571_183624" x1="1781.3" y1="-298.945" x2="13.5665" y2="1468.79" gradientUnits="userSpaceOnUse">
<stop stop-color="#832BC1"/>
<stop offset="1" stop-color="#001BA7"/>
</linearGradient>
<linearGradient id="paint6_linear_2571_183624" x1="1971.13" y1="-152.83" x2="391.26" y2="1750.52" gradientUnits="userSpaceOnUse">
<stop offset="0.00317383" stop-color="#FCC100" stop-opacity="0"/>
<stop offset="0.6695" stop-color="#FD714B" stop-opacity="0.6684"/>
<stop offset="1" stop-color="#FD4E6B"/>
</linearGradient>
</defs>
</svg>
