<svg width="1920" height="1200" viewBox="0 0 1920 1200" fill="none" xmlns="http://www.w3.org/2000/svg">
<g filter="url(#filter0_f_2677_235851)">
<circle cx="21.3333" cy="21.3333" r="21.3333" transform="matrix(-0.996633 0.0819866 -0.569319 -0.822117 411.968 1143.51)" fill="#FFCC00"/>
<g filter="url(#filter1_dd_2677_235851)">
<path d="M391.841 1129.45L379.192 1121.63C378.778 1121.37 378.251 1121.39 378.132 1121.66L377.052 1124.1C376.946 1124.34 376.511 1124.38 376.111 1124.19L366.051 1119.41C365.354 1119.07 364.781 1119.47 365.26 1119.95L379.383 1134.15C379.763 1134.53 380.487 1134.6 380.633 1134.27L381.763 1131.71C381.883 1131.44 382.414 1131.43 382.829 1131.69L388.765 1135.4C389.179 1135.66 389.711 1135.65 389.831 1135.38L392.18 1130.06C392.262 1129.87 392.123 1129.62 391.841 1129.45Z" fill="white"/>
<path d="M379.33 1134.24L365.305 1120.13C364.83 1119.65 365.396 1119.26 366.093 1119.59L367.376 1120.21L378.813 1131.71C379.187 1132.09 379.909 1132.16 380.053 1131.83L381.171 1129.29C381.288 1129.03 381.81 1129.01 382.226 1129.27L389.682 1133.93C389.886 1134.05 390.107 1134.11 390.298 1134.11L389.694 1135.48C389.577 1135.75 389.055 1135.76 388.639 1135.5L382.742 1131.8C382.337 1131.55 381.804 1131.56 381.688 1131.82L380.57 1134.37C380.426 1134.69 379.713 1134.63 379.33 1134.24Z" fill="white"/>
<path d="M389.918 1129.25C390.022 1129.16 389.956 1129 389.78 1128.9L386.649 1126.96C386.474 1126.85 386.25 1126.83 386.15 1126.92C386.132 1126.94 386.121 1126.95 386.113 1126.97C386.073 1127.06 386.14 1127.19 386.286 1127.28L389.417 1129.21C389.595 1129.32 389.819 1129.34 389.918 1129.25Z" fill="white"/>
<path d="M385.617 1126.45C385.723 1126.36 385.656 1126.2 385.478 1126.09L384.931 1125.76C384.754 1125.65 384.526 1125.63 384.425 1125.72C384.407 1125.73 384.395 1125.75 384.387 1125.77C384.346 1125.86 384.414 1125.99 384.562 1126.08L385.109 1126.41C385.288 1126.52 385.515 1126.54 385.617 1126.45Z" fill="white"/>
</g>
<path d="M402.183 1138.88C400.403 1142.65 396.148 1144.81 390.706 1145.26L386.148 1154.9C391.589 1154.45 395.845 1152.29 397.625 1148.53L402.183 1138.88Z" fill="#FFDA44"/>
<path d="M357.299 1129.47C364.007 1139.15 378.963 1146.22 390.706 1145.26L386.148 1154.9C374.405 1155.87 359.449 1148.8 352.741 1139.11L357.299 1129.47Z" fill="#F4C400"/>
<path d="M354.938 1116.55C353.158 1120.32 354.191 1124.98 357.299 1129.47L352.741 1139.11C349.633 1134.62 348.6 1129.96 350.38 1126.2L354.938 1116.55Z" fill="#F4C400"/>
</g>
<g filter="url(#filter2_f_2677_235851)">
<circle cx="18.6667" cy="18.6667" r="18.6667" transform="matrix(-0.996633 0.0819866 -0.569319 -0.822117 569.775 536.114)" fill="#FFCC00"/>
<g filter="url(#filter3_dd_2677_235851)">
<path d="M552.165 523.813L541.097 516.97C540.735 516.747 540.274 516.758 540.17 516.993L539.225 519.133C539.132 519.342 538.751 519.379 538.401 519.212L529.599 515.024C528.989 514.734 528.487 515.081 528.907 515.503L541.265 527.922C541.597 528.256 542.23 528.318 542.358 528.029L543.347 525.789C543.452 525.552 543.916 525.542 544.279 525.769L549.474 529.018C549.836 529.245 550.301 529.235 550.406 528.998L552.462 524.343C552.533 524.182 552.412 523.965 552.165 523.813Z" fill="white"/>
<path d="M541.217 528.008L528.946 515.659C528.53 515.24 529.026 514.896 529.635 515.189L530.757 515.724L540.765 525.792C541.092 526.122 541.724 526.184 541.85 525.898L542.828 523.675C542.93 523.442 543.388 523.432 543.751 523.657L550.275 527.73C550.454 527.838 550.647 527.89 550.814 527.891L550.286 529.092C550.184 529.324 549.726 529.335 549.363 529.11L544.203 525.873C543.848 525.651 543.382 525.658 543.28 525.891L542.302 528.114C542.176 528.4 541.553 528.342 541.217 528.008Z" fill="white"/>
<path d="M550.481 523.64C550.572 523.562 550.515 523.423 550.361 523.329L547.621 521.634C547.468 521.539 547.272 521.524 547.184 521.6C547.169 521.613 547.159 521.627 547.152 521.643C547.117 521.722 547.176 521.831 547.304 521.91L550.043 523.606C550.199 523.701 550.395 523.717 550.481 523.64Z" fill="white"/>
<path d="M546.718 521.19C546.811 521.111 546.752 520.971 546.597 520.875L546.118 520.58C545.963 520.484 545.764 520.469 545.675 520.547C545.659 520.56 545.649 520.574 545.641 520.59C545.606 520.67 545.665 520.781 545.795 520.861L546.274 521.156C546.43 521.252 546.629 521.267 546.718 521.19Z" fill="white"/>
</g>
<path d="M561.214 532.068C559.656 535.364 555.933 537.254 551.171 537.645L547.183 546.084C551.944 545.692 555.668 543.802 557.225 540.507L561.214 532.068Z" fill="#FFDA44"/>
<path d="M521.941 523.829C527.81 532.305 540.897 538.49 551.172 537.645L547.184 546.083C536.909 546.928 523.822 540.743 517.952 532.267L521.941 523.829Z" fill="#F4C400"/>
<path d="M519.875 512.529C518.317 515.825 519.221 519.901 521.94 523.829L517.952 532.267C515.232 528.34 514.329 524.263 515.886 520.967L519.875 512.529Z" fill="#F4C400"/>
</g>
<circle cx="32" cy="32" r="32" transform="matrix(-0.866025 -0.5 0 -1 500.383 202.246)" fill="#FFCC00"/>
<g filter="url(#filter4_dd_2677_235851)">
<path d="M487.57 167.721L478.649 147.276C478.357 146.607 477.697 146.172 477.32 146.403L473.9 148.496C473.566 148.701 472.993 148.38 472.662 147.804L464.343 133.311C463.767 132.307 462.721 132.307 462.901 133.311L468.197 162.874C468.34 163.669 469.172 164.374 469.633 164.092L473.214 161.9C473.593 161.669 474.257 162.108 474.547 162.782L478.697 172.431C478.986 173.104 479.651 173.545 480.03 173.313L487.471 168.759C487.729 168.601 487.769 168.177 487.57 167.721Z" fill="white"/>
<path d="M468.047 162.949L462.804 133.569C462.627 132.572 463.661 132.571 464.234 133.579L465.294 135.428L469.572 159.385C469.711 160.17 470.541 160.874 470.997 160.594L474.546 158.415C474.917 158.187 475.572 158.618 475.864 159.291L481.084 171.397C481.23 171.725 481.452 171.987 481.687 172.151L479.77 173.328C479.399 173.556 478.744 173.124 478.451 172.452L474.339 162.855C474.055 162.195 473.391 161.751 473.02 161.979L469.472 164.158C469.016 164.438 468.194 163.747 468.047 162.949Z" fill="white"/>
<path d="M485.366 165.834C485.57 165.814 485.624 165.562 485.499 165.279L483.293 160.216C483.169 159.932 482.908 159.719 482.71 159.741C482.676 159.744 482.647 159.755 482.622 159.77C482.496 159.848 482.472 160.059 482.575 160.296L484.782 165.358C484.907 165.645 485.169 165.858 485.366 165.834Z" fill="white"/>
<path d="M482.452 158.71C482.66 158.689 482.714 158.435 482.588 158.148L482.202 157.265C482.076 156.978 481.81 156.763 481.609 156.785C481.574 156.788 481.545 156.799 481.52 156.814C481.392 156.893 481.367 157.106 481.472 157.346L481.86 158.228C481.985 158.517 482.251 158.732 482.452 158.71Z" fill="white"/>
</g>
<path d="M492.266 188.188C486.854 191.312 479.762 190.341 472.67 186.246L458.813 194.246C465.906 198.341 472.998 199.312 478.409 196.188L492.266 188.188Z" fill="#FFDA44"/>
<path d="M444.957 138.246C444.957 155.919 457.365 177.41 472.67 186.246L458.814 194.246C443.508 185.41 431.101 163.919 431.101 146.246L444.957 138.246Z" fill="#F4C400"/>
<path d="M453.074 120.305C447.663 123.429 444.957 130.057 444.957 138.246L431.101 146.246C431.101 138.057 433.807 131.429 439.218 128.305L453.074 120.305Z" fill="#F4C400"/>
<g filter="url(#filter5_f_2677_235851)">
<circle cx="42.6667" cy="42.6667" r="42.6667" transform="matrix(0.5 -0.866025 1 0 1439.88 1158.25)" fill="#FFCC00"/>
<g filter="url(#filter6_dd_2677_235851)">
<path d="M1485.92 1141.16L1513.18 1129.27C1514.07 1128.88 1514.65 1128 1514.34 1127.5L1511.55 1122.94C1511.28 1122.49 1511.7 1121.73 1512.47 1121.29L1531.8 1110.19C1533.13 1109.43 1533.13 1108.03 1531.8 1108.27L1492.38 1115.33C1491.32 1115.52 1490.38 1116.63 1490.75 1117.25L1493.68 1122.02C1493.99 1122.53 1493.4 1123.41 1492.5 1123.8L1479.64 1129.33C1478.74 1129.72 1478.15 1130.6 1478.46 1131.11L1484.53 1141.03C1484.74 1141.37 1485.31 1141.43 1485.92 1141.16Z" fill="white"/>
<path d="M1492.28 1115.13L1531.45 1108.14C1532.78 1107.9 1532.78 1109.28 1531.44 1110.05L1528.97 1111.46L1497.03 1117.17C1495.98 1117.35 1495.05 1118.46 1495.42 1119.07L1498.32 1123.8C1498.63 1124.29 1498.05 1125.16 1497.16 1125.55L1481.01 1132.51C1480.58 1132.71 1480.23 1133.01 1480.01 1133.32L1478.44 1130.76C1478.14 1130.27 1478.71 1129.39 1479.61 1129L1492.4 1123.52C1493.28 1123.14 1493.88 1122.26 1493.57 1121.76L1490.67 1117.03C1490.29 1116.42 1491.22 1115.33 1492.28 1115.13Z" fill="white"/>
<path d="M1488.43 1138.22C1488.46 1138.5 1488.79 1138.57 1489.17 1138.4L1495.92 1135.46C1496.3 1135.29 1496.58 1134.95 1496.55 1134.68C1496.55 1134.64 1496.54 1134.6 1496.52 1134.57C1496.41 1134.4 1496.13 1134.37 1495.82 1134.5L1489.06 1137.44C1488.68 1137.61 1488.4 1137.96 1488.43 1138.22Z" fill="white"/>
<path d="M1497.93 1134.34C1497.96 1134.62 1498.3 1134.69 1498.68 1134.52L1499.86 1134.01C1500.24 1133.84 1500.53 1133.48 1500.5 1133.21C1500.49 1133.17 1500.48 1133.13 1500.46 1133.1C1500.35 1132.92 1500.07 1132.89 1499.75 1133.03L1498.57 1133.55C1498.19 1133.72 1497.9 1134.07 1497.93 1134.34Z" fill="white"/>
</g>
<path d="M1458.63 1147.42C1454.46 1140.21 1455.76 1130.75 1461.22 1121.3L1450.55 1102.82C1445.09 1112.28 1443.8 1121.73 1447.96 1128.95L1458.63 1147.42Z" fill="#FFDA44"/>
<path d="M1525.22 1084.35C1501.65 1084.35 1473 1100.89 1461.22 1121.3L1450.55 1102.82C1462.33 1082.41 1490.99 1065.87 1514.55 1065.87L1525.22 1084.35Z" fill="#F4C400"/>
<path d="M1549.14 1095.17C1544.97 1087.95 1536.14 1084.35 1525.22 1084.35L1514.55 1065.87C1525.47 1065.87 1534.31 1069.48 1538.47 1076.69L1549.14 1095.17Z" fill="#F4C400"/>
</g>
<circle cx="24" cy="24" r="24" transform="matrix(0.965926 -0.258819 0.707107 0.707107 105.159 636.087)" fill="#FFCC00"/>
<g filter="url(#filter7_dd_2677_235851)">
<path d="M130.263 647.602L145.837 653.714C146.346 653.914 146.927 653.794 147.005 653.472L147.708 650.548C147.777 650.262 148.251 650.128 148.732 650.259L160.83 653.533C161.668 653.76 162.222 653.205 161.594 652.768L143.108 639.899C142.61 639.553 141.795 639.62 141.7 640.014L140.963 643.076C140.886 643.399 140.3 643.519 139.789 643.315L132.471 640.398C131.961 640.195 131.374 640.314 131.296 640.638L129.765 646.999C129.712 647.219 129.916 647.465 130.263 647.602Z" fill="white"/>
<path d="M143.148 639.779L161.51 652.58C162.133 653.014 161.584 653.563 160.747 653.333L159.203 652.914L144.23 642.478C143.74 642.135 142.926 642.202 142.833 642.592L142.107 645.63C142.031 645.948 141.455 646.066 140.943 645.865L131.754 642.212C131.503 642.116 131.246 642.095 131.035 642.133L131.427 640.492C131.503 640.174 132.079 640.055 132.591 640.257L139.862 643.165C140.362 643.365 140.949 643.249 141.025 642.931L141.752 639.893C141.845 639.503 142.647 639.433 143.148 639.779Z" fill="white"/>
<path d="M132.433 647.433C132.336 647.552 132.44 647.714 132.656 647.799L136.512 649.313C136.728 649.398 136.979 649.372 137.072 649.256C137.089 649.236 137.099 649.215 137.104 649.194C137.129 649.086 137.03 648.961 136.85 648.89L132.995 647.376C132.776 647.29 132.525 647.316 132.433 647.433Z" fill="white"/>
<path d="M137.757 649.667C137.658 649.788 137.764 649.952 137.982 650.037L138.656 650.3C138.874 650.386 139.129 650.359 139.224 650.24C139.241 650.22 139.251 650.199 139.256 650.177C139.283 650.068 139.182 649.942 139 649.871L138.326 649.608C138.107 649.522 137.851 649.548 137.757 649.667Z" fill="white"/>
</g>
<path d="M116.92 639.238C118.133 634.711 122.409 631.465 128.341 629.875L131.447 618.284C125.514 619.874 121.238 623.12 120.026 627.647L116.92 639.238Z" fill="#FFDA44"/>
<path d="M168.494 640.634C159.121 631.262 141.144 626.445 128.341 629.875L131.447 618.284C144.25 614.854 162.227 619.671 171.6 629.043L168.494 640.634Z" fill="#F4C400"/>
<path d="M173.705 654.454C174.918 649.927 172.838 644.977 168.495 640.634L171.6 629.043C175.943 633.386 178.023 638.336 176.81 642.863L173.705 654.454Z" fill="#F4C400"/>
<circle cx="21.3333" cy="21.3333" r="21.3333" transform="matrix(0.866025 0.5 0 1 1680.88 521.246)" fill="#FFCC00"/>
<g filter="url(#filter8_dd_2677_235851)">
<path d="M1689.42 544.264L1695.37 557.894C1695.57 558.34 1696.01 558.629 1696.26 558.475L1698.54 557.08C1698.76 556.944 1699.14 557.157 1699.36 557.541L1704.91 567.204C1705.29 567.873 1705.99 567.873 1705.87 567.203L1702.34 547.495C1702.24 546.965 1701.69 546.495 1701.38 546.683L1699 548.144C1698.74 548.298 1698.3 548.006 1698.11 547.556L1695.34 541.123C1695.15 540.675 1694.7 540.381 1694.45 540.535L1689.49 543.572C1689.32 543.677 1689.29 543.959 1689.42 544.264Z" fill="white"/>
<path d="M1702.44 547.444L1705.94 567.031C1706.05 567.696 1705.36 567.696 1704.98 567.025L1704.28 565.792L1701.42 549.821C1701.33 549.297 1700.78 548.828 1700.47 549.015L1698.11 550.467C1697.86 550.619 1697.42 550.332 1697.23 549.883L1693.75 541.812C1693.65 541.594 1693.5 541.419 1693.35 541.31L1694.62 540.525C1694.87 540.373 1695.31 540.661 1695.5 541.109L1698.25 547.507C1698.43 547.947 1698.88 548.243 1699.12 548.091L1701.49 546.638C1701.79 546.452 1702.34 546.913 1702.44 547.444Z" fill="white"/>
<path d="M1690.89 545.52C1690.76 545.534 1690.72 545.702 1690.81 545.89L1692.28 549.266C1692.36 549.455 1692.53 549.597 1692.66 549.582C1692.69 549.58 1692.71 549.573 1692.72 549.563C1692.81 549.511 1692.82 549.37 1692.75 549.212L1691.28 545.837C1691.2 545.646 1691.03 545.504 1690.89 545.52Z" fill="white"/>
<path d="M1692.84 550.27C1692.7 550.284 1692.66 550.453 1692.75 550.644L1693 551.233C1693.09 551.424 1693.26 551.568 1693.4 551.553C1693.42 551.551 1693.44 551.544 1693.46 551.533C1693.54 551.481 1693.56 551.339 1693.49 551.179L1693.23 550.591C1693.15 550.398 1692.97 550.255 1692.84 550.27Z" fill="white"/>
</g>
<path d="M1686.29 530.618C1689.9 528.536 1694.63 529.183 1699.36 531.913L1708.6 526.579C1703.87 523.849 1699.14 523.202 1695.53 525.285L1686.29 530.618Z" fill="#FFDA44"/>
<path d="M1717.83 563.913C1717.83 552.131 1709.56 537.804 1699.36 531.913L1708.6 526.58C1718.8 532.471 1727.07 546.798 1727.07 558.58L1717.83 563.913Z" fill="#F4C400"/>
<path d="M1712.42 575.874C1716.03 573.791 1717.83 569.373 1717.83 563.913L1727.07 558.58C1727.07 564.04 1725.27 568.458 1721.66 570.541L1712.42 575.874Z" fill="#F4C400"/>
<circle cx="48" cy="48" r="48" transform="matrix(-0.996633 0.0819866 -0.569319 -0.822117 712.761 944.864)" fill="#FFCC00"/>
<g filter="url(#filter9_dd_2677_235851)">
<path d="M667.476 913.231L639.016 895.636C638.084 895.061 636.899 895.089 636.631 895.696L634.202 901.196C633.964 901.735 632.984 901.829 632.084 901.4L609.448 890.632C607.881 889.886 606.591 890.779 607.67 891.864L639.447 923.797C640.302 924.656 641.93 924.815 642.258 924.073L644.802 918.312C645.071 917.703 646.266 917.678 647.199 918.261L660.557 926.617C661.488 927.2 662.685 927.175 662.954 926.566L668.24 914.595C668.423 914.181 668.111 913.624 667.476 913.231Z" fill="white"/>
<path d="M639.326 924.018L607.77 892.264C606.7 891.187 607.975 890.302 609.542 891.055L612.429 892.431L638.163 918.32C639.004 919.17 640.629 919.329 640.952 918.594L643.467 912.877C643.731 912.279 644.907 912.251 645.841 912.831L662.617 923.303C663.076 923.582 663.575 923.715 664.004 923.717L662.645 926.806C662.382 927.404 661.206 927.431 660.272 926.852L647.004 918.529C646.091 917.958 644.893 917.977 644.63 918.574L642.115 924.292C641.792 925.027 640.188 924.877 639.326 924.018Z" fill="white"/>
<path d="M663.147 912.788C663.381 912.589 663.233 912.232 662.838 911.989L655.793 907.63C655.399 907.386 654.894 907.346 654.669 907.542C654.63 907.575 654.603 907.612 654.585 907.653C654.496 907.856 654.647 908.137 654.977 908.341L662.021 912.7C662.42 912.946 662.924 912.985 663.147 912.788Z" fill="white"/>
<path d="M653.47 906.49C653.708 906.287 653.558 905.927 653.158 905.681L651.928 904.922C651.528 904.676 651.016 904.637 650.787 904.836C650.747 904.87 650.72 904.908 650.702 904.949C650.611 905.155 650.763 905.439 651.097 905.645L652.328 906.402C652.729 906.65 653.241 906.689 653.47 906.49Z" fill="white"/>
</g>
<path d="M690.745 934.46C686.74 942.934 677.165 947.794 664.922 948.801L654.666 970.499C666.909 969.492 676.484 964.632 680.489 956.159L690.745 934.46Z" fill="#FFDA44"/>
<path d="M589.757 913.273C604.849 935.067 638.502 950.973 664.923 948.8L654.667 970.498C628.247 972.672 594.594 956.766 579.501 934.972L589.757 913.273Z" fill="#F4C400"/>
<path d="M584.445 884.217C580.44 892.691 582.763 903.174 589.757 913.273L579.501 934.972C572.508 924.873 570.184 914.389 574.189 905.916L584.445 884.217Z" fill="#F4C400"/>
<circle cx="32" cy="32" r="32" transform="matrix(0.604485 0.796616 -0.387648 0.921808 1373.23 785.577)" fill="#53AE94"/>
<path d="M1375.27 801.683C1381.47 800.901 1387.63 804.545 1392.58 811.069L1408.45 809.066C1403.5 802.542 1397.34 798.898 1391.14 799.68L1375.27 801.683Z" fill="#6AC5AB"/>
<path d="M1399.52 866.058C1406.37 849.767 1403.26 825.147 1392.58 811.069L1408.45 809.066C1419.13 823.144 1422.24 847.764 1415.39 864.055L1399.52 866.058Z" fill="#43947D"/>
<path d="M1385.08 879.451C1391.28 878.669 1396.34 873.608 1399.52 866.059L1415.39 864.056C1412.22 871.605 1407.15 876.665 1400.95 877.448L1385.08 879.451Z" fill="#43947D"/>
<g filter="url(#filter10_d_2677_235851)">
<path d="M1380.41 836.142L1379.3 832.173L1386.53 830.147L1384.84 824.1L1365.88 832.173L1366.84 835.665L1374.07 833.638L1375.18 837.604C1369.4 839.59 1365.39 842.289 1365.88 844.039C1366.37 845.789 1371.2 846.011 1377.17 844.705L1380.41 857.246L1385.97 855.951L1382.4 843.239C1388.17 841.254 1392.17 838.559 1391.68 836.81C1391.19 835.062 1386.38 834.838 1380.41 836.142M1382.1 842.162L1382.1 842.159C1381.96 842.212 1381.21 842.481 1379.53 842.954C1378.18 843.333 1377.21 843.551 1376.87 843.622L1376.87 843.628C1371.6 844.794 1367.41 844.746 1367.03 843.388C1366.65 842.03 1370.2 839.81 1375.32 838.066L1376.56 842.497C1376.91 842.431 1377.9 842.231 1379.24 841.854C1380.85 841.402 1381.64 841.091 1381.78 841.032L1380.54 836.601C1385.81 835.438 1389.99 835.49 1390.37 836.843C1390.75 838.196 1387.2 840.417 1382.1 842.159" fill="white"/>
</g>
<g filter="url(#filter11_f_2677_235851)">
<ellipse cx="16" cy="16" rx="16" ry="16" transform="matrix(-0.994431 0.105385 -0.588482 -0.80851 408.863 792.962)" fill="#53AE94"/>
<path d="M401.445 789.667C400.177 792.522 397.024 794.217 392.952 794.648L389.704 801.96C393.776 801.528 396.929 799.834 398.197 796.978L401.445 789.667Z" fill="#6AC5AB"/>
<path d="M367.626 783.398C372.826 790.542 384.165 795.579 392.953 794.648L389.705 801.959C380.918 802.89 369.579 797.853 364.379 790.709L367.626 783.398Z" fill="#43947D"/>
<path d="M365.628 773.757C364.36 776.612 365.216 780.088 367.626 783.398L364.378 790.71C361.968 787.399 361.112 783.924 362.38 781.068L365.628 773.757Z" fill="#43947D"/>
<g filter="url(#filter12_d_2677_235851)">
<path d="M385.368 782.957L387.354 783.507L386.352 787.126L389.377 787.964L390.824 777.765L389.081 777.272L388.079 780.891L386.094 780.342C386.74 777.354 386.621 774.94 385.746 774.697C384.87 774.454 383.526 776.464 382.541 779.357L376.337 777.5L375.455 780.211L381.816 781.974C381.173 784.957 381.292 787.366 382.167 787.609C383.042 787.851 384.384 785.847 385.367 782.958M382.355 782.123L382.357 782.124C382.371 782.048 382.448 781.661 382.682 780.816C382.869 780.141 383.025 779.673 383.082 779.508L383.079 779.508C383.944 776.949 385.049 775.167 385.728 775.355C386.408 775.544 386.438 777.64 385.862 780.279L383.645 779.664C383.583 779.831 383.412 780.307 383.226 780.979C383.003 781.786 382.932 782.203 382.92 782.28L385.138 782.895C384.274 785.448 383.17 787.225 382.493 787.038C381.815 786.85 381.783 784.757 382.356 782.124" fill="white"/>
</g>
</g>
<circle cx="42.6667" cy="42.6667" r="42.6667" transform="matrix(0.999391 -0.0348995 0.529919 0.848048 1198.86 82.292)" fill="#53AE94"/>
<path d="M1217.97 92.4531C1221.88 85.0971 1230.59 81.1834 1241.5 80.8024L1251.52 61.9662C1240.6 62.3472 1231.9 66.2609 1227.99 73.6169L1217.97 92.4531Z" fill="#6AC5AB"/>
<path d="M1306.75 115.498C1294.26 95.5145 1265.05 79.9813 1241.5 80.8037L1251.52 61.9674C1275.06 61.1451 1304.28 76.6783 1316.77 96.6618L1306.75 115.498Z" fill="#43947D"/>
<path d="M1310.25 141.519C1314.16 134.163 1312.54 124.757 1306.75 115.497L1316.77 96.6611C1322.55 105.921 1324.17 115.327 1320.26 122.683L1310.25 141.519Z" fill="#43947D"/>
<g filter="url(#filter13_d_2677_235851)">
<path d="M1259.47 113.327L1254.29 111.489L1257.64 102.053L1249.75 99.2528L1243.98 126.11L1248.52 127.748L1251.87 118.311L1257.05 120.147C1254.77 127.974 1254.63 134.417 1256.91 135.228C1259.2 136.038 1263.15 130.944 1266.31 123.435L1282.47 129.543L1285.32 122.497L1268.73 116.611C1271.01 108.797 1271.14 102.366 1268.86 101.556C1266.58 100.747 1262.63 105.826 1259.47 113.325M1267.33 116.112L1267.33 116.111C1267.27 116.308 1267 117.324 1266.21 119.527C1265.59 121.288 1265.09 122.504 1264.9 122.931L1264.91 122.933C1262.13 129.576 1258.85 134.108 1257.08 133.48C1255.31 132.851 1255.63 127.268 1257.65 120.358L1263.44 122.41C1263.63 121.979 1264.18 120.743 1264.8 118.991C1265.54 116.887 1265.81 115.79 1265.86 115.588L1260.07 113.536C1262.85 106.907 1266.12 102.387 1267.89 103.013C1269.66 103.64 1269.35 109.215 1267.33 116.11" fill="white"/>
</g>
<g filter="url(#filter14_f_2677_235851)">
<ellipse cx="16" cy="16" rx="16" ry="16" transform="matrix(0.5 -0.866025 1 0 146.785 300.398)" fill="#53AE94"/>
<path d="M153.814 296.34C152.252 293.634 152.738 290.088 154.785 286.542L150.785 279.614C148.738 283.16 148.252 286.706 149.814 289.412L153.814 296.34Z" fill="#6AC5AB"/>
<path d="M178.785 272.686C169.949 272.686 159.203 278.889 154.785 286.542L150.785 279.614C155.203 271.961 165.949 265.757 174.785 265.757L178.785 272.686Z" fill="#43947D"/>
<path d="M187.756 276.744C186.194 274.039 182.88 272.686 178.785 272.686L174.785 265.758C178.88 265.758 182.194 267.11 183.756 269.816L187.756 276.744Z" fill="#43947D"/>
<g filter="url(#filter15_d_2677_235851)">
<path d="M168.7 287.289L167.087 288.571L164.751 285.631L162.293 287.584L169.687 294.755L171.111 293.637L168.775 290.696L170.387 289.416C172.424 291.696 174.445 293.021 175.157 292.455C175.868 291.89 175.034 289.621 173.275 287.122L178.427 283.199L176.754 280.89L171.585 284.996C169.552 282.721 167.534 281.399 166.823 281.964C166.112 282.528 166.943 284.793 168.7 287.288M171.148 285.344L171.146 285.345C171.199 285.401 171.467 285.691 172.012 286.377C172.448 286.926 172.735 287.327 172.834 287.47L172.836 287.469C174.396 289.673 175.187 291.615 174.634 292.054C174.082 292.493 172.37 291.283 170.575 289.265L172.376 287.834C172.279 287.686 171.994 287.267 171.56 286.721C171.039 286.066 170.743 285.763 170.688 285.708L168.886 287.14C167.33 284.939 166.543 283 167.093 282.563C167.643 282.126 169.355 283.332 171.146 285.344" fill="white"/>
</g>
</g>
<defs>
<filter id="filter0_f_2677_235851" x="326.315" y="1081.77" width="97.0518" height="97.0518" filterUnits="userSpaceOnUse" color-interpolation-filters="sRGB">
<feFlood flood-opacity="0" result="BackgroundImageFix"/>
<feBlend mode="normal" in="SourceGraphic" in2="BackgroundImageFix" result="shape"/>
<feGaussianBlur stdDeviation="2" result="effect1_foregroundBlur_2677_235851"/>
</filter>
<filter id="filter1_dd_2677_235851" x="365.083" y="1119.28" width="29.1201" height="18.4062" filterUnits="userSpaceOnUse" color-interpolation-filters="sRGB">
<feFlood flood-opacity="0" result="BackgroundImageFix"/>
<feColorMatrix in="SourceAlpha" type="matrix" values="0 0 0 0 0 0 0 0 0 0 0 0 0 0 0 0 0 0 127 0" result="hardAlpha"/>
<feOffset dx="1" dy="1"/>
<feComposite in2="hardAlpha" operator="out"/>
<feColorMatrix type="matrix" values="0 0 0 0 0.956863 0 0 0 0 0.746353 0 0 0 0 0 0 0 0 1 0"/>
<feBlend mode="normal" in2="BackgroundImageFix" result="effect1_dropShadow_2677_235851"/>
<feColorMatrix in="SourceAlpha" type="matrix" values="0 0 0 0 0 0 0 0 0 0 0 0 0 0 0 0 0 0 127 0" result="hardAlpha"/>
<feOffset dx="2" dy="2"/>
<feComposite in2="hardAlpha" operator="out"/>
<feColorMatrix type="matrix" values="0 0 0 0 0.956863 0 0 0 0 0.745098 0 0 0 0 0 0 0 0 1 0"/>
<feBlend mode="normal" in2="effect1_dropShadow_2677_235851" result="effect2_dropShadow_2677_235851"/>
<feBlend mode="normal" in="SourceGraphic" in2="effect2_dropShadow_2677_235851" result="shape"/>
</filter>
<filter id="filter2_f_2677_235851" x="494.329" y="481.593" width="85.9204" height="85.9199" filterUnits="userSpaceOnUse" color-interpolation-filters="sRGB">
<feFlood flood-opacity="0" result="BackgroundImageFix"/>
<feBlend mode="normal" in="SourceGraphic" in2="BackgroundImageFix" result="shape"/>
<feGaussianBlur stdDeviation="2" result="effect1_foregroundBlur_2677_235851"/>
</filter>
<filter id="filter3_dd_2677_235851" x="528.752" y="514.917" width="25.7305" height="16.3555" filterUnits="userSpaceOnUse" color-interpolation-filters="sRGB">
<feFlood flood-opacity="0" result="BackgroundImageFix"/>
<feColorMatrix in="SourceAlpha" type="matrix" values="0 0 0 0 0 0 0 0 0 0 0 0 0 0 0 0 0 0 127 0" result="hardAlpha"/>
<feOffset dx="1" dy="1"/>
<feComposite in2="hardAlpha" operator="out"/>
<feColorMatrix type="matrix" values="0 0 0 0 0.956863 0 0 0 0 0.746353 0 0 0 0 0 0 0 0 1 0"/>
<feBlend mode="normal" in2="BackgroundImageFix" result="effect1_dropShadow_2677_235851"/>
<feColorMatrix in="SourceAlpha" type="matrix" values="0 0 0 0 0 0 0 0 0 0 0 0 0 0 0 0 0 0 127 0" result="hardAlpha"/>
<feOffset dx="2" dy="2"/>
<feComposite in2="hardAlpha" operator="out"/>
<feColorMatrix type="matrix" values="0 0 0 0 0.956863 0 0 0 0 0.745098 0 0 0 0 0 0 0 0 1 0"/>
<feBlend mode="normal" in2="effect1_dropShadow_2677_235851" result="effect2_dropShadow_2677_235851"/>
<feBlend mode="normal" in="SourceGraphic" in2="effect2_dropShadow_2677_235851" result="shape"/>
</filter>
<filter id="filter4_dd_2677_235851" x="462.784" y="132.558" width="26.9116" height="42.832" filterUnits="userSpaceOnUse" color-interpolation-filters="sRGB">
<feFlood flood-opacity="0" result="BackgroundImageFix"/>
<feColorMatrix in="SourceAlpha" type="matrix" values="0 0 0 0 0 0 0 0 0 0 0 0 0 0 0 0 0 0 127 0" result="hardAlpha"/>
<feOffset dx="1" dy="1"/>
<feComposite in2="hardAlpha" operator="out"/>
<feColorMatrix type="matrix" values="0 0 0 0 0.956863 0 0 0 0 0.746353 0 0 0 0 0 0 0 0 1 0"/>
<feBlend mode="normal" in2="BackgroundImageFix" result="effect1_dropShadow_2677_235851"/>
<feColorMatrix in="SourceAlpha" type="matrix" values="0 0 0 0 0 0 0 0 0 0 0 0 0 0 0 0 0 0 127 0" result="hardAlpha"/>
<feOffset dx="2" dy="2"/>
<feComposite in2="hardAlpha" operator="out"/>
<feColorMatrix type="matrix" values="0 0 0 0 0.956863 0 0 0 0 0.745098 0 0 0 0 0 0 0 0 1 0"/>
<feBlend mode="normal" in2="effect1_dropShadow_2677_235851" result="effect2_dropShadow_2677_235851"/>
<feBlend mode="normal" in="SourceGraphic" in2="effect2_dropShadow_2677_235851" result="shape"/>
</filter>
<filter id="filter5_f_2677_235851" x="1431.88" y="1040.25" width="144" height="144" filterUnits="userSpaceOnUse" color-interpolation-filters="sRGB">
<feFlood flood-opacity="0" result="BackgroundImageFix"/>
<feBlend mode="normal" in="SourceGraphic" in2="BackgroundImageFix" result="shape"/>
<feGaussianBlur stdDeviation="4" result="effect1_foregroundBlur_2677_235851"/>
</filter>
<filter id="filter6_dd_2677_235851" x="1478.36" y="1108.11" width="56.4414" height="35.2148" filterUnits="userSpaceOnUse" color-interpolation-filters="sRGB">
<feFlood flood-opacity="0" result="BackgroundImageFix"/>
<feColorMatrix in="SourceAlpha" type="matrix" values="0 0 0 0 0 0 0 0 0 0 0 0 0 0 0 0 0 0 127 0" result="hardAlpha"/>
<feOffset dx="1" dy="1"/>
<feComposite in2="hardAlpha" operator="out"/>
<feColorMatrix type="matrix" values="0 0 0 0 0.956863 0 0 0 0 0.746353 0 0 0 0 0 0 0 0 1 0"/>
<feBlend mode="normal" in2="BackgroundImageFix" result="effect1_dropShadow_2677_235851"/>
<feColorMatrix in="SourceAlpha" type="matrix" values="0 0 0 0 0 0 0 0 0 0 0 0 0 0 0 0 0 0 127 0" result="hardAlpha"/>
<feOffset dx="2" dy="2"/>
<feComposite in2="hardAlpha" operator="out"/>
<feColorMatrix type="matrix" values="0 0 0 0 0.956863 0 0 0 0 0.745098 0 0 0 0 0 0 0 0 1 0"/>
<feBlend mode="normal" in2="effect1_dropShadow_2677_235851" result="effect2_dropShadow_2677_235851"/>
<feBlend mode="normal" in="SourceGraphic" in2="effect2_dropShadow_2677_235851" result="shape"/>
</filter>
<filter id="filter7_dd_2677_235851" x="129.757" y="639.556" width="34.1074" height="16.2559" filterUnits="userSpaceOnUse" color-interpolation-filters="sRGB">
<feFlood flood-opacity="0" result="BackgroundImageFix"/>
<feColorMatrix in="SourceAlpha" type="matrix" values="0 0 0 0 0 0 0 0 0 0 0 0 0 0 0 0 0 0 127 0" result="hardAlpha"/>
<feOffset dx="1" dy="1"/>
<feComposite in2="hardAlpha" operator="out"/>
<feColorMatrix type="matrix" values="0 0 0 0 0.956863 0 0 0 0 0.746353 0 0 0 0 0 0 0 0 1 0"/>
<feBlend mode="normal" in2="BackgroundImageFix" result="effect1_dropShadow_2677_235851"/>
<feColorMatrix in="SourceAlpha" type="matrix" values="0 0 0 0 0 0 0 0 0 0 0 0 0 0 0 0 0 0 127 0" result="hardAlpha"/>
<feOffset dx="2" dy="2"/>
<feComposite in2="hardAlpha" operator="out"/>
<feColorMatrix type="matrix" values="0 0 0 0 0.956863 0 0 0 0 0.745098 0 0 0 0 0 0 0 0 1 0"/>
<feBlend mode="normal" in2="effect1_dropShadow_2677_235851" result="effect2_dropShadow_2677_235851"/>
<feBlend mode="normal" in="SourceGraphic" in2="effect2_dropShadow_2677_235851" result="shape"/>
</filter>
<filter id="filter8_dd_2677_235851" x="1689.34" y="540.484" width="18.6074" height="29.2217" filterUnits="userSpaceOnUse" color-interpolation-filters="sRGB">
<feFlood flood-opacity="0" result="BackgroundImageFix"/>
<feColorMatrix in="SourceAlpha" type="matrix" values="0 0 0 0 0 0 0 0 0 0 0 0 0 0 0 0 0 0 127 0" result="hardAlpha"/>
<feOffset dx="1" dy="1"/>
<feComposite in2="hardAlpha" operator="out"/>
<feColorMatrix type="matrix" values="0 0 0 0 0.956863 0 0 0 0 0.746353 0 0 0 0 0 0 0 0 1 0"/>
<feBlend mode="normal" in2="BackgroundImageFix" result="effect1_dropShadow_2677_235851"/>
<feColorMatrix in="SourceAlpha" type="matrix" values="0 0 0 0 0 0 0 0 0 0 0 0 0 0 0 0 0 0 127 0" result="hardAlpha"/>
<feOffset dx="2" dy="2"/>
<feComposite in2="hardAlpha" operator="out"/>
<feColorMatrix type="matrix" values="0 0 0 0 0.956863 0 0 0 0 0.745098 0 0 0 0 0 0 0 0 1 0"/>
<feBlend mode="normal" in2="effect1_dropShadow_2677_235851" result="effect2_dropShadow_2677_235851"/>
<feBlend mode="normal" in="SourceGraphic" in2="effect2_dropShadow_2677_235851" result="shape"/>
</filter>
<filter id="filter9_dd_2677_235851" x="607.272" y="890.356" width="63.0205" height="38.9141" filterUnits="userSpaceOnUse" color-interpolation-filters="sRGB">
<feFlood flood-opacity="0" result="BackgroundImageFix"/>
<feColorMatrix in="SourceAlpha" type="matrix" values="0 0 0 0 0 0 0 0 0 0 0 0 0 0 0 0 0 0 127 0" result="hardAlpha"/>
<feOffset dx="1" dy="1"/>
<feComposite in2="hardAlpha" operator="out"/>
<feColorMatrix type="matrix" values="0 0 0 0 0.956863 0 0 0 0 0.746353 0 0 0 0 0 0 0 0 1 0"/>
<feBlend mode="normal" in2="BackgroundImageFix" result="effect1_dropShadow_2677_235851"/>
<feColorMatrix in="SourceAlpha" type="matrix" values="0 0 0 0 0 0 0 0 0 0 0 0 0 0 0 0 0 0 127 0" result="hardAlpha"/>
<feOffset dx="2" dy="2"/>
<feComposite in2="hardAlpha" operator="out"/>
<feColorMatrix type="matrix" values="0 0 0 0 0.956863 0 0 0 0 0.745098 0 0 0 0 0 0 0 0 1 0"/>
<feBlend mode="normal" in2="effect1_dropShadow_2677_235851" result="effect2_dropShadow_2677_235851"/>
<feBlend mode="normal" in="SourceGraphic" in2="effect2_dropShadow_2677_235851" result="shape"/>
</filter>
<filter id="filter10_d_2677_235851" x="1365.84" y="824.1" width="26.8848" height="34.1455" filterUnits="userSpaceOnUse" color-interpolation-filters="sRGB">
<feFlood flood-opacity="0" result="BackgroundImageFix"/>
<feColorMatrix in="SourceAlpha" type="matrix" values="0 0 0 0 0 0 0 0 0 0 0 0 0 0 0 0 0 0 127 0" result="hardAlpha"/>
<feOffset dx="1" dy="1"/>
<feComposite in2="hardAlpha" operator="out"/>
<feColorMatrix type="matrix" values="0 0 0 0 0.262745 0 0 0 0 0.580392 0 0 0 0 0.490196 0 0 0 1 0"/>
<feBlend mode="normal" in2="BackgroundImageFix" result="effect1_dropShadow_2677_235851"/>
<feBlend mode="normal" in="SourceGraphic" in2="effect1_dropShadow_2677_235851" result="shape"/>
</filter>
<filter id="filter11_f_2677_235851" x="343.265" y="746.181" width="75.0557" height="75.0557" filterUnits="userSpaceOnUse" color-interpolation-filters="sRGB">
<feFlood flood-opacity="0" result="BackgroundImageFix"/>
<feBlend mode="normal" in="SourceGraphic" in2="BackgroundImageFix" result="shape"/>
<feGaussianBlur stdDeviation="2" result="effect1_foregroundBlur_2677_235851"/>
</filter>
<filter id="filter12_d_2677_235851" x="375.455" y="774.677" width="16.3682" height="14.2871" filterUnits="userSpaceOnUse" color-interpolation-filters="sRGB">
<feFlood flood-opacity="0" result="BackgroundImageFix"/>
<feColorMatrix in="SourceAlpha" type="matrix" values="0 0 0 0 0 0 0 0 0 0 0 0 0 0 0 0 0 0 127 0" result="hardAlpha"/>
<feOffset dx="1" dy="1"/>
<feComposite in2="hardAlpha" operator="out"/>
<feColorMatrix type="matrix" values="0 0 0 0 0.262745 0 0 0 0 0.580392 0 0 0 0 0.490196 0 0 0 1 0"/>
<feBlend mode="normal" in2="BackgroundImageFix" result="effect1_dropShadow_2677_235851"/>
<feBlend mode="normal" in="SourceGraphic" in2="effect1_dropShadow_2677_235851" result="shape"/>
</filter>
<filter id="filter13_d_2677_235851" x="1243.98" y="99.2529" width="42.3423" height="37.0596" filterUnits="userSpaceOnUse" color-interpolation-filters="sRGB">
<feFlood flood-opacity="0" result="BackgroundImageFix"/>
<feColorMatrix in="SourceAlpha" type="matrix" values="0 0 0 0 0 0 0 0 0 0 0 0 0 0 0 0 0 0 127 0" result="hardAlpha"/>
<feOffset dx="1" dy="1"/>
<feComposite in2="hardAlpha" operator="out"/>
<feColorMatrix type="matrix" values="0 0 0 0 0.262745 0 0 0 0 0.580392 0 0 0 0 0.490196 0 0 0 1 0"/>
<feBlend mode="normal" in2="BackgroundImageFix" result="effect1_dropShadow_2677_235851"/>
<feBlend mode="normal" in="SourceGraphic" in2="effect1_dropShadow_2677_235851" result="shape"/>
</filter>
<filter id="filter14_f_2677_235851" x="142.785" y="255.148" width="56" height="56" filterUnits="userSpaceOnUse" color-interpolation-filters="sRGB">
<feFlood flood-opacity="0" result="BackgroundImageFix"/>
<feBlend mode="normal" in="SourceGraphic" in2="BackgroundImageFix" result="shape"/>
<feGaussianBlur stdDeviation="2" result="effect1_foregroundBlur_2677_235851"/>
</filter>
<filter id="filter15_d_2677_235851" x="162.293" y="280.89" width="17.1338" height="14.8652" filterUnits="userSpaceOnUse" color-interpolation-filters="sRGB">
<feFlood flood-opacity="0" result="BackgroundImageFix"/>
<feColorMatrix in="SourceAlpha" type="matrix" values="0 0 0 0 0 0 0 0 0 0 0 0 0 0 0 0 0 0 127 0" result="hardAlpha"/>
<feOffset dx="1" dy="1"/>
<feComposite in2="hardAlpha" operator="out"/>
<feColorMatrix type="matrix" values="0 0 0 0 0.262745 0 0 0 0 0.580392 0 0 0 0 0.490196 0 0 0 1 0"/>
<feBlend mode="normal" in2="BackgroundImageFix" result="effect1_dropShadow_2677_235851"/>
<feBlend mode="normal" in="SourceGraphic" in2="effect1_dropShadow_2677_235851" result="shape"/>
</filter>
</defs>
</svg>
