<?xml version="1.0" encoding="UTF-8"?>
<!DOCTYPE svg PUBLIC "-//W3C//DTD SVG 1.1//EN" "http://www.w3.org/Graphics/SVG/1.1/DTD/svg11.dtd">
<svg xmlns="http://www.w3.org/2000/svg" version="1.1" width="153px" height="109px" style="shape-rendering:geometricPrecision; text-rendering:geometricPrecision; image-rendering:optimizeQuality; fill-rule:evenodd; clip-rule:evenodd" xmlns:xlink="http://www.w3.org/1999/xlink">
<g><path style="opacity:0.025" fill="#f3f6f9" d="M 94.5,-0.5 C 97.8333,-0.5 101.167,-0.5 104.5,-0.5C 116.481,12.4268 120.481,27.4268 116.5,44.5C 129.697,42.7992 141.697,45.7992 152.5,53.5C 152.5,54.5 152.5,55.5 152.5,56.5C 151.25,56.5774 150.417,57.244 150,58.5C 148.667,56.5 147.333,54.5 146,52.5C 143.91,53.7908 142.576,53.1242 142,50.5C 141.667,50.8333 141.333,51.1667 141,51.5C 139.291,49.8248 137.624,48.1581 136,46.5C 135.751,47.624 135.251,48.624 134.5,49.5C 132.417,48.0413 130.25,46.7079 128,45.5C 127.517,46.448 127.351,47.448 127.5,48.5C 127.167,48.5 126.833,48.5 126.5,48.5C 126.65,45.074 125.484,44.7406 123,47.5C 119.607,46.5173 115.94,46.1839 112,46.5C 110.053,47.6865 108.22,49.0198 106.5,50.5C 106.167,49.8333 105.833,49.1667 105.5,48.5C 104.646,49.5217 103.646,50.3551 102.5,51C 103.167,51.3333 103.833,51.6667 104.5,52C 100.771,54.1542 98.2709,57.3208 97,61.5C 95.9887,62.3366 94.8221,62.67 93.5,62.5C 93.9732,65.8329 92.6399,67.9996 89.5,69C 90.731,70.1827 90.731,71.3493 89.5,72.5C 88.8933,72.3764 88.56,72.0431 88.5,71.5C 88.631,70.7611 88.4643,70.0944 88,69.5C 86.6667,70.1667 85.3333,70.8333 84,71.5C 83.5357,70.9056 83.369,70.2389 83.5,69.5C 85.5127,67.3311 87.1793,64.8311 88.5,62C 88.0946,61.0546 87.428,60.3879 86.5,60C 88.0779,58.9055 89.7446,58.0722 91.5,57.5C 92.6879,56.3157 93.8545,56.3157 95,57.5C 97.0606,55.2029 99.0606,52.2029 101,48.5C 102.84,49.8331 103.34,49.6665 102.5,48C 104.5,47.6667 106.5,47.3333 108.5,47C 105.833,46.3333 105.833,45.6667 108.5,45C 107.833,44.6667 107.167,44.3333 106.5,44C 107.742,40.9415 109.075,37.9415 110.5,35C 109.5,34.6667 108.5,34.3333 107.5,34C 109.001,32.7485 110.668,31.7485 112.5,31C 109.833,30.3333 109.833,29.6667 112.5,29C 108.815,28.259 108.149,26.759 110.5,24.5C 108.93,20.9078 106.93,17.5745 104.5,14.5C 103.61,13.0445 103.61,11.7112 104.5,10.5C 102.841,9.18321 101.674,7.51654 101,5.5C 100.333,8.16667 99.6667,8.16667 99,5.5C 98.6667,6.16667 98.3333,6.83333 98,7.5C 96.3438,5.021 95.1771,2.35434 94.5,-0.5 Z"/></g>
<g><path style="opacity:0.219" fill="#b9e0fd" d="M 39.5,-0.5 C 48.5,-0.5 57.5,-0.5 66.5,-0.5C 69.5575,1.13207 72.8909,2.29874 76.5,3C 75.8333,3.33333 75.1667,3.66667 74.5,4C 78.1418,4.72844 80.9752,6.56177 83,9.5C 83.3333,9.16667 83.6667,8.83333 84,8.5C 85.5429,10.3783 87.3762,11.8783 89.5,13C 88.9394,14.5655 89.6061,15.8989 91.5,17C 90.8288,17.9862 90.8288,19.1529 91.5,20.5C 90.1805,19.0582 88.5138,18.3915 86.5,18.5C 86.2865,16.8561 86.6198,15.3561 87.5,14C 85.2686,13.378 83.4352,12.2113 82,10.5C 81.6667,11.1667 81.3333,11.8333 81,12.5C 78.9376,8.18702 75.7709,6.52035 71.5,7.5C 69.9582,6.69929 68.2915,6.36596 66.5,6.5C 66.6107,5.88258 66.944,5.38258 67.5,5C 64.5,4.66667 61.5,4.33333 58.5,4C 59.6956,3.34569 59.6956,2.84569 58.5,2.5C 54.3024,3.80855 50.1357,3.80855 46,2.5C 43.962,4.07218 41.6287,5.07218 39,5.5C 38.586,5.04265 38.086,4.70931 37.5,4.5C 37.5105,5.44145 37.0105,6.10812 36,6.5C 29.114,6.55717 23.2806,9.8905 18.5,16.5C 17.2054,17.0983 15.8721,17.5983 14.5,18C 14.9574,18.414 15.2907,18.914 15.5,19.5C 12.1775,22.2548 11.5109,25.5881 13.5,29.5C 13.6738,31.6934 13.0071,33.5267 11.5,35C 13.561,37.0631 15.8944,38.7297 18.5,40C 17.6634,41.0113 17.33,42.1779 17.5,43.5C 14.6387,43.4874 13.6387,42.3207 14.5,40C 13.0257,38.6839 11.359,37.6839 9.5,37C 9.53416,32.3844 9.70082,27.551 10,22.5C 10.8141,20.7183 11.9808,19.2183 13.5,18C 13.1667,17.6667 12.8333,17.3333 12.5,17C 14.1309,15.9085 15.7975,15.0751 17.5,14.5C 17.2267,12.549 17.8934,11.049 19.5,10C 19.1667,9.66667 18.8333,9.33333 18.5,9C 21.5587,8.94231 23.892,7.60898 25.5,5C 25.1667,4.66667 24.8333,4.33333 24.5,4C 25.7441,3.54392 26.5774,4.04392 27,5.5C 28.0029,2.84378 29.6696,1.84378 32,2.5C 34.5667,1.41309 37.0667,0.413092 39.5,-0.5 Z"/></g>
<g><path style="opacity:0.272" fill="#a4d7fc" d="M 66.5,6.5 C 68.2915,6.36596 69.9582,6.69929 71.5,7.5C 74.7846,10.5878 78.2846,13.5878 82,16.5C 82.6667,15.1667 83.3333,15.1667 84,16.5C 84.663,19.8158 86.163,22.6492 88.5,25C 87.7069,28.4106 87.2069,31.9106 87,35.5C 85.527,38.4459 83.8604,41.7792 82,45.5C 81.586,45.0426 81.086,44.7093 80.5,44.5C 78.1056,46.0681 75.6056,47.4015 73,48.5C 72.6667,48.1667 72.3333,47.8333 72,47.5C 71.3333,48.8333 70.6667,50.1667 70,51.5C 69.6667,50.8333 69.3333,50.1667 69,49.5C 68.2917,50.3805 67.4584,51.0472 66.5,51.5C 66.5654,51.0618 66.3988,50.7284 66,50.5C 64.9125,52.9316 64.4125,52.5983 64.5,49.5C 64.5,48.1667 64.5,46.8333 64.5,45.5C 66.8568,45.6633 69.1902,45.4966 71.5,45C 71.1667,44.6667 70.8333,44.3333 70.5,44C 72.9005,43.8142 75.2338,43.3142 77.5,42.5C 78.802,40.7988 80.4687,39.6322 82.5,39C 81.6919,38.6924 81.0253,38.1924 80.5,37.5C 81.4103,34.3963 82.077,31.563 82.5,29C 79.8758,28.4236 79.2092,27.0902 80.5,25C 78.6992,24.6827 78.3659,24.016 79.5,23C 75.9276,19.7663 72.761,16.2663 70,12.5C 68.5701,12.3062 67.0701,12.3062 65.5,12.5C 62.5666,10.8634 59.5666,9.53011 56.5,8.5C 51.6449,8.60714 46.6449,8.7738 41.5,9C 41.0183,10.0084 40.8516,11.175 41,12.5C 40.3333,11.8333 39.6667,11.1667 39,10.5C 37.4002,11.8659 35.5668,12.8659 33.5,13.5C 31.3438,15.6289 29.6771,17.9622 28.5,20.5C 27.448,20.3505 26.448,20.5172 25.5,21C 25.8333,21.3333 26.1667,21.6667 26.5,22C 23.8758,22.5764 23.2092,23.9098 24.5,26C 20.8998,29.2171 20.8998,32.0504 24.5,34.5C 24.1896,36.2012 24.6896,37.8678 26,39.5C 26.3333,38.8333 26.6667,38.1667 27,37.5C 27.5,38.6667 28.3333,39.5 29.5,40C 28.7636,42.0206 29.5969,43.5206 32,44.5C 32.8534,42.3969 34.02,42.3969 35.5,44.5C 34.7611,44.369 34.0944,44.5357 33.5,45C 36.0842,46.9944 35.9175,47.4944 33,46.5C 32.0546,46.9054 31.3879,47.572 31,48.5C 30.7679,47.2625 30.2679,46.2625 29.5,45.5C 25.9466,43.1571 22.9466,40.9904 20.5,39C 21.0585,38.2753 21.3918,37.4419 21.5,36.5C 20.315,34.2886 19.315,31.9553 18.5,29.5C 19.7468,27.9579 19.7468,26.4579 18.5,25C 20.3224,22.1793 22.4891,19.6793 25,17.5C 25.4828,16.552 25.6495,15.552 25.5,14.5C 26.8333,14.5 28.1667,14.5 29.5,14.5C 29.5,13.1667 29.5,11.8333 29.5,10.5C 35.1228,9.27388 40.6228,7.60721 46,5.5C 50,6.83333 54,6.83333 58,5.5C 60.3333,6.16667 62.6667,6.83333 65,7.5C 65.3826,6.94404 65.8826,6.61071 66.5,6.5 Z"/></g>
<g><path style="opacity:0.35" fill="#86cafb" d="M 44.5,15.5 C 51.6789,13.9259 58.6789,14.4259 65.5,17C 67.5486,19.5934 69.7152,22.0934 72,24.5C 72.0929,27.0075 72.9262,29.1741 74.5,31C 73.3682,34.0201 71.8682,36.8534 70,39.5C 68.6361,38.7417 67.4695,39.2417 66.5,41C 63.4715,41.539 60.4715,42.2057 57.5,43C 56.1667,43.6667 56.1667,44.3333 57.5,45C 54.8333,45.6667 52.1667,45.6667 49.5,45C 45.4762,43.879 41.4762,42.7123 37.5,41.5C 36.3933,39.0311 34.3933,38.0311 31.5,38.5C 26.3554,26.7478 30.1887,18.4145 43,13.5C 43.2784,14.4158 43.7784,15.0825 44.5,15.5 Z"/></g>
<g><path style="opacity:0.312" fill="#91cefb" d="M 48.5,47.5 C 44.8019,47.4476 41.1352,47.1143 37.5,46.5C 37.5,45.5 37.5,44.5 37.5,43.5C 37.5,42.8333 37.5,42.1667 37.5,41.5C 41.4762,42.7123 45.4762,43.879 49.5,45C 52.1667,45.6667 54.8333,45.6667 57.5,45C 56.1667,44.3333 56.1667,43.6667 57.5,43C 60.4715,42.2057 63.4715,41.539 66.5,41C 67.4695,39.2417 68.6361,38.7417 70,39.5C 71.8682,36.8534 73.3682,34.0201 74.5,31C 72.9262,29.1741 72.0929,27.0075 72,24.5C 69.7152,22.0934 67.5486,19.5934 65.5,17C 58.6789,14.4259 51.6789,13.9259 44.5,15.5C 44.4142,14.5041 44.7476,13.6708 45.5,13C 54.0881,12.0046 62.0881,12.8379 69.5,15.5C 71.1901,18.0237 73.3568,20.0237 76,21.5C 76.3603,23.4211 77.1936,25.0878 78.5,26.5C 77.1667,28.8333 77.1667,31.1667 78.5,33.5C 76.6652,34.4277 76.3318,35.5944 77.5,37C 75.741,38.008 74.5743,39.508 74,41.5C 72.3333,41.5 70.6667,41.5 69,41.5C 65.9531,44.0527 62.4531,45.3861 58.5,45.5C 58.6495,46.552 58.4828,47.552 58,48.5C 54.9433,47.5495 51.7766,47.2161 48.5,47.5 Z"/></g>
<g><path style="opacity:0.125" fill="#dceefc" d="M 0.5,-0.5 C 9.5,-0.5 18.5,-0.5 27.5,-0.5C 21.7056,0.154771 17.539,3.15477 15,8.5C 14.6667,7.83333 14.3333,7.16667 14,6.5C 9.48925,11.7651 5.98925,17.2651 3.5,23C 6.05782,24.3799 6.05782,25.8799 3.5,27.5C 4.64055,28.4255 4.64055,29.2588 3.5,30C 5.99134,30.6259 5.99134,31.4593 3.5,32.5C 4.02527,33.1924 4.69194,33.6924 5.5,34C 2.70977,38.3296 4.0431,40.9962 9.5,42C 8.16667,42.6667 8.16667,43.3333 9.5,44C 6.83333,44.6667 6.83333,45.3333 9.5,46C 6.88906,47.701 5.88906,49.8676 6.5,52.5C 7.20895,53.404 8.20895,53.7373 9.5,53.5C 9.72513,57.0562 8.8918,57.3895 7,54.5C 6,55.1667 5,55.8333 4,56.5C 2.69981,55.2927 1.19981,54.6261 -0.5,54.5C -0.5,36.5 -0.5,18.5 -0.5,0.5C 0.166667,0.5 0.5,0.166667 0.5,-0.5 Z"/></g>
<g><path style="opacity:0.173" fill="#c9e6fd" d="M 27.5,-0.5 C 31.5,-0.5 35.5,-0.5 39.5,-0.5C 37.0667,0.413092 34.5667,1.41309 32,2.5C 29.6696,1.84378 28.0029,2.84378 27,5.5C 26.5774,4.04392 25.7441,3.54392 24.5,4C 24.8333,4.33333 25.1667,4.66667 25.5,5C 23.892,7.60898 21.5587,8.94231 18.5,9C 18.8333,9.33333 19.1667,9.66667 19.5,10C 17.8934,11.049 17.2267,12.549 17.5,14.5C 15.7975,15.0751 14.1309,15.9085 12.5,17C 12.8333,17.3333 13.1667,17.6667 13.5,18C 11.9808,19.2183 10.8141,20.7183 10,22.5C 9.70082,27.551 9.53416,32.3844 9.5,37C 11.359,37.6839 13.0257,38.6839 14.5,40C 13.6387,42.3207 14.6387,43.4874 17.5,43.5C 17.0825,44.2216 16.4158,44.7216 15.5,45C 16.8333,45.3333 18.1667,45.6667 19.5,46C 19.1667,46.3333 18.8333,46.6667 18.5,47C 19.7375,47.2321 20.7375,47.7321 21.5,48.5C 22.5524,50.6551 21.8857,50.9884 19.5,49.5C 16.4817,51.978 15.315,51.3114 16,47.5C 14.6004,49.7372 12.767,51.4038 10.5,52.5C 9.25025,52.4226 8.41691,51.756 8,50.5C 7.72158,51.4158 7.22158,52.0825 6.5,52.5C 5.88906,49.8676 6.88906,47.701 9.5,46C 6.83333,45.3333 6.83333,44.6667 9.5,44C 8.16667,43.3333 8.16667,42.6667 9.5,42C 4.0431,40.9962 2.70977,38.3296 5.5,34C 4.69194,33.6924 4.02527,33.1924 3.5,32.5C 5.99134,31.4593 5.99134,30.6259 3.5,30C 4.64055,29.2588 4.64055,28.4255 3.5,27.5C 6.05782,25.8799 6.05782,24.3799 3.5,23C 5.98925,17.2651 9.48925,11.7651 14,6.5C 14.3333,7.16667 14.6667,7.83333 15,8.5C 17.539,3.15477 21.7056,0.154771 27.5,-0.5 Z"/></g>
<g><path style="opacity:0.222" fill="#b1dcfc" d="M 66.5,6.5 C 65.8826,6.61071 65.3826,6.94404 65,7.5C 62.6667,6.83333 60.3333,6.16667 58,5.5C 54,6.83333 50,6.83333 46,5.5C 40.6228,7.60721 35.1228,9.27388 29.5,10.5C 29.5,11.8333 29.5,13.1667 29.5,14.5C 28.1667,14.5 26.8333,14.5 25.5,14.5C 25.6495,15.552 25.4828,16.552 25,17.5C 22.4891,19.6793 20.3224,22.1793 18.5,25C 19.7468,26.4579 19.7468,27.9579 18.5,29.5C 19.315,31.9553 20.315,34.2886 21.5,36.5C 21.3918,37.4419 21.0585,38.2753 20.5,39C 22.9466,40.9904 25.9466,43.1571 29.5,45.5C 27.5841,47.977 24.9175,48.977 21.5,48.5C 20.7375,47.7321 19.7375,47.2321 18.5,47C 18.8333,46.6667 19.1667,46.3333 19.5,46C 18.1667,45.6667 16.8333,45.3333 15.5,45C 16.4158,44.7216 17.0825,44.2216 17.5,43.5C 17.33,42.1779 17.6634,41.0113 18.5,40C 15.8944,38.7297 13.561,37.0631 11.5,35C 13.0071,33.5267 13.6738,31.6934 13.5,29.5C 11.5109,25.5881 12.1775,22.2548 15.5,19.5C 15.2907,18.914 14.9574,18.414 14.5,18C 15.8721,17.5983 17.2054,17.0983 18.5,16.5C 23.2806,9.8905 29.114,6.55717 36,6.5C 37.0105,6.10812 37.5105,5.44145 37.5,4.5C 38.086,4.70931 38.586,5.04265 39,5.5C 41.6287,5.07218 43.962,4.07218 46,2.5C 50.1357,3.80855 54.3024,3.80855 58.5,2.5C 59.6956,2.84569 59.6956,3.34569 58.5,4C 61.5,4.33333 64.5,4.66667 67.5,5C 66.944,5.38258 66.6107,5.88258 66.5,6.5 Z"/></g>
<g><path style="opacity:0.075" fill="#e2f1fc" d="M 84.5,-0.5 C 87.8333,-0.5 91.1667,-0.5 94.5,-0.5C 95.1771,2.35434 96.3438,5.021 98,7.5C 98.3333,6.83333 98.6667,6.16667 99,5.5C 99.6667,8.16667 100.333,8.16667 101,5.5C 101.674,7.51654 102.841,9.18321 104.5,10.5C 103.61,11.7112 103.61,13.0445 104.5,14.5C 106.93,17.5745 108.93,20.9078 110.5,24.5C 108.149,26.759 108.815,28.259 112.5,29C 109.833,29.6667 109.833,30.3333 112.5,31C 110.668,31.7485 109.001,32.7485 107.5,34C 108.5,34.3333 109.5,34.6667 110.5,35C 109.075,37.9415 107.742,40.9415 106.5,44C 107.167,44.3333 107.833,44.6667 108.5,45C 105.833,45.6667 105.833,46.3333 108.5,47C 106.5,47.3333 104.5,47.6667 102.5,48C 103.34,49.6665 102.84,49.8331 101,48.5C 99.0606,52.2029 97.0606,55.2029 95,57.5C 93.8545,56.3157 92.6879,56.3157 91.5,57.5C 91.3893,56.8826 91.056,56.3826 90.5,56C 94.128,55.21 96.128,53.0433 96.5,49.5C 97.552,49.6495 98.552,49.4828 99.5,49C 99.1667,48.6667 98.8333,48.3333 98.5,48C 99.8036,44.9368 101.804,41.9368 104.5,39C 103.833,38.6667 103.167,38.3333 102.5,38C 101.987,36.4244 102.654,35.091 104.5,34C 104.095,33.0546 103.428,32.3879 102.5,32C 103.833,31.3333 105.167,30.6667 106.5,30C 105.167,29.3333 103.833,28.6667 102.5,28C 103.308,27.6924 103.975,27.1924 104.5,26.5C 102.889,23.7802 102.056,20.7802 102,17.5C 101.167,16 100,14.8333 98.5,14C 99.1667,13.6667 99.8333,13.3333 100.5,13C 98.2232,11.3868 96.7232,9.22012 96,6.5C 95.6667,7.5 95.3333,8.5 95,9.5C 94.6667,7.83333 94.3333,6.16667 94,4.5C 93.6667,5.16667 93.3333,5.83333 93,6.5C 90.2769,3.93516 87.4436,1.60183 84.5,-0.5 Z"/></g>
<g><path style="opacity:0.295" fill="#99d2fc" d="M 64.5,49.5 C 60.4526,49.3048 56.4526,49.6381 52.5,50.5C 50.8405,49.8284 49.5072,48.8284 48.5,47.5C 51.7766,47.2161 54.9433,47.5495 58,48.5C 58.4828,47.552 58.6495,46.552 58.5,45.5C 62.4531,45.3861 65.9531,44.0527 69,41.5C 70.6667,41.5 72.3333,41.5 74,41.5C 74.5743,39.508 75.741,38.008 77.5,37C 76.3318,35.5944 76.6652,34.4277 78.5,33.5C 77.1667,31.1667 77.1667,28.8333 78.5,26.5C 77.1936,25.0878 76.3603,23.4211 76,21.5C 73.3568,20.0237 71.1901,18.0237 69.5,15.5C 62.0881,12.8379 54.0881,12.0046 45.5,13C 44.7476,13.6708 44.4142,14.5041 44.5,15.5C 43.7784,15.0825 43.2784,14.4158 43,13.5C 30.1887,18.4145 26.3554,26.7478 31.5,38.5C 34.3933,38.0311 36.3933,39.0311 37.5,41.5C 37.5,42.1667 37.5,42.8333 37.5,43.5C 36.8333,43.8333 36.1667,44.1667 35.5,44.5C 34.02,42.3969 32.8534,42.3969 32,44.5C 29.5969,43.5206 28.7636,42.0206 29.5,40C 28.3333,39.5 27.5,38.6667 27,37.5C 26.6667,38.1667 26.3333,38.8333 26,39.5C 24.6896,37.8678 24.1896,36.2012 24.5,34.5C 20.8998,32.0504 20.8998,29.2171 24.5,26C 23.2092,23.9098 23.8758,22.5764 26.5,22C 26.1667,21.6667 25.8333,21.3333 25.5,21C 26.448,20.5172 27.448,20.3505 28.5,20.5C 29.6771,17.9622 31.3438,15.6289 33.5,13.5C 35.5668,12.8659 37.4002,11.8659 39,10.5C 39.6667,11.1667 40.3333,11.8333 41,12.5C 40.8516,11.175 41.0183,10.0084 41.5,9C 46.6449,8.7738 51.6449,8.60714 56.5,8.5C 59.5666,9.53011 62.5666,10.8634 65.5,12.5C 67.0701,12.3062 68.5701,12.3062 70,12.5C 72.761,16.2663 75.9276,19.7663 79.5,23C 78.3659,24.016 78.6992,24.6827 80.5,25C 79.2092,27.0902 79.8758,28.4236 82.5,29C 82.077,31.563 81.4103,34.3963 80.5,37.5C 81.0253,38.1924 81.6919,38.6924 82.5,39C 80.4687,39.6322 78.802,40.7988 77.5,42.5C 75.2338,43.3142 72.9005,43.8142 70.5,44C 70.8333,44.3333 71.1667,44.6667 71.5,45C 69.1902,45.4966 66.8568,45.6633 64.5,45.5C 64.5,46.8333 64.5,48.1667 64.5,49.5 Z"/></g>
<g><path style="opacity:0.403" fill="#76c3fa" d="M 48.5,16.5 C 57.4102,14.5965 64.5769,17.2632 70,24.5C 70.9777,28.9002 70.4777,33.0669 68.5,37C 66.5,37.3333 64.5,37.6667 62.5,38C 62.8333,38.3333 63.1667,38.6667 63.5,39C 57.7904,41.459 51.7904,42.1256 45.5,41C 43.714,40.2155 42.214,39.0488 41,37.5C 40.6667,38.1667 40.3333,38.8333 40,39.5C 38.6107,37.2089 37.1107,35.0422 35.5,33C 36.1667,32.6667 36.8333,32.3333 37.5,32C 35.709,29.8938 35.0423,27.3938 35.5,24.5C 38.0495,24.4392 39.5495,23.1059 40,20.5C 40.3333,20.8333 40.6667,21.1667 41,21.5C 43.3751,19.4796 45.8751,17.8129 48.5,16.5 Z"/></g>
<g><path style="opacity:0.439" fill="#66bdfa" d="M 47.5,21.5 C 53.9669,20.2951 59.3003,22.1284 63.5,27C 62.3659,28.016 62.6992,28.6827 64.5,29C 64.4803,30.715 63.8136,32.5484 62.5,34.5C 60.6675,35.2485 59.0009,36.2485 57.5,37.5C 56.7492,36.624 56.2492,35.624 56,34.5C 55.044,35.8941 53.7106,36.5607 52,36.5C 47.5404,35.8526 43.707,34.0192 40.5,31C 41.2489,29.2663 41.7489,27.433 42,25.5C 43.8121,24.0229 45.6455,22.6896 47.5,21.5 Z"/></g>
<g><path style="opacity:0.226" fill="#b6defc" d="M 91.5,20.5 C 93.7702,19.8752 94.1035,20.8752 92.5,23.5C 94.0127,25.5355 94.6793,27.8688 94.5,30.5C 93.2551,35.0973 92.5885,39.764 92.5,44.5C 88.4879,45.1602 86.4879,47.4935 86.5,51.5C 84.3618,51.703 82.6951,52.703 81.5,54.5C 80.8076,53.9747 80.3076,53.3081 80,52.5C 79.6667,53.8333 79.3333,55.1667 79,56.5C 78.5814,55.3279 77.9147,54.3279 77,53.5C 76.15,54.4239 75.15,54.4239 74,53.5C 72.6898,54.1301 71.8565,55.1301 71.5,56.5C 67.2865,58.1145 66.2865,57.2812 68.5,54C 67.9444,52.9889 67.2778,52.1556 66.5,51.5C 67.4584,51.0472 68.2917,50.3805 69,49.5C 69.3333,50.1667 69.6667,50.8333 70,51.5C 70.6667,50.1667 71.3333,48.8333 72,47.5C 72.3333,47.8333 72.6667,48.1667 73,48.5C 75.6056,47.4015 78.1056,46.0681 80.5,44.5C 81.086,44.7093 81.586,45.0426 82,45.5C 83.8604,41.7792 85.527,38.4459 87,35.5C 87.2069,31.9106 87.7069,28.4106 88.5,25C 86.163,22.6492 84.663,19.8158 84,16.5C 83.3333,15.1667 82.6667,15.1667 82,16.5C 78.2846,13.5878 74.7846,10.5878 71.5,7.5C 75.7709,6.52035 78.9376,8.18702 81,12.5C 81.3333,11.8333 81.6667,11.1667 82,10.5C 83.4352,12.2113 85.2686,13.378 87.5,14C 86.6198,15.3561 86.2865,16.8561 86.5,18.5C 88.5138,18.3915 90.1805,19.0582 91.5,20.5 Z"/></g>
<g><path style="opacity:0.145" fill="#cfe8fd" d="M 66.5,-0.5 C 72.5,-0.5 78.5,-0.5 84.5,-0.5C 87.4436,1.60183 90.2769,3.93516 93,6.5C 93.3333,5.83333 93.6667,5.16667 94,4.5C 94.3333,6.16667 94.6667,7.83333 95,9.5C 95.3333,8.5 95.6667,7.5 96,6.5C 96.7232,9.22012 98.2232,11.3868 100.5,13C 99.8333,13.3333 99.1667,13.6667 98.5,14C 100,14.8333 101.167,16 102,17.5C 102.056,20.7802 102.889,23.7802 104.5,26.5C 103.975,27.1924 103.308,27.6924 102.5,28C 103.833,28.6667 105.167,29.3333 106.5,30C 105.167,30.6667 103.833,31.3333 102.5,32C 103.428,32.3879 104.095,33.0546 104.5,34C 102.654,35.091 101.987,36.4244 102.5,38C 103.167,38.3333 103.833,38.6667 104.5,39C 101.804,41.9368 99.8036,44.9368 98.5,48C 98.8333,48.3333 99.1667,48.6667 99.5,49C 98.552,49.4828 97.552,49.6495 96.5,49.5C 96.128,53.0433 94.128,55.21 90.5,56C 91.056,56.3826 91.3893,56.8826 91.5,57.5C 89.7446,58.0722 88.0779,58.9055 86.5,60C 87.428,60.3879 88.0946,61.0546 88.5,62C 87.1793,64.8311 85.5127,67.3311 83.5,69.5C 82.7611,69.631 82.0944,69.4643 81.5,69C 82.6956,68.3457 82.6956,67.8457 81.5,67.5C 79.9291,68.3094 78.2624,68.6427 76.5,68.5C 76.5875,65.4017 76.0875,65.0684 75,67.5C 73.513,66.7471 73.3463,65.9138 74.5,65C 73.2341,64.6905 72.0674,64.1905 71,63.5C 69.9125,65.9316 69.4125,65.5983 69.5,62.5C 71.2064,60.3403 73.5398,59.1736 76.5,59C 75.0997,57.5619 73.433,56.7286 71.5,56.5C 71.8565,55.1301 72.6898,54.1301 74,53.5C 75.15,54.4239 76.15,54.4239 77,53.5C 77.9147,54.3279 78.5814,55.3279 79,56.5C 79.3333,55.1667 79.6667,53.8333 80,52.5C 80.3076,53.3081 80.8076,53.9747 81.5,54.5C 82.6951,52.703 84.3618,51.703 86.5,51.5C 86.4879,47.4935 88.4879,45.1602 92.5,44.5C 92.5885,39.764 93.2551,35.0973 94.5,30.5C 94.6793,27.8688 94.0127,25.5355 92.5,23.5C 94.1035,20.8752 93.7702,19.8752 91.5,20.5C 90.8288,19.1529 90.8288,17.9862 91.5,17C 89.6061,15.8989 88.9394,14.5655 89.5,13C 87.3762,11.8783 85.5429,10.3783 84,8.5C 83.6667,8.83333 83.3333,9.16667 83,9.5C 80.9752,6.56177 78.1418,4.72844 74.5,4C 75.1667,3.66667 75.8333,3.33333 76.5,3C 72.8909,2.29874 69.5575,1.13207 66.5,-0.5 Z"/></g>
<g><path style="opacity:0.318" fill="#b6d2fb" d="M 37.5,43.5 C 37.5,44.5 37.5,45.5 37.5,46.5C 41.1352,47.1143 44.8019,47.4476 48.5,47.5C 49.5072,48.8284 50.8405,49.8284 52.5,50.5C 56.4526,49.6381 60.4526,49.3048 64.5,49.5C 64.4125,52.5983 64.9125,52.9316 66,50.5C 66.3988,50.7284 66.5654,51.0618 66.5,51.5C 67.2778,52.1556 67.9444,52.9889 68.5,54C 66.2865,57.2812 67.2865,58.1145 71.5,56.5C 73.433,56.7286 75.0997,57.5619 76.5,59C 73.5398,59.1736 71.2064,60.3403 69.5,62.5C 66.1427,62.1872 62.4761,61.8538 58.5,61.5C 57.0364,58.5346 54.8697,57.868 52,59.5C 48.8762,58.3543 45.7096,57.3543 42.5,56.5C 38.5488,57.4653 35.0488,56.4653 32,53.5C 31.5,54.6667 30.6667,55.5 29.5,56C 26.854,56.4974 24.1873,56.6641 21.5,56.5C 20.3647,54.9122 19.0314,54.5788 17.5,55.5C 14.6549,55.2343 12.3216,54.2343 10.5,52.5C 12.767,51.4038 14.6004,49.7372 16,47.5C 15.315,51.3114 16.4817,51.978 19.5,49.5C 21.8857,50.9884 22.5524,50.6551 21.5,48.5C 24.9175,48.977 27.5841,47.977 29.5,45.5C 30.2679,46.2625 30.7679,47.2625 31,48.5C 31.3879,47.572 32.0546,46.9054 33,46.5C 35.9175,47.4944 36.0842,46.9944 33.5,45C 34.0944,44.5357 34.7611,44.369 35.5,44.5C 36.1667,44.1667 36.8333,43.8333 37.5,43.5 Z"/></g>
<g><path style="opacity:0.169" fill="#f6e9fa" d="M 126.5,48.5 C 126.196,49.1499 125.863,49.8165 125.5,50.5C 119.885,51.6281 114.218,52.2948 108.5,52.5C 108.67,53.8221 108.337,54.9887 107.5,56C 102.728,58.6105 98.395,61.7772 94.5,65.5C 95.311,67.7803 95.311,70.2803 94.5,73C 97.0693,75.7402 99.7359,78.2402 102.5,80.5C 100.952,80.8212 100.285,81.8212 100.5,83.5C 100.631,84.2389 100.464,84.9056 100,85.5C 99.5814,84.3279 98.9147,83.3279 98,82.5C 98,81.1667 98,79.8333 98,78.5C 97.2496,79.1258 96.4162,79.6258 95.5,80C 95.8333,80.3333 96.1667,80.6667 96.5,81C 95.552,81.4828 94.552,81.6495 93.5,81.5C 93.8747,78.0933 92.8747,77.5933 90.5,80C 93.1667,80.6667 93.1667,81.3333 90.5,82C 91.8333,82.6667 93.1667,83.3333 94.5,84C 92.0958,84.5079 91.4291,85.6745 92.5,87.5C 91.3523,89.1487 90.019,90.6487 88.5,92C 89.3081,92.3076 89.9747,92.8076 90.5,93.5C 89.1369,94.8928 88.3036,96.5595 88,98.5C 87.31,99.7383 86.81,99.7383 86.5,98.5C 86.6068,96.6214 86.1068,96.2881 85,97.5C 84.5518,95.7756 83.7185,95.109 82.5,95.5C 82.8076,94.6919 83.3076,94.0253 84,93.5C 84.8928,94.7112 85.7261,94.7112 86.5,93.5C 85.8333,92.8333 85.1667,92.1667 84.5,91.5C 85.9507,90.094 87.2841,88.594 88.5,87C 85.8333,86.3333 85.8333,85.6667 88.5,85C 85.9201,83.1029 86.2535,81.1029 89.5,79C 86.4557,78.6411 86.1224,77.9745 88.5,77C 86.1088,76.3086 86.1088,75.3086 88.5,74C 85.8875,72.9288 85.8875,72.0955 88.5,71.5C 88.56,72.0431 88.8933,72.3764 89.5,72.5C 90.731,71.3493 90.731,70.1827 89.5,69C 92.6399,67.9996 93.9732,65.8329 93.5,62.5C 94.8221,62.67 95.9887,62.3366 97,61.5C 98.2709,57.3208 100.771,54.1542 104.5,52C 103.833,51.6667 103.167,51.3333 102.5,51C 103.646,50.3551 104.646,49.5217 105.5,48.5C 105.833,49.1667 106.167,49.8333 106.5,50.5C 108.22,49.0198 110.053,47.6865 112,46.5C 115.94,46.1839 119.607,46.5173 123,47.5C 125.484,44.7406 126.65,45.074 126.5,48.5 Z"/></g>
<g><path style="opacity:0.102" fill="#dbd5f9" d="M 10.5,52.5 C 12.3216,54.2343 14.6549,55.2343 17.5,55.5C 19.0314,54.5788 20.3647,54.9122 21.5,56.5C 19.5915,56.8834 18.0915,57.8834 17,59.5C 16.6827,57.6992 16.016,57.3659 15,58.5C 14.3333,55.8333 13.6667,55.8333 13,58.5C 12.6667,57.8333 12.3333,57.1667 12,56.5C 9.82817,57.5089 8.6615,59.1756 8.5,61.5C 7.31213,60.3157 6.14547,60.3157 5,61.5C 3.82611,59.3291 1.99278,58.3291 -0.5,58.5C -0.5,57.1667 -0.5,55.8333 -0.5,54.5C 1.19981,54.6261 2.69981,55.2927 4,56.5C 5,55.8333 6,55.1667 7,54.5C 8.8918,57.3895 9.72513,57.0562 9.5,53.5C 8.20895,53.7373 7.20895,53.404 6.5,52.5C 7.22158,52.0825 7.72158,51.4158 8,50.5C 8.41691,51.756 9.25025,52.4226 10.5,52.5 Z"/></g>
<g><path style="opacity:0.29" fill="#c3c7f9" d="M 58.5,61.5 C 59.2545,63.4663 60.4212,63.7996 62,62.5C 61.8591,66.8312 63.1925,67.4978 66,64.5C 66.49,65.7932 66.6567,67.1266 66.5,68.5C 67.8734,68.3433 69.2068,68.51 70.5,69C 69.8333,69.3333 69.1667,69.6667 68.5,70C 69.4158,70.2784 70.0825,70.7784 70.5,71.5C 69.8485,72.0906 69.1818,72.7573 68.5,73.5C 66.2046,72.5682 63.8713,71.7348 61.5,71C 59.8171,68.9864 57.8171,67.3198 55.5,66C 55.8333,65.6667 56.1667,65.3333 56.5,65C 52.9638,64.8197 49.6304,63.8197 46.5,62C 47.1667,61.6667 47.8333,61.3333 48.5,61C 44.8333,60.3333 41.1667,60.3333 37.5,61C 37,61.5 36.5,62 36,62.5C 34.0876,61.3081 32.0876,60.3081 30,59.5C 24.3261,59.3417 18.8261,60.675 13.5,63.5C 11.971,61.6837 10.3043,61.017 8.5,61.5C 8.6615,59.1756 9.82817,57.5089 12,56.5C 12.3333,57.1667 12.6667,57.8333 13,58.5C 13.6667,55.8333 14.3333,55.8333 15,58.5C 16.016,57.3659 16.6827,57.6992 17,59.5C 18.0915,57.8834 19.5915,56.8834 21.5,56.5C 24.1873,56.6641 26.854,56.4974 29.5,56C 30.6667,55.5 31.5,54.6667 32,53.5C 35.0488,56.4653 38.5488,57.4653 42.5,56.5C 45.7096,57.3543 48.8762,58.3543 52,59.5C 54.8697,57.868 57.0364,58.5346 58.5,61.5 Z"/></g>
<g><path style="opacity:0.199" fill="#fcdff9" d="M 126.5,48.5 C 126.833,48.5 127.167,48.5 127.5,48.5C 128.26,51.157 129.76,52.157 132,51.5C 134.088,52.3081 136.088,53.3081 138,54.5C 138.333,54.1667 138.667,53.8333 139,53.5C 143.21,57.1216 147.043,60.2883 150.5,63C 148.487,63.8753 148.487,65.2087 150.5,67C 150.112,68.5252 150.112,70.1918 150.5,72C 149.833,74 148.5,75.3333 146.5,76C 147.167,76.3333 147.833,76.6667 148.5,77C 146.866,77.4935 145.199,77.6602 143.5,77.5C 143.5,78.5 143.5,79.5 143.5,80.5C 140.692,80.6933 138.025,81.36 135.5,82.5C 135.5,83.5 135.5,84.5 135.5,85.5C 132.881,85.7683 130.381,85.435 128,84.5C 123.229,85.7014 118.896,86.3681 115,86.5C 113.604,84.4732 111.938,84.1398 110,85.5C 107.647,83.6533 105.147,81.9866 102.5,80.5C 99.7359,78.2402 97.0693,75.7402 94.5,73C 95.311,70.2803 95.311,67.7803 94.5,65.5C 98.395,61.7772 102.728,58.6105 107.5,56C 108.337,54.9887 108.67,53.8221 108.5,52.5C 114.218,52.2948 119.885,51.6281 125.5,50.5C 125.863,49.8165 126.196,49.1499 126.5,48.5 Z"/></g>
<g><path style="opacity:0.26" fill="#c8bbf7" d="M -0.5,58.5 C 1.99278,58.3291 3.82611,59.3291 5,61.5C 6.14547,60.3157 7.31213,60.3157 8.5,61.5C 10.3043,61.017 11.971,61.6837 13.5,63.5C 18.8261,60.675 24.3261,59.3417 30,59.5C 32.0876,60.3081 34.0876,61.3081 36,62.5C 36.5,62 37,61.5 37.5,61C 41.1667,60.3333 44.8333,60.3333 48.5,61C 47.8333,61.3333 47.1667,61.6667 46.5,62C 49.6304,63.8197 52.9638,64.8197 56.5,65C 56.1667,65.3333 55.8333,65.6667 55.5,66C 57.8171,67.3198 59.8171,68.9864 61.5,71C 63.8713,71.7348 66.2046,72.5682 68.5,73.5C 69.1818,72.7573 69.8485,72.0906 70.5,71.5C 70.9175,72.2216 71.5842,72.7216 72.5,73C 71.0439,73.4226 70.5439,74.2559 71,75.5C 73.2317,74.8126 75.3984,74.4793 77.5,74.5C 81.0218,75.8306 81.3552,77.6639 78.5,80C 81.1667,80.6667 81.1667,81.3333 78.5,82C 79.8333,82.6667 79.8333,83.3333 78.5,84C 80.5,84.3333 82.5,84.6667 84.5,85C 82.2852,85.1705 80.2852,85.8372 78.5,87C 78.9574,87.414 79.2907,87.914 79.5,88.5C 77.5269,91.2458 76.0269,94.2458 75,97.5C 74,97.5 73,97.5 72,97.5C 69.7624,101.192 67.0957,104.525 64,107.5C 62.78,105.143 61.9467,105.476 61.5,108.5C 59.1667,108.5 56.8333,108.5 54.5,108.5C 55.0283,107.279 55.695,106.113 56.5,105C 56.1667,104.667 55.8333,104.333 55.5,104C 56.7441,103.544 57.5774,104.044 58,105.5C 61.7532,102.588 65.5866,99.5883 69.5,96.5C 70.1371,93.2099 71.8038,90.0433 74.5,87C 74.3063,83.7635 74.3063,80.5968 74.5,77.5C 71.415,77.0794 68.415,76.7461 65.5,76.5C 65.1667,76.5 64.8333,76.5 64.5,76.5C 60.6433,71.8357 55.6433,69.6691 49.5,70C 45.5056,68.0891 41.3389,66.5891 37,65.5C 34.5782,65.9857 32.4115,66.319 30.5,66.5C 22.9781,63.6266 15.8115,63.2933 9,65.5C 7.33333,64.8333 5.66667,64.1667 4,63.5C 3.34445,65.9861 1.84445,67.6528 -0.5,68.5C -0.5,65.1667 -0.5,61.8333 -0.5,58.5 Z"/></g>
<g><path style="opacity:0.227" fill="#b99af3" d="M 64.5,76.5 C 64.8333,76.5 65.1667,76.5 65.5,76.5C 65.4082,79.3586 65.0749,81.8586 64.5,84C 67.8486,84.0891 68.3486,85.2557 66,87.5C 65.6667,87.1667 65.3333,86.8333 65,86.5C 64.1048,88.8045 63.2715,91.1378 62.5,93.5C 60.2589,94.0318 58.7589,95.3651 58,97.5C 57.6174,96.944 57.1174,96.6107 56.5,96.5C 58.002,94.825 59.3353,92.9917 60.5,91C 59.8333,90.6667 59.1667,90.3333 58.5,90C 60.359,89.3161 62.0257,88.3161 63.5,87C 62.6433,86.3109 61.9767,85.4776 61.5,84.5C 61.6304,82.5774 61.9638,80.7441 62.5,79C 60.4024,78.3224 58.4024,78.4891 56.5,79.5C 56.5594,77.2355 55.7261,76.9022 54,78.5C 52.1997,77.6805 50.3664,77.0138 48.5,76.5C 47.8333,76.5 47.1667,76.5 46.5,76.5C 45.3282,74.461 43.6616,73.1276 41.5,72.5C 39.6998,70.9496 37.5332,69.9496 35,69.5C 27.5102,70.6167 19.8435,70.6167 12,69.5C 10.8333,70.6667 9.66667,71.8333 8.5,73C 9.16667,73.3333 9.83333,73.6667 10.5,74C 8.48409,75.0282 7.48409,76.6948 7.5,79C 8.58886,81.8444 9.9222,84.5111 11.5,87C 11.0426,87.414 10.7093,87.914 10.5,88.5C 12.6932,91.0977 15.3598,92.9311 18.5,94C 20.1247,94.8525 20.4581,95.8525 19.5,97C 22.5443,97.3589 22.8776,98.0255 20.5,99C 21.9071,100.452 23.4071,100.285 25,98.5C 26.0674,99.1905 27.2341,99.6905 28.5,100C 27.8333,100.333 27.1667,100.667 26.5,101C 27.7659,101.309 28.9326,101.809 30,102.5C 33.7713,102.354 37.6047,102.02 41.5,101.5C 43.0255,101.994 44.3588,102.661 45.5,103.5C 43.6962,103.66 41.8628,104.66 40,106.5C 36.4082,105.675 33.0748,105.675 30,106.5C 27.4944,103.944 24.6611,102.944 21.5,103.5C 19.5,100.833 17.5,98.1667 15.5,95.5C 14.8333,95.8333 14.1667,96.1667 13.5,96.5C 10.7974,93.462 7.79737,90.7954 4.5,88.5C 4.69382,86.9299 4.69382,85.4299 4.5,84C 1.83333,83.3333 1.83333,82.6667 4.5,82C 1.83333,81.3333 1.83333,80.6667 4.5,80C 1.83333,79.3333 1.83333,78.6667 4.5,78C 4.38093,76.8552 4.0476,75.6885 3.5,74.5C 4.30943,73.5313 5.30943,72.6979 6.5,72C 6.04265,71.586 5.70931,71.086 5.5,70.5C 6.76617,69.2764 7.93283,67.9431 9,66.5C 9.33333,67.5 9.66667,68.5 10,69.5C 19.4701,68.4352 28.8034,67.7685 38,67.5C 43.707,70.4737 49.8737,72.307 56.5,73C 58.8507,75.0662 61.3507,76.8996 64,78.5C 64.4643,77.9056 64.631,77.2389 64.5,76.5 Z"/></g>
<g><path style="opacity:0.09" fill="#c4abf5" d="M 64.5,76.5 C 64.631,77.2389 64.4643,77.9056 64,78.5C 61.3507,76.8996 58.8507,75.0662 56.5,73C 49.8737,72.307 43.707,70.4737 38,67.5C 28.8034,67.7685 19.4701,68.4352 10,69.5C 9.66667,68.5 9.33333,67.5 9,66.5C 7.93283,67.9431 6.76617,69.2764 5.5,70.5C 5.70931,71.086 6.04265,71.586 6.5,72C 5.30943,72.6979 4.30943,73.5313 3.5,74.5C 2.39428,75.7298 1.39428,76.8964 0.5,78C 1.83333,79.3333 1.83333,80.6667 0.5,82C 1.65022,84.2119 2.65022,86.3786 3.5,88.5C 2.3913,89.9647 2.8913,90.9647 5,91.5C 5.48278,92.448 5.64945,93.448 5.5,94.5C 4.84851,95.0906 4.18185,95.7573 3.5,96.5C 2.43052,95.0905 1.09719,94.0905 -0.5,93.5C -0.5,85.1667 -0.5,76.8333 -0.5,68.5C 1.84445,67.6528 3.34445,65.9861 4,63.5C 5.66667,64.1667 7.33333,64.8333 9,65.5C 15.8115,63.2933 22.9781,63.6266 30.5,66.5C 32.4115,66.319 34.5782,65.9857 37,65.5C 41.3389,66.5891 45.5056,68.0891 49.5,70C 55.6433,69.6691 60.6433,71.8357 64.5,76.5 Z"/></g>
<g><path style="opacity:0.254" fill="#fbd3f7" d="M 117.5,56.5 C 114.565,59.6094 110.898,61.6094 106.5,62.5C 106.551,64.5695 105.885,66.4029 104.5,68C 105.8,70.4373 106.8,72.9373 107.5,75.5C 111.478,77.1537 115.478,78.8204 119.5,80.5C 126.874,80.3913 133.04,77.7247 138,72.5C 138.894,69.8112 139.394,67.3112 139.5,65C 137.697,64.3632 136.364,63.1965 135.5,61.5C 133.253,60.7554 131.42,59.422 130,57.5C 129.667,57.8333 129.333,58.1667 129,58.5C 127.559,57.7402 126.059,57.0736 124.5,56.5C 122.801,57.8146 121.135,57.8146 119.5,56.5C 119.611,55.8826 119.944,55.3826 120.5,55C 122,54.8333 123.5,54.6667 125,54.5C 128.489,55.1832 131.656,56.0165 134.5,57C 134.167,57.3333 133.833,57.6667 133.5,58C 136.704,58.2633 138.704,59.9299 139.5,63C 140.833,63.6667 142.167,64.3333 143.5,65C 142.756,67.4828 142.756,70.1494 143.5,73C 139.554,76.6262 135.054,79.4595 130,81.5C 123.916,82.3329 117.75,82.3329 111.5,81.5C 111.649,80.448 111.483,79.448 111,78.5C 109.092,79.0792 107.425,79.0792 106,78.5C 102.713,75.3098 100.546,71.4765 99.5,67C 100.903,63.5954 103.069,60.7621 106,58.5C 107.131,59.6039 107.965,59.2705 108.5,57.5C 111.428,56.5159 114.428,56.1826 117.5,56.5 Z"/></g>
<g><path style="opacity:0.333" fill="#fac5f5" d="M 117.5,56.5 C 118.167,56.5 118.833,56.5 119.5,56.5C 121.135,57.8146 122.801,57.8146 124.5,56.5C 126.059,57.0736 127.559,57.7402 129,58.5C 129.333,58.1667 129.667,57.8333 130,57.5C 131.42,59.422 133.253,60.7554 135.5,61.5C 136.364,63.1965 137.697,64.3632 139.5,65C 139.394,67.3112 138.894,69.8112 138,72.5C 133.04,77.7247 126.874,80.3913 119.5,80.5C 115.478,78.8204 111.478,77.1537 107.5,75.5C 106.8,72.9373 105.8,70.4373 104.5,68C 105.885,66.4029 106.551,64.5695 106.5,62.5C 110.898,61.6094 114.565,59.6094 117.5,56.5 Z"/></g>
<g><path style="opacity:0.369" fill="#f9b7f3" d="M 118.5,62.5 C 125.444,61.305 130.444,63.805 133.5,70C 131.162,71.1622 129.828,72.9956 129.5,75.5C 122.287,76.4354 116.954,74.4354 113.5,69.5C 114.309,67.9291 114.643,66.2624 114.5,64.5C 116.38,64.7709 117.713,64.1042 118.5,62.5 Z"/></g>
<g><path style="opacity:0.063" fill="#dccef9" d="M 58.5,61.5 C 62.4761,61.8538 66.1427,62.1872 69.5,62.5C 69.4125,65.5983 69.9125,65.9316 71,63.5C 72.0674,64.1905 73.2341,64.6905 74.5,65C 73.3463,65.9138 73.513,66.7471 75,67.5C 76.0875,65.0684 76.5875,65.4017 76.5,68.5C 78.2624,68.6427 79.9291,68.3094 81.5,67.5C 82.6956,67.8457 82.6956,68.3457 81.5,69C 82.0944,69.4643 82.7611,69.631 83.5,69.5C 83.369,70.2389 83.5357,70.9056 84,71.5C 85.3333,70.8333 86.6667,70.1667 88,69.5C 88.4643,70.0944 88.631,70.7611 88.5,71.5C 85.8875,72.0955 85.8875,72.9288 88.5,74C 86.1088,75.3086 86.1088,76.3086 88.5,77C 86.1224,77.9745 86.4557,78.6411 89.5,79C 86.2535,81.1029 85.9201,83.1029 88.5,85C 85.8333,85.6667 85.8333,86.3333 88.5,87C 87.2841,88.594 85.9507,90.094 84.5,91.5C 85.1667,92.1667 85.8333,92.8333 86.5,93.5C 85.7261,94.7112 84.8928,94.7112 84,93.5C 83.3076,94.0253 82.8076,94.6919 82.5,95.5C 83.7185,95.109 84.5518,95.7756 85,97.5C 86.1068,96.2881 86.6068,96.6214 86.5,98.5C 85.8333,98.5 85.1667,98.5 84.5,98.5C 82.9319,98.6408 81.2652,98.9742 79.5,99.5C 78.7022,101.078 78.2022,102.744 78,104.5C 76.984,103.366 76.3173,103.699 76,105.5C 75.6667,104.833 75.3333,104.167 75,103.5C 73.9702,105.126 72.8035,106.793 71.5,108.5C 68.1667,108.5 64.8333,108.5 61.5,108.5C 61.9467,105.476 62.78,105.143 64,107.5C 67.0957,104.525 69.7624,101.192 72,97.5C 73,97.5 74,97.5 75,97.5C 76.0269,94.2458 77.5269,91.2458 79.5,88.5C 79.2907,87.914 78.9574,87.414 78.5,87C 80.2852,85.8372 82.2852,85.1705 84.5,85C 82.5,84.6667 80.5,84.3333 78.5,84C 79.8333,83.3333 79.8333,82.6667 78.5,82C 81.1667,81.3333 81.1667,80.6667 78.5,80C 81.3552,77.6639 81.0218,75.8306 77.5,74.5C 75.3984,74.4793 73.2317,74.8126 71,75.5C 70.5439,74.2559 71.0439,73.4226 72.5,73C 71.5842,72.7216 70.9175,72.2216 70.5,71.5C 70.0825,70.7784 69.4158,70.2784 68.5,70C 69.1667,69.6667 69.8333,69.3333 70.5,69C 69.2068,68.51 67.8734,68.3433 66.5,68.5C 66.6567,67.1266 66.49,65.7932 66,64.5C 63.1925,67.4978 61.8591,66.8312 62,62.5C 60.4212,63.7996 59.2545,63.4663 58.5,61.5 Z"/></g>
<g><path style="opacity:0.022" fill="#f1eff3" d="M 100.5,83.5 C 101.404,84.209 101.737,85.209 101.5,86.5C 103.5,86.5 105.5,86.5 107.5,86.5C 107.413,89.5983 107.913,89.9316 109,87.5C 111.097,88.991 113.43,89.991 116,90.5C 117.779,89.5209 119.445,89.8542 121,91.5C 122.566,92.0606 123.899,91.3939 125,89.5C 125.333,90.1667 125.667,90.8333 126,91.5C 128.923,91.0494 131.757,89.716 134.5,87.5C 135.541,89.9913 136.374,89.9913 137,87.5C 137.333,88.1667 137.667,88.8333 138,89.5C 138.284,87.1144 139.284,86.4477 141,87.5C 142.824,86.2513 142.657,85.0847 140.5,84C 144.017,79.8645 148.017,79.0312 152.5,81.5C 152.5,82.1667 152.5,82.8333 152.5,83.5C 136.243,94.1771 119.077,95.8437 101,88.5C 98.269,95.6311 94.769,102.298 90.5,108.5C 87.8333,108.5 85.1667,108.5 82.5,108.5C 82.4125,105.402 82.9125,105.068 84,107.5C 84.498,104.518 84.6646,101.518 84.5,98.5C 85.1667,98.5 85.8333,98.5 86.5,98.5C 86.81,99.7383 87.31,99.7383 88,98.5C 88.3036,96.5595 89.1369,94.8928 90.5,93.5C 89.9747,92.8076 89.3081,92.3076 88.5,92C 90.019,90.6487 91.3523,89.1487 92.5,87.5C 91.4291,85.6745 92.0958,84.5079 94.5,84C 93.1667,83.3333 91.8333,82.6667 90.5,82C 93.1667,81.3333 93.1667,80.6667 90.5,80C 92.8747,77.5933 93.8747,78.0933 93.5,81.5C 94.552,81.6495 95.552,81.4828 96.5,81C 96.1667,80.6667 95.8333,80.3333 95.5,80C 96.4162,79.6258 97.2496,79.1258 98,78.5C 98,79.8333 98,81.1667 98,82.5C 98.9147,83.3279 99.5814,84.3279 100,85.5C 100.464,84.9056 100.631,84.2389 100.5,83.5 Z"/></g>
<g><path style="opacity:0.12" fill="#fdebfb" d="M 152.5,56.5 C 152.5,64.8333 152.5,73.1667 152.5,81.5C 148.017,79.0312 144.017,79.8645 140.5,84C 142.657,85.0847 142.824,86.2513 141,87.5C 139.284,86.4477 138.284,87.1144 138,89.5C 137.667,88.8333 137.333,88.1667 137,87.5C 136.374,89.9913 135.541,89.9913 134.5,87.5C 131.757,89.716 128.923,91.0494 126,91.5C 125.667,90.8333 125.333,90.1667 125,89.5C 123.899,91.3939 122.566,92.0606 121,91.5C 119.445,89.8542 117.779,89.5209 116,90.5C 113.43,89.991 111.097,88.991 109,87.5C 107.913,89.9316 107.413,89.5983 107.5,86.5C 105.5,86.5 103.5,86.5 101.5,86.5C 101.737,85.209 101.404,84.209 100.5,83.5C 100.285,81.8212 100.952,80.8212 102.5,80.5C 105.147,81.9866 107.647,83.6533 110,85.5C 111.938,84.1398 113.604,84.4732 115,86.5C 118.896,86.3681 123.229,85.7014 128,84.5C 130.381,85.435 132.881,85.7683 135.5,85.5C 135.5,84.5 135.5,83.5 135.5,82.5C 138.025,81.36 140.692,80.6933 143.5,80.5C 143.5,79.5 143.5,78.5 143.5,77.5C 145.199,77.6602 146.866,77.4935 148.5,77C 147.833,76.6667 147.167,76.3333 146.5,76C 148.5,75.3333 149.833,74 150.5,72C 150.112,70.1918 150.112,68.5252 150.5,67C 148.487,65.2087 148.487,63.8753 150.5,63C 147.043,60.2883 143.21,57.1216 139,53.5C 138.667,53.8333 138.333,54.1667 138,54.5C 136.088,53.3081 134.088,52.3081 132,51.5C 129.76,52.157 128.26,51.157 127.5,48.5C 127.351,47.448 127.517,46.448 128,45.5C 130.25,46.7079 132.417,48.0413 134.5,49.5C 135.251,48.624 135.751,47.624 136,46.5C 137.624,48.1581 139.291,49.8248 141,51.5C 141.333,51.1667 141.667,50.8333 142,50.5C 142.576,53.1242 143.91,53.7908 146,52.5C 147.333,54.5 148.667,56.5 150,58.5C 150.417,57.244 151.25,56.5774 152.5,56.5 Z"/></g>
<g><path style="opacity:0.137" fill="#ab82f1" d="M 41.5,72.5 C 43.6616,73.1276 45.3282,74.461 46.5,76.5C 41.6156,75.0976 36.6156,74.431 31.5,74.5C 28.6146,74.1936 25.9479,74.5269 23.5,75.5C 19.6727,75.4401 19.006,76.6068 21.5,79C 20.0611,79.9906 19.0611,81.324 18.5,83C 20.6804,85.4774 22.1804,87.9774 23,90.5C 23.9707,89.8016 25.1374,89.8016 26.5,90.5C 28.2675,92.4247 30.4342,93.7581 33,94.5C 35.4895,94.5771 38.1562,93.9104 41,92.5C 42.3159,95.028 43.4826,95.028 44.5,92.5C 45.1667,92.8333 45.8333,93.1667 46.5,93.5C 47.4274,91.8872 48.2607,90.2205 49,88.5C 49.3333,88.8333 49.6667,89.1667 50,89.5C 50.4828,88.552 50.6495,87.552 50.5,86.5C 51.8221,86.67 52.9887,86.3366 54,85.5C 53.8516,84.175 54.0183,83.0084 54.5,82C 51.9568,80.6181 49.9568,78.7848 48.5,76.5C 50.3664,77.0138 52.1997,77.6805 54,78.5C 55.7261,76.9022 56.5594,77.2355 56.5,79.5C 55.232,81.6702 55.232,83.8368 56.5,86C 55.4841,87.6768 54.4841,89.3435 53.5,91C 53.8919,92.0105 54.5585,92.5105 55.5,92.5C 53.1659,94.4408 50.6659,96.1075 48,97.5C 47.586,97.0426 47.086,96.7093 46.5,96.5C 45.6667,97.5 44.8333,98.5 44,99.5C 40.966,99.1834 37.6327,99.1834 34,99.5C 31.6496,98.4958 29.3163,97.4958 27,96.5C 26.4387,97.0219 25.772,97.3552 25,97.5C 21.1262,94.6631 17.6262,91.4965 14.5,88C 17.1667,87.3333 17.1667,86.6667 14.5,86C 14.8333,85.6667 15.1667,85.3333 15.5,85C 14.5697,83.8061 13.9031,82.4728 13.5,81C 15.5437,78.9426 16.7103,76.4426 17,73.5C 25.1435,72.1886 33.3101,71.8553 41.5,72.5 Z"/></g>
<g><path style="opacity:0.153" fill="#a175f0" d="M 31.5,74.5 C 36.6156,74.431 41.6156,75.0976 46.5,76.5C 47.1667,76.5 47.8333,76.5 48.5,76.5C 49.9568,78.7848 51.9568,80.6181 54.5,82C 54.0183,83.0084 53.8516,84.175 54,85.5C 52.9887,86.3366 51.8221,86.67 50.5,86.5C 50.6495,87.552 50.4828,88.552 50,89.5C 49.6667,89.1667 49.3333,88.8333 49,88.5C 48.2607,90.2205 47.4274,91.8872 46.5,93.5C 45.8333,93.1667 45.1667,92.8333 44.5,92.5C 43.4826,95.028 42.3159,95.028 41,92.5C 38.1562,93.9104 35.4895,94.5771 33,94.5C 30.4342,93.7581 28.2675,92.4247 26.5,90.5C 25.1374,89.8016 23.9707,89.8016 23,90.5C 22.1804,87.9774 20.6804,85.4774 18.5,83C 19.0611,81.324 20.0611,79.9906 21.5,79C 19.006,76.6068 19.6727,75.4401 23.5,75.5C 24.0093,76.3413 23.3427,76.8413 21.5,77C 22.8333,78.3333 22.8333,79.6667 21.5,81C 24.1667,82.3333 24.1667,83.6667 21.5,85C 24.7058,87.477 28.2058,89.6437 32,91.5C 33.7785,90.5209 35.4452,90.8542 37,92.5C 37.8525,90.8753 38.8525,90.5419 40,91.5C 41.8159,89.5586 43.8159,88.8919 46,89.5C 46.6667,88.8333 47.3333,88.1667 48,87.5C 48.2256,84.905 48.7256,82.405 49.5,80C 45.7686,77.9006 41.7686,76.7339 37.5,76.5C 35.5,75.8333 33.5,75.1667 31.5,74.5 Z"/></g>
<g><path style="opacity:0.165" fill="#9968ee" d="M 23.5,75.5 C 25.9479,74.5269 28.6146,74.1936 31.5,74.5C 33.5,75.1667 35.5,75.8333 37.5,76.5C 41.7686,76.7339 45.7686,77.9006 49.5,80C 48.7256,82.405 48.2256,84.905 48,87.5C 47.3333,88.1667 46.6667,88.8333 46,89.5C 43.8159,88.8919 41.8159,89.5586 40,91.5C 38.8525,90.5419 37.8525,90.8753 37,92.5C 35.4452,90.8542 33.7785,90.5209 32,91.5C 28.2058,89.6437 24.7058,87.477 21.5,85C 24.1667,83.6667 24.1667,82.3333 21.5,81C 22.8333,79.6667 22.8333,78.3333 21.5,77C 23.3427,76.8413 24.0093,76.3413 23.5,75.5 Z"/></g>
<g><path style="opacity:0.123" fill="#b48ff2" d="M 41.5,72.5 C 33.3101,71.8553 25.1435,72.1886 17,73.5C 16.7103,76.4426 15.5437,78.9426 13.5,81C 13.9031,82.4728 14.5697,83.8061 15.5,85C 15.1667,85.3333 14.8333,85.6667 14.5,86C 17.1667,86.6667 17.1667,87.3333 14.5,88C 17.6262,91.4965 21.1262,94.6631 25,97.5C 25.772,97.3552 26.4387,97.0219 27,96.5C 29.3163,97.4958 31.6496,98.4958 34,99.5C 37.6327,99.1834 40.966,99.1834 44,99.5C 44.8333,98.5 45.6667,97.5 46.5,96.5C 47.086,96.7093 47.586,97.0426 48,97.5C 50.6659,96.1075 53.1659,94.4408 55.5,92.5C 54.5585,92.5105 53.8919,92.0105 53.5,91C 54.4841,89.3435 55.4841,87.6768 56.5,86C 55.232,83.8368 55.232,81.6702 56.5,79.5C 58.4024,78.4891 60.4024,78.3224 62.5,79C 61.9638,80.7441 61.6304,82.5774 61.5,84.5C 61.9767,85.4776 62.6433,86.3109 63.5,87C 62.0257,88.3161 60.359,89.3161 58.5,90C 59.1667,90.3333 59.8333,90.6667 60.5,91C 59.3353,92.9917 58.002,94.825 56.5,96.5C 54.9113,97.8721 53.5779,99.5388 52.5,101.5C 51.4593,99.0087 50.6259,99.0087 50,101.5C 49.6924,100.692 49.1924,100.025 48.5,99.5C 47.8503,101.184 46.8503,102.517 45.5,103.5C 44.3588,102.661 43.0255,101.994 41.5,101.5C 37.6047,102.02 33.7713,102.354 30,102.5C 28.9326,101.809 27.7659,101.309 26.5,101C 27.1667,100.667 27.8333,100.333 28.5,100C 27.2341,99.6905 26.0674,99.1905 25,98.5C 23.4071,100.285 21.9071,100.452 20.5,99C 22.8776,98.0255 22.5443,97.3589 19.5,97C 20.4581,95.8525 20.1247,94.8525 18.5,94C 15.3598,92.9311 12.6932,91.0977 10.5,88.5C 10.7093,87.914 11.0426,87.414 11.5,87C 9.9222,84.5111 8.58886,81.8444 7.5,79C 7.48409,76.6948 8.48409,75.0282 10.5,74C 9.83333,73.6667 9.16667,73.3333 8.5,73C 9.66667,71.8333 10.8333,70.6667 12,69.5C 19.8435,70.6167 27.5102,70.6167 35,69.5C 37.5332,69.9496 39.6998,70.9496 41.5,72.5 Z"/></g>
<g><path style="opacity:0.078" fill="#d0baf6" d="M -0.5,93.5 C 1.09719,94.0905 2.43052,95.0905 3.5,96.5C 4.18185,95.7573 4.84851,95.0906 5.5,94.5C 5.35055,95.552 5.51722,96.552 6,97.5C 6.33333,97.1667 6.66667,96.8333 7,96.5C 7.33333,97.5 7.66667,98.5 8,99.5C 8.33333,99.1667 8.66667,98.8333 9,98.5C 10.3149,100.316 11.8149,101.983 13.5,103.5C 14.086,103.291 14.586,102.957 15,102.5C 17.7075,104.385 20.5409,106.051 23.5,107.5C 24.944,106.019 25.6106,106.352 25.5,108.5C 16.8333,108.5 8.16667,108.5 -0.5,108.5C -0.5,103.5 -0.5,98.5 -0.5,93.5 Z"/></g>
<g><path style="opacity:0.094" fill="#c5a8f5" d="M 3.5,74.5 C 4.0476,75.6885 4.38093,76.8552 4.5,78C 1.83333,78.6667 1.83333,79.3333 4.5,80C 1.83333,80.6667 1.83333,81.3333 4.5,82C 1.83333,82.6667 1.83333,83.3333 4.5,84C 4.69382,85.4299 4.69382,86.9299 4.5,88.5C 7.79737,90.7954 10.7974,93.462 13.5,96.5C 14.1667,96.1667 14.8333,95.8333 15.5,95.5C 17.5,98.1667 19.5,100.833 21.5,103.5C 24.6611,102.944 27.4944,103.944 30,106.5C 33.0748,105.675 36.4082,105.675 40,106.5C 41.8628,104.66 43.6962,103.66 45.5,103.5C 46.8503,102.517 47.8503,101.184 48.5,99.5C 49.1924,100.025 49.6924,100.692 50,101.5C 50.6259,99.0087 51.4593,99.0087 52.5,101.5C 53.5779,99.5388 54.9113,97.8721 56.5,96.5C 57.1174,96.6107 57.6174,96.944 58,97.5C 58.7589,95.3651 60.2589,94.0318 62.5,93.5C 63.2715,91.1378 64.1048,88.8045 65,86.5C 65.3333,86.8333 65.6667,87.1667 66,87.5C 68.3486,85.2557 67.8486,84.0891 64.5,84C 65.0749,81.8586 65.4082,79.3586 65.5,76.5C 68.415,76.7461 71.415,77.0794 74.5,77.5C 74.3063,80.5968 74.3063,83.7635 74.5,87C 71.8038,90.0433 70.1371,93.2099 69.5,96.5C 65.5866,99.5883 61.7532,102.588 58,105.5C 57.5774,104.044 56.7441,103.544 55.5,104C 55.8333,104.333 56.1667,104.667 56.5,105C 55.695,106.113 55.0283,107.279 54.5,108.5C 44.8333,108.5 35.1667,108.5 25.5,108.5C 25.6106,106.352 24.944,106.019 23.5,107.5C 20.5409,106.051 17.7075,104.385 15,102.5C 14.586,102.957 14.086,103.291 13.5,103.5C 11.8149,101.983 10.3149,100.316 9,98.5C 8.66667,98.8333 8.33333,99.1667 8,99.5C 7.66667,98.5 7.33333,97.5 7,96.5C 6.66667,96.8333 6.33333,97.1667 6,97.5C 5.51722,96.552 5.35055,95.552 5.5,94.5C 5.64945,93.448 5.48278,92.448 5,91.5C 2.8913,90.9647 2.3913,89.9647 3.5,88.5C 2.65022,86.3786 1.65022,84.2119 0.5,82C 1.83333,80.6667 1.83333,79.3333 0.5,78C 1.39428,76.8964 2.39428,75.7298 3.5,74.5 Z"/></g>
<g><path style="opacity:0.186" fill="#8d56eb" d="M 37.5,76.5 C 39.0188,77.4098 40.6854,78.2432 42.5,79C 41.4908,80.8704 41.3241,83.037 42,85.5C 41.6667,85.1667 41.3333,84.8333 41,84.5C 40.1612,85.6241 38.9945,86.2908 37.5,86.5C 35.7956,85.9319 34.2956,85.9319 33,86.5C 32.2496,85.8742 31.4162,85.3742 30.5,85C 30.8333,84.6667 31.1667,84.3333 31.5,84C 30.1667,83 28.8333,82 27.5,81C 28.6575,79.411 30.6575,78.0777 33.5,77C 34.7932,76.51 36.1266,76.3433 37.5,76.5 Z"/></g>
<g><path style="opacity:0.039" fill="#e7e0fb" d="M 84.5,98.5 C 84.6646,101.518 84.498,104.518 84,107.5C 82.9125,105.068 82.4125,105.402 82.5,108.5C 78.8333,108.5 75.1667,108.5 71.5,108.5C 72.8035,106.793 73.9702,105.126 75,103.5C 75.3333,104.167 75.6667,104.833 76,105.5C 76.3173,103.699 76.984,103.366 78,104.5C 78.2022,102.744 78.7022,101.078 79.5,99.5C 81.2652,98.9742 82.9319,98.6408 84.5,98.5 Z"/></g>
</svg>
