<svg width="200" height="201" viewBox="0 0 200 201" fill="none" xmlns="http://www.w3.org/2000/svg">
<path d="M99.9628 130.944C83.3274 130.944 69.1211 134.315 57.3438 141.056C45.6156 147.813 39.7515 155.966 39.7515 165.515C39.7515 175.064 45.6156 183.209 57.3438 189.95C69.0843 196.677 83.2906 200.04 99.9628 200.04C116.586 200.04 130.762 196.677 142.49 189.95C154.279 183.224 160.174 175.079 160.174 165.515C160.174 155.966 154.279 147.813 142.49 141.056C130.737 134.315 116.561 130.944 99.9628 130.944Z" fill="url(#paint0_radial_1044_295647)"/>
<path d="M71.6497 110.808C71.6357 110.79 71.615 110.769 71.5876 110.746C70.7451 112.939 68.7265 114.948 65.5317 116.771C63.3992 117.91 61.8257 118.79 60.8112 119.411C59.0513 120.508 57.747 121.678 56.8981 122.92C56.2149 124.038 55.6973 124.877 55.3453 125.436C54.7035 126.429 54.0617 127.144 53.4199 127.578C53.0816 127.781 52.6883 127.937 52.2397 128.044C52.8528 128.047 53.4532 127.944 54.041 127.734C54.6207 127.527 55.3971 127.061 56.3702 126.336C57.3856 125.55 58.5865 124.898 59.9727 124.38C61.648 123.704 62.766 123.859 63.3267 124.845C64.4861 126.854 65.4489 128.334 66.2149 129.286C67.4571 130.798 68.865 131.937 70.4385 132.703C72.219 133.531 73.9168 133.707 75.5317 133.231C77.5192 132.568 79.2791 130.891 80.8112 128.2C81.175 127.637 81.6512 126.83 82.2397 125.777C82.3879 125.53 82.5432 125.261 82.7056 124.97C82.9028 124.635 83.0995 124.315 83.2956 124.007C85.4725 123.603 84.9859 122.703 81.836 121.305C78.6856 119.904 76.698 118.828 75.8733 118.075C75.0496 117.349 74.4077 116.686 73.9478 116.088C73.5249 113.944 72.7589 112.184 71.6497 110.808Z" fill="#F1E1CC"/>
<path d="M66.7741 107.423C64.8279 106.781 62.83 106.616 60.7803 106.926C58.8548 107.258 57.0018 108.003 55.2213 109.162C53.5442 110.26 52.0639 111.636 50.7803 113.293C50.3662 113.79 50.0867 114.297 49.9418 114.815C49.7554 115.436 49.8279 115.964 50.1592 116.398C50.3634 116.648 50.6325 116.803 50.9666 116.864C50.1258 117.835 49.1528 118.974 48.0474 120.28C48.2337 120.177 48.3683 120.198 48.4511 120.342C48.3062 120.529 48.2544 120.767 48.2958 121.057C48.3579 121.305 48.4821 121.512 48.6685 121.678C48.9169 121.864 49.4138 122.019 50.1592 122.144C50.5012 122.165 50.8428 122.175 51.184 122.175C50.4529 123.607 49.6972 125.149 48.9169 126.802C49.6002 127.423 50.418 127.817 51.3703 127.982C51.6655 128.029 51.9554 128.05 52.2399 128.044C52.6884 127.937 53.0818 127.781 53.42 127.578C54.0619 127.144 54.7037 126.429 55.3455 125.436C55.6975 124.877 56.2151 124.038 56.8983 122.92C57.7472 121.678 59.0515 120.508 60.8113 119.411C61.8258 118.79 63.3993 117.91 65.5318 116.771C68.7266 114.948 70.7453 112.94 71.5877 110.746C70.4045 109.227 68.7999 108.119 66.7741 107.423Z" fill="#FEF8EF"/>
<path d="M67.7675 141.677C67.3121 141.325 66.8876 140.984 66.4942 140.653C66.3907 140.57 66.2769 140.477 66.1526 140.373C65.2831 139.69 64.517 139.089 63.8545 138.572C64.3814 144.57 64.9611 150.564 65.5936 156.553C65.6024 156.678 65.6127 156.792 65.6247 156.895C65.623 156.92 65.623 156.941 65.6247 156.957C66.6806 157.226 67.9125 157.526 69.3203 157.857C69.2176 156.744 69.114 155.626 69.0098 154.503C69.0006 154.417 68.9903 154.324 68.9787 154.224C68.5886 150.048 68.1849 145.866 67.7675 141.677ZM69.2582 157.951V157.857L65.5936 156.957L65.78 158.789C66.1319 162.226 66.5046 165.663 66.898 169.1C67.1671 169.162 67.457 169.265 67.7675 169.41C79.6102 174.855 91.4632 180.363 103.327 185.932C103.225 184.937 103.142 183.923 103.078 182.889C102.395 177.899 101.929 172.94 101.681 168.013C101.681 167.951 101.65 167.878 101.587 167.795L101.401 165.621C101.25 165.598 101.095 165.567 100.935 165.528C101.116 165.568 101.292 165.599 101.463 165.621L100.873 158.075L97.6433 157.982L97.5501 158.137C97.4673 158.241 97.3949 158.344 97.3328 158.448L97.3017 158.789L97.2707 158.82C97.1878 159.214 97.1464 159.431 97.1464 159.472V159.503C97.1671 159.648 97.1775 159.783 97.1775 159.907C97.2396 159.99 97.2707 160.073 97.2707 160.156C97.3519 161.679 97.4451 163.222 97.5501 164.783C97.5482 164.815 97.5482 164.846 97.5501 164.876C97.7527 164.917 97.9286 164.948 98.0781 164.969C97.9246 164.951 97.7383 164.92 97.5191 164.876C97.5191 164.959 97.5191 165.042 97.5191 165.125C97.5812 165.207 97.6123 165.29 97.6123 165.373C97.7986 166.615 97.9539 167.826 98.0781 169.007C98.1609 169.773 98.223 170.528 98.2644 171.274C98.4715 174.193 98.5129 177.081 98.3887 179.938C98.2437 179.503 98.0263 179.348 97.7365 179.472C97.7158 179.493 97.6744 179.462 97.6123 179.379C95.5626 178.448 93.5129 177.516 91.4632 176.584C84.4032 173.354 77.3328 170.094 70.252 166.802C70.2106 166.781 70.1485 166.802 70.0657 166.864C69.9622 165.663 69.8586 164.452 69.7551 163.23L69.2893 157.951L69.2272 158.013L69.2582 157.951Z" fill="#CB714C"/>
<path d="M97.5193 164.845V164.876C97.7385 164.92 97.9248 164.951 98.0783 164.969C97.9288 164.948 97.7529 164.917 97.5503 164.876C97.5383 164.872 97.528 164.862 97.5193 164.845ZM101.401 165.622C101.421 165.622 101.442 165.622 101.463 165.622C101.292 165.599 101.116 165.568 100.935 165.528C101.095 165.567 101.25 165.598 101.401 165.622ZM101.96 165.311C101.981 165.291 102.001 165.271 102.022 165.249C102.019 165.022 101.998 164.795 101.96 164.566V165.311ZM97.3019 158.789L97.333 158.448H97.3019C97.2812 158.593 97.2709 158.717 97.2709 158.82L97.3019 158.789ZM98.9479 156.833L97.6435 157.982L100.873 158.075C101.06 158.013 101.256 157.951 101.463 157.889C101.567 157.868 101.67 157.837 101.774 157.796C102.623 157.526 103.482 157.237 104.352 156.926C104.414 156.926 104.486 156.916 104.569 156.895C104.548 156.833 104.538 156.75 104.538 156.646C104.331 156.688 104.041 156.626 103.668 156.46C102.902 156.087 102.198 155.663 101.557 155.187C100.48 155.829 99.6104 156.377 98.9479 156.833ZM91.6497 163.417C91.4796 163.376 91.3037 163.335 91.1218 163.292C91.2839 163.335 91.4391 163.376 91.5876 163.417C91.6704 163.437 91.7636 163.468 91.8671 163.51C91.8671 163.489 91.8775 163.479 91.8982 163.479C91.8155 163.456 91.7327 163.436 91.6497 163.417ZM69.2584 157.858H69.3205C67.9127 157.526 66.6808 157.226 65.6249 156.957H65.5938L69.2584 157.858ZM71.2771 141.181C71.0907 141.036 70.9458 140.953 70.8423 140.932C70.6973 140.891 70.4696 140.943 70.1591 141.087L68.2336 142.05C68.3785 142.174 68.5441 142.309 68.7305 142.454C68.9375 142.599 69.1549 142.775 69.3827 142.982C69.4034 143.003 69.4344 143.034 69.4758 143.075C69.5172 143.096 69.569 143.127 69.6311 143.168C71.3288 144.555 73.275 146.118 75.4696 147.858C75.6973 148.044 75.9251 148.241 76.1528 148.448C76.2975 148.562 76.4424 148.676 76.5876 148.789C76.6659 148.853 76.7384 148.915 76.805 148.976C77.1199 149.218 77.4305 149.456 77.7367 149.69C77.8461 149.779 77.9496 149.862 78.0472 149.938C79.9269 151.442 81.9456 153.057 84.1031 154.783C84.3309 154.949 84.5379 155.125 84.7243 155.311C84.7612 155.339 84.7923 155.359 84.8174 155.373C85.0438 155.549 85.2715 155.725 85.5007 155.901C86.1425 156.398 86.7118 156.843 87.2087 157.237C87.2501 157.278 87.2812 157.309 87.3019 157.33C87.3019 157.309 87.3019 157.288 87.3019 157.268C87.3433 157.185 87.3847 157.123 87.4261 157.081C87.5711 156.998 87.7263 156.947 87.892 156.926L88.3578 156.833L90.5007 156.15C90.2249 155.952 89.9454 155.745 89.6622 155.528C89.5949 155.487 89.5224 155.435 89.4448 155.373C89.3815 155.333 89.309 155.281 89.2274 155.218C88.5978 154.767 87.9457 154.291 87.2708 153.789C85.3294 152.337 83.228 150.722 80.9665 148.945V148.914C80.6141 148.652 80.2311 148.362 79.8174 148.044C79.7154 147.967 79.6015 147.884 79.4758 147.796L84.7553 142.019C84.5725 141.718 84.3966 141.418 84.2274 141.118L78.8236 146.833L78.7926 146.864V147.236C78.7293 147.186 78.6671 147.134 78.6062 147.081C78.5227 147.02 78.4399 146.958 78.3578 146.895C76.4628 145.373 74.1026 143.468 71.2771 141.181ZM70.5007 138.479C70.4385 138.417 70.3661 138.334 70.2833 138.23L67.5193 135.342L65.9354 136.305C65.3557 136.657 64.9727 136.926 64.7864 137.112L64.3205 137.609C64.1549 137.775 63.9065 138.003 63.5752 138.292C63.6787 138.396 63.7719 138.489 63.8547 138.572C64.5172 139.09 65.2833 139.69 66.1528 140.373C66.2771 140.477 66.3909 140.57 66.4944 140.653C66.8878 140.984 67.3123 141.326 67.7677 141.677C67.8299 141.698 67.8713 141.729 67.892 141.771L69.7243 139.504C69.7243 139.524 69.7346 139.555 69.7553 139.597C69.7346 139.659 69.6932 139.742 69.6311 139.845L68.7615 141.025L68.5752 141.398C68.4924 141.522 68.4199 141.626 68.3578 141.709C68.4613 141.626 68.5959 141.533 68.7615 141.429C69.2584 141.201 69.8174 140.953 70.4385 140.684C70.5628 140.642 70.6766 140.611 70.7802 140.591C70.7595 140.57 70.7491 140.549 70.7491 140.528L70.7802 140.466C70.8009 140.446 70.8216 140.425 70.8423 140.404L70.8112 140.373C70.7491 139.98 70.7181 139.659 70.7181 139.41C70.7388 139.141 70.7388 138.976 70.7181 138.914C70.6974 138.789 70.6352 138.655 70.5317 138.51L70.5938 138.448C70.5524 138.448 70.5214 138.458 70.5007 138.479ZM123.016 132.733C122.908 132.898 122.794 133.053 122.675 133.199L124.6 134.162C124.965 134.105 125.338 134.043 125.718 133.976L123.016 132.733ZM128.482 135.528L128.73 135.342L125.873 134.038C125.783 134.242 125.7 134.449 125.625 134.659L127.737 135.684C127.84 135.746 127.944 135.818 128.047 135.901C128.171 135.777 128.316 135.653 128.482 135.528ZM73.3578 164.255L70.687 166.522L91.1218 175.591L88.6062 171.367L73.3578 164.255ZM91.0907 156.305C91.0493 156.45 91.0079 156.595 90.9665 156.74C90.5897 158.305 90.3516 159.413 90.2522 160.063C90.2046 160.344 90.1839 160.541 90.1901 160.653C90.3972 160.922 90.6042 161.191 90.8112 161.46C91.2597 162.064 91.7152 162.664 92.1777 163.261C92.2406 163.348 92.3027 163.43 92.364 163.51C92.3939 163.551 92.425 163.592 92.4572 163.634C92.396 163.615 92.3338 163.594 92.2708 163.572L92.2398 163.603C92.3019 163.603 92.3537 163.613 92.3951 163.634C93.9893 165.725 95.5938 167.806 97.2087 169.876C97.333 170.083 97.4675 170.27 97.6125 170.435C97.6332 170.125 97.6228 169.814 97.5814 169.504C97.4986 168.758 97.3744 168.034 97.2087 167.33C97.0845 166.626 96.9292 166.046 96.7429 165.591C96.6463 165.388 96.3875 165.015 95.9665 164.473C95.8227 164.45 95.6674 164.419 95.5007 164.379C95.3557 164.069 95.2833 163.841 95.2833 163.696C95.2833 163.674 95.2729 163.643 95.2522 163.603C95.2127 163.465 95.0574 163.227 94.7864 162.889C94.6424 162.697 94.4147 162.355 94.1031 161.864C94.0975 161.838 94.0871 161.807 94.0721 161.771C94.0219 161.702 93.9701 161.619 93.9168 161.522C93.603 161.016 93.22 160.375 92.7677 159.597L92.7988 159.504L92.3951 158.727L92.3019 158.603C92.2472 158.548 92.2057 158.476 92.1777 158.386L92.2087 158.51L91.1218 156.926C91.1012 156.74 91.0908 156.543 91.0907 156.336V156.305ZM114.041 153.882L114.103 153.727C113.623 153.788 113.158 153.84 112.706 153.882C109.407 154.304 107.264 154.542 106.277 154.597C105.801 154.597 105.408 154.597 105.097 154.597C105.097 154.659 105.066 154.711 105.004 154.752C104.942 154.835 104.828 154.897 104.662 154.938C104.455 155 104.341 155.042 104.321 155.063C104.155 155.145 104.062 155.187 104.041 155.187L103.234 155.435C103.068 155.518 102.954 155.591 102.892 155.653H102.861C103.192 155.839 103.544 156.025 103.917 156.212C104.02 156.274 104.103 156.305 104.165 156.305C104.372 156.45 104.61 156.605 104.88 156.771C105.107 156.709 105.345 156.636 105.594 156.553C105.987 156.408 106.391 156.284 106.805 156.181C108.547 155.625 110.296 155.066 112.053 154.504C112.713 154.3 113.376 154.093 114.041 153.882ZM127.799 141.895C127.757 141.812 127.747 141.729 127.768 141.646C127.788 141.17 127.778 140.694 127.737 140.218L113.016 153.634C113.507 153.623 113.973 153.623 114.414 153.634V153.696C117.323 151.076 120.252 148.467 123.203 145.87C124.735 144.545 126.267 143.22 127.799 141.895ZM130.314 134.566C130.273 134.586 130.211 134.617 130.128 134.659C129.797 134.866 129.517 135.063 129.289 135.249L128.73 135.746C128.648 135.808 128.492 135.932 128.265 136.118C128.244 136.139 128.213 136.16 128.171 136.181C128.068 136.263 127.944 136.357 127.799 136.46C127.704 136.536 127.611 136.587 127.519 136.615H127.488L127.426 136.709C127.468 136.874 127.519 137.019 127.581 137.143C127.644 137.288 127.695 137.402 127.737 137.485C127.799 137.63 127.83 137.754 127.83 137.858C127.809 137.94 127.82 138.013 127.861 138.075L127.892 138.137C127.995 138.137 128.14 138.158 128.327 138.199C128.451 138.241 128.699 138.375 129.072 138.603C129.403 138.769 129.673 138.862 129.88 138.882C130.004 138.924 130.242 138.934 130.594 138.914C130.842 138.914 131.049 138.924 131.215 138.945C131.256 138.903 131.318 138.851 131.401 138.789C132.188 138.106 132.985 137.412 133.793 136.709C133.896 136.646 134.01 136.564 134.134 136.46L132.364 135.653C132.281 135.611 132.105 135.487 131.836 135.28C131.608 135.156 131.422 135.052 131.277 134.969C131.132 134.928 130.904 134.835 130.594 134.69C130.47 134.607 130.376 134.566 130.314 134.566Z" fill="#A14D3E"/>
<path d="M101.991 165.715C101.991 165.591 101.981 165.456 101.96 165.311V165.373C101.939 165.394 101.918 165.415 101.898 165.435L101.805 167.64L101.587 167.796C101.65 167.878 101.681 167.951 101.681 168.013C101.929 172.94 102.395 177.899 103.078 182.889C103.079 182.868 103.079 182.847 103.078 182.827C102.788 177.009 102.426 171.305 101.991 165.715Z" fill="#F9AB72"/>
<path d="M101.464 157.889C101.257 157.951 101.06 158.013 100.874 158.075L101.464 165.622C101.442 165.622 101.421 165.622 101.401 165.622L101.588 167.796L101.805 167.64L101.898 165.435C101.919 165.415 101.939 165.394 101.96 165.373V165.311V164.566C101.887 163.577 101.814 162.583 101.743 161.584C101.648 160.359 101.555 159.127 101.464 157.889Z" fill="#F8AA71"/>
<path d="M97.2706 160.156C97.2706 160.073 97.2396 159.99 97.1775 159.907C97.0947 159.949 97.0118 160 96.929 160.063C96.8669 160 96.8048 159.928 96.7427 159.845C96.6806 159.907 96.6599 159.959 96.6806 160C96.9497 161.615 97.0532 163.189 96.9911 164.721C97.1654 164.76 97.3414 164.801 97.5191 164.845C97.5277 164.862 97.5381 164.872 97.5501 164.876C97.5482 164.846 97.5482 164.815 97.5501 164.783C97.4451 163.222 97.3519 161.679 97.2706 160.156ZM93.6992 160.249L93.9477 160.684C94.8586 162.237 95.6868 163.541 96.4321 164.597C96.5978 164.638 96.753 164.68 96.898 164.721C95.9249 163.355 94.9725 161.988 94.0408 160.622L93.6992 160.249Z" fill="#974B38"/>
<path d="M93.6995 160.249L94.0411 160.622C94.9728 161.988 95.9252 163.354 96.8983 164.721C96.919 164.721 96.95 164.721 96.9915 164.721C97.0536 163.189 96.95 161.615 96.6809 160C96.6602 159.959 96.6809 159.907 96.743 159.845C96.743 159.721 96.7327 159.597 96.712 159.472C96.7741 159.452 96.8258 159.431 96.8672 159.41C96.8672 159.39 96.8776 159.338 96.8983 159.255C96.9397 159.048 96.9708 158.81 96.9915 158.541L97.0225 158.292L95.9045 158.634L95.7803 158.603L94.3207 159.131L93.2958 159.504L93.6995 160.249ZM133.793 136.708C132.985 137.412 132.188 138.106 131.401 138.789C132.043 145.911 132.664 153.044 133.265 160.187C133.223 160.29 133.027 160.508 132.675 160.839V160.901L132.364 161.118C132.012 161.512 131.194 162.247 129.911 163.323C129.559 163.634 129.114 163.986 128.575 164.379C128.575 164.4 128.565 164.41 128.544 164.41C126.391 165.963 123.979 167.682 121.308 169.566C121.101 169.711 120.894 169.855 120.687 170V170.031C117.582 172.268 112.84 175.518 106.464 179.783C106.215 178.479 105.998 176.926 105.811 175.125C105.811 175.104 105.853 175.063 105.936 175C105.873 174.918 105.842 174.835 105.842 174.752C105.493 170.742 105.141 166.715 104.786 162.671C104.81 162.668 104.83 162.657 104.849 162.64C104.846 162.613 104.836 162.581 104.818 162.547C104.819 162.436 104.808 162.322 104.786 162.205C104.788 162.079 104.777 161.954 104.755 161.833C104.744 161.624 104.724 161.417 104.693 161.212C104.574 159.784 104.46 158.355 104.352 156.926C103.482 157.236 102.623 157.526 101.774 157.795C101.671 157.837 101.567 157.868 101.464 157.889C101.555 159.127 101.648 160.359 101.743 161.584C101.814 162.583 101.886 163.577 101.96 164.566C101.999 164.795 102.019 165.022 102.023 165.249C102.002 165.271 101.981 165.291 101.96 165.311C101.981 165.456 101.991 165.59 101.991 165.715C102.426 171.305 102.789 177.009 103.078 182.827C103.08 182.847 103.08 182.868 103.078 182.889C103.143 183.923 103.225 184.938 103.327 185.932C103.348 185.932 103.368 185.942 103.389 185.963C107.882 182.795 112.374 179.628 116.867 176.46C116.95 176.398 117.033 176.336 117.116 176.274C118.896 175.031 120.677 173.779 122.457 172.516C122.664 172.371 122.871 172.226 123.078 172.081C125.48 170.383 127.902 168.675 130.345 166.957C130.366 166.957 130.377 166.947 130.377 166.926C132.24 165.622 134.103 164.307 135.967 162.982C136.049 162.94 136.132 162.889 136.215 162.827C136.07 162.516 135.987 162.247 135.967 162.019C135.263 153.593 134.538 145.156 133.793 136.708ZM71.8983 148.013C71.8362 147.93 71.7844 147.837 71.743 147.733C70.6871 145.974 69.5587 144.566 68.3579 143.51C68.42 143.593 68.4614 143.665 68.4821 143.727C68.7495 147.129 69.0497 150.535 69.3828 153.945C69.3941 154.061 69.4044 154.175 69.4138 154.286C69.5152 155.308 69.6188 156.322 69.7244 157.33C69.7309 157.412 69.7309 157.484 69.7244 157.547C69.7512 157.697 69.7719 157.842 69.7865 157.982C69.7667 157.979 69.746 157.969 69.7244 157.951L70.2523 162.889C70.3559 163.737 70.449 164.576 70.5318 165.404C70.6146 165.342 71.2979 164.949 72.5815 164.224C73.1198 163.893 73.3786 162.713 73.3579 160.684L73.2958 158.882H73.3269C73.3192 158.742 73.3088 158.597 73.2958 158.448C73.2272 157.343 73.103 156.08 72.9231 154.659C72.908 154.555 72.8873 154.441 72.861 154.317V154.286C72.8502 154.154 72.8295 154.009 72.7989 153.851C72.7853 153.674 72.7645 153.488 72.7368 153.292C72.7217 153.182 72.701 153.068 72.6747 152.951C72.474 151.455 72.2152 149.809 71.8983 148.013ZM73.6995 158.913L73.5442 160.559C73.6478 161.657 73.7513 162.744 73.8548 163.82C73.8962 163.903 73.948 163.965 74.0101 164.007C78.4407 165.891 82.8196 167.971 87.1467 170.249L87.271 170.156C85.242 167.092 83.2026 164.089 81.1529 161.149L81.0287 160.963C80.9666 160.901 80.9149 160.829 80.8735 160.746C80.9166 160.76 80.958 160.771 80.9977 160.777C80.9683 160.766 80.9373 160.755 80.9045 160.746C80.4473 160.161 79.9918 159.664 79.538 159.255C79.1121 158.878 78.6876 158.578 78.2647 158.354C78.0552 158.261 77.8482 158.167 77.6436 158.075C77.335 157.958 77.0245 157.886 76.712 157.858C76.608 157.85 76.5045 157.839 76.4014 157.827C75.2456 157.807 74.3554 158.138 73.7306 158.82C73.6973 158.848 73.6662 158.88 73.6374 158.913C73.6624 158.92 73.6831 158.92 73.6995 158.913ZM87.6126 157.361C87.509 157.381 87.4469 157.402 87.4262 157.423C87.6126 157.568 87.8093 157.713 88.0163 157.858C88.0577 157.92 88.1302 157.982 88.2337 158.044C88.5857 158.52 88.948 159.007 89.3206 159.504C89.4027 159.609 89.4855 159.713 89.5691 159.814C89.7753 160.091 89.9824 160.371 90.1902 160.653C90.184 160.541 90.2047 160.344 90.2523 160.063C90.3517 159.412 90.5898 158.305 90.9666 156.74L90.7492 156.398L90.4387 156.522L88.1095 157.236C87.8403 157.257 87.6747 157.299 87.6126 157.361ZM127.582 151.646C127.354 151.812 127.116 151.988 126.867 152.174C126.784 152.216 126.702 152.268 126.619 152.33C126.308 152.557 125.998 152.775 125.687 152.982C125.687 152.961 125.687 152.93 125.687 152.889C124.445 153.779 123.192 154.669 121.929 155.559C121.909 155.559 121.898 155.57 121.898 155.59C120.387 156.646 118.876 157.713 117.364 158.789C116.536 159.348 115.718 159.918 114.911 160.497C114.704 160.642 114.507 160.787 114.321 160.932C113.41 161.553 112.499 162.185 111.588 162.827C111.567 162.868 111.557 162.909 111.557 162.951C109.88 164.131 108.203 165.311 106.526 166.491C106.443 166.553 106.401 166.615 106.401 166.677C105.822 169.39 105.801 172.185 106.339 175.063C106.401 175.145 106.422 175.197 106.401 175.218C106.194 175.425 106.267 175.673 106.619 175.963C110.677 173.106 114.745 170.239 118.824 167.361C119.031 167.216 119.238 167.071 119.445 166.926C121.847 165.228 124.269 163.52 126.712 161.802C126.733 161.802 126.743 161.791 126.743 161.771C127.55 161.212 128.358 160.653 129.165 160.094C129.248 160.031 129.331 159.969 129.414 159.907C129.393 158.706 129.352 157.495 129.29 156.274C129.31 156.17 129.29 156.077 129.227 155.994C129.165 154.359 128.782 152.795 128.078 151.305L127.582 151.646ZM127.954 142.143C127.892 142.102 127.84 142.06 127.799 142.019C127.799 141.998 127.799 141.957 127.799 141.895C126.267 143.22 124.735 144.545 123.203 145.87C120.252 148.467 117.323 151.076 114.414 153.696L114.445 153.758L114.041 154.131V153.882C113.376 154.093 112.713 154.3 112.054 154.504C110.297 155.066 108.547 155.625 106.805 156.181C106.391 156.284 105.987 156.408 105.594 156.553C105.49 156.636 105.387 156.719 105.283 156.802C105.201 156.864 105.118 156.916 105.035 156.957C104.952 157.019 104.9 157.071 104.88 157.112C104.969 158.337 105.062 159.558 105.159 160.777C105.215 161.238 105.266 161.693 105.314 162.143C105.313 162.166 105.313 162.187 105.314 162.205C105.304 162.214 105.294 162.225 105.283 162.236V162.268C105.408 163.634 105.553 164.99 105.718 166.336C108.472 164.39 111.225 162.443 113.979 160.497C114.186 160.352 114.393 160.207 114.6 160.063C117.002 158.365 119.424 156.657 121.867 154.938C121.888 154.938 121.898 154.928 121.898 154.907C124.01 153.437 126.122 151.957 128.234 150.466C128.317 150.404 128.399 150.342 128.482 150.28C128.399 147.588 128.265 144.887 128.078 142.174C128.037 142.174 127.996 142.164 127.954 142.143Z" fill="#BB5A48"/>
<path d="M90.4077 155.497C90.5294 155.551 90.6433 155.624 90.7493 155.715C90.8333 155.789 90.9161 155.903 90.9977 156.056C91.0184 155.97 91.0391 155.888 91.0598 155.808C91.0806 155.746 91.1013 155.694 91.122 155.653C90.8753 155.61 90.6372 155.559 90.4077 155.497ZM89.7865 155.497C89.9302 155.455 90.0648 155.445 90.1903 155.466C89.8526 155.373 89.542 155.269 89.2586 155.156L89.2275 155.218C89.3092 155.281 89.3817 155.333 89.4449 155.373C89.5226 155.435 89.595 155.487 89.6623 155.528C89.7039 155.523 89.7453 155.513 89.7865 155.497Z" fill="#F5FF3F"/>
<path d="M93.7305 155.808C93.6477 155.808 93.5545 155.808 93.451 155.808C93.2853 155.829 92.7678 155.808 91.8982 155.746C91.629 155.725 91.3702 155.694 91.1218 155.653C91.1011 155.694 91.0804 155.746 91.0597 155.808C91.0389 155.888 91.0182 155.971 90.9976 156.057C91.1117 156.247 91.2255 156.495 91.3392 156.802L92.6435 159.1C92.7481 159.267 92.8413 159.423 92.923 159.566L93.2957 159.504L94.3205 159.131C93.8841 159.082 93.5218 159.01 93.2336 158.914C93.275 157.899 93.4406 156.864 93.7305 155.808Z" fill="#FF9E3F"/>
<path d="M87.6746 153.51C87.6289 153.551 87.5771 153.582 87.5193 153.603C85.493 152.066 83.4847 150.513 81.4945 148.945H80.9665C83.228 150.723 85.3295 152.338 87.2709 153.79C87.9457 154.291 88.5979 154.768 89.2274 155.218L89.2585 155.156C89.1752 155.122 89.0924 155.081 89.01 155.032L88.451 154.442C88.1524 154.091 87.8936 153.78 87.6746 153.51ZM85.0038 142.423C84.9253 142.293 84.8425 142.159 84.7553 142.019L79.4758 147.796C79.6015 147.885 79.7154 147.967 79.8175 148.044L85.0038 142.423ZM84.2274 141.119C84.1754 141.018 84.1236 140.915 84.0721 140.808L78.5752 146.647C78.655 146.699 78.7378 146.761 78.8237 146.833L84.2274 141.119ZM124.6 134.162L122.675 133.199C122.606 133.309 122.534 133.412 122.457 133.51L124.01 134.255C124.212 134.233 124.408 134.201 124.6 134.162ZM130.128 134.659C130.211 134.618 130.273 134.587 130.314 134.566C130.376 134.566 130.47 134.607 130.594 134.69C130.904 134.835 131.132 134.928 131.277 134.97C131.422 135.052 131.608 135.156 131.836 135.28C132.105 135.487 132.281 135.611 132.364 135.653L134.134 136.46C134.01 136.564 133.896 136.647 133.793 136.709C134.538 145.156 135.263 153.593 135.967 162.019C135.987 162.247 136.07 162.516 136.215 162.827L136.308 162.951C134.383 164.359 132.457 165.756 130.532 167.144C130.532 167.164 130.521 167.175 130.501 167.175C128.099 168.872 125.677 170.58 123.234 172.299L122.923 172.516C122.82 172.599 122.716 172.671 122.612 172.734C120.832 174.017 119.051 175.28 117.271 176.522C117.229 176.44 117.178 176.357 117.116 176.274C117.033 176.336 116.95 176.398 116.867 176.46C112.374 179.628 107.882 182.796 103.389 185.963C103.368 185.943 103.347 185.932 103.327 185.932C91.4634 180.363 79.6104 174.856 67.7678 169.411C67.4572 169.266 67.1674 169.162 66.8982 169.1C66.5048 165.663 66.1321 162.226 65.7802 158.789L65.5939 156.957H65.6249C65.6232 156.941 65.6232 156.92 65.6249 156.895C65.6129 156.792 65.6026 156.678 65.5939 156.553C64.9613 150.565 64.3816 144.571 63.8547 138.572C63.7719 138.489 63.6787 138.396 63.5752 138.293C63.9065 138.003 64.1549 137.775 64.3206 137.609L64.7864 137.112C64.9727 136.926 65.3558 136.657 65.9355 136.305L67.5193 135.342L70.2833 138.23C70.3661 138.334 70.4386 138.417 70.5007 138.479C70.5214 138.458 70.5524 138.448 70.5938 138.448L70.5317 138.51C70.6353 138.655 70.6974 138.79 70.7181 138.914C70.7388 138.976 70.7388 139.141 70.7181 139.411C70.7181 139.659 70.7491 139.98 70.8112 140.373L70.8423 140.404C70.8216 140.425 70.8009 140.446 70.7802 140.467L70.7491 140.529C70.7491 140.549 70.7595 140.57 70.7802 140.591C70.6767 140.611 70.5628 140.643 70.4386 140.684C69.8174 140.953 69.2585 141.202 68.7616 141.429C68.5959 141.533 68.4613 141.626 68.3578 141.709C68.4199 141.626 68.4924 141.522 68.5752 141.398L68.7616 141.026L69.6311 139.845C69.6932 139.742 69.7346 139.659 69.7553 139.597C69.7346 139.556 69.7243 139.524 69.7243 139.504L67.892 141.771C67.8713 141.729 67.8299 141.698 67.7678 141.678C68.1851 145.867 68.5888 150.049 68.9789 154.224C68.9905 154.324 69.0009 154.417 69.01 154.504C69.1143 155.627 69.2178 156.745 69.3206 157.858H69.2584V157.951L69.2274 158.013L69.2895 157.951L69.7553 163.23C69.8589 164.452 69.9624 165.663 70.0659 166.864C70.1487 166.802 70.2108 166.781 70.2522 166.802C77.333 170.094 84.4034 173.355 91.4634 176.585C93.5131 177.516 95.5628 178.448 97.6125 179.38C97.6746 179.462 97.716 179.493 97.7367 179.473C98.0266 179.348 98.2439 179.504 98.3889 179.939C98.5131 177.081 98.4717 174.193 98.2647 171.274C98.2233 170.529 98.1611 169.773 98.0783 169.007C97.9541 167.827 97.7988 166.616 97.6125 165.373C97.6125 165.291 97.5814 165.208 97.5193 165.125C97.5193 165.042 97.5193 164.959 97.5193 164.876V164.845C97.3416 164.801 97.1656 164.76 96.9914 164.721C96.95 164.721 96.9189 164.721 96.8982 164.721C96.7533 164.68 96.598 164.638 96.4324 164.597C95.687 163.541 94.8589 162.237 93.9479 160.684L93.6994 160.249L93.2957 159.504L92.923 159.566C92.8413 159.423 92.7481 159.267 92.6435 159.1L91.3392 156.802C91.2256 156.495 91.1117 156.247 90.9976 156.057C90.916 155.904 90.8332 155.79 90.7491 155.715C90.6431 155.624 90.5292 155.552 90.4075 155.498C90.3431 155.494 90.2706 155.483 90.1901 155.467C90.0646 155.445 89.93 155.455 89.7864 155.498C89.7451 155.513 89.7037 155.523 89.6622 155.529C89.9454 155.745 90.2249 155.952 90.5007 156.15L88.3578 156.833L87.892 156.926C87.7264 156.947 87.5711 156.999 87.4261 157.081C87.3847 157.123 87.3433 157.185 87.3019 157.268C87.3019 157.288 87.3019 157.309 87.3019 157.33C87.2812 157.309 87.2502 157.278 87.2088 157.237C87.7842 158.023 88.3432 158.81 88.8858 159.597C88.9451 159.659 88.9969 159.721 89.0411 159.783C89.4344 160.342 89.8278 160.901 90.2212 161.46C90.2626 161.522 90.304 161.585 90.3454 161.647C90.8009 162.226 91.2357 162.816 91.6497 163.417C91.7327 163.436 91.8156 163.457 91.8982 163.479C91.8775 163.479 91.8671 163.489 91.8671 163.51C91.7636 163.469 91.6705 163.438 91.5876 163.417C91.6498 163.5 91.7015 163.572 91.7429 163.634C91.7429 163.655 91.7429 163.676 91.7429 163.696C91.7636 163.738 91.7947 163.769 91.8361 163.789C93.4096 166.026 94.9934 168.262 96.5876 170.498C96.981 171.098 97.3847 171.698 97.7988 172.299C97.8402 172.382 97.8609 172.464 97.8609 172.547C97.9851 174.7 98.068 176.854 98.1094 179.007C96.4117 178.117 94.6932 177.371 92.9541 176.771C92.8713 176.729 92.7988 176.667 92.7367 176.585C90.4386 173.334 88.1404 170.073 85.8423 166.802L81.7429 160.963C81.7677 160.98 81.7885 160.99 81.805 160.994L81.774 160.963C81.7195 160.88 81.6574 160.787 81.5876 160.684C81.4917 160.549 81.3882 160.404 81.2771 160.249C81.1834 160.111 81.0799 159.967 80.9665 159.814C80.8625 159.656 80.7486 159.49 80.6249 159.317C80.4334 159.042 80.2367 158.762 80.0348 158.479C79.9136 158.307 79.7894 158.131 79.6622 157.951C78.3595 156.101 77.0448 154.248 75.7181 152.392C75.6667 152.303 75.6046 152.209 75.5317 152.112C75.3035 151.775 75.0654 151.433 74.8175 151.088C74.7692 151.011 74.7174 150.928 74.6622 150.839C72.6842 148.05 70.707 145.255 68.7305 142.454C68.5442 142.309 68.3785 142.175 68.2336 142.05L70.1591 141.088C70.4696 140.943 70.6974 140.891 70.8423 140.932C70.9458 140.953 71.0907 141.036 71.2771 141.181C74.1026 143.468 76.4628 145.373 78.3578 146.895C78.4399 146.958 78.5227 147.021 78.6063 147.081C78.6672 147.134 78.7293 147.186 78.7926 147.237V146.864L78.8237 146.833C78.7378 146.761 78.655 146.699 78.5752 146.647C76.1918 144.772 73.8108 142.856 71.4324 140.901C71.3081 140.798 71.1943 140.715 71.0908 140.653V140.622L71.0597 140.56C71.1218 140.518 71.1425 140.446 71.1218 140.342C71.0597 139.7 71.039 139.297 71.0597 139.131C71.0597 138.965 71.0493 138.852 71.0286 138.79C70.9872 138.686 70.9458 138.603 70.9044 138.541C70.6767 138.168 70.3143 137.744 69.8174 137.268C69.1963 136.667 68.803 136.253 68.6373 136.026L67.7988 135.187C67.716 135.104 67.6435 135.063 67.5814 135.063C67.5193 135.042 67.4469 135.063 67.364 135.125L66.3392 135.715C65.4696 136.233 64.8589 136.657 64.5069 136.988L63.2957 138.168C63.2129 138.293 63.1922 138.386 63.2336 138.448C63.275 138.489 63.3268 138.479 63.3889 138.417C63.9272 144.566 64.5069 150.705 65.128 156.833C65.1431 156.837 65.1534 156.837 65.1591 156.833C65.143 156.857 65.1223 156.878 65.0969 156.895L65.1901 157.951C65.5628 161.761 65.9665 165.591 66.4013 169.442C66.6912 169.504 66.9914 169.607 67.3019 169.752C79.1446 175.177 91.0079 180.694 102.892 186.305C102.975 186.243 103.058 186.181 103.14 186.119C103.203 186.201 103.254 186.284 103.296 186.367C103.337 186.409 103.368 186.44 103.389 186.46C103.41 186.522 103.441 186.574 103.482 186.616C108.058 183.406 112.633 180.187 117.209 176.957C117.292 176.895 117.374 176.833 117.457 176.771C119.238 175.529 121.008 174.266 122.768 172.982L123.389 172.547C125.791 170.85 128.213 169.141 130.656 167.423C130.677 167.423 130.687 167.413 130.687 167.392C132.716 165.943 134.724 164.483 136.712 163.013L136.619 162.889C135.935 154.152 135.221 145.394 134.476 136.616L134.631 136.647C134.714 136.688 134.776 136.688 134.817 136.647C134.88 136.585 134.88 136.512 134.817 136.429C134.797 136.409 134.735 136.377 134.631 136.336L134.476 136.212C134.455 136.212 134.445 136.202 134.445 136.181L134.414 136.212L133.544 135.839C133.047 135.611 132.644 135.404 132.333 135.218L131.65 134.783C131.484 134.7 131.194 134.556 130.78 134.349C130.573 134.286 130.428 134.255 130.345 134.255C130.263 134.255 130.118 134.317 129.911 134.442L129.041 135.125C129.041 135.083 129.062 135.042 129.103 135.001C129.02 134.959 128.938 134.928 128.855 134.908L123.171 132.454C123.124 132.555 123.072 132.648 123.016 132.734L125.718 133.976C125.785 133.965 125.847 133.955 125.904 133.945C125.891 133.975 125.881 134.006 125.873 134.038L128.73 135.342L128.482 135.529C128.316 135.653 128.171 135.777 128.047 135.901C127.944 135.818 127.84 135.746 127.737 135.684L125.625 134.659C125.603 134.709 125.582 134.76 125.563 134.814C125.538 134.874 125.507 134.936 125.47 135.001L127.395 135.932C127.478 135.974 127.561 136.026 127.644 136.088C127.685 136.108 127.716 136.119 127.737 136.119C127.716 136.139 127.695 136.15 127.675 136.15C127.571 136.233 127.478 136.295 127.395 136.336C127.375 136.356 127.344 136.366 127.302 136.367V136.336C127.281 136.357 127.261 136.367 127.24 136.367C127.219 136.388 127.188 136.429 127.147 136.491C127.105 136.595 127.085 136.657 127.085 136.678C127.064 136.719 127.033 136.75 126.991 136.771H127.085L127.116 136.895C127.281 137.288 127.385 137.578 127.426 137.765C127.488 137.992 127.54 138.148 127.581 138.23C127.602 138.251 127.623 138.282 127.644 138.324L127.612 138.355C127.592 138.417 127.581 138.541 127.581 138.727C127.644 139.1 127.695 139.462 127.737 139.814L114.724 151.616C114.704 151.595 114.683 151.564 114.662 151.522C114.517 151.377 114.331 151.243 114.103 151.119C114.005 151.06 113.808 150.967 113.513 150.839L113.451 152.237L112.24 153.013C111.97 153.08 111.67 153.153 111.339 153.23C110.449 153.458 109.051 153.696 107.147 153.945C105.696 154.145 104.464 154.279 103.451 154.349C103.435 154.319 103.414 154.288 103.389 154.255L100.998 150.901C100.728 150.922 100.449 150.943 100.159 150.963C99.4551 151.005 98.7719 151.005 98.1094 150.963C97.6953 151.812 97.2812 152.599 96.8671 153.324C96.5152 153.924 96.1632 154.411 95.8112 154.783C95.5214 155.094 95.2315 155.332 94.9417 155.498C94.6104 155.663 94.2067 155.767 93.7305 155.808C93.4406 156.864 93.275 157.899 93.2336 158.914C93.5218 159.01 93.8842 159.082 94.3206 159.131L95.7802 158.603L95.9044 158.634L97.0224 158.293L96.9914 158.541C96.9707 158.81 96.9396 159.048 96.8982 159.255C96.8775 159.338 96.8671 159.39 96.8671 159.411C96.8257 159.431 96.774 159.452 96.7119 159.473C96.7326 159.597 96.7429 159.721 96.7429 159.845C96.805 159.928 96.8671 160.001 96.9292 160.063C97.0121 160.001 97.0949 159.949 97.1777 159.908C97.1777 159.783 97.1673 159.649 97.1466 159.504V159.473C97.1466 159.431 97.1881 159.214 97.2709 158.821C97.2709 158.717 97.2812 158.593 97.3019 158.448H97.333C97.3951 158.344 97.4675 158.241 97.5504 158.137L97.6435 157.982L98.9479 156.833C99.6104 156.377 100.48 155.829 101.557 155.187C102.198 155.663 102.902 156.088 103.668 156.46C104.041 156.626 104.331 156.688 104.538 156.647C104.538 156.75 104.548 156.833 104.569 156.895C104.486 156.916 104.414 156.926 104.352 156.926C104.46 158.355 104.574 159.784 104.693 161.212C104.724 161.417 104.744 161.624 104.755 161.833C104.777 161.955 104.788 162.079 104.786 162.206C104.808 162.322 104.819 162.436 104.817 162.547C104.835 162.582 104.846 162.613 104.848 162.64C104.83 162.658 104.809 162.668 104.786 162.671C105.141 166.715 105.493 170.742 105.842 174.752C105.842 174.835 105.873 174.918 105.935 175.001C105.853 175.063 105.811 175.104 105.811 175.125C105.998 176.926 106.215 178.479 106.463 179.783C112.84 175.518 117.581 172.268 120.687 170.032V170.001C120.894 169.856 121.101 169.711 121.308 169.566C123.979 167.682 126.391 165.963 128.544 164.411C128.565 164.411 128.575 164.4 128.575 164.38C129.114 163.986 129.559 163.634 129.911 163.324C131.194 162.247 132.012 161.512 132.364 161.119C131.267 159.38 130.408 157.785 129.786 156.336C129.745 156.253 129.693 156.17 129.631 156.088C129.465 152.568 129.227 148.997 128.917 145.373C128.793 144.007 128.596 142.93 128.327 142.144C128.306 141.688 128.234 141.491 128.109 141.553C128.13 141.036 128.12 140.487 128.078 139.908C128.037 139.514 128.016 139.235 128.016 139.069C127.996 138.883 127.975 138.696 127.954 138.51C128.14 138.551 128.358 138.624 128.606 138.727C128.875 138.872 129.082 138.986 129.227 139.069C129.745 139.297 130.283 139.359 130.842 139.255C130.801 139.297 130.759 139.328 130.718 139.349C131.463 146.305 132.229 153.303 133.016 160.342C133.099 160.28 133.182 160.228 133.265 160.187C132.664 153.044 132.043 145.912 131.401 138.79C131.318 138.852 131.256 138.903 131.215 138.945C131.049 138.924 130.842 138.914 130.594 138.914C130.242 138.934 130.004 138.924 129.88 138.883C129.673 138.862 129.403 138.769 129.072 138.603C128.699 138.375 128.451 138.241 128.327 138.199C128.14 138.158 127.995 138.137 127.892 138.137L127.861 138.075C127.82 138.013 127.809 137.941 127.83 137.858C127.83 137.754 127.799 137.63 127.737 137.485C127.695 137.402 127.644 137.288 127.581 137.144C127.519 137.019 127.468 136.874 127.426 136.709L127.488 136.616H127.519C127.611 136.588 127.704 136.536 127.799 136.46C127.944 136.357 128.068 136.264 128.171 136.181C128.213 136.16 128.244 136.139 128.265 136.119C128.492 135.932 128.648 135.808 128.73 135.746L129.289 135.249C129.517 135.063 129.797 134.866 130.128 134.659ZM127.799 142.019C127.84 142.061 127.892 142.102 127.954 142.144C127.996 142.164 128.037 142.175 128.078 142.175C128.265 144.887 128.399 147.589 128.482 150.28C128.399 150.342 128.316 150.404 128.234 150.467C126.122 151.957 124.01 153.438 121.898 154.908C121.898 154.928 121.888 154.939 121.867 154.939C119.424 156.657 117.002 158.365 114.6 160.063C114.393 160.208 114.186 160.353 113.979 160.498C111.225 162.444 108.472 164.39 105.718 166.336C105.552 164.99 105.408 163.634 105.283 162.268V162.237C105.294 162.225 105.304 162.215 105.314 162.206C105.313 162.187 105.313 162.167 105.314 162.144C105.266 161.693 105.215 161.238 105.159 160.777C105.062 159.558 104.969 158.337 104.88 157.112C104.9 157.071 104.952 157.019 105.035 156.957C105.118 156.916 105.2 156.864 105.283 156.802C105.387 156.719 105.49 156.636 105.594 156.553C105.345 156.636 105.107 156.709 104.88 156.771C104.61 156.605 104.372 156.45 104.165 156.305C104.103 156.305 104.02 156.274 103.917 156.212C103.544 156.026 103.192 155.839 102.861 155.653H102.892C102.954 155.591 103.068 155.518 103.234 155.435L104.041 155.187C104.062 155.187 104.155 155.146 104.321 155.063C104.341 155.042 104.455 155.001 104.662 154.939C104.828 154.897 104.942 154.835 105.004 154.752C105.066 154.711 105.097 154.659 105.097 154.597C105.408 154.597 105.801 154.597 106.277 154.597C107.264 154.542 109.407 154.304 112.706 153.883C113.158 153.84 113.624 153.788 114.103 153.727L114.041 153.883V154.131L114.445 153.758L114.414 153.696V153.634C113.973 153.623 113.507 153.623 113.016 153.634L127.737 140.218C127.778 140.694 127.788 141.17 127.768 141.647C127.747 141.729 127.757 141.812 127.799 141.895C127.799 141.957 127.799 141.999 127.799 142.019ZM126.774 152.05L126.867 152.175C127.116 151.988 127.354 151.812 127.581 151.647L128.078 151.305C128.782 152.796 129.165 154.359 129.227 155.994C129.289 156.077 129.31 156.17 129.289 156.274C129.352 157.496 129.393 158.707 129.414 159.908C129.331 159.97 129.248 160.032 129.165 160.094C128.358 160.653 127.55 161.212 126.743 161.771C126.743 161.792 126.733 161.802 126.712 161.802C124.269 163.52 121.846 165.228 119.445 166.926C119.238 167.071 119.031 167.216 118.824 167.361C114.745 170.239 110.677 173.106 106.619 175.963C106.267 175.674 106.194 175.425 106.401 175.218C106.422 175.197 106.401 175.146 106.339 175.063C105.801 172.185 105.822 169.39 106.401 166.678C106.401 166.616 106.443 166.553 106.526 166.491C108.969 164.545 111.505 162.63 114.134 160.746C114.341 160.601 114.548 160.456 114.755 160.311C117.157 158.614 119.59 156.905 122.053 155.187C122.074 155.187 122.085 155.177 122.085 155.156C123.596 154.121 125.159 153.086 126.774 152.05ZM87.4261 157.423C87.4469 157.402 87.509 157.382 87.6125 157.361C87.6746 157.299 87.8402 157.257 88.1094 157.237L90.4386 156.522L90.7491 156.398L90.9665 156.74C91.0079 156.595 91.0493 156.45 91.0907 156.305V156.336C91.0908 156.544 91.1012 156.74 91.1218 156.926L92.2088 158.51L92.1777 158.386C92.2058 158.476 92.2472 158.548 92.3019 158.603L92.3951 158.727L92.7988 159.504L92.7678 159.597C93.22 160.375 93.603 161.017 93.9168 161.522C93.9701 161.619 94.0219 161.702 94.0721 161.771C94.0872 161.807 94.0975 161.838 94.1032 161.864C94.4147 162.355 94.6424 162.697 94.7864 162.889C95.0574 163.228 95.2127 163.466 95.2522 163.603C95.2729 163.643 95.2833 163.674 95.2833 163.696C95.2833 163.841 95.3558 164.069 95.5007 164.38C95.6674 164.419 95.8227 164.45 95.9665 164.473C96.3875 165.015 96.6463 165.388 96.7429 165.591C96.9293 166.046 97.0845 166.626 97.2088 167.33C97.3744 168.034 97.4986 168.758 97.5814 169.504C97.6228 169.814 97.6332 170.125 97.6125 170.435C97.4676 170.27 97.333 170.083 97.2088 169.876C95.5938 167.806 93.9893 165.725 92.3951 163.634C92.3537 163.614 92.3019 163.603 92.2398 163.603L92.2709 163.572C92.3339 163.595 92.396 163.615 92.4572 163.634C92.425 163.593 92.394 163.551 92.364 163.51C92.3027 163.431 92.2406 163.348 92.1777 163.262C91.7152 162.664 91.2597 162.064 90.8112 161.46C90.6042 161.191 90.3972 160.922 90.1901 160.653C89.9823 160.371 89.7752 160.091 89.569 159.814C89.4854 159.713 89.4026 159.609 89.3206 159.504C88.9479 159.007 88.5856 158.52 88.2336 158.044C88.1301 157.982 88.0576 157.92 88.0162 157.858C87.8092 157.713 87.6125 157.568 87.4261 157.423ZM72.4572 149.38C72.4392 149.307 72.4081 149.235 72.364 149.162C72.945 149.919 73.5247 150.675 74.1032 151.429C74.1598 151.519 74.2115 151.601 74.2584 151.678C74.5223 152.011 74.7811 152.343 75.0348 152.671C75.0973 152.765 75.1594 152.848 75.2212 152.92C76.3667 154.462 77.5054 156.015 78.6373 157.578C78.7706 157.763 78.9052 157.949 79.0411 158.137C79.2205 158.389 79.3965 158.638 79.569 158.883C79.7014 159.068 79.8256 159.244 79.9417 159.411C80.2694 159.857 80.5903 160.303 80.9044 160.746C80.9372 160.755 80.9682 160.766 80.9976 160.777C80.9579 160.771 80.9165 160.76 80.8734 160.746C80.9148 160.829 80.9665 160.901 81.0286 160.963L81.1529 161.15C83.2025 164.09 85.2419 167.092 87.2709 170.156L87.1466 170.249C82.8195 167.972 78.4406 165.891 74.01 164.007C73.9479 163.965 73.8961 163.903 73.8547 163.821C73.7512 162.744 73.6477 161.657 73.5442 160.56L73.6994 158.914C73.683 158.92 73.6623 158.92 73.6373 158.914C73.5959 158.934 73.5338 158.934 73.451 158.914C73.3908 158.256 73.3287 157.594 73.2647 156.926C73.1874 156.147 73.1046 155.361 73.0162 154.566C72.9984 154.351 72.9777 154.134 72.9541 153.914C72.9282 153.661 72.8972 153.402 72.8609 153.137C72.8587 153.028 72.8484 152.914 72.8299 152.796C72.7148 151.659 72.5906 150.52 72.4572 149.38ZM71.7429 147.734C71.7843 147.837 71.8361 147.93 71.8982 148.013C72.2151 149.809 72.4739 151.455 72.6746 152.951C72.7009 153.069 72.7216 153.182 72.7367 153.293C72.7645 153.488 72.7852 153.674 72.7988 153.852C72.8294 154.009 72.8501 154.154 72.8609 154.286V154.317C72.8872 154.441 72.9079 154.555 72.923 154.659C73.1029 156.08 73.2271 157.343 73.2957 158.448C73.3087 158.597 73.3191 158.742 73.3268 158.883H73.2957L73.3578 160.684C73.3785 162.713 73.1197 163.893 72.5814 164.224C71.2978 164.949 70.6145 165.342 70.5317 165.404C70.4489 164.576 70.3558 163.738 70.2522 162.889L69.7243 157.951C69.7459 157.969 69.7666 157.979 69.7864 157.982C69.7718 157.843 69.7511 157.698 69.7243 157.547C69.7308 157.485 69.7308 157.412 69.7243 157.33C69.6187 156.322 69.5151 155.308 69.4137 154.286C69.4043 154.175 69.394 154.061 69.3827 153.945C69.0496 150.535 68.7494 147.129 68.482 143.727C68.4613 143.665 68.4199 143.593 68.3578 143.51C69.5586 144.566 70.687 145.974 71.7429 147.734ZM70.687 166.522L73.3578 164.255L88.6063 171.367L91.1218 175.591L70.687 166.522Z" fill="#8D4335"/>
<path d="M86.5565 144.597C86.0046 143.895 85.487 143.17 85.0037 142.423L79.8174 148.044C80.2311 148.362 80.6141 148.652 80.9665 148.914V148.945H81.4944C83.4847 150.513 85.4929 152.065 87.5192 153.603C87.5771 153.581 87.6288 153.55 87.6745 153.51C87.3733 153.153 87.1455 152.873 86.9913 152.671C86.8439 152.186 86.7507 151.627 86.7118 150.994C86.4426 148.82 86.3909 146.688 86.5565 144.597Z" fill="#9A4C3E"/>
<path d="M87.1466 145.311C86.9395 145.083 86.7429 144.845 86.5565 144.596C86.3909 146.688 86.4427 148.82 86.7118 150.994C86.7507 151.626 86.8439 152.185 86.9913 152.671C87.1455 152.873 87.3733 153.152 87.6745 153.51C87.8935 153.78 88.1523 154.09 88.4509 154.441L89.0099 155.031C89.0923 155.08 89.1752 155.122 89.2584 155.156C89.5418 155.269 89.8523 155.372 90.1901 155.466C90.2705 155.483 90.343 155.493 90.4075 155.497C90.637 155.558 90.8751 155.61 91.1218 155.652C91.2667 155.259 91.6083 154.741 92.1466 154.1C92.2294 153.996 92.3122 153.893 92.395 153.789C93.1611 152.692 93.7408 151.501 94.1342 150.218C93.8936 150.137 93.6555 150.044 93.4199 149.938C91.0441 149.017 88.953 147.475 87.1466 145.311ZM125.873 134.037C125.881 134.006 125.891 133.975 125.904 133.944C125.847 133.954 125.785 133.965 125.718 133.975C125.338 134.043 124.965 134.105 124.6 134.162C124.408 134.201 124.212 134.232 124.01 134.255C122.967 134.46 122.097 134.636 121.401 134.783C121.546 134.638 121.681 134.493 121.805 134.348C121.598 134.41 121.381 134.483 121.153 134.565C119.931 134.98 118.72 135.466 117.519 136.025C116.898 136.315 116.588 136.677 116.588 137.112C116.588 137.443 116.774 137.754 117.147 138.044C118.058 138.561 119.145 138.582 120.407 138.106C120.966 137.94 121.536 137.712 122.116 137.423C122.84 137.029 123.565 136.532 124.289 135.932C124.638 135.657 125.01 135.326 125.407 134.938C125.459 134.905 125.511 134.864 125.563 134.814C125.582 134.76 125.603 134.708 125.625 134.659C125.7 134.449 125.783 134.242 125.873 134.037ZM119.848 125C121.215 123.406 122.405 121.449 123.42 119.131V119.1C122.136 120.073 120.542 121.211 118.637 122.516C118.265 122.764 117.913 123.002 117.581 123.23C116.194 124.058 115.138 124.503 114.414 124.565C113.689 124.607 112.975 124.472 112.271 124.162C112.561 125.901 112.944 127.05 113.42 127.609C114.455 128.251 115.594 128.23 116.836 127.547C117.395 127.236 117.933 126.864 118.451 126.429C118.927 126.015 119.393 125.539 119.848 125ZM121.65 128.106C121.815 127.837 121.971 127.557 122.116 127.267C121.515 127.764 120.614 128.489 119.414 129.441C119.108 129.682 118.777 129.931 118.42 130.187C118.351 130.264 118.268 130.337 118.171 130.404C118.165 130.413 118.155 130.424 118.14 130.435C117.992 130.565 117.858 130.689 117.737 130.808C117.67 130.917 117.608 131.021 117.55 131.118C117.516 131.178 117.485 131.24 117.457 131.305C117.312 131.657 117.364 131.936 117.612 132.143C117.778 132.309 118.109 132.329 118.606 132.205C118.843 132.139 119.081 132.056 119.321 131.957C119.464 131.915 119.609 131.864 119.755 131.801C119.891 131.741 120.025 131.679 120.159 131.615C120.238 131.576 120.31 131.534 120.376 131.491C120.487 131.437 120.59 131.375 120.687 131.305C122.395 130.32 124 128.674 125.501 126.367C125.625 125.642 125.708 124.897 125.749 124.131C124.279 125.704 122.913 127.029 121.65 128.106ZM98.6683 127.205C98.5748 127.069 98.4712 126.924 98.3578 126.77C98.2588 126.635 98.1449 126.49 98.0161 126.336C97.9545 126.258 97.8821 126.176 97.7988 126.087C97.7123 125.984 97.6191 125.88 97.5193 125.777C97.464 125.717 97.4019 125.655 97.3329 125.59C97.2129 125.465 97.0783 125.341 96.9292 125.218C96.3701 124.761 95.7593 124.471 95.0969 124.348C93.3578 124.141 91.2977 124.358 88.9168 125C87.364 125.394 86.2046 126.253 85.4385 127.578C84.3619 129.296 84.0617 131.512 84.5379 134.224C84.8008 135.789 85.2874 137.301 85.9975 138.758C86.0577 138.862 86.1095 138.965 86.1528 139.069C86.3136 139.36 86.4792 139.65 86.6497 139.938C86.7191 140.055 86.7916 140.169 86.8671 140.28C87.1958 140.818 87.5582 141.346 87.954 141.864C89.7553 144.224 91.7843 145.528 94.041 145.777C95.1383 145.735 96.0907 145.342 96.8981 144.596C98.9478 142.65 100.128 140.238 100.439 137.36C100.728 135.808 100.728 134.255 100.439 132.702C100.294 131.895 100.128 131.087 99.9416 130.28C99.6776 129.158 99.2532 128.133 98.6683 127.205Z" fill="#FEF8EF"/>
<path d="M69.6311 143.168C69.569 143.127 69.5172 143.096 69.4758 143.075C69.4344 143.034 69.4034 143.003 69.3827 142.982C69.1549 142.775 68.9375 142.599 68.7305 142.454C70.707 145.255 72.6842 148.05 74.6622 150.839C74.7174 150.928 74.7692 151.011 74.8174 151.088C75.0654 151.433 75.3035 151.775 75.5317 152.112C75.6046 152.209 75.6667 152.303 75.718 152.392C77.0448 154.248 78.3595 156.101 79.6621 157.951C79.7894 158.131 79.9136 158.307 80.0348 158.479C80.2367 158.762 80.4334 159.042 80.6249 159.317C80.7486 159.49 80.8625 159.656 80.9665 159.814C81.0799 159.967 81.1834 160.111 81.2771 160.249C81.3882 160.404 81.4917 160.549 81.5876 160.684C81.6573 160.787 81.7194 160.88 81.7739 160.963L81.805 160.994C81.7884 160.99 81.7677 160.98 81.7429 160.963L85.8423 166.802C88.1404 170.073 90.4385 173.334 92.7367 176.585C92.7988 176.667 92.8713 176.729 92.9541 176.771C94.6932 177.371 96.4116 178.117 98.1094 179.007C98.068 176.854 97.9851 174.7 97.8609 172.547C97.8609 172.464 97.8402 172.382 97.7988 172.299C97.3847 171.698 96.981 171.098 96.5876 170.498C94.9934 168.262 93.4096 166.026 91.8361 163.789C91.7947 163.769 91.7636 163.738 91.7429 163.696C91.7429 163.676 91.7429 163.655 91.7429 163.634C91.7015 163.572 91.6497 163.5 91.5876 163.417C91.4391 163.376 91.2839 163.335 91.1218 163.293C91.3037 163.335 91.4796 163.376 91.6497 163.417C91.2356 162.816 90.8009 162.226 90.3454 161.647C90.304 161.585 90.2626 161.522 90.2212 161.46C89.8278 160.901 89.4344 160.342 89.041 159.783C88.9969 159.721 88.9451 159.659 88.8858 159.597C88.3432 158.81 87.7842 158.023 87.2087 157.237C86.7118 156.843 86.1425 156.398 85.5007 155.901C85.2715 155.725 85.0438 155.549 84.8174 155.373C84.7923 155.36 84.7612 155.339 84.7243 155.311C84.5379 155.125 84.3309 154.949 84.1031 154.783C81.9456 153.057 79.9269 151.442 78.0472 149.939C77.9496 149.862 77.8461 149.78 77.7367 149.69C77.4305 149.456 77.1199 149.218 76.805 148.976C76.7384 148.915 76.6659 148.853 76.5876 148.79C76.4424 148.677 76.2975 148.563 76.1528 148.448C75.9251 148.241 75.6973 148.044 75.4696 147.858C73.275 146.119 71.3288 144.556 69.6311 143.168Z" fill="#CB724C"/>
<path d="M130.501 167.174C130.522 167.174 130.532 167.164 130.532 167.143C132.457 165.756 134.383 164.359 136.308 162.951L136.215 162.827C136.132 162.889 136.049 162.941 135.967 162.982C134.103 164.307 132.24 165.622 130.377 166.926C130.377 166.947 130.366 166.957 130.346 166.957C127.902 168.676 125.48 170.384 123.078 172.081C122.871 172.226 122.664 172.371 122.457 172.516C120.677 173.779 118.896 175.032 117.116 176.274C117.178 176.357 117.23 176.439 117.271 176.522C119.052 175.28 120.832 174.017 122.613 172.734C122.716 172.671 122.82 172.599 122.923 172.516L123.234 172.299C125.677 170.58 128.099 168.872 130.501 167.174Z" fill="#A5533E"/>
<path d="M133.265 160.187C133.182 160.228 133.099 160.28 133.016 160.342C132.934 160.404 132.871 160.466 132.83 160.528C132.768 160.632 132.716 160.735 132.675 160.839C133.027 160.507 133.223 160.29 133.265 160.187Z" fill="#8A4134"/>
<path d="M121.805 134.348C121.681 134.493 121.546 134.638 121.401 134.783C122.097 134.636 122.967 134.46 124.01 134.255L122.457 133.51C122.254 133.796 122.036 134.075 121.805 134.348ZM127.737 136.118C127.716 136.118 127.685 136.108 127.644 136.087C127.561 136.025 127.478 135.974 127.395 135.932L125.47 135C124.768 136.648 123.878 138.211 122.799 139.69C122.24 140.415 121.639 141.129 120.998 141.833C118.865 144.131 116.443 145.922 113.731 147.205L113.513 150.839C113.808 150.966 114.005 151.06 114.103 151.118C114.331 151.243 114.517 151.377 114.662 151.522C114.683 151.564 114.704 151.595 114.724 151.615L127.737 139.814C127.695 139.462 127.644 139.1 127.582 138.727C127.582 138.541 127.592 138.417 127.613 138.354L127.644 138.323C127.623 138.282 127.602 138.251 127.582 138.23C127.54 138.147 127.488 137.992 127.426 137.764C127.385 137.578 127.281 137.288 127.116 136.895L127.085 136.771H126.991C127.033 136.75 127.064 136.719 127.085 136.677C127.085 136.657 127.105 136.595 127.147 136.491C127.188 136.429 127.219 136.388 127.24 136.367C127.261 136.367 127.281 136.357 127.302 136.336V136.367C127.344 136.366 127.375 136.356 127.395 136.336C127.478 136.294 127.571 136.232 127.675 136.15C127.695 136.15 127.716 136.139 127.737 136.118Z" fill="#A85445"/>
<path d="M128.606 138.727C128.358 138.624 128.14 138.551 127.954 138.51C127.975 138.696 127.996 138.882 128.016 139.069C128.016 139.234 128.037 139.514 128.078 139.907C128.12 140.487 128.13 141.036 128.109 141.553C128.234 141.491 128.306 141.688 128.327 142.143C128.596 142.93 128.793 144.007 128.917 145.373C129.227 148.996 129.465 152.568 129.631 156.087C129.693 156.17 129.745 156.253 129.786 156.336C130.408 157.785 131.267 159.379 132.364 161.118L132.675 160.901V160.839C132.716 160.735 132.768 160.632 132.83 160.528C132.871 160.466 132.933 160.404 133.016 160.342C132.229 153.303 131.463 146.305 130.718 139.348C130.759 139.328 130.801 139.297 130.842 139.255C130.283 139.359 129.745 139.297 129.227 139.069C129.082 138.986 128.875 138.872 128.606 138.727Z" fill="#CA714C"/>
<path d="M72.3643 149.162C72.4083 149.235 72.4394 149.307 72.4574 149.38C72.5908 150.52 72.715 151.659 72.8301 152.796C72.8486 152.914 72.859 153.028 72.8611 153.137C72.8974 153.402 72.9284 153.661 72.9543 153.914C72.9779 154.134 72.9986 154.351 73.0164 154.566C73.1048 155.361 73.1877 156.147 73.2649 156.926C73.3289 157.594 73.391 158.256 73.4512 158.914C73.534 158.934 73.5961 158.934 73.6375 158.914C73.6663 158.88 73.6974 158.849 73.7307 158.82C74.3555 158.138 75.2457 157.807 76.4015 157.827C76.5046 157.84 76.6082 157.85 76.7121 157.858C77.0246 157.886 77.3351 157.958 77.6438 158.075C77.8483 158.168 78.0553 158.261 78.2649 158.355C78.6878 158.578 79.1122 158.878 79.5382 159.255C79.992 159.664 80.4474 160.161 80.9046 160.746C80.5905 160.303 80.2696 159.857 79.9419 159.411C79.8259 159.244 79.7016 159.068 79.5692 158.883C79.3967 158.638 79.2207 158.389 79.0413 158.137C78.9054 157.949 78.7708 157.762 78.6376 157.578C77.5056 156.015 76.3669 154.462 75.2214 152.92C75.1596 152.848 75.0975 152.765 75.0351 152.671C74.7814 152.343 74.5226 152.011 74.2587 151.678C74.2118 151.601 74.16 151.519 74.1034 151.429C73.525 150.675 72.9453 149.919 72.3643 149.162Z" fill="#CC724D"/>
<path d="M126.867 152.175L126.774 152.05C125.159 153.085 123.596 154.121 122.084 155.156C122.084 155.177 122.074 155.187 122.053 155.187C119.59 156.905 117.157 158.613 114.755 160.311C114.548 160.456 114.341 160.601 114.134 160.746C111.505 162.63 108.968 164.545 106.525 166.491C108.202 165.311 109.879 164.131 111.556 162.951C111.556 162.91 111.567 162.868 111.588 162.827C112.498 162.185 113.409 161.553 114.32 160.932C114.507 160.787 114.703 160.642 114.91 160.498C115.718 159.918 116.536 159.348 117.364 158.789C118.875 157.713 120.387 156.647 121.898 155.591C121.898 155.57 121.908 155.56 121.929 155.56C123.192 154.669 124.445 153.779 125.687 152.889C125.687 152.93 125.687 152.961 125.687 152.982C125.997 152.775 126.308 152.558 126.619 152.33C126.701 152.268 126.784 152.216 126.867 152.175Z" fill="#9C503C"/>
<path d="M87.0225 96.1806C84.3517 98.2095 82.5504 100.829 81.6188 104.038C80.2109 108.882 79.6312 113.8 79.8796 118.789C80.1074 123.22 80.5318 127.578 81.1529 131.864C81.6271 135.099 82.6002 138.08 84.0722 140.808C84.1237 140.915 84.1755 141.018 84.2275 141.118C84.3966 141.418 84.5726 141.718 84.7554 142.019C84.8425 142.159 84.9253 142.293 85.0039 142.423C85.4872 143.17 86.0048 143.895 86.5567 144.597C86.743 144.845 86.9397 145.083 87.1467 145.311C88.9531 147.475 91.0442 149.017 93.42 149.938C93.6557 150.045 93.8938 150.138 94.1343 150.218C93.7409 151.501 93.1612 152.692 92.3952 153.789C92.3123 153.893 92.2295 153.996 92.1467 154.1C91.6084 154.742 91.2668 155.259 91.1219 155.653C91.3703 155.694 91.6291 155.725 91.8983 155.746C92.7678 155.808 93.2854 155.829 93.4511 155.808C93.5546 155.808 93.6477 155.808 93.7306 155.808C94.2067 155.766 94.6105 155.663 94.9417 155.497C95.2316 155.332 95.5215 155.094 95.8113 154.783C96.1633 154.41 96.5152 153.924 96.8672 153.323C97.2813 152.599 97.6954 151.812 98.1094 150.963C98.772 151.005 99.4552 151.005 100.159 150.963C100.449 150.942 100.728 150.922 100.998 150.901L103.389 154.255C103.414 154.288 103.435 154.319 103.451 154.348C104.464 154.279 105.696 154.145 107.147 153.945C109.051 153.696 110.449 153.458 111.339 153.23C111.67 153.153 111.97 153.08 112.24 153.013L113.451 152.236L113.513 150.839L113.731 147.205C116.443 145.922 118.865 144.131 120.998 141.833C121.639 141.129 122.24 140.415 122.799 139.69C123.878 138.211 124.768 136.648 125.47 135C125.507 134.936 125.538 134.874 125.563 134.814C125.511 134.864 125.459 134.905 125.408 134.938C125.011 135.326 124.638 135.657 124.29 135.932C123.565 136.533 122.84 137.029 122.116 137.423C121.536 137.713 120.967 137.94 120.408 138.106C119.145 138.582 118.058 138.562 117.147 138.044C116.774 137.754 116.588 137.444 116.588 137.112C116.588 136.677 116.898 136.315 117.519 136.025C118.72 135.466 119.931 134.98 121.153 134.566C121.381 134.483 121.598 134.41 121.805 134.348C122.036 134.075 122.254 133.796 122.457 133.51C122.534 133.412 122.606 133.308 122.675 133.199C122.794 133.053 122.908 132.898 123.016 132.733C123.072 132.648 123.124 132.555 123.172 132.454C124.342 130.631 125.118 128.602 125.501 126.367C124 128.674 122.395 130.32 120.687 131.305C120.59 131.375 120.487 131.437 120.377 131.491C120.31 131.535 120.238 131.576 120.159 131.615C120.025 131.68 119.891 131.742 119.755 131.802C119.609 131.864 119.464 131.915 119.321 131.957C119.081 132.056 118.843 132.139 118.606 132.205C118.109 132.33 117.778 132.309 117.613 132.143C117.364 131.936 117.312 131.657 117.457 131.305C117.485 131.24 117.516 131.178 117.55 131.118C117.608 131.021 117.67 130.917 117.737 130.808C117.858 130.689 117.992 130.565 118.141 130.435C118.155 130.424 118.165 130.414 118.172 130.404C118.268 130.337 118.351 130.264 118.42 130.187C118.777 129.931 119.108 129.683 119.414 129.441C120.615 128.489 121.515 127.764 122.116 127.268C123.358 124.7 123.793 121.988 123.42 119.131C122.406 121.45 121.215 123.406 119.849 125C119.393 125.539 118.927 126.015 118.451 126.429C117.933 126.864 117.395 127.236 116.836 127.547C115.594 128.23 114.455 128.251 113.42 127.609C112.944 127.05 112.561 125.901 112.271 124.162C112.064 124.079 111.878 123.996 111.712 123.913C110.801 123.417 110.201 122.268 109.911 120.466C109.869 119.824 109.89 118.851 109.973 117.547C110.056 116.036 110.201 114.079 110.408 111.677C111.298 101.905 108.689 96.0977 102.581 94.2551C102.54 94.2344 102.499 94.224 102.457 94.224C96.2668 92.4021 91.1219 93.0543 87.0225 96.1806ZM98.3579 126.771C98.4714 126.924 98.5749 127.069 98.6685 127.205C99.2533 128.133 99.6778 129.158 99.9417 130.28C100.128 131.087 100.294 131.895 100.439 132.702C100.728 134.255 100.728 135.808 100.439 137.361C100.128 140.239 98.948 142.651 96.8983 144.597C96.0908 145.342 95.1384 145.735 94.0411 145.777C91.7844 145.528 89.7554 144.224 87.9542 141.864C87.5583 141.347 87.196 140.819 86.8672 140.28C86.7917 140.169 86.7192 140.055 86.6498 139.938C86.4793 139.65 86.3137 139.36 86.1529 139.069C86.1096 138.965 86.0578 138.862 85.9976 138.758C85.2875 137.301 84.8009 135.79 84.538 134.224C84.0618 131.512 84.362 129.297 85.4386 127.578C86.2047 126.253 87.3641 125.394 88.9169 125C91.2978 124.359 93.3579 124.141 95.097 124.348C95.7595 124.472 96.3702 124.761 96.9293 125.218C97.0784 125.341 97.213 125.465 97.3331 125.59C97.402 125.655 97.4641 125.717 97.5194 125.777C97.6193 125.88 97.7124 125.984 97.7989 126.087C97.8822 126.176 97.9546 126.259 98.0163 126.336C98.145 126.491 98.2589 126.635 98.3579 126.771Z" fill="#F1E1CC"/>
<path d="M72.9848 77.9508C72.902 77.868 72.8398 77.8473 72.7984 77.8887C72.6535 77.9094 72.5086 77.9094 72.3636 77.8887C72.1773 77.8473 72.0013 77.868 71.8357 77.9508C71.5251 77.9508 71.287 78.0025 71.1214 78.1061C70.8109 78.1475 70.5728 78.2303 70.4071 78.3545C70.2829 78.3752 70.2104 78.4166 70.1897 78.4787C69.6514 78.81 69.1856 79.2965 68.7922 79.9383V79.9694C68.4817 80.3214 68.3885 80.7251 68.5127 81.1806C68.5127 81.4083 68.5852 81.6775 68.7301 81.988C69.0821 82.6506 69.5997 82.6195 70.2829 81.8949L71.2146 80.9942C71.6287 80.6423 72.0013 80.4145 72.3326 80.311C72.6018 80.1454 72.8606 80.0108 73.109 79.9073C73.3367 79.8038 73.5334 79.576 73.699 79.2241C73.7612 79.0791 73.8129 78.9756 73.8543 78.9135C73.8129 78.6443 73.7198 78.4373 73.5748 78.2924C73.4299 78.2096 73.3367 78.1578 73.2953 78.1371C73.2125 78.0336 73.1504 77.9818 73.109 77.9818L72.9848 77.9508ZM79.8171 91.3359C79.2995 90.7147 78.6887 90.104 77.9848 89.5036C77.5086 89.0481 76.991 88.7168 76.432 88.5098C76.0386 88.282 75.6452 88.1578 75.2518 88.1371C74.962 88.075 74.7239 88.0232 74.5376 87.9818C74.2063 87.9197 73.9475 87.8887 73.7612 87.8887C73.3057 87.8887 72.933 87.899 72.6432 87.9197C71.9806 88.0232 71.3181 88.3027 70.6556 88.7582C70.0138 89.1309 69.8067 89.7003 70.0345 90.4663C70.1794 91.1495 70.7073 91.3255 71.6183 90.9943C71.639 90.9735 71.6804 90.9528 71.7425 90.9321L73.0469 90.4042C73.5438 90.28 73.9993 90.2282 74.4133 90.2489C74.6825 90.2282 74.9413 90.2386 75.1897 90.28C75.3347 90.3421 75.4899 90.4042 75.6556 90.4663C76.0903 90.6319 76.4216 90.8079 76.6494 90.9943C75.9247 90.7458 74.962 90.8907 73.7612 91.429C73.492 91.574 73.2643 91.7085 73.0779 91.8328C72.933 91.8742 72.8088 91.988 72.7053 92.1744C72.4568 92.34 72.2394 92.5263 72.0531 92.7334C71.4941 93.251 71.4423 93.7686 71.8978 94.2862C72.2498 94.721 72.6018 94.9073 72.9537 94.8452C73.2022 94.7624 73.4403 94.6588 73.668 94.5346C73.8957 94.369 74.1338 94.2034 74.3823 94.0377C74.5272 93.8928 74.7964 93.7375 75.1897 93.5719C75.5003 93.3441 75.8833 93.251 76.3388 93.2924C76.7529 93.2717 77.1773 93.3234 77.6121 93.4477C78.0262 93.5512 78.5541 93.5926 79.1959 93.5719C79.8378 93.5305 80.2208 93.3234 80.345 92.9508C80.4071 92.4746 80.2311 91.9363 79.8171 91.3359ZM98.7922 84.193C98.316 84.0895 97.8605 84.0791 97.4258 84.162C96.08 84.3276 95.0138 85.0108 94.227 86.2116C93.875 86.7499 93.6162 87.34 93.4506 87.9818C93.285 88.6444 93.2539 89.3793 93.3574 90.1868C93.5231 91.5533 94.1131 92.6609 95.1276 93.5098C96.0386 94.3793 97.1152 94.752 98.3574 94.6278C99.5376 94.4622 100.562 93.8824 101.432 92.8887C101.556 92.6402 101.711 92.4125 101.898 92.2054C102.415 91.2945 102.654 90.2593 102.612 89.0998C102.529 87.9197 102.198 86.9259 101.618 86.1185C101.639 86.2841 101.67 86.4808 101.711 86.7085C101.732 87.4746 101.515 88.1785 101.059 88.8203C100.604 89.4 100.066 89.7417 99.4444 89.8452C98.7198 89.9073 98.1193 89.721 97.6432 89.2862C97.1049 88.7272 96.8046 88.0853 96.7425 87.3607C96.639 86.5326 96.8357 85.8286 97.3326 85.2489C97.6432 84.6692 98.1297 84.3172 98.7922 84.193ZM102.705 76.4911C102.829 75.5595 102.529 74.8555 101.805 74.3793C101.018 73.8203 100.252 73.4787 99.5065 73.3545C99.1131 73.251 98.6991 73.251 98.2643 73.3545C97.9951 73.3545 97.6949 73.3959 97.3636 73.4787C97.1359 73.4994 96.9392 73.5512 96.7736 73.634C96.5665 73.6754 96.4113 73.7168 96.3077 73.7582C96.1421 73.8203 95.9247 74.0377 95.6556 74.4104C95.4071 74.7831 95.4692 75.1454 95.8419 75.4974C96.2146 75.8286 96.5458 75.9735 96.8357 75.9321C97.0634 75.9528 97.4154 75.9943 97.8916 76.0564C98.2436 76.0564 98.7197 76.1702 99.3202 76.398L100.873 76.957C101.97 77.4746 102.581 77.3193 102.705 76.4911Z" fill="#542320"/>
<path d="M76.1529 76.5532C75.9873 76.5118 75.8631 76.429 75.7803 76.3048C75.6975 76.2634 75.6457 76.222 75.625 76.1805C74.9832 75.4559 74.5794 74.2137 74.4138 72.4538C74.2689 72.1226 74.2068 71.7085 74.2275 71.2116C73.1095 72.2468 73.037 71.6671 74.0101 69.4725C72.7264 72.1226 71.0805 74.224 69.0722 75.7768C68.0991 76.5015 67.0536 76.9362 65.9355 77.0812C65.9977 77.7851 66.2151 78.3648 66.5877 78.8203C67.2089 79.5035 67.9438 79.8866 68.7927 79.9694V79.9383C69.1861 79.2965 69.6519 78.8099 70.1902 78.4787C70.2109 78.4166 70.2834 78.3752 70.4076 78.3545C70.5732 78.2302 70.8113 78.1474 71.1219 78.106C71.2875 78.0025 71.5256 77.9507 71.8362 77.9507C72.0018 77.8679 72.1778 77.8472 72.3641 77.8886C72.509 77.9093 72.654 77.9093 72.7989 77.8886C72.8403 77.8472 72.9024 77.8679 72.9852 77.9507L73.1095 77.9818C73.1509 77.9818 73.213 78.0335 73.2958 78.1371C73.3372 78.1578 73.4304 78.2095 73.5753 78.2923C73.7202 78.4373 73.8134 78.6443 73.8548 78.9135C74.7451 78.4373 75.7285 77.8369 76.8051 77.1122C76.5567 76.9466 76.3393 76.7603 76.1529 76.5532ZM78.4821 95.7147C76.7223 96.1702 75.1591 96.781 73.7927 97.547C72.2813 98.3545 70.9977 99.3172 69.9418 100.435C69.9004 100.477 69.8486 100.518 69.7865 100.559C69.4759 100.891 69.2068 101.253 68.979 101.646C67.3227 103.779 66.8569 106.067 67.5815 108.51C67.6022 108.634 67.6436 108.737 67.7057 108.82C67.7678 109.11 67.861 109.421 67.9852 109.752C69.2689 112.651 71.9604 115 76.0598 116.802C79.9935 118.541 84.3724 119.359 89.1964 119.255C94.2689 119.11 98.596 117.992 102.178 115.901C106.215 113.582 108.254 110.715 108.296 107.299C108.296 106.802 108.254 106.325 108.172 105.87C107.654 102.951 105.656 100.456 102.178 98.3855C101.764 98.1578 101.35 97.93 100.936 97.7023C98.8652 96.6257 96.6912 95.8079 94.4138 95.2489C90.977 94.4828 87.3538 94.3172 83.5442 94.752C81.6809 94.9383 79.9935 95.2592 78.4821 95.7147ZM87.0536 97.8576C88.0888 98.458 88.8341 99.2447 89.2896 100.218C89.331 100.363 89.4345 100.632 89.6001 101.025C91.5049 102.475 92.9852 103.427 94.0411 103.882C94.9935 104.276 95.7492 104.814 96.3082 105.497C96.8258 106.16 96.9707 107.143 96.743 108.448C96.5567 109.524 95.977 110.539 95.0039 111.491C94.0722 112.319 93.0473 112.878 91.9293 113.168C90.7906 113.354 89.6209 113.375 88.42 113.23C87.2192 113.002 86.1529 112.537 85.2213 111.833C84.5794 111.336 83.9583 110.715 83.3579 109.969C82.4262 109.659 81.6291 109.472 80.9666 109.41C80.5939 109.307 80.2834 109.265 80.0349 109.286C79.9107 109.079 79.8486 108.893 79.8486 108.727C79.4138 107.485 79.1964 106.263 79.1964 105.063C79.1964 103.489 79.5173 102.029 80.1591 100.684C80.6767 99.5449 81.3289 98.7168 82.1157 98.1992C82.7368 97.8058 83.5339 97.5677 84.507 97.4849C84.7554 97.4228 85.1281 97.4228 85.625 97.4849C85.7906 97.4228 85.9977 97.4021 86.2461 97.4228C86.4946 97.5263 86.7637 97.6712 87.0536 97.8576ZM101.401 54.1619C100.967 54.0377 100.615 53.9445 100.345 53.8824C98.3579 53.2199 96.8362 52.8369 95.7803 52.7333C95.6561 52.6091 95.5939 52.4952 95.5939 52.3917C95.4697 52.2261 95.3869 52.0501 95.3455 51.8638C95.0349 52.1743 94.7865 52.4952 94.6001 52.8265C91.9086 55.6836 90.418 57.5574 90.1281 58.4476C89.8175 59.193 89.4345 60.2799 88.979 61.7085C88.9376 61.7706 88.9169 61.8638 88.9169 61.988C88.772 62.2779 88.6478 62.6091 88.5442 62.9818C88.4614 64.4518 88.2751 65.8907 87.9852 67.2986C87.6333 68.7478 87.1985 70.0936 86.6809 71.3358C88.4614 70.9217 91.0805 70.87 94.538 71.1805C98.5339 71.429 101.536 71.2944 103.544 70.7768C106.36 69.8658 108.192 68.3545 109.041 66.2427C109.331 65.2903 109.414 64.1412 109.29 62.7954C109.248 62.1329 109.155 61.4393 109.01 60.7147C108.844 59.9072 108.648 59.1309 108.42 58.3855C108.399 58.2613 108.368 58.1371 108.327 58.0128C105.76 56.1495 103.451 54.8658 101.401 54.1619Z" fill="#FEF8EF"/>
<path d="M76.1529 76.553C75.9873 76.4494 75.8734 76.3666 75.8113 76.3045H75.7803C75.8631 76.4287 75.9873 76.5115 76.1529 76.553ZM118.824 61.1182H118.296C118.234 62.3811 118.379 63.4474 118.731 64.3169C118.71 63.0954 118.741 62.0291 118.824 61.1182Z" fill="#FEFEFE"/>
<path d="M75.5626 58.5719C74.2997 59.6485 72.9539 61.2428 71.5253 63.3546L68.0781 68.1372C65.2624 71.5533 62.3535 73.0336 59.3514 72.5781C58.7924 72.4746 58.2645 72.3297 57.7676 72.1434C58.0367 72.8266 58.4094 73.4788 58.8856 74.0999C59.6723 75.28 60.7179 76.0978 62.0222 76.5533C62.9746 76.9053 63.8959 77.0916 64.7862 77.1123L64.8794 77.1744C64.8794 77.1123 64.9415 77.0916 65.0657 77.1123L65.1589 77.1744C65.3866 77.133 65.6454 77.102 65.9353 77.0813C67.0533 76.9363 68.0988 76.5015 69.0719 75.7769C71.0802 74.2241 72.7262 72.1227 74.0098 69.4726L74.0409 69.4415C75.2417 67.0191 76.1837 65.2076 76.867 64.0067C77.5502 62.5575 78.3059 61.2738 79.134 60.1558C79.1133 58.8721 79.1961 57.4539 79.3825 55.9011C77.9332 56.5844 76.6599 57.4746 75.5626 58.5719ZM83.8545 68.9136C83.192 69.4726 82.5398 69.7003 81.898 69.5968C80.9042 69.3898 80.1485 68.396 79.6309 66.6154C79.1547 64.9591 78.9891 62.8059 79.134 60.1558C78.3059 61.2738 77.5502 62.5575 76.867 64.0067C76.1837 65.2076 75.2417 67.0191 74.0409 69.4415L74.0098 69.4726C73.0367 71.6672 73.1092 72.2469 74.2272 71.2117C74.2065 71.7086 74.2686 72.1227 74.4135 72.4539C74.5792 74.2138 74.9829 75.456 75.6247 76.1806C75.6454 76.222 75.6972 76.2634 75.78 76.3049H75.811C75.8732 76.367 75.987 76.4498 76.1527 76.5533C76.339 76.7603 76.5564 76.9467 76.8048 77.1123C77.2189 77.3401 77.6848 77.485 78.2024 77.5471C78.2438 77.5057 78.2852 77.5264 78.3266 77.6092C79.4032 77.7127 80.4694 77.4953 81.5253 76.957C83.6164 76.0461 85.3038 74.2345 86.5874 71.5223C86.5874 71.5015 86.6185 71.4394 86.6806 71.3359C87.1982 70.0937 87.633 68.7479 87.985 67.2986C88.2748 65.8908 88.4611 64.4519 88.544 62.9819C87.426 65.5285 85.8628 67.5057 83.8545 68.9136ZM93.575 104.007C92.7469 103.717 92.1568 103.541 91.8048 103.479C91.1009 104.369 90.3349 105.197 89.5067 105.963C87.9953 107.185 86.3494 108.116 84.5688 108.758C83.8856 108.965 83.2645 109.121 82.7055 109.224C82.0843 109.307 81.5046 109.369 80.9663 109.41C81.6289 109.473 82.426 109.659 83.3576 109.969C83.3783 109.99 83.4094 110.011 83.4508 110.032C85.1071 110.673 86.2872 111.025 86.9912 111.087C87.985 111.17 89.3411 110.88 91.0595 110.218C92.7365 109.452 93.8028 108.448 94.2583 107.205C94.6723 105.86 94.4446 104.793 93.575 104.007ZM115.066 50.4042C114.631 50.3007 114.186 50.3318 113.73 50.4974L113.109 52.1123L115.066 50.4042ZM75.0657 22.9198L75.1899 23.3235C76.1423 23.6341 78.0781 24.5864 80.9974 26.1806C81.3908 26.3877 81.7945 26.6051 82.2086 26.8328C84.134 27.9094 86.1837 30.0109 88.3576 33.1372C89.5378 34.8763 90.7489 36.926 91.9912 39.2862C92.2189 39.6796 93.0988 40.6216 94.6309 42.1123C95.252 42.7127 94.9829 42.9922 93.8235 42.9508C93.3887 42.7852 91.1527 41.6465 87.1154 39.5347C83.0367 37.4229 78.4198 37.3194 73.2645 39.2241C68.0678 41.1496 64.2997 42.0916 61.9601 42.0502C60.987 42.0295 59.8173 41.957 58.4508 41.8328C59.8794 43.7997 61.9187 45.9218 64.5688 48.1993C64.4032 47.4746 65.2106 46.957 66.9912 46.6465C69.0616 45.0523 71.2769 43.9239 73.6371 43.2614C76.1216 42.4125 78.7717 42.1227 81.5875 42.3918C87.3431 42.8473 91.9291 46.0047 95.3452 51.8639C95.3866 52.0502 95.4694 52.2262 95.5937 52.3918C95.5937 52.4953 95.6558 52.6092 95.78 52.7334C96.8359 52.837 98.3576 53.22 100.345 53.8825C100.614 53.9446 100.966 54.0378 101.401 54.162C103.451 54.8659 105.759 56.1496 108.327 58.0129C108.368 58.0543 108.43 58.0957 108.513 58.1372C108.306 57.8473 108.761 57.9922 109.879 58.5719C110.418 58.8204 111.111 59.1724 111.96 59.6278C114.548 61.0357 116.422 61.4601 117.581 60.9011C117.85 60.9632 118.088 61.0357 118.296 61.1185H118.823C118.865 60.0005 118.979 59.131 119.165 58.5098C119.144 58.3235 119.113 58.1475 119.072 57.9819C118.948 57.3194 118.823 56.6568 118.699 55.9943C118.409 56.2427 118.099 56.4601 117.768 56.6465C117.395 56.8328 116.991 56.9881 116.556 57.1123C115.79 57.3608 115.055 57.4125 114.351 57.2676C113.544 57.0813 112.964 56.6775 112.612 56.0564C112.467 55.8287 112.353 55.5181 112.271 55.1247C112.25 54.8142 112.229 54.5761 112.209 54.4104L113.109 52.1123L113.73 50.4974L115.687 44.721C106.805 49.5864 102.364 49.5657 102.364 44.6589C103.378 40.4974 103.968 38.1372 104.134 37.5782C104.134 37.4332 104.124 37.2676 104.103 37.0813C104.041 36.2945 103.968 35.5492 103.886 34.8452C103.761 33.7272 103.647 32.7334 103.544 31.8639C103.337 30.3939 103.12 29.2138 102.892 28.3235C102.85 28.0958 102.788 27.8887 102.705 27.7024C102.995 30.8494 102.571 33.1061 101.432 34.4726C100.273 35.7976 98.0057 35.6527 94.6309 34.0378C92.4777 33.5409 90.811 32.5057 89.6309 30.9322C88.3059 29.1309 86.9912 27.3504 85.6868 25.5906C84.6723 24.2655 83.3369 23.3856 81.6806 22.9508C80.956 22.7645 80.2313 22.5989 79.5067 22.4539C77.9953 21.9984 77.1154 20.9736 76.867 19.3794C76.2251 20.4146 75.6247 21.5947 75.0657 22.9198ZM102.115 49.9695C102.157 49.6796 102.24 49.6278 102.364 49.8142C102.281 49.8556 102.198 49.9073 102.115 49.9695Z" fill="#BB1E2D"/>
<path d="M108.327 58.0129C108.368 58.1371 108.399 58.2613 108.42 58.3856C108.647 59.1309 108.844 59.9073 109.01 60.7148C109.155 61.4394 109.248 62.133 109.289 62.7955C109.413 64.1413 109.331 65.2903 109.041 66.2427C108.192 68.3545 106.36 69.8659 103.544 70.7769C101.536 71.2945 98.5336 71.429 94.5377 71.1806C91.0801 70.87 88.4611 70.9218 86.6805 71.3359C86.6184 71.4394 86.5874 71.5015 86.5874 71.5222C85.3037 74.2344 83.6164 76.046 81.5253 76.957C80.4694 77.4953 79.4031 77.7127 78.3265 77.6092C78.2851 77.5264 78.2437 77.5056 78.2023 77.5471C77.6847 77.4849 77.2188 77.34 76.8048 77.1123C75.7282 77.8369 74.7447 78.4373 73.8545 78.9135C73.8131 78.9756 73.7613 79.0791 73.6992 79.2241C73.5335 79.576 73.3369 79.8038 73.1091 79.9073C72.8607 80.0108 72.6019 80.1454 72.3327 80.311C72.0015 80.4145 71.6288 80.6423 71.2147 80.9943L70.283 81.8949C69.5998 82.6195 69.0822 82.6506 68.7302 81.9881C68.5853 81.6775 68.5128 81.4083 68.5128 81.1806C68.3886 80.7251 68.4818 80.3214 68.7924 79.9694C67.9435 79.8866 67.2085 79.5036 66.5874 78.8203C66.2147 78.3649 65.9973 77.7851 65.9352 77.0812C65.6453 77.1019 65.3866 77.133 65.1588 77.1744L65.0656 77.1123C64.9414 77.0916 64.8793 77.1123 64.8793 77.1744L64.7861 77.1123C64.9725 79.1827 65.2313 81.222 65.5625 83.2303C66.1215 87.2883 66.8669 91.1806 67.7986 94.9073C67.9021 95.4042 68.0263 95.9321 68.1712 96.4912C68.254 96.6775 68.3369 96.9052 68.4197 97.1744C67.6329 98.6444 67.0739 99.928 66.7427 101.025C66.2458 102.475 66.1112 104.058 66.3389 105.777C66.3803 106.605 66.546 107.464 66.8358 108.355C67.457 110.446 69.0097 112.609 71.4942 114.845C71.8255 115.135 72.1981 115.456 72.6122 115.808C75.4694 118.127 78.7406 119.752 82.4259 120.684C86.0698 121.553 91.0698 121.771 97.4259 121.336C98.1505 121.17 98.8752 121.046 99.5998 120.963C102.726 120.57 105.645 119.814 108.358 118.696C108.378 118.675 108.399 118.665 108.42 118.665C108.834 118.251 110.656 115.477 113.886 110.342C117.529 104.545 118.109 95.5905 115.625 83.4787C113.14 71.3255 111.225 63.0232 109.879 58.5719C108.761 57.9922 108.306 57.8473 108.513 58.1371C108.43 58.0957 108.368 58.0543 108.327 58.0129ZM101.805 74.3794C102.529 74.8555 102.83 75.5595 102.705 76.4912C102.581 77.3193 101.97 77.4746 100.873 76.957L99.3203 76.398C98.7199 76.1702 98.2437 76.0564 97.8917 76.0564C97.4155 75.9943 97.0636 75.9529 96.8358 75.9321C96.546 75.9736 96.2147 75.8286 95.842 75.4974C95.4694 75.1454 95.4073 74.7831 95.6557 74.4104C95.9249 74.0377 96.1422 73.8203 96.3079 73.7582C96.4114 73.7168 96.5667 73.6754 96.7737 73.634C96.9393 73.5512 97.136 73.4994 97.3638 73.4787C97.695 73.3959 97.9953 73.3545 98.2644 73.3545C98.6992 73.251 99.1133 73.251 99.5066 73.3545C100.252 73.4787 101.018 73.8203 101.805 74.3794ZM97.4259 84.162C97.8607 84.0791 98.3162 84.0895 98.7923 84.193C99.5791 84.3172 100.314 84.7106 100.997 85.3731C101.184 85.5802 101.391 85.8286 101.618 86.1185C102.198 86.9259 102.529 87.9197 102.612 89.0999C102.654 90.2593 102.416 91.2945 101.898 92.2054C101.712 92.4125 101.556 92.6402 101.432 92.8887C100.563 93.8825 99.5377 94.4622 98.3576 94.6278C97.1153 94.752 96.0387 94.3793 95.1278 93.5098C94.1133 92.6609 93.5232 91.5533 93.3576 90.1868C93.254 89.3794 93.2851 88.6444 93.4507 87.9818C93.6164 87.34 93.8752 86.75 94.2271 86.2116C95.0139 85.0108 96.0801 84.3276 97.4259 84.162ZM77.9849 89.5036C78.6888 90.104 79.2996 90.7148 79.8172 91.3359C80.2313 91.9363 80.4073 92.4746 80.3451 92.9508C80.2209 93.3235 79.8379 93.5305 79.1961 93.5719C78.5543 93.5926 78.0263 93.5512 77.6122 93.4477C77.1775 93.3235 76.753 93.2717 76.3389 93.2924C75.8834 93.251 75.5004 93.3442 75.1899 93.5719C74.7965 93.7375 74.5273 93.8928 74.3824 94.0377C74.134 94.2034 73.8959 94.369 73.6681 94.5346C73.4404 94.6589 73.2023 94.7624 72.9538 94.8452C72.6019 94.9073 72.2499 94.721 71.8979 94.2862C71.4425 93.7686 71.4942 93.251 72.0532 92.7334C72.2396 92.5263 72.4569 92.34 72.7054 92.1744C72.8089 91.988 72.9331 91.8742 73.0781 91.8328C73.2644 91.7085 73.4921 91.574 73.7613 91.429C74.9621 90.8907 75.9249 90.7458 76.6495 90.9943C76.4217 90.8079 76.0905 90.6319 75.6557 90.4663C75.4901 90.4042 75.3348 90.3421 75.1899 90.28C74.9414 90.2386 74.6826 90.2282 74.4135 90.2489C73.9994 90.2282 73.5439 90.28 73.047 90.4042L71.7427 90.9321C71.6806 90.9529 71.6391 90.9736 71.6184 90.9943C70.7075 91.3255 70.1795 91.1495 70.0346 90.4663C69.8068 89.7003 70.0139 89.1309 70.6557 88.7582C71.3182 88.3027 71.9808 88.0232 72.6433 87.9197C72.9331 87.899 73.3058 87.8887 73.7613 87.8887C73.9476 87.8887 74.2064 87.9197 74.5377 87.9818C74.724 88.0232 74.9621 88.075 75.252 88.1371C75.6453 88.1578 76.0387 88.282 76.4321 88.5098C76.9911 88.7168 77.5087 89.0481 77.9849 89.5036ZM73.7923 97.5471C75.1588 96.781 76.722 96.1702 78.4818 95.7148C79.9932 95.2593 81.6805 94.9384 83.5439 94.752C87.3534 94.3172 90.9766 94.4829 94.4135 95.2489C96.6909 95.8079 98.8648 96.6257 100.935 97.7023C101.349 97.9301 101.763 98.1578 102.177 98.3856C105.656 100.456 107.654 102.951 108.171 105.87C108.254 106.326 108.295 106.802 108.295 107.299C108.254 110.715 106.215 113.582 102.177 115.901C98.5957 117.992 94.2685 119.11 89.1961 119.255C84.3721 119.359 79.9932 118.541 76.0594 116.802C71.9601 115 69.2685 112.651 67.9849 109.752C67.8607 109.421 67.7675 109.11 67.7054 108.82C67.6433 108.738 67.6019 108.634 67.5812 108.51C66.8565 106.067 67.3224 103.779 68.9787 101.646C69.2064 101.253 69.4756 100.891 69.7861 100.559C69.8483 100.518 69.9 100.477 69.9414 100.435C70.9973 99.3172 72.281 98.3545 73.7923 97.5471Z" fill="#F1E1CC"/>
<path d="M89.6001 101.025C89.6415 101.088 89.7036 101.243 89.7865 101.491C89.9728 101.967 90.1592 102.33 90.3455 102.578C90.5732 102.972 90.9562 103.251 91.4945 103.417C91.5774 103.417 91.6809 103.437 91.8051 103.479C92.1571 103.541 92.7471 103.717 93.5753 104.007C94.4449 104.794 94.6726 105.86 94.2585 107.206C93.803 108.448 92.7368 109.452 91.0598 110.218C89.3413 110.88 87.9852 111.17 86.9914 111.088C86.2875 111.025 85.1074 110.673 83.4511 110.032C83.4097 110.011 83.3786 109.99 83.3579 109.969C83.9583 110.715 84.5794 111.336 85.2213 111.833C86.1529 112.537 87.2192 113.003 88.42 113.23C89.6208 113.375 90.7906 113.355 91.9293 113.168C93.0473 112.878 94.0722 112.319 95.0039 111.491C95.977 110.539 96.5567 109.524 96.743 108.448C96.9707 107.143 96.8258 106.16 96.3082 105.497C95.7492 104.814 94.9935 104.276 94.0411 103.883C92.9852 103.427 91.5049 102.475 89.6001 101.025Z" fill="#CFCFCF"/>
<path d="M85.6249 97.4846C85.128 97.4225 84.7553 97.4225 84.5068 97.4846C83.5338 97.5674 82.7367 97.8055 82.1156 98.1989C81.3288 98.7165 80.6766 99.5446 80.159 100.683C79.5172 102.029 79.1963 103.489 79.1963 105.062C79.1963 106.263 79.4137 107.485 79.8485 108.727C79.8485 108.665 79.8692 108.654 79.9106 108.696C80.5938 108.489 81.2356 108.271 81.836 108.044C83.2646 107.485 84.4137 106.853 85.2832 106.149C86.07 105.425 86.6808 104.617 87.1155 103.727C87.4675 102.774 87.5607 101.801 87.3951 100.808C87.3536 100.725 87.3329 100.642 87.3329 100.559C87.0638 99.5032 86.4944 98.4784 85.6249 97.4846Z" fill="#F3CF40"/>
<path d="M89.2891 100.218C88.8337 99.2447 88.0883 98.458 87.0531 97.8576C86.7633 97.6712 86.4941 97.5263 86.2457 97.4228C85.9972 97.4021 85.7902 97.4228 85.6246 97.4849C86.4941 98.4787 87.0635 99.5036 87.3326 100.559C87.3326 100.642 87.3533 100.725 87.3947 100.808C87.5604 101.802 87.4672 102.775 87.1152 103.727C86.6804 104.617 86.0697 105.425 85.2829 106.15C84.4134 106.853 83.2643 107.485 81.8357 108.044C81.2353 108.272 80.5935 108.489 79.9103 108.696C79.8689 108.655 79.8481 108.665 79.8481 108.727C79.8481 108.893 79.9103 109.079 80.0345 109.286C80.2829 109.265 80.5935 109.307 80.9662 109.41C81.5045 109.369 82.0842 109.307 82.7053 109.224C83.2643 109.121 83.8854 108.965 84.5686 108.758C86.3492 108.116 87.9952 107.185 89.5065 105.963C90.3347 105.197 91.1007 104.369 91.8047 103.479C91.6804 103.437 91.5769 103.417 91.4941 103.417C90.9558 103.251 90.5728 102.971 90.3451 102.578C90.1587 102.33 89.9724 101.967 89.786 101.491C89.7032 101.243 89.6411 101.087 89.5997 101.025C89.4341 100.632 89.3306 100.363 89.2891 100.218Z" fill="#F39840"/>
<path d="M101.618 86.1183C101.391 85.8285 101.184 85.58 100.997 85.373C100.314 84.7105 99.579 84.3171 98.7923 84.1929C98.1297 84.3171 97.6432 84.6691 97.3327 85.2488C96.8358 85.8285 96.6391 86.5324 96.7426 87.3606C96.8047 88.0852 97.1049 88.727 97.6432 89.286C98.1194 89.7208 98.7198 89.9072 99.4445 89.8451C100.066 89.7415 100.604 89.3999 101.059 88.8202C101.515 88.1784 101.732 87.4744 101.712 86.7084C101.67 86.4807 101.639 86.284 101.618 86.1183Z" fill="white"/>
<path d="M118.296 61.1184C118.089 61.0355 117.851 60.9631 117.581 60.901C116.422 61.46 114.548 61.0355 111.96 59.6277C111.111 59.1722 110.418 58.8202 109.88 58.5718C111.225 63.0231 113.14 71.3254 115.625 83.4786C118.109 95.5904 117.53 104.545 113.886 110.342C110.656 115.477 108.834 118.251 108.42 118.665C111.256 117.443 113.855 115.818 116.215 113.789C122.447 108.385 124.341 102.091 121.898 94.9072C121.836 94.3896 121.774 93.8823 121.712 93.3854C121.484 91.9155 121.287 90.5076 121.122 89.1618C119.631 77.9196 118.834 69.638 118.73 64.3171C118.379 63.4476 118.234 62.3813 118.296 61.1184Z" fill="#E0CCB3"/>
<path d="M115.066 50.404L113.109 52.1121L112.209 54.4102C112.229 54.5759 112.25 54.814 112.271 55.1245C112.354 55.5179 112.467 55.8285 112.612 56.0562C112.964 56.6773 113.544 57.0811 114.351 57.2674C115.055 57.4123 115.79 57.3606 116.556 57.1121C116.991 56.9879 117.395 56.8326 117.768 56.6463C118.099 56.4599 118.409 56.2425 118.699 55.9941C118.658 55.7664 118.627 55.5386 118.606 55.3109C118.42 54.2964 118.078 53.3854 117.581 52.5779C117.209 52.0189 116.743 51.5013 116.184 51.0252C115.811 50.7146 115.438 50.5076 115.066 50.404ZM109.817 31.4599C109.776 31.4185 109.745 31.3875 109.724 31.3668C108.068 30.7249 106.65 30.549 105.469 30.8388C104.745 31.0252 104.103 31.3668 103.544 31.8637C103.648 32.7332 103.761 33.727 103.886 34.845C103.968 35.549 104.041 36.2943 104.103 37.0811C104.124 37.2674 104.134 37.433 104.134 37.5779C103.968 38.137 103.378 40.4972 102.364 44.6587C102.364 49.5655 106.805 49.5862 115.687 44.7208L115.935 44.0997C116.101 43.1059 116.142 42.1949 116.06 41.3668C115.935 39.5241 115.252 37.6401 114.01 35.7146C113.202 34.4724 111.805 33.0541 109.817 31.4599ZM111.898 38.3233C111.65 38.2405 111.494 38.1991 111.432 38.1991C110.894 38.2198 110.283 38.2508 109.6 38.2922C108.896 38.3543 108.254 38.3854 107.674 38.3854C107.095 38.344 106.722 38.0024 106.556 37.3606C106.432 36.7601 106.494 36.1494 106.743 35.5283C106.991 34.9071 107.726 34.638 108.948 34.7208C110.19 34.8036 111.049 35.4558 111.525 36.6773C112.002 37.8782 112.126 38.4268 111.898 38.3233ZM91.9912 39.286C92.5916 40.404 93.2024 41.6256 93.8235 42.9506C94.9829 42.992 95.2521 42.7125 94.631 42.1121C93.0989 40.6214 92.219 39.6794 91.9912 39.286ZM81.5875 42.3916C78.7718 42.1225 76.1216 42.4123 73.6372 43.2612C71.2769 43.9237 69.0616 45.0521 66.9912 46.6463C66.4529 47.0189 65.925 47.4434 65.4074 47.9196C62.1983 50.8388 59.7655 54.3378 58.1092 58.4165C57.5088 59.8036 57.0119 61.2736 56.6185 62.8264C55.8318 65.9527 56.2148 69.0583 57.7676 72.1432C58.2645 72.3295 58.7925 72.4744 59.3515 72.5779C62.3535 73.0334 65.2624 71.5531 68.0782 68.137L71.5254 63.3543C72.9539 61.2425 74.2997 59.6483 75.5626 58.5717C76.66 57.4744 77.9332 56.5842 79.3825 55.9009C79.1962 57.4537 79.1134 58.8719 79.1341 60.1556C78.9891 62.8057 79.1548 64.9589 79.631 66.6152C80.1486 68.3958 80.9043 69.3895 81.8981 69.5966C82.5399 69.7001 83.192 69.4724 83.8546 68.9134C85.8629 67.5055 87.426 65.5283 88.544 62.9817C88.6475 62.609 88.7718 62.2777 88.9167 61.9879C88.9167 61.8637 88.9374 61.7705 88.9788 61.7084C89.4343 60.2798 89.8173 59.1929 90.1279 58.4475C90.4177 57.5572 91.9084 55.6835 94.5999 52.8264C94.7862 52.4951 95.0347 52.1742 95.3453 51.8637C91.9291 46.0044 87.3432 42.8471 81.5875 42.3916ZM71.7117 51.0252C71.9188 51.6256 71.9084 52.4951 71.6807 53.6338C70.1486 57.4848 67.25 60.5697 62.985 62.8885C62.2811 63.3026 61.6807 63.52 61.1838 63.5407C60.2728 63.3336 59.6413 62.8782 59.2894 62.1742C59.5792 58.9444 60.8421 55.9941 63.0782 53.3233C64.9208 51.8326 66.8566 50.7456 68.8856 50.0624C70.3763 49.6276 71.3183 49.9485 71.7117 51.0252ZM83.1092 59.7519L84.3515 58.6649C84.9519 58.6649 85.3763 58.8202 85.6248 59.1307C85.9353 59.5862 85.9974 60.1452 85.8111 60.8078C85.2728 62.609 84.4653 64.2239 83.3887 65.6525C82.9747 66.1494 82.5192 66.4599 82.0223 66.5842L81.4633 65.8388C81.3804 65.5697 81.3597 65.3212 81.4011 65.0935C81.5668 63.0645 82.1361 61.284 83.1092 59.7519ZM76.867 19.3792C77.1154 20.9734 77.9954 21.9982 79.5067 22.4537C80.2314 22.5987 80.956 22.7643 81.6807 22.9506C83.337 23.3854 84.6724 24.2653 85.6869 25.5904C86.9912 27.3502 88.3059 29.1307 89.631 30.932C90.8111 32.5055 92.4778 33.5407 94.631 34.0376C98.0057 35.6525 100.273 35.7974 101.432 34.4724C102.571 33.1059 102.995 30.8492 102.706 27.7022C102.312 26.6049 101.888 25.549 101.432 24.5345C100.211 21.7187 98.3784 19.3481 95.9353 17.4227C93.4094 15.373 90.5627 14.2032 87.395 13.9134C86.1734 13.7891 84.9519 13.903 83.7303 14.255C80.7076 15.0624 78.4198 16.7705 76.867 19.3792ZM86.7738 22.7953C86.2355 22.7125 85.7593 22.5262 85.3453 22.2363C84.9105 21.9258 84.5896 21.5324 84.3825 21.0562C84.1755 20.5593 84.0927 20.0624 84.1341 19.5655C84.1755 19.0272 84.3515 18.5407 84.662 18.1059C84.9933 17.6504 85.397 17.3192 85.8732 17.1121C86.3494 16.9051 87.0947 16.7084 88.1092 16.5221C89.1237 16.315 91.1113 17.0811 94.072 18.8202C96.9912 20.5386 97.7883 21.6049 96.4633 22.0189C95.1382 22.3916 93.9374 22.3709 92.8608 21.9568C91.7842 21.5635 90.8732 21.5221 90.1279 21.8326C89.3618 22.1225 88.7407 22.3709 88.2645 22.578C87.7883 22.785 87.2914 22.8575 86.7738 22.7953ZM75.19 23.3233C74.7138 23.1784 74.2583 23.0438 73.8235 22.9196C71.5254 22.2777 69.4653 21.9775 67.6434 22.0189C65.6351 22.1018 63.8132 22.5158 62.1776 23.2612C60.3142 24.0893 58.8442 25.2177 57.7676 26.6463C56.6289 28.1163 55.9457 29.8968 55.7179 31.9879C55.4902 33.8926 55.6662 35.8078 56.2459 37.7332C56.66 39.0169 57.395 40.3833 58.4509 41.8326C59.8173 41.9568 60.9871 42.0293 61.9602 42.05C64.2997 42.0914 68.0678 41.1494 73.2645 39.2239C78.4198 37.3192 83.0368 37.4227 87.1154 39.5345C91.1527 41.6463 93.3887 42.785 93.8235 42.9506C93.2024 41.6256 92.5916 40.404 91.9912 39.286C90.749 36.9258 89.5378 34.8761 88.3577 33.137C86.1838 30.0107 84.1341 27.9092 82.2086 26.8326C81.7945 26.6049 81.3908 26.3875 80.9974 26.1804C78.0782 24.5862 76.1424 23.6339 75.19 23.3233ZM71.7117 24.9071C73.2231 24.9486 75.0968 25.7042 77.3328 27.1742C79.5689 28.6028 77.1051 30.2384 69.9415 32.0811C65.8007 35.1866 62.8608 36.6152 61.1217 36.3668C59.3618 36.0976 58.7511 34.5448 59.2894 31.7084C59.8484 28.8719 61.867 26.7912 65.3453 25.4661C66.5254 24.99 67.7573 24.7105 69.0409 24.6276C69.2894 24.7312 70.1796 24.8243 71.7117 24.9071ZM102.364 49.814C102.24 49.6276 102.157 49.6794 102.115 49.9693C102.198 49.9071 102.281 49.8554 102.364 49.814Z" fill="#F35D6C"/>
<path d="M111.432 38.1993C111.494 38.1993 111.649 38.2407 111.898 38.3235C112.126 38.4271 112.001 37.8784 111.525 36.6776C111.049 35.456 110.19 34.8039 108.948 34.7211C107.726 34.6382 106.991 34.9074 106.743 35.5285C106.494 36.1496 106.432 36.7604 106.556 37.3608C106.722 38.0026 107.095 38.3442 107.674 38.3856C108.254 38.3856 108.896 38.3546 109.6 38.2925C110.283 38.2511 110.894 38.22 111.432 38.1993ZM84.3513 58.6651L83.1091 59.7521C82.136 61.2842 81.5667 63.0647 81.401 65.0937C81.3596 65.3215 81.3803 65.5699 81.4631 65.8391L82.0221 66.5844C82.519 66.4602 82.9745 66.1496 83.3886 65.6527C84.4652 64.2242 85.2727 62.6092 85.811 60.808C85.9973 60.1455 85.9352 59.5865 85.6246 59.131C85.3762 58.8204 84.9517 58.6651 84.3513 58.6651ZM71.6805 53.6341C71.9083 52.4954 71.9186 51.6258 71.7116 51.0254C71.3182 49.9488 70.3762 49.6279 68.8855 50.0627C66.8565 50.7459 64.9207 51.8328 63.078 53.3235C60.842 55.9943 59.5791 58.9446 59.2892 62.1745C59.6412 62.8784 60.2727 63.3339 61.1836 63.5409C61.6805 63.5202 62.2809 63.3028 62.9849 62.8887C67.2499 60.5699 70.1484 57.485 71.6805 53.6341ZM85.3451 22.2366C85.7592 22.5264 86.2354 22.7128 86.7737 22.7956C87.2913 22.8577 87.7882 22.7852 88.2644 22.5782C88.7406 22.3712 89.3617 22.1227 90.1277 21.8329C90.8731 21.5223 91.784 21.5637 92.8607 21.9571C93.9373 22.3712 95.1381 22.3919 96.4631 22.0192C97.7882 21.6051 96.9911 20.5389 94.0718 18.8204C91.1112 17.0813 89.1236 16.3153 88.1091 16.5223C87.0946 16.7086 86.3493 16.9053 85.8731 17.1124C85.3969 17.3194 84.9932 17.6507 84.6619 18.1061C84.3513 18.5409 84.1754 19.0275 84.134 19.5658C84.0925 20.0627 84.1754 20.5596 84.3824 21.0565C84.5894 21.5326 84.9103 21.926 85.3451 22.2366ZM77.3327 27.1745C75.0967 25.7045 73.223 24.9488 71.7116 24.9074C70.1795 24.8246 69.2892 24.7314 69.0408 24.6279C67.7571 24.7107 66.5253 24.9902 65.3451 25.4664C61.8669 26.7914 59.8482 28.8722 59.2892 31.7086C58.7509 34.5451 59.3617 36.0979 61.1215 36.367C62.8606 36.6155 65.8006 35.1869 69.9414 32.0813C77.105 30.2387 79.5687 28.603 77.3327 27.1745Z" fill="#FFBBC1"/>
<path d="M137.302 5.93216C133.389 1.97771 128.627 0.000488281 123.016 0.000488281C117.385 0.000488281 112.571 1.97771 108.575 5.93216C104.662 9.88662 102.706 14.6796 102.706 20.311C102.706 25.9632 104.662 30.7458 108.575 34.6589C109.196 35.28 109.828 35.839 110.47 36.3359V44.721L116.308 39.5346C118.399 40.2386 120.635 40.5905 123.016 40.5905C128.627 40.5905 133.389 38.6133 137.302 34.6589C141.298 30.7458 143.296 25.9632 143.296 20.311C143.296 14.6796 141.298 9.88662 137.302 5.93216ZM123.637 28.1061C123.741 28.251 123.844 28.3959 123.948 28.5409C124.155 28.9549 124.238 29.4104 124.196 29.9073C124.134 30.5698 123.834 31.1185 123.296 31.5533C122.757 31.9674 122.157 32.1537 121.494 32.1123C121.391 32.0916 121.287 32.0709 121.184 32.0502C120.666 31.9467 120.211 31.6672 119.817 31.2117C119.383 30.6941 119.196 30.104 119.258 29.4415C119.32 28.7583 119.621 28.1992 120.159 27.7645C120.697 27.3297 121.298 27.1433 121.96 27.2055C122.623 27.2676 123.182 27.5678 123.637 28.1061ZM125.873 5.21788C126.332 6.05598 126.488 6.97731 126.339 7.98185L127.147 8.07502C127.871 8.13713 128.358 8.32347 128.606 8.63403C128.855 8.94459 128.927 9.50359 128.824 10.311C128.741 10.7872 128.668 11.2427 128.606 11.6775C128.254 13.7686 127.954 15.3732 127.706 16.4912C127.209 18.7686 126.567 20.7355 125.78 22.3918C125.407 23.1785 125.004 23.6961 124.569 23.9446C124.113 24.193 123.451 24.2551 122.581 24.1309C122.271 24.0895 121.991 24.0378 121.743 23.9756C121.453 23.8928 121.236 23.7686 121.091 23.603C120.801 23.2924 120.677 22.7334 120.718 21.926L121.091 14.9384C120.733 15.1883 120.35 15.4264 119.942 15.6527C117.478 16.9984 115.076 17.6299 112.737 17.5471C110.397 17.4436 108.813 16.6361 107.985 15.1247C107.157 13.634 107.312 11.8638 108.451 9.81415C109.631 7.76446 111.453 6.06674 113.917 4.72099C116.381 3.35453 118.772 2.72306 121.091 2.82657C123.451 2.93009 125.045 3.7272 125.873 5.21788Z" fill="#DEFAFC"/>
<path d="M126.339 7.982L123.948 7.7025C123.016 7.59898 122.364 7.71285 121.991 8.04411C121.66 8.33397 121.463 8.92403 121.401 9.8143L121.091 14.9385L120.718 21.9261C120.676 22.7336 120.801 23.2926 121.091 23.6031C121.235 23.7688 121.453 23.893 121.743 23.9758C121.991 24.0379 122.271 24.0897 122.581 24.1311C123.451 24.2553 124.113 24.1932 124.569 23.9447C125.004 23.6963 125.407 23.1787 125.78 22.3919C126.567 20.7356 127.209 18.7688 127.705 16.4913C127.954 15.3733 128.254 13.7688 128.606 11.6777C128.668 11.2429 128.741 10.7874 128.823 10.3112C128.927 9.50374 128.854 8.94473 128.606 8.63418C128.358 8.32362 127.871 8.13728 127.146 8.07517L126.339 7.982ZM123.948 28.541C123.844 28.3961 123.741 28.2512 123.637 28.1062C123.182 27.5679 122.623 27.2677 121.96 27.2056C121.298 27.1435 120.697 27.3298 120.159 27.7646C119.621 28.1994 119.32 28.7584 119.258 29.4416C119.196 30.1042 119.382 30.6942 119.817 31.2118C120.211 31.6673 120.666 31.9468 121.184 32.0503C121.287 32.071 121.391 32.0917 121.494 32.1124C122.157 32.1538 122.757 31.9675 123.295 31.5534C123.834 31.1187 124.134 30.57 124.196 29.9075C124.238 29.4106 124.155 28.9551 123.948 28.541Z" fill="#312816"/>
<path d="M126.339 7.98165C126.488 6.9771 126.332 6.05577 125.873 5.21767C125.045 3.72699 123.451 2.92988 121.091 2.82636C118.772 2.72285 116.38 3.35432 113.917 4.72078C111.453 6.06653 109.631 7.76425 108.451 9.81394C107.312 11.8636 107.157 13.6338 107.985 15.1245C108.813 16.6359 110.397 17.4433 112.737 17.5469C115.076 17.6297 117.478 16.9982 119.941 15.6525C120.349 15.4262 120.732 15.1881 121.091 14.9382L121.401 9.81394C121.463 8.92367 121.66 8.33361 121.991 8.04376C122.364 7.71249 123.016 7.59862 123.948 7.70214L126.339 7.98165Z" fill="white"/>
<path d="M124.817 104.876C126.763 104.235 128.761 104.069 130.811 104.379C132.736 104.711 134.589 105.456 136.37 106.615C138.047 107.713 139.527 109.09 140.811 110.746C141.225 111.243 141.505 111.75 141.65 112.268C141.836 112.889 141.763 113.417 141.432 113.851C141.228 114.101 140.959 114.256 140.625 114.317C141.465 115.288 142.439 116.427 143.544 117.733C143.358 117.63 143.223 117.651 143.14 117.796C143.285 117.982 143.337 118.22 143.296 118.51C143.233 118.758 143.109 118.965 142.923 119.131C142.674 119.317 142.177 119.473 141.432 119.597C141.09 119.618 140.749 119.628 140.407 119.628C141.138 121.06 141.894 122.602 142.674 124.255C141.991 124.876 141.173 125.27 140.221 125.435C139.926 125.482 139.636 125.503 139.351 125.497C138.903 125.39 138.509 125.235 138.171 125.032C137.529 124.597 136.888 123.883 136.246 122.889C135.894 122.33 135.376 121.491 134.693 120.373C133.844 119.131 132.54 117.961 130.78 116.864C129.765 116.243 128.192 115.363 126.059 114.224C122.865 112.401 120.846 110.393 120.004 108.199C121.187 106.68 122.791 105.572 124.817 104.876Z" fill="#FEF8EF"/>
<path d="M119.942 108.261C119.956 108.243 119.976 108.223 120.004 108.199C120.846 110.393 122.865 112.401 126.06 114.224C128.192 115.363 129.766 116.243 130.78 116.864C132.54 117.961 133.844 119.131 134.693 120.373C135.376 121.491 135.894 122.33 136.246 122.889C136.888 123.882 137.53 124.597 138.171 125.032C138.51 125.234 138.903 125.39 139.352 125.497C138.739 125.5 138.138 125.397 137.55 125.187C136.971 124.98 136.194 124.514 135.221 123.789C134.206 123.003 133.005 122.351 131.619 121.833C129.943 121.157 128.825 121.313 128.265 122.299C127.105 124.307 126.142 125.787 125.376 126.74C124.134 128.251 122.726 129.39 121.153 130.156C119.372 130.984 117.675 131.16 116.06 130.684C114.072 130.021 112.312 128.344 110.78 125.653C110.416 125.09 109.94 124.283 109.352 123.23C109.203 122.983 109.048 122.714 108.886 122.423C108.688 122.089 108.492 121.768 108.296 121.46C106.119 121.057 106.605 120.156 109.755 118.758C112.906 117.357 114.893 116.281 115.718 115.528C116.542 114.802 117.184 114.139 117.644 113.541C118.066 111.397 118.832 109.638 119.942 108.261Z" fill="#F1E1CC"/>
<defs>
<radialGradient id="paint0_radial_1044_295647" cx="0" cy="0" r="1" gradientUnits="userSpaceOnUse" gradientTransform="translate(99.9628 165.492) scale(55.5188 31.5187)">
<stop stop-opacity="0.498039"/>
<stop offset="1" stop-opacity="0"/>
</radialGradient>
</defs>
</svg>
