<svg width="20" height="20" viewBox="0 0 20 20" fill="none" xmlns="http://www.w3.org/2000/svg">
<path d="M16.0645 4.85622C14.9492 4.34445 13.7531 3.96738 12.5025 3.75139C12.4797 3.74722 12.4569 3.75765 12.4452 3.77846C12.2914 4.05207 12.121 4.40898 12.0017 4.68953C10.6566 4.48814 9.31839 4.48814 8.0009 4.68953C7.88154 4.40276 7.70497 4.05207 7.55044 3.77846C7.53872 3.75833 7.51596 3.74791 7.49319 3.75139C6.24331 3.96666 5.04722 4.34373 3.93112 4.85622C3.92145 4.86039 3.91317 4.86733 3.90767 4.87635C1.63896 8.26578 1.01743 11.5719 1.32232 14.837C1.32368 14.853 1.33267 14.8683 1.34508 14.878C2.84191 15.9772 4.29188 16.6446 5.71489 17.0869C5.73765 17.0939 5.76178 17.0856 5.77628 17.0668C6.11288 16.6071 6.41294 16.1224 6.67021 15.6127C6.68539 15.5828 6.6709 15.5474 6.63986 15.5356C6.16391 15.3551 5.71072 15.1349 5.27476 14.885C5.24027 14.8648 5.2375 14.8155 5.26925 14.7919C5.36099 14.7232 5.45277 14.6516 5.54037 14.5794C5.55623 14.5662 5.57831 14.5634 5.59694 14.5717C8.46092 15.8794 11.5615 15.8794 14.3917 14.5717C14.4103 14.5627 14.4324 14.5655 14.449 14.5787C14.5366 14.6509 14.6283 14.7231 14.7208 14.7919C14.7525 14.8155 14.7504 14.8648 14.716 14.8849C14.28 15.1398 13.8268 15.355 13.3502 15.5349C13.3191 15.5467 13.3053 15.5828 13.3205 15.6126C13.5833 16.1217 13.8834 16.6064 14.2138 17.0661C14.2276 17.0855 14.2524 17.0939 14.2752 17.0869C15.7051 16.6446 17.155 15.9772 18.6519 14.878C18.665 14.8682 18.6733 14.8537 18.6746 14.8377C19.0395 11.0628 18.0635 7.78382 16.0872 4.877C16.0825 4.86733 16.0742 4.86039 16.0645 4.85622ZM7.09797 12.8489C6.23572 12.8489 5.52523 12.0573 5.52523 11.0851C5.52523 10.1129 6.22191 9.32129 7.09797 9.32129C7.98087 9.32129 8.68449 10.1199 8.67068 11.0851C8.67068 12.0573 7.97396 12.8489 7.09797 12.8489ZM12.9129 12.8489C12.0506 12.8489 11.3402 12.0573 11.3402 11.0851C11.3402 10.1129 12.0368 9.32129 12.9129 9.32129C13.7958 9.32129 14.4994 10.1199 14.4856 11.0851C14.4856 12.0573 13.7958 12.8489 12.9129 12.8489Z" fill="#6B7280"/>
</svg>
