<svg width="21" height="20" viewBox="0 0 21 20" fill="none" xmlns="http://www.w3.org/2000/svg">
<g clip-path="url(#clip0_836_11002)">
<path d="M20.5 10C20.5 4.47715 16.0228 0 10.5 0C4.97715 0 0.5 4.47715 0.5 10C0.5 15.5228 4.97715 20 10.5 20C16.0228 20 20.5 15.5228 20.5 10Z" fill="#7289DA"/>
<path d="M15.5155 6.57493C14.598 5.84097 13.4971 5.47401 12.335 5.41284L12.1515 5.59634C13.1913 5.84097 14.1087 6.33026 14.965 7.00305C13.9252 6.45259 12.7632 6.08563 11.5399 5.9633C11.173 5.90213 10.8671 5.90213 10.5002 5.90213C10.1332 5.90213 9.82737 5.90213 9.46041 5.9633C8.23716 6.08563 7.07508 6.45259 6.03533 7.00305C6.89158 6.33026 7.80904 5.84097 8.84879 5.59634L8.66529 5.41284C7.5032 5.47401 6.40229 5.84097 5.48487 6.57493C4.44512 8.53213 3.89466 10.734 3.8335 12.9969C4.75091 13.9756 6.03533 14.5872 7.38091 14.5872C7.38091 14.5872 7.80904 14.0979 8.11483 13.6697C7.31975 13.4863 6.58579 13.0581 6.0965 12.3853C6.52462 12.63 6.95275 12.8746 7.38091 13.0581C7.93137 13.3028 8.48183 13.4251 9.03229 13.5474C9.52158 13.6086 10.0109 13.6697 10.5002 13.6697C10.9895 13.6697 11.4787 13.6086 11.968 13.5474C12.5185 13.4251 13.069 13.3028 13.6194 13.0581C14.0476 12.8746 14.4757 12.63 14.9038 12.3853C14.4145 13.0581 13.6806 13.4863 12.8855 13.6697C13.1913 14.0979 13.6194 14.5872 13.6194 14.5872C14.965 14.5872 16.2494 13.9756 17.1668 12.9969C17.1057 10.734 16.5552 8.53213 15.5155 6.57493ZM8.48183 11.896C7.8702 11.896 7.31975 11.3456 7.31975 10.6728C7.31975 10 7.8702 9.44955 8.48183 9.44955C9.09345 9.44955 9.64391 10 9.64391 10.6728C9.64391 11.3456 9.09345 11.896 8.48183 11.896ZM12.5185 11.896C11.9069 11.896 11.3564 11.3456 11.3564 10.6728C11.3564 10 11.9069 9.44955 12.5185 9.44955C13.1301 9.44955 13.6806 10 13.6806 10.6728C13.6806 11.3456 13.1301 11.896 12.5185 11.896Z" fill="white"/>
</g>
<defs>
<clipPath id="clip0_836_11002">
<rect width="20" height="20" fill="white" transform="translate(0.5)"/>
</clipPath>
</defs>
</svg>
