<svg width="16" height="16" viewBox="0 0 16 16" fill="none" xmlns="http://www.w3.org/2000/svg">
<path d="M12.8516 3.88459C11.9593 3.47517 11.0025 3.17351 10.002 3.00072C9.98377 2.99739 9.96556 3.00573 9.95618 3.02238C9.8331 3.24127 9.69679 3.52679 9.60134 3.75123C8.52528 3.59012 7.45471 3.59012 6.40072 3.75123C6.30523 3.52182 6.16398 3.24127 6.04035 3.02238C6.03098 3.00628 6.01276 2.99794 5.99455 3.00072C4.99465 3.17294 4.03778 3.47459 3.14489 3.88459C3.13716 3.88792 3.13054 3.89347 3.12614 3.90069C1.31117 6.61224 0.813946 9.25715 1.05785 11.8692C1.05895 11.882 1.06614 11.8942 1.07606 11.902C2.27353 12.7814 3.43351 13.3153 4.57191 13.6691C4.59012 13.6747 4.60943 13.6681 4.62102 13.653C4.8903 13.2853 5.13035 12.8975 5.33617 12.4898C5.34831 12.4659 5.33672 12.4376 5.31189 12.4281C4.93113 12.2837 4.56858 12.1075 4.21981 11.9076C4.19222 11.8915 4.19 11.852 4.2154 11.8331C4.28879 11.7781 4.36221 11.7209 4.43229 11.6631C4.44498 11.6526 4.46265 11.6504 4.47755 11.657C6.76874 12.7031 9.24923 12.7031 11.5134 11.657C11.5283 11.6498 11.5459 11.652 11.5592 11.6626C11.6293 11.7203 11.7027 11.7781 11.7766 11.8331C11.802 11.852 11.8003 11.8914 11.7728 11.9076C11.424 12.1114 11.0614 12.2836 10.6801 12.4275C10.6553 12.437 10.6443 12.4659 10.6564 12.4897C10.8667 12.8969 11.1067 13.2847 11.371 13.6525C11.3821 13.668 11.4019 13.6747 11.4201 13.6691C12.5641 13.3153 13.724 12.7814 14.9215 11.902C14.932 11.8942 14.9386 11.8825 14.9397 11.8698C15.2316 8.84989 14.4508 6.22666 12.8698 3.90121C12.866 3.89347 12.8593 3.88792 12.8516 3.88459ZM5.67838 10.2787C4.98858 10.2787 4.42018 9.64546 4.42018 8.86769C4.42018 8.08992 4.97753 7.45664 5.67838 7.45664C6.3847 7.45664 6.94759 8.0955 6.93655 8.86769C6.93655 9.64546 6.37917 10.2787 5.67838 10.2787ZM10.3303 10.2787C9.64052 10.2787 9.07212 9.64546 9.07212 8.86769C9.07212 8.08992 9.62947 7.45664 10.3303 7.45664C11.0366 7.45664 11.5995 8.0955 11.5885 8.86769C11.5885 9.64546 11.0367 10.2787 10.3303 10.2787Z" fill="white"/>
</svg>
