<svg width="48" height="48" viewBox="0 0 48 48" fill="none" xmlns="http://www.w3.org/2000/svg">
<rect width="48" height="48" rx="24" fill="black"/>
<g clip-path="url(#clip0_216_7836)">
<path d="M33.7393 14.718C36.9009 19.3684 38.4643 24.6114 37.8798 30.65C37.8784 30.6627 37.8744 30.675 37.8679 30.6861C37.8615 30.6971 37.8528 30.7067 37.8424 30.7142C35.7264 32.2819 33.3583 33.477 30.8401 34.248C30.8223 34.2534 30.8032 34.253 30.7856 34.2469C30.7681 34.2408 30.7528 34.2294 30.7421 34.2142C30.2096 33.475 29.732 32.6979 29.3129 31.889C29.3074 31.8779 29.3041 31.8658 29.3035 31.8534C29.3028 31.841 29.3048 31.8286 29.3091 31.8169C29.3135 31.8053 29.3203 31.7947 29.329 31.7859C29.3376 31.777 29.3481 31.77 29.3596 31.7654C30.1164 31.4812 30.8478 31.1335 31.5459 30.7259C31.5586 30.7182 31.5692 30.7076 31.5768 30.6949C31.5844 30.6822 31.5887 30.6678 31.5894 30.6531C31.5901 30.6383 31.5871 30.6236 31.5808 30.6102C31.5744 30.5969 31.5648 30.5853 31.5529 30.5765C31.4051 30.4666 31.26 30.353 31.1178 30.2359C31.1053 30.2254 31.0901 30.2188 31.074 30.2167C31.0578 30.2146 31.0415 30.2172 31.0268 30.2242C26.4978 32.316 21.5371 32.316 16.9556 30.2242C16.9408 30.2175 16.9245 30.2151 16.9084 30.2171C16.8924 30.2192 16.8772 30.2257 16.8646 30.2359C16.7246 30.3525 16.5776 30.4669 16.4306 30.5765C16.3804 30.615 16.3839 30.6932 16.4399 30.7259C17.1376 31.126 17.8633 31.4772 18.6239 31.7665C18.6355 31.7709 18.646 31.7777 18.6549 31.7864C18.6637 31.7951 18.6705 31.8056 18.675 31.8172C18.6795 31.8287 18.6816 31.8411 18.681 31.8534C18.6805 31.8658 18.6773 31.8779 18.6718 31.889C18.26 32.7023 17.782 33.4804 17.2426 34.2154C17.2314 34.2303 17.2159 34.2415 17.1982 34.2473C17.1804 34.2532 17.1613 34.2534 17.1434 34.248C14.6295 33.4745 12.2653 32.2796 10.1516 30.7142C10.1417 30.7062 10.1334 30.6963 10.1274 30.6851C10.1214 30.6739 10.1177 30.6615 10.1166 30.6489C9.6266 25.4269 10.6206 20.1384 14.2513 14.718C14.26 14.7035 14.2731 14.6921 14.2886 14.6854C16.104 13.8515 18.0202 13.2574 19.9889 12.9179C20.0067 12.9151 20.0248 12.9178 20.0411 12.9255C20.0573 12.9332 20.0708 12.9456 20.0799 12.961C20.3273 13.3985 20.6096 13.9597 20.8009 14.4194C22.9226 14.0973 25.0808 14.0973 27.2024 14.4194C27.3938 13.9702 27.6656 13.3985 27.9118 12.961C27.9206 12.945 27.9342 12.9322 27.9508 12.9244C27.9674 12.9167 27.986 12.9144 28.0039 12.9179C30.0048 13.2632 31.9181 13.8664 33.7031 14.6854C33.7187 14.6916 33.7315 14.7031 33.7393 14.718ZM21.8731 24.6475C21.8953 23.104 20.7694 21.8265 19.3566 21.8265C17.9554 21.8265 16.8401 23.0935 16.8401 24.6475C16.8401 26.2027 17.9764 27.4685 19.3566 27.4685C20.7578 27.4685 21.8731 26.2027 21.8731 24.6475ZM31.1761 24.6475C31.1994 23.104 30.0724 21.8265 28.6608 21.8265C27.2584 21.8265 26.1443 23.0935 26.1443 24.6475C26.1443 26.2027 27.2806 27.4685 28.6608 27.4685C30.0724 27.4685 31.1761 26.2027 31.1761 24.6475Z" fill="white"/>
</g>
<defs>
<clipPath id="clip0_216_7836">
<rect width="28" height="22.1667" fill="white" transform="translate(10 12.9166)"/>
</clipPath>
</defs>
</svg>
