<svg width="28" height="28" viewBox="0 0 28 28" fill="none" xmlns="http://www.w3.org/2000/svg">
<path d="M18.6946 5.25781H9.30538C9.08718 5.25781 8.88554 5.37422 8.77644 5.5632L4.08183 13.6945C3.97272 13.8835 3.97272 14.1163 4.08183 14.3053L8.77644 22.4366C8.88554 22.6256 9.08718 22.742 9.30538 22.742H18.6946C18.9128 22.742 19.1144 22.6256 19.2235 22.4366L23.9182 14.3053C24.0273 14.1163 24.0273 13.8835 23.9182 13.6945L19.2235 5.5632C19.1144 5.37422 18.9128 5.25781 18.6946 5.25781Z" fill="#FFD45D"/>
<path d="M24.0001 14H19.997L16.9985 19.1935L19.0001 22.6602C19.0914 22.6075 19.1691 22.5312 19.2237 22.4367L23.9183 14.3054C23.9728 14.2109 24.0001 14.1054 24.0001 14Z" fill="#FF6500"/>
<path d="M16.9984 19.1934H11.0016L9 22.6601C9.09133 22.7129 9.19629 22.742 9.30539 22.742H18.6946C18.8037 22.742 18.9087 22.7129 19 22.6601L16.9984 19.1934Z" fill="#FF9416"/>
<path d="M11.0016 19.1935L8.00309 14H4C4 14.1054 4.02727 14.2109 4.08184 14.3054L8.77645 22.4367C8.83102 22.5312 8.90867 22.6075 9 22.6603L11.0016 19.1935Z" fill="#FFC13F"/>
<path d="M11.0016 8.80664L9 5.33984C8.90867 5.39258 8.83098 5.46891 8.77645 5.5634L4.08184 13.6948C4.02727 13.7892 4 13.8947 4 14.0001H8.00309L11.0016 8.80664Z" fill="#FFD45D"/>
<path d="M11.0016 8.80645H16.9984L19 5.33965C18.9087 5.28691 18.8037 5.25781 18.6946 5.25781H9.30539C9.19629 5.25781 9.09133 5.28691 9 5.33965L11.0016 8.80645Z" fill="#FFC13F"/>
<path d="M16.9985 8.80664L19.997 14.0001H24.0001C24.0001 13.8947 23.9728 13.7892 23.9183 13.6948L19.2237 5.5634C19.1691 5.46891 19.0914 5.39258 19.0001 5.33984L16.9985 8.80664Z" fill="#FF9416"/>
<path d="M16.9983 8.80664H11.0014L8.00293 14.0001L11.0014 19.1936H16.9983L19.9968 14.0001L16.9983 8.80664Z" fill="#FF7B05"/>
<path d="M11.1098 8.44333L11.492 8.15783C11.579 8.09286 11.6941 8.1899 11.6448 8.28661L11.428 8.71161C11.4048 8.75704 11.4185 8.81255 11.4602 8.84197L11.8498 9.11728C11.9385 9.17993 11.8818 9.31939 11.7745 9.30232L11.3033 9.22743C11.253 9.21943 11.2044 9.24962 11.1893 9.29833L11.0478 9.754C11.0156 9.85767 10.8655 9.84681 10.8486 9.73958L10.7742 9.26833C10.7662 9.21798 10.7225 9.18111 10.6715 9.18177L10.1944 9.18806C10.0859 9.1895 10.0498 9.04333 10.1465 8.99411L10.5717 8.77771C10.6172 8.75458 10.6387 8.70161 10.6223 8.65333L10.4689 8.20158C10.434 8.09876 10.5619 8.01931 10.6386 8.09611L10.9758 8.43365C11.0119 8.4697 11.0689 8.47384 11.1098 8.44333Z" fill="white"/>
</svg>
