<svg width="48" height="48" viewBox="0 0 48 48" fill="none" xmlns="http://www.w3.org/2000/svg">
<rect width="48" height="48" rx="24" fill="black"/>
<path fill-rule="evenodd" clip-rule="evenodd" d="M31.693 26.7719C30.7607 29.7706 28.4367 31.8468 25.3441 32.3046C20.6247 33.0032 15.9908 29.4248 15.624 24.6649C15.2432 19.7257 19.1393 15.6 24.0015 15.6C25.1257 15.6 26.1981 15.8212 27.1781 16.2216C27.5183 16.3601 27.9033 16.2412 28.0769 15.9192L30.0859 12.2134C30.2763 11.8592 30.1391 11.4028 29.7723 11.2376C28.0125 10.4424 26.0609 10 24.0057 10C16.135 10 9.78042 16.4903 10.0058 24.4101C10.2116 31.6354 16.1756 37.6806 23.3953 37.9872C31.1597 38.3148 37.5996 32.3228 37.9902 24.7307C38.0056 24.4535 38 22.8393 37.9944 21.8929C37.993 21.5065 37.6794 21.1999 37.2944 21.1999H24.6959C24.3095 21.1999 23.9959 21.5121 23.9959 21.8999V26.0719C23.9959 26.4569 24.3095 26.7719 24.6959 26.7719H31.693Z" fill="white"/>
</svg>
