<svg width="120" height="120" viewBox="0 0 120 120" fill="none" xmlns="http://www.w3.org/2000/svg">
<path d="M59.8938 67.6436C48.053 67.6436 37.9413 69.6039 29.5585 73.5246C21.2106 77.4541 17.0366 82.1956 17.0366 87.7492C17.0366 93.3028 21.2106 98.04 29.5585 101.961C37.9151 105.873 48.0268 107.829 59.8938 107.829C71.7258 107.829 81.8157 105.873 90.1636 101.961C98.5551 98.0487 102.751 93.3116 102.751 87.7492C102.751 82.1956 98.5551 77.4541 90.1636 73.5246C81.7982 69.6039 71.7083 67.6436 59.8938 67.6436Z" fill="url(#paint0_radial_1044_295088)"/>
<path d="M59.8938 67.6436C48.053 67.6436 37.9413 69.6039 29.5585 73.5246C21.2106 77.4541 17.0366 82.1956 17.0366 87.7492C17.0366 93.3028 21.2106 98.04 29.5585 101.961C37.9151 105.873 48.0268 107.829 59.8938 107.829C71.7258 107.829 81.8157 105.873 90.1636 101.961C98.5551 98.0487 102.751 93.3116 102.751 87.7492C102.751 82.1956 98.5551 77.4541 90.1636 73.5246C81.7982 69.6039 71.7083 67.6436 59.8938 67.6436Z" fill="url(#paint1_radial_1044_295088)"/>
<path d="M86.7987 79.7289C87.3639 79.269 87.8827 78.7884 88.355 78.2873C88.6247 78.0167 88.8195 77.8129 88.9394 77.676C77.8784 85.1775 71.8632 88.3308 70.8938 87.1359C67.788 83.9 65.6241 81.4629 64.4019 79.8246C63.6531 78.8336 63.2613 78.1515 63.2265 77.7782L63.0011 77.9079L62.7926 77.8507L62.8098 77.8879L70.3976 88.1458C71.5264 88.6417 76.012 86.6535 83.8544 82.1814C85.0282 81.2267 86.0096 80.4092 86.7987 79.7289Z" fill="#5D3217"/>
<path d="M61.8757 77.7391C61.7781 78.1785 61.6975 78.5074 61.6339 78.7256C60.4741 83.4345 59.0941 87.4384 57.4938 90.7372L57.2564 91.1777C46.6626 88.387 36.2463 84.5372 26.0074 79.6283C26.1549 79.7986 26.3855 79.9932 26.6993 80.2118C27.2368 80.5467 28.395 81.1903 30.174 82.1426L30.1946 82.1564C31.0661 82.6268 31.5005 82.8464 31.4977 82.8151C31.4875 82.783 31.0402 82.5001 30.1558 81.9663C36.7231 85.5635 45.8877 88.9111 57.6498 92.0093L57.9633 91.3674C59.9235 87.3463 61.342 83.2146 62.2188 78.9724L62.3225 78.518L62.3268 79.0069C62.2622 81.4963 61.79 87.4821 60.91 96.9643C67.2057 94.8976 73.1443 91.91 78.7259 88.0016C79.9187 87.1643 81.0001 86.1914 81.9703 85.0829L82.351 82.5992L83.1327 82.006C75.3606 86.4155 70.9156 88.3761 69.7977 87.8878L62.2412 77.7189L62.7712 77.2158L61.8757 77.7391ZM71.738 90.0778C71.7494 90.1023 71.6817 90.1495 71.5351 90.2195L71.4412 90.0935C71.6191 90.0655 71.718 90.0602 71.738 90.0778ZM38.3822 60.8792C33.3263 63.2299 30.9652 64.4496 31.2988 64.5386L50.5508 72.7251C53.2215 71.1111 55.7718 69.3219 58.2018 67.3573L58.1665 67.1443L58.3449 67.1629L59.2808 53.5973L59.3366 53.6031L59.6718 52.8938L59.6237 52.912L59.4612 53.0114L57.9106 53.7456L57.8461 53.7971C49.9741 56.1496 43.4862 58.5104 38.3822 60.8792ZM70.1557 46.7738C70.3278 46.6367 70.1582 46.6346 69.6472 46.7675L70.4743 46.9116L70.4696 46.7948L70.1557 46.7738Z" fill="#7E4420"/>
<path d="M72.0104 90.314L72.1041 90.4398C72.2504 90.3699 72.3179 90.3227 72.3066 90.2983C72.2866 90.2808 72.1879 90.286 72.0104 90.314ZM90.8313 75.1531C90.9448 75.0024 90.997 74.8338 90.988 74.6472C90.8677 73.7605 90.6274 72.8961 90.2668 72.054C89.9164 71.244 89.2866 70.0452 88.3774 68.4576C87.4698 66.9088 86.7574 65.9296 86.2401 65.52C85.6956 65.0921 85.3805 64.862 85.2951 64.83L85.3161 64.6929L84.763 64.9835C84.671 65.0436 84.6158 65.0843 84.5974 65.1056C81.9461 66.5785 79.4736 67.9655 77.18 69.2667L63.7863 77.6227C63.4276 77.5545 63.2618 77.6533 63.2889 77.9191C63.323 78.2863 63.7098 78.957 64.4494 79.9313C65.6563 81.5421 67.7937 83.9381 70.8616 87.1194C71.819 88.2942 77.7673 85.1912 88.7065 77.8102C89.4527 77.0213 90.1609 76.1356 90.8313 75.1531Z" fill="#9F582D"/>
<path d="M58.466 67.1665L58.2856 67.1475L58.3216 67.3647C55.8665 69.3664 53.2895 71.1894 50.5907 72.8336L62.048 77.9514L62.953 77.4183L62.4176 77.931L62.4478 77.9579L62.6567 78.0154L62.8825 77.8851C62.8548 77.6135 63.0227 77.5126 63.3863 77.5825L76.9499 69.0528C74.8239 70.291 73.3996 71.1289 72.6769 71.5665C70.2286 70.1866 67.8681 69.1598 65.5956 68.4859C63.2994 67.8175 60.9229 67.3777 58.466 67.1665Z" fill="#8E5029"/>
<path d="M30.2911 82.1L31.1911 87.3985C31.5935 88.0769 35.1157 89.7316 41.7575 92.3626C48.3895 95.0081 54.8195 96.5303 61.0475 96.9292C61.9284 87.4336 62.4012 81.4393 62.4658 78.9464L62.4615 78.4569L62.3577 78.9119C61.4798 83.1601 60.0595 87.2976 58.0968 91.3244L57.7829 91.9671C46.0052 88.8644 36.8283 85.5119 30.2522 81.9097C31.1378 82.4442 31.5857 82.7275 31.5959 82.7596C31.5987 82.7909 31.1637 82.5711 30.2911 82.1ZM73.6998 58.3973C72.5742 57.9 71.3463 57.4036 70.0162 56.9083C66.6989 55.7174 63.1507 54.8246 59.3716 54.23L58.4784 67.0856C60.911 67.2919 63.2639 67.7227 65.537 68.3782C67.7866 69.0389 70.1229 70.0464 72.5459 71.4005C73.2619 70.9704 74.6732 70.1467 76.7797 68.9295C79.0813 67.6239 81.5623 66.2321 84.2229 64.7542C80.4415 61.9547 76.9339 59.8358 73.6998 58.3973Z" fill="#A66035"/>
<path d="M69.8203 57.4772C71.1671 57.9862 72.4105 58.4962 73.5505 59.0071C76.8256 60.4848 80.3789 62.6605 84.2102 65.5343C84.2288 65.5124 84.2848 65.4706 84.3782 65.4089L84.9392 65.1102C84.9354 64.9825 84.884 64.8656 84.7851 64.7596C84.6596 64.6269 84.4704 64.5113 84.2173 64.4128C80.6989 61.8508 77.1308 59.7491 73.5129 58.1077C72.2282 57.5416 70.9836 57.0395 69.7792 56.6013C66.3357 55.3286 62.7904 54.4551 59.1434 53.9806L59.0869 53.9746L59.044 54.7222C62.8692 55.335 66.4613 56.2533 69.8203 57.4772Z" fill="#BB6F41"/>
<path d="M57.213 91.3228L57.451 90.881C59.0557 87.5716 60.4394 83.5548 61.6022 78.8308L50.8949 74.0778L30.5921 65.4691L25.9125 77.1144C25.7366 77.5705 25.6213 77.9279 25.5665 78.1866C25.4797 78.6053 25.4865 78.956 25.5871 79.2386C25.6433 79.4156 25.739 79.5811 25.8744 79.7351C36.1427 84.6602 46.5889 88.5227 57.213 91.3228ZM70.4657 46.9146L69.6362 46.77C67.4256 46.4235 65.1509 46.2492 62.8119 46.2471C61.9677 48.0024 61.3532 49.2956 60.9685 50.1266C60.2813 51.5483 59.8361 52.478 59.6328 52.9157L59.2967 53.6273C62.9054 54.0881 66.4127 54.9389 69.8187 56.1796C71.0099 56.6068 72.2409 57.0964 73.5114 57.6484C77.0893 59.2492 80.6173 61.2998 84.0953 63.8001C84.3456 63.8961 84.5327 64.0089 84.6567 64.1384C84.7544 64.2419 84.805 64.356 84.8086 64.4808L84.7875 64.6186C84.8067 64.5428 84.8428 64.4805 84.8957 64.4315C84.9956 64.2242 85.1078 64.0103 85.2324 63.79L85.2982 63.6568C86.3969 61.6247 87.226 60.1166 87.7855 59.1327C88.2608 58.3033 88.7711 57.4426 89.3166 56.5506C83.9081 51.4309 77.6245 48.219 70.4657 46.9146Z" fill="#C6855D"/>
<path d="M31.2312 64.1991L30.6412 64.232L30.361 64.9536L50.8829 73.7702L61.706 78.6376C61.7701 78.4138 61.8512 78.0766 61.9493 77.6259L50.469 72.4742L31.2312 64.1991Z" fill="#D78A5A"/>
<path d="M72.8345 59.8484C72.4241 59.08 71.7648 58.1719 70.8567 57.124C70.5423 57.9274 70.1974 58.7307 69.8219 59.5341C69.1495 60.9399 68.4073 62.2978 67.5952 63.6076C66.1719 65.8518 64.5259 67.9213 62.6572 69.8161C62.2381 70.244 61.8975 70.5584 61.6356 70.7592C61.3561 70.96 61.0767 71.1085 60.7973 71.2045H58.8981C58.5313 71.0823 58.051 70.8727 57.4573 70.5758C55.5799 69.659 54.1303 68.8949 53.1087 68.2836C51.5544 67.3668 50.2533 66.4019 49.2054 65.389C48.926 65.1183 48.6553 64.8432 48.3933 64.5638C47.5027 63.6032 46.7779 62.5729 46.219 61.4726C45.73 60.5383 45.3895 59.5996 45.1974 58.6565C45.1058 58.6552 45.0098 58.6508 44.9092 58.6434C43.7315 63.5683 44.7706 68.2749 48.0266 72.7632C48.1993 73.015 48.3696 73.2595 48.5374 73.4967L62.9585 77.3476C63.0637 77.5397 63.1073 77.6009 63.0895 77.5309C63.0109 77.234 63.1855 77.1031 63.6134 77.138C73.0511 71.996 76.5964 69.6383 74.2491 70.065C74.3661 69.3253 74.1914 68.3604 73.7252 67.1703C73.2187 65.8867 72.9917 64.9523 73.0441 64.3673C73.1663 63.0837 73.2012 62.0533 73.1488 61.2761C73.1052 60.6038 73.0004 60.1279 72.8345 59.8484Z" fill="#1F1D4F"/>
<path d="M70.7125 56.9538C69.717 55.7837 68.3854 54.9104 66.7175 54.3341C65.2331 53.8277 63.622 53.605 61.8843 53.6661C60.4522 53.7622 58.9591 53.8932 57.4047 54.0591C55.833 54.225 53.7635 54.535 51.1962 54.989C48.6202 55.4431 46.6206 56.6656 45.1973 58.6565C45.3894 59.5996 45.7299 60.5383 46.2189 61.4726C46.7778 62.5729 47.5025 63.6033 48.3932 64.5638C48.6552 64.8432 48.9259 65.1183 49.2053 65.389C50.2532 66.4019 51.5542 67.3668 53.1086 68.2837C54.1302 68.8949 55.5797 69.659 57.4571 70.5758C58.0509 70.8727 58.5312 71.0823 58.8979 71.2045H60.7972C61.0766 71.1085 61.356 70.96 61.6354 70.7592C61.8974 70.5584 62.238 70.244 62.6571 69.8161C64.5258 67.9213 66.1718 65.8518 67.5951 63.6076C68.4072 62.2978 69.1494 60.94 69.8218 59.5341C70.1973 58.7307 70.5422 57.9274 70.8565 57.124C70.8129 57.0629 70.7649 57.0062 70.7125 56.9538Z" fill="#B8C0CC"/>
<path d="M79.5713 50.1128C79.5102 49.8071 79.4447 49.5102 79.3749 49.2221C78.5628 46.2357 76.0043 46.1877 71.6993 49.078C76.1619 45.0523 76.1139 41.625 71.5553 38.796C67.0056 35.9668 63.6481 34.9844 61.4828 35.8489C59.2998 36.6872 57.9026 39.5906 57.2914 44.5591C55.9466 41.599 53.9033 39.3592 51.1614 37.8398C49.188 36.7658 47.3411 36.9535 45.6209 38.403C38.1696 45.2008 37.864 50.2523 44.7041 53.5576C41.7273 53.156 39.8281 53.1604 39.0064 53.5707C38.1936 53.9897 37.805 54.6315 37.8406 55.4961C37.8758 56.3693 37.9281 56.9806 37.9978 57.3298C46.1187 62.5516 54.7154 63.7698 63.7881 60.9842C70.9833 58.7837 76.2444 55.1599 79.5713 50.1128ZM45.765 46.9692C45.765 45.7816 46.0532 44.76 46.6295 43.9042C47.2495 43.066 47.983 42.6468 48.83 42.6468C49.6857 42.6468 50.4017 43.066 50.9781 43.9042C51.598 44.76 51.908 45.7816 51.908 46.9692C51.908 48.1568 51.598 49.1741 50.9781 50.0211C50.4017 50.8768 49.6857 51.3047 48.83 51.3047C47.983 51.3047 47.2495 50.8768 46.6295 50.0211C46.0532 49.1741 45.765 48.1568 45.765 46.9692ZM63.2903 42.136C63.6658 41.1667 64.264 40.5686 65.0848 40.3415C65.9056 40.1145 66.7046 40.3241 67.4817 40.9703C68.3113 41.6339 68.8832 42.5377 69.1976 43.6816C69.5119 44.8255 69.4857 45.8908 69.119 46.8775C68.7872 47.8555 68.2109 48.458 67.3901 48.6851C66.5692 48.9121 65.7484 48.6982 64.9276 48.0433C64.1417 47.3709 63.5916 46.4627 63.2772 45.3188C62.9629 44.1749 62.9672 43.114 63.2903 42.136ZM65.0586 55.9414C65.111 55.9414 65.1634 55.9502 65.2158 55.9676C65.2769 56.0026 65.3336 56.0593 65.386 56.1379C65.8052 56.6793 65.8183 57.3473 65.4253 58.1419C65.1634 58.9278 64.8097 59.4605 64.3644 59.7399C63.919 60.0193 63.3602 60.1809 62.6878 60.2245C62.0067 60.2682 61.3387 60.2464 60.6838 60.159C60.0289 60.0717 59.1164 60.242 57.9463 60.6699C56.7674 61.089 55.9947 61.3204 55.6279 61.3641C55.2612 61.399 54.8333 61.3335 54.3443 61.1676C53.8378 61.0104 53.4187 60.6568 53.0869 60.1066C52.8074 59.6788 52.6765 59.2116 52.6939 58.7051C52.6765 58.548 52.6808 58.3864 52.707 58.2205C52.707 58.1943 52.7463 58.0721 52.8249 57.8538C52.9297 57.7839 53.0476 57.7752 53.1786 57.8276C53.2921 57.8538 53.3838 57.9193 53.4536 58.024C53.5409 58.1288 53.6152 58.2598 53.6763 58.417C55.4664 59.36 56.5317 59.0151 56.8722 57.3822V57.3036C56.7412 57.2425 56.6146 57.177 56.4924 57.1072C56.0434 56.7959 55.6898 56.4946 55.4314 56.2034C55.3222 56.0765 55.2305 55.9499 55.1564 55.8236C55.0167 55.5441 54.9512 55.256 54.9599 54.9591C54.9774 54.6709 55.0953 54.409 55.3136 54.1732C55.5057 53.9287 56.1082 53.6449 57.1211 53.3218C58.1428 52.9987 59.2037 52.8765 60.3039 52.9551C60.7056 53.0075 61.0549 53.1515 61.3518 53.3873C61.7011 53.6667 61.8757 53.9898 61.8757 54.3566C61.8757 54.5661 61.7971 54.8368 61.64 55.1686C61.631 55.1859 61.6222 55.2034 61.6138 55.221C61.4991 55.4279 61.3331 55.668 61.116 55.9414C60.8366 57.2163 61.4435 57.7752 62.9367 57.618C63.6352 57.4084 64.098 57.1858 64.3251 56.95C64.622 56.6706 64.8097 56.4828 64.8883 56.3868C64.8883 56.3606 64.8883 56.3387 64.8883 56.3213C64.8883 56.1379 64.9451 56.0113 65.0586 55.9414ZM66.8268 43.6423C66.9753 43.2755 66.9884 42.8782 66.8661 42.4503C66.7526 42.0312 66.5343 41.6907 66.2112 41.4287C65.9318 41.1842 65.648 41.1012 65.3598 41.1798C65.028 41.2759 64.7966 41.4985 64.6656 41.8478C64.5521 42.2408 64.5521 42.6468 64.6656 43.066C64.7879 43.4938 64.9931 43.8257 65.2812 44.0614C65.5694 44.2972 65.8794 44.367 66.2112 44.271C66.4994 44.1924 66.7046 43.9828 66.8268 43.6423ZM48.031 46.2881C48.2493 46.585 48.5287 46.7334 48.8693 46.7334C49.1749 46.7334 49.4325 46.585 49.6421 46.2881C49.8778 45.9825 49.9957 45.607 49.9957 45.1617C49.9957 44.7251 49.8778 44.3365 49.6421 43.9959C49.4325 43.6903 49.1749 43.5375 48.8693 43.5375C48.5287 43.5375 48.2493 43.6903 48.031 43.9959C47.8127 44.3365 47.7035 44.7251 47.7035 45.1617C47.7035 45.607 47.8127 45.9825 48.031 46.2881Z" fill="#E6E9EC"/>
<path d="M65.2154 55.9676C65.163 55.9501 65.1107 55.9414 65.0583 55.9414C64.9447 56.0112 64.888 56.1378 64.888 56.3212C64.888 56.3387 64.888 56.3605 64.888 56.3867C64.7308 57.4869 64.2418 58.2335 63.421 58.6265C63.0106 58.871 62.5609 58.9801 62.0719 58.9539C61.8099 58.9452 61.5698 58.8928 61.3515 58.7968C61.2467 58.7356 61.155 58.6789 61.0764 58.6265C60.7271 58.4082 60.4477 58.1026 60.2381 57.7096L59.95 57.1726C60.4215 56.7185 60.8101 56.3081 61.1157 55.9414C61.3328 55.668 61.4987 55.4278 61.6134 55.221C61.6219 55.2033 61.6306 55.1859 61.6396 55.1686C61.7968 54.8368 61.8754 54.5661 61.8754 54.3565C61.8754 53.9897 61.7008 53.6667 61.3515 53.3872C61.0546 53.1515 60.7053 53.0074 60.3036 52.955C59.2034 52.8764 58.1424 52.9986 57.1208 53.3217C56.1079 53.6448 55.5053 53.9286 55.3132 54.1731C55.0949 54.4089 54.9771 54.6708 54.9596 54.959C54.9509 55.2559 55.0163 55.5441 55.1561 55.8235C55.2302 55.9498 55.3219 56.0764 55.4311 56.2033C55.6895 56.4946 56.0431 56.7958 56.4921 57.1071C56.6143 57.177 56.7409 57.2424 56.8719 57.3036C57.2474 57.5131 57.6229 57.6703 57.9984 57.7751C57.6054 58.8492 57.0902 59.5259 56.4528 59.8053C55.9638 60.0498 55.4355 60.0498 54.8679 59.8053C54.2828 59.5608 53.9117 59.1679 53.7546 58.6265C53.7458 58.5479 53.7196 58.478 53.676 58.4169C53.6148 58.2597 53.5406 58.1288 53.4533 58.024C53.3834 57.9192 53.2918 57.8537 53.1782 57.8275C53.0473 57.7751 52.9294 57.7838 52.8246 57.8537C52.746 58.072 52.7067 58.1942 52.7067 58.2204C52.6805 58.3864 52.6761 58.5479 52.6936 58.7051C52.6761 59.2115 52.8071 59.6787 53.0866 60.1066C53.4184 60.6567 53.8375 61.0103 54.344 61.1675C54.833 61.3334 55.2608 61.3989 55.6276 61.364C55.9943 61.3203 56.7671 61.0889 57.946 60.6698C59.1161 60.2419 60.0286 60.0717 60.6835 60.159C61.3384 60.2463 62.0064 60.2681 62.6875 60.2245C63.3599 60.1808 63.9187 60.0193 64.3641 59.7398C64.8094 59.4604 65.163 58.9277 65.425 58.1419C65.818 57.3472 65.8049 56.6792 65.3857 56.1378C65.3333 56.0592 65.2766 56.0025 65.2154 55.9676ZM59.6749 54.2517C59.378 54.3565 59.0113 54.422 58.5747 54.4482C58.1381 54.4918 57.7495 54.4918 57.4089 54.4482C57.0946 54.422 56.933 54.3565 56.9243 54.2517C56.9243 54.1819 57.0815 54.0945 57.3958 53.9897C57.7015 53.8937 58.077 53.8282 58.5223 53.7933C58.9589 53.7671 59.3387 53.7671 59.6618 53.7933C59.9762 53.8282 60.1334 53.885 60.1334 53.9635C60.1421 54.0596 59.9893 54.1557 59.6749 54.2517ZM65.0845 40.3415C64.2636 40.5685 63.6655 41.1667 63.29 42.1359C62.9669 43.1139 62.9626 44.1749 63.2769 45.3188C63.5913 46.4627 64.1414 47.3708 64.9273 48.0432C65.7481 48.6981 66.5689 48.912 67.3897 48.685C68.2106 48.458 68.7869 47.8554 69.1187 46.8775C69.4854 45.8907 69.5116 44.8254 69.1973 43.6815C68.8829 42.5376 68.311 41.6338 67.4814 40.9702C66.7043 40.324 65.9053 40.1144 65.0845 40.3415ZM66.8658 42.4503C66.9881 42.8781 66.975 43.2755 66.8265 43.6422C66.7043 43.9828 66.4991 44.1923 66.2109 44.2709C65.8791 44.367 65.5691 44.2971 65.2809 44.0613C64.9928 43.8256 64.7876 43.4938 64.6653 43.0659C64.5518 42.6467 64.5518 42.2407 64.6653 41.8478C64.7963 41.4985 65.0277 41.2758 65.3595 41.1798C65.6477 41.1012 65.9315 41.1841 66.2109 41.4286C66.534 41.6906 66.7523 42.0311 66.8658 42.4503ZM46.6292 43.9042C46.0528 44.7599 45.7647 45.7816 45.7647 46.9691C45.7647 48.1567 46.0528 49.174 46.6292 50.021C47.2491 50.8768 47.9826 51.3046 48.8297 51.3046C49.6854 51.3046 50.4014 50.8768 50.9778 50.021C51.5977 49.174 51.9077 48.1567 51.9077 46.9691C51.9077 45.7816 51.5977 44.7599 50.9778 43.9042C50.4014 43.0659 49.6854 42.6467 48.8297 42.6467C47.9826 42.6467 47.2491 43.0659 46.6292 43.9042ZM48.8689 46.7334C48.5284 46.7334 48.249 46.5849 48.0307 46.288C47.8124 45.9824 47.7032 45.6069 47.7032 45.1616C47.7032 44.725 47.8124 44.3364 48.0307 43.9959C48.249 43.6902 48.5284 43.5374 48.8689 43.5374C49.1746 43.5374 49.4322 43.6902 49.6417 43.9959C49.8775 44.3364 49.9954 44.725 49.9954 45.1616C49.9954 45.6069 49.8775 45.9824 49.6417 46.288C49.4322 46.5849 49.1746 46.7334 48.8689 46.7334ZM37.2116 60.2245C38.0935 60.9929 39.0279 61.6915 40.0146 62.3202C38.9231 60.696 38.2507 59.0325 37.9975 57.3298C36.4956 56.378 35.0198 55.2865 33.5703 54.0552C33.9458 56.3867 35.1596 58.4431 37.2116 60.2245ZM82.4526 44.7425C82.4089 44.6202 82.3696 44.5067 82.3347 44.4019C81.6362 46.4801 80.7149 48.3837 79.571 50.1127C79.6671 50.5755 79.7326 51.0601 79.7675 51.5666C79.881 52.9812 79.8504 54.3478 79.6758 55.6663C82.505 52.4704 83.4306 48.8291 82.4526 44.7425Z" fill="#1F1D4F"/>
<path d="M58.5747 54.4483C59.0114 54.4221 59.3781 54.3566 59.675 54.2518C59.9893 54.1558 60.1422 54.0597 60.1334 53.9636C60.1334 53.8851 59.9763 53.8283 59.6619 53.7934C59.3388 53.7672 58.959 53.7672 58.5224 53.7934C58.077 53.8283 57.7015 53.8938 57.3959 53.9898C57.0816 54.0946 56.9244 54.182 56.9244 54.2518C56.9331 54.3566 57.0947 54.4221 57.409 54.4483C57.7496 54.4919 58.1381 54.4919 58.5747 54.4483ZM56.872 57.3037V57.3823C56.5314 59.0152 55.4661 59.3601 53.676 58.417C53.7197 58.4781 53.7459 58.548 53.7546 58.6266C53.9118 59.168 54.2829 59.5609 54.868 59.8054C55.4356 60.0499 55.9639 60.0499 56.4529 59.8054C57.0903 59.526 57.6055 58.8493 57.9984 57.7752C57.623 57.6704 57.2475 57.5132 56.872 57.3037ZM63.4211 58.6266C64.2419 58.2336 64.7309 57.487 64.8881 56.3868C64.8095 56.4829 64.6217 56.6706 64.3248 56.95C64.0978 57.1858 63.635 57.4085 62.9364 57.618C61.4432 57.7752 60.8364 57.2164 61.1158 55.9415C60.8102 56.3082 60.4216 56.7186 59.9501 57.1727L60.2382 57.7097C60.4478 58.1027 60.7272 58.4083 61.0765 58.6266C61.1551 58.679 61.2468 58.7357 61.3516 58.7969C61.5699 58.8929 61.81 58.9453 62.072 58.954C62.5609 58.9802 63.0107 58.8711 63.4211 58.6266ZM79.4925 55.8367C79.5449 55.7843 79.606 55.7275 79.6759 55.6664C79.8505 54.3479 79.8811 52.9813 79.7676 51.5667C79.7326 51.0602 79.6671 50.5756 79.5711 50.1128C76.2442 55.1599 70.9831 58.7838 63.7878 60.9843C54.7152 63.7698 46.1184 62.5517 37.9976 57.3299C38.2508 59.0326 38.9232 60.6961 40.0147 62.3203C42.3025 63.796 44.8261 64.8569 47.5854 65.5031C51.5148 66.3501 55.4487 66.4506 59.3868 65.8044C63.2988 65.1145 67.0318 63.9532 70.5857 62.3203C74.0175 60.7572 76.9864 58.596 79.4925 55.8367Z" fill="#B8C0CC"/>
<path d="M76.9909 36.6085L76.9516 36.3466C76.2531 32.3647 75.2882 27.9987 74.057 23.2484C72.8607 18.4894 71.4766 15.1843 69.9048 13.3331C68.3767 11.4557 66.7526 11.5693 65.0323 13.6737C63.3383 15.7869 61.9368 18.2144 60.8278 20.9563C59.9721 22.9646 59.1949 25.2743 58.4964 27.8852C57.7978 27.8764 57.0861 27.9026 56.3614 27.9638C54.3181 28.0773 52.3446 28.4702 50.441 29.1426C49.2185 29.5443 48.0397 30.0857 46.9045 30.7668C46.6862 30.8803 46.481 30.9894 46.2889 31.0942C44.6822 32.0722 43.2195 33.2118 41.901 34.5128C42.3376 34.3906 42.9358 34.1024 43.6954 33.6484C44.036 33.4999 44.3809 33.4301 44.7302 33.4388C45.1319 33.465 45.4375 33.6003 45.6471 33.8448C42.4644 36.9549 39.5435 40.2905 36.8844 43.8518C36.0346 45.0042 35.2094 46.1787 34.4089 47.3752C34.1731 48.1 33.9723 48.8466 33.8063 49.615C33.4309 51.1868 33.3523 52.6669 33.5706 54.0553C35.0201 55.2865 36.4958 56.378 37.9978 57.3298C37.9281 56.9805 37.8757 56.3693 37.8406 55.4961C37.805 54.6315 38.1935 53.9897 39.0063 53.5707C39.828 53.1603 41.7273 53.156 44.704 53.5576C37.864 50.2523 38.1696 45.2008 45.6209 38.403C47.3411 36.9535 49.1879 36.7657 51.1614 37.8398C53.9033 39.3592 55.9466 41.5989 57.2913 44.5591C57.9026 39.5906 59.2997 36.6871 61.4827 35.8489C63.6481 34.9844 67.0056 35.9668 71.5552 38.7959C76.1139 41.625 76.1619 45.0523 71.6993 49.078C76.0042 46.1877 78.5627 46.2357 79.3748 49.2221C79.4447 49.5102 79.5102 49.8071 79.5713 50.1127C80.7152 48.3838 81.6364 46.4802 82.335 44.4019C81.13 41.3544 79.3486 38.7566 76.9909 36.6085ZM68.3593 16.9351C69.442 18.6728 70.276 20.5197 70.861 22.4756C71.8914 25.8986 72.6991 29.3784 73.2842 32.9149L73.4413 33.6746C71.5115 32.2862 69.4857 31.0768 67.3638 30.0464C65.7047 29.2256 64.0019 28.6361 62.2555 28.2781L62.3734 27.6494C64.0412 22.8817 65.2725 19.7905 66.0671 18.3759C66.8792 16.9613 67.4555 16.3282 67.796 16.4767C68.0143 16.5902 68.2021 16.743 68.3593 16.9351ZM36.0592 21.7945C35.7973 22.432 35.627 23.1873 35.5484 24.0605C35.496 24.5757 35.4698 25.3616 35.4698 26.4182C35.5397 31.151 35.7187 34.9538 36.0068 37.8267C36.1484 39.266 36.3274 40.65 36.5439 41.9788C37.037 41.0085 37.5784 40.0698 38.168 39.1627C37.6528 35.6349 37.3428 32.0766 37.2381 28.4877C37.1769 26.4444 37.3952 24.4273 37.893 22.4364C37.9104 22.384 37.9323 22.3316 37.9585 22.2792C38.0371 22.1133 38.1462 21.9561 38.2859 21.8076C38.5304 21.5893 39.2683 22.0172 40.4995 23.0913C41.7045 24.1828 43.8395 26.7413 46.9045 30.7668C48.0397 30.0857 49.2185 29.5443 50.441 29.1426C49.5853 27.8415 48.2012 26.0907 46.2889 23.8902C44.3678 21.6461 42.2765 19.7949 40.0149 18.3366C39.7442 18.1533 39.4778 18.0048 39.2159 17.8913C39.143 18.0654 39.1037 18.1701 39.098 18.2057C38.3562 18.9589 37.7843 19.509 37.3821 19.856C36.7971 20.3712 36.3561 21.0174 36.0592 21.7945Z" fill="#403D90"/>
<path d="M70.861 22.4757C70.276 20.5197 69.442 18.6728 68.3593 16.9351C68.2021 16.743 68.0143 16.5902 67.796 16.4767C67.4555 16.3283 66.8792 16.9613 66.0671 18.3759C65.2725 19.7905 64.0412 22.8817 62.3734 27.6494L62.2555 28.2781C64.0019 28.6362 65.7047 29.2256 67.3638 30.0464C69.4857 31.0768 71.5115 32.2862 73.4413 33.6746L73.2842 32.9149C72.6991 29.3784 71.8914 25.8986 70.861 22.4757ZM40.4995 23.0913C39.2683 22.0172 38.5304 21.5894 38.2859 21.8077C38.1462 21.9561 38.037 22.1133 37.9585 22.2792C37.9323 22.3316 37.9104 22.384 37.893 22.4364C37.3952 24.4273 37.1769 26.4444 37.2381 28.4877C37.3428 32.0766 37.6528 35.6349 38.168 39.1627C38.2117 39.1016 38.2466 39.0361 38.2728 38.9662C39.3294 37.3246 40.5388 35.8401 41.901 34.5129C43.2195 33.2118 44.6822 32.0722 46.2889 31.0942C46.481 30.9895 46.6862 30.8803 46.9045 30.7668C43.8395 26.7413 41.7045 24.1828 40.4995 23.0913Z" fill="#D88BAE"/>
<path d="M45.6468 33.8449C45.4373 33.6004 45.1316 33.4651 44.73 33.4389C44.3807 33.4301 44.0358 33.5 43.6952 33.6484C42.9355 34.1025 42.3374 34.3907 41.9008 34.5129C40.5386 35.8402 39.3292 37.3246 38.2726 38.9663C38.2464 39.0361 38.2114 39.1016 38.1678 39.1627C37.5782 40.0699 37.0368 41.0086 36.5436 41.9788C36.2817 42.5021 36.0328 43.0348 35.797 43.5768C35.2556 44.7993 34.7928 46.0655 34.4086 47.3753C35.2091 46.1788 36.0343 45.0043 36.8842 43.8519C39.5433 40.2906 42.4642 36.9549 45.6468 33.8449ZM35.5482 24.0606C35.6267 23.1874 35.797 22.432 36.059 21.7946C36.3559 21.0174 36.7968 20.3713 37.3819 19.8561C37.784 19.509 38.356 18.9589 39.0978 18.2057C39.1035 18.1702 39.1427 18.0654 39.2156 17.8914C37.3557 16.9745 36.0372 17.5028 35.26 19.4762C34.3693 21.7291 34.0899 25.3093 34.4217 30.2167C34.7623 35.1067 35.2207 39.5601 35.797 43.5768C36.0328 43.0348 36.2817 42.5021 36.5436 41.9788C36.3271 40.6501 36.1481 39.2661 36.0066 37.8267C35.7184 34.9539 35.5394 31.151 35.4696 26.4182C35.4696 25.3617 35.4958 24.5758 35.5482 24.0606Z" fill="#6763BD"/>
<path d="M74.7731 60.4118C74.6596 60.403 74.533 60.4336 74.3933 60.5034L73.0966 61.643C71.5871 62.124 71.2771 63.0453 72.1666 64.4067L74.3933 65.4283C74.9871 65.5069 75.4935 65.5244 75.9127 65.4807C76.6374 65.4022 77.1963 65.1489 77.5892 64.7211C77.956 64.3194 78.1525 63.7911 78.1787 63.1362C78.1787 63.0052 78.1787 62.8742 78.1787 62.7432C78.1612 62.3241 78.087 61.8482 77.956 61.3155C77.7202 60.4511 77.5761 59.8485 77.5237 59.508C77.4801 59.1936 77.4757 58.8967 77.5106 58.6173C76.8121 57.8925 76.2882 57.1503 75.9389 56.3906C75.6856 57.0281 75.4499 57.7397 75.2316 58.5256C75.0657 59.0757 74.9128 59.7045 74.7731 60.4118Z" fill="#403D90"/>
<path d="M84.3872 63.9743C84.5531 63.2758 84.6797 62.5816 84.767 61.8917C83.9462 61.9878 83.1166 61.9267 82.2784 61.7083C80.7852 61.3329 79.34 60.4553 77.9429 59.0756C77.8381 58.9796 77.7377 58.8792 77.6416 58.7744C77.598 58.722 77.5543 58.6696 77.5106 58.6172C77.4757 58.8966 77.4801 59.1935 77.5237 59.5079C77.5761 59.8484 77.7202 60.4509 77.956 61.3154C78.087 61.8481 78.1612 62.324 78.1786 62.7431C78.1786 62.8741 78.1786 63.0051 78.1786 63.136C78.1525 63.791 77.956 64.3192 77.5892 64.7209C77.1963 65.1488 76.6374 65.402 75.9127 65.4806C75.4935 65.5243 74.9871 65.5068 74.3933 65.4282L72.1666 64.4066L71.4331 70.3793L72.9394 70.3531L74.3933 70.34C74.4893 70.3313 74.581 70.3269 74.6683 70.3269C75.7599 70.2745 76.5327 70.2178 76.9867 70.1567C77.8075 70.0693 78.5367 69.9383 79.1741 69.7637C79.4273 69.6939 79.6718 69.6153 79.9076 69.5279C81.1912 69.0215 82.1867 68.3229 82.894 67.4322C83.5576 66.6202 84.0554 65.4675 84.3872 63.9743Z" fill="#1F1D4F"/>
<path d="M82.344 51.7537C82.4662 51.6926 82.5928 51.6489 82.7238 51.6227C82.4444 51.5703 82.1431 51.531 81.82 51.5048C80.4316 51.4787 79.1611 51.9982 78.0085 53.0635C77.2051 53.8058 76.5153 54.9147 75.939 56.3905C76.2882 57.1502 76.8122 57.8924 77.5107 58.6171C77.5544 58.6695 77.5981 58.7219 77.6417 58.7743C77.6155 58.4512 77.6243 58.1281 77.6679 57.8051C77.6941 57.5955 77.7247 57.3859 77.7596 57.1763C77.9954 55.9277 78.5324 54.8274 79.3707 53.8756C80.1478 52.9762 81.1389 52.2689 82.344 51.7537Z" fill="#E6E9EC"/>
<path d="M87.0986 57.9752C87.5788 56.9622 87.7229 56.0454 87.5308 55.2245C87.3387 54.3863 86.6881 53.5655 85.5792 52.7621C84.7147 52.1596 83.7629 51.7797 82.7238 51.6226C82.5928 51.6488 82.4662 51.6924 82.3439 51.7535C81.1389 52.2687 80.1478 52.976 79.3706 53.8754C78.5324 54.8272 77.9953 55.9275 77.7596 57.1762C77.7246 57.3857 77.6941 57.5953 77.6679 57.8049C77.6242 58.128 77.6155 58.4511 77.6417 58.7741C77.7377 58.8789 77.8382 58.9794 77.9429 59.0754C79.3401 60.4551 80.7852 61.3327 82.2784 61.7081C83.1167 61.9264 83.9463 61.9876 84.7671 61.8915C84.7845 61.8828 84.8107 61.8784 84.8457 61.8784C84.9417 61.8609 85.0552 61.8435 85.1862 61.826C85.1076 61.4593 85.0552 61.1056 85.029 60.7651C84.9941 60.4856 84.9767 60.2149 84.9767 59.953C85.9546 59.5513 86.6619 58.892 87.0986 57.9752ZM85.0552 53.7969C85.2473 53.989 85.3565 54.1985 85.3827 54.4256C85.4176 54.6788 85.3565 54.8753 85.1993 55.015H85.1862C85.029 55.146 84.8238 55.1984 84.5706 55.1722C84.3523 55.1285 84.1427 55.015 83.9419 54.8316C83.7411 54.6395 83.6319 54.4256 83.6144 54.1898C83.5795 53.954 83.645 53.7576 83.8109 53.6004C83.9594 53.4694 84.1602 53.417 84.4134 53.4432C84.623 53.4781 84.8151 53.5742 84.9897 53.7314C85.0072 53.7488 85.029 53.7707 85.0552 53.7969ZM81.5056 53.823C81.8899 53.7532 82.2522 53.823 82.5928 54.0326C82.9333 54.2597 83.1473 54.5565 83.2346 54.9233C83.3045 55.2988 83.2346 55.635 83.025 55.9318C82.8155 56.2549 82.5055 56.4514 82.0951 56.5213C82.0427 56.5213 81.9859 56.5256 81.9248 56.5344C81.6017 56.5606 81.3048 56.4732 81.0341 56.2724C80.6848 56.0628 80.4622 55.7834 80.3661 55.4341C80.305 55.0499 80.3792 54.7006 80.5888 54.3863C80.7721 54.1418 80.9904 53.9715 81.2437 53.8754C81.331 53.8492 81.4183 53.8318 81.5056 53.823ZM82.5535 57.4905C82.5273 57.3159 82.5535 57.1674 82.6321 57.0452C82.667 57.0015 82.7107 56.9535 82.7631 56.9011C82.9115 56.7614 83.108 56.709 83.3525 56.7439C83.5882 56.7701 83.8065 56.888 84.0074 57.0976C84.1034 57.1936 84.1777 57.2984 84.2301 57.4119C84.2912 57.5167 84.3261 57.6215 84.3348 57.7263C84.361 57.9708 84.2999 58.1585 84.1515 58.2895C83.9943 58.438 83.7891 58.4947 83.5359 58.4598C83.3787 58.4423 83.2259 58.3856 83.0774 58.2895C83.0163 58.2371 82.9595 58.1804 82.9071 58.1192C82.6888 57.9271 82.571 57.7176 82.5535 57.4905ZM85.5268 55.7485C85.7189 55.9493 85.8368 56.1676 85.8804 56.4034C85.9066 56.6391 85.8455 56.8269 85.697 56.9666C85.5311 57.115 85.3216 57.1762 85.0683 57.15C84.9548 57.1151 84.8413 57.067 84.7278 57.0059C84.623 56.9448 84.5182 56.8705 84.4134 56.7832C84.2301 56.5911 84.1253 56.3816 84.0991 56.1545C84.0729 55.9188 84.1384 55.7266 84.2955 55.5782C84.4527 55.4385 84.6536 55.3861 84.8981 55.421C84.9941 55.4385 85.0989 55.4647 85.2124 55.4996C85.3172 55.552 85.422 55.635 85.5268 55.7485Z" fill="#B8C0CC"/>
<path d="M85.8802 56.4037C85.8366 56.168 85.7187 55.9497 85.5266 55.7488C85.4218 55.6353 85.317 55.5524 85.2122 55.5C85.0987 55.465 84.9939 55.4388 84.8979 55.4214C84.6534 55.3865 84.4525 55.4388 84.2954 55.5786C84.1382 55.727 84.0727 55.9191 84.0989 56.1549C84.1251 56.3819 84.2299 56.5915 84.4132 56.7836C84.518 56.8709 84.6228 56.9451 84.7276 57.0063C84.8411 57.0674 84.9546 57.1154 85.0682 57.1503C85.3214 57.1765 85.531 57.1154 85.6969 56.967C85.8453 56.8272 85.9064 56.6395 85.8802 56.4037ZM82.6319 57.0456C82.5533 57.1678 82.5271 57.3162 82.5533 57.4909C82.5708 57.7179 82.6887 57.9275 82.907 58.1196C82.9594 58.1807 83.0161 58.2375 83.0772 58.2899C83.2257 58.3859 83.3785 58.4427 83.5357 58.4602C83.7889 58.4951 83.9941 58.4383 84.1513 58.2899C84.2997 58.1589 84.3608 57.9712 84.3347 57.7267C84.3259 57.6219 84.291 57.5171 84.2299 57.4123C84.1775 57.2988 84.1033 57.194 84.0072 57.0979C83.8064 56.8884 83.5881 56.7705 83.3523 56.7443C83.1078 56.7094 82.9113 56.7618 82.7629 56.9015C82.7105 56.9539 82.6668 57.0019 82.6319 57.0456ZM82.5926 54.033C82.252 53.8234 81.8897 53.7535 81.5055 53.8234C81.4181 53.8321 81.3308 53.8496 81.2435 53.8758C80.9903 53.9719 80.772 54.1421 80.5886 54.3866C80.379 54.701 80.3048 55.0503 80.3659 55.4345C80.462 55.7838 80.6846 56.0632 81.0339 56.2728C81.3046 56.4736 81.6015 56.5609 81.9246 56.5347C81.9857 56.526 82.0425 56.5216 82.0949 56.5216C82.5053 56.4518 82.8153 56.2553 83.0248 55.9322C83.2344 55.6353 83.3043 55.2991 83.2344 54.9237C83.1471 54.5569 82.9332 54.26 82.5926 54.033ZM85.3825 54.4259C85.3563 54.1989 85.2472 53.9893 85.055 53.7972C85.0289 53.771 85.007 53.7492 84.9896 53.7317C84.8149 53.5745 84.6228 53.4785 84.4132 53.4436C84.16 53.4174 83.9592 53.4698 83.8107 53.6007C83.6448 53.7579 83.5793 53.9544 83.6143 54.1902C83.6317 54.4259 83.7409 54.6399 83.9417 54.832C84.1425 55.0153 84.3521 55.1289 84.5704 55.1725C84.8236 55.1987 85.0289 55.1463 85.186 55.0153H85.1991C85.3563 54.8756 85.4174 54.6792 85.3825 54.4259Z" fill="#D88BAE"/>
<path d="M38.6484 67.5105C37.8239 66.6499 37.2956 66.1653 37.0635 66.0566C36.628 66.6014 36.1521 67.0642 35.6358 67.445C34.9372 67.9602 34.1906 68.327 33.396 68.5453C33.7278 69.1478 34.1033 69.7416 34.5224 70.3266C35.3869 71.5928 36.2776 72.4791 37.1945 72.9856C38.1812 73.5357 39.3688 73.8064 40.7572 73.7976C41.0104 73.7976 41.268 73.7802 41.5299 73.7453C42.1761 73.6667 42.9009 73.5182 43.7042 73.2999C44.1408 73.1864 44.8787 72.9506 45.9178 72.5926C46.8085 72.2695 47.8127 71.8853 48.9304 71.44C48.127 69.5189 47.2407 67.9646 46.2715 66.777C45.7999 67.0914 45.2847 67.4014 44.7259 67.707C44.0357 68.1269 43.3895 68.3889 42.7874 68.4929C42.1951 68.6039 41.9288 68.6301 41.9884 68.5715C42.0551 68.5138 41.7232 68.54 40.9929 68.6501C40.2635 68.7606 39.482 68.3807 38.6484 67.5105Z" fill="#1F1D4F"/>
<path d="M42.1063 63.437C41.7046 62.8345 41.3291 62.3062 40.9798 61.8521C40.507 61.2382 40.0442 60.6881 39.5914 60.2017C39.5713 60.1829 39.5495 60.1611 39.5259 60.1362C39.5188 60.2724 39.5057 60.4078 39.4866 60.5423C39.4067 61.2616 39.2059 62.0126 38.8841 62.7952C38.8764 62.8488 38.859 62.9055 38.8317 62.9654C38.8349 62.9743 38.8349 62.9831 38.8317 62.9916C38.7793 63.1226 38.7226 63.2492 38.6615 63.3715C38.2052 64.421 37.6725 65.316 37.0635 66.0566C37.2956 66.1652 37.8239 66.6499 38.6484 67.5105C39.482 68.3807 40.2635 68.7605 40.9929 68.65C41.7232 68.54 42.0551 68.5138 41.9884 68.5714C41.9288 68.63 42.1951 68.6038 42.7874 68.4928C43.3895 68.3888 44.0357 68.1269 44.7259 67.707C45.2847 67.4013 45.7999 67.0913 46.2715 66.777L45.1843 65.3362C43.892 64.5154 42.8834 63.9216 42.1587 63.5548C42.1412 63.5112 42.1237 63.4719 42.1063 63.437Z" fill="#403D90"/>
<path d="M38.6612 63.3714C38.7223 63.2491 38.7791 63.1225 38.8315 62.9915L38.8184 62.9785C38.7764 62.8233 38.724 62.6705 38.6612 62.52C38.5341 62.7428 38.3987 62.9567 38.2552 63.1618C37.6427 64.0252 36.8743 64.763 35.9499 65.3754C35.764 65.4983 35.5719 65.6162 35.3736 65.7291C35.068 65.9029 34.758 66.0557 34.4436 66.1875C34.3822 66.2179 34.3167 66.2441 34.2471 66.2661C33.7691 66.6026 33.2888 66.7904 32.8063 66.8293C32.6928 66.8293 32.5793 66.8249 32.4658 66.8162C32.5706 67.0607 32.6579 67.3227 32.7277 67.6021C32.8238 67.9252 32.9067 68.2701 32.9766 68.6369C33.1076 68.6019 33.2167 68.5757 33.3041 68.5583C33.339 68.5495 33.3695 68.5452 33.3957 68.5452C34.1904 68.3269 34.937 67.9601 35.6355 67.4449C36.1519 67.064 36.6278 66.6012 37.0632 66.0565C37.6723 65.3159 38.2049 64.4209 38.6612 63.3714ZM32.3086 66.8162C32.3626 66.8162 32.4149 66.8162 32.4658 66.8162C32.5793 66.8249 32.6928 66.8293 32.8063 66.8293C33.2888 66.7904 33.7691 66.6026 34.2471 66.2661C33.6161 66.5323 32.9699 66.7157 32.3086 66.8162Z" fill="#B8C0CC"/>
<path d="M39.4865 60.5422C39.5056 60.4077 39.5187 60.2723 39.5258 60.1361C38.4431 58.9835 37.3865 58.2107 36.3561 57.8177C34.8891 57.2676 33.5138 57.2633 32.2302 57.8047C31.942 57.9531 31.6801 58.1015 31.4443 58.25C30.5361 58.7826 29.7939 59.4899 29.2176 60.3719C28.4928 61.5333 28.2003 62.5374 28.34 63.3845C28.471 64.2227 28.9469 65.0217 29.7677 65.7814C30.4742 66.4381 31.3213 66.783 32.3088 66.8162C32.9701 66.7157 33.6163 66.5323 34.2473 66.2661C34.3169 66.2441 34.3824 66.2179 34.4438 66.1875C34.7582 66.0557 35.0682 65.9029 35.3737 65.729C35.5721 65.6162 35.7642 65.4983 35.95 65.3754C36.8744 64.763 37.6428 64.0251 38.2553 63.1618C38.3989 62.9567 38.5342 62.7427 38.6614 62.52C38.7242 62.6704 38.7766 62.8233 38.8185 62.9784L38.8316 62.9915C38.8348 62.983 38.8348 62.9742 38.8316 62.9653C38.8589 62.9054 38.8764 62.8487 38.884 62.795C39.2058 62.0125 39.4067 61.2615 39.4865 60.5422ZM32.4659 60.4374C32.7104 60.1143 33.0248 59.9135 33.409 59.8349C33.4876 59.8087 33.5705 59.7956 33.6579 59.7956C33.9286 59.7868 34.1949 59.8611 34.4569 60.0182C34.7712 60.2278 34.9677 60.5203 35.0463 60.8958C35.0899 61.2626 34.9895 61.6118 34.745 61.9437C34.5704 62.2231 34.3302 62.4108 34.0246 62.5069C33.9635 62.5243 33.9111 62.5418 33.8674 62.5593C33.457 62.6466 33.0947 62.5811 32.7803 62.3628C32.4747 62.162 32.2826 61.8738 32.204 61.4983C32.1429 61.1316 32.2302 60.7779 32.4659 60.4374ZM31.1692 60.4898C31.3875 60.5771 31.5229 60.7343 31.5753 60.9613C31.6451 61.1883 31.6233 61.4328 31.5098 61.6948C31.3963 61.9306 31.2478 62.1139 31.0644 62.2449C30.8374 62.3584 30.6278 62.3846 30.4357 62.3235H30.4226C30.2218 62.2537 30.0908 62.0965 30.0297 61.852C29.9686 61.6337 29.9904 61.3935 30.0952 61.1316C30.1126 61.1054 30.1257 61.0792 30.1345 61.053C30.2305 60.8434 30.3746 60.6819 30.5667 60.5684C30.7937 60.4548 30.9946 60.4286 31.1692 60.4898ZM30.3833 63.1356C30.4445 62.9784 30.5099 62.8605 30.5798 62.7819C30.6759 62.7034 30.7632 62.6379 30.8418 62.5855C31.0601 62.4632 31.2696 62.437 31.4705 62.5069C31.6713 62.5855 31.8023 62.7383 31.8634 62.9653C31.9246 63.1836 31.9071 63.4194 31.811 63.6726C31.7499 63.7949 31.6757 63.904 31.5884 64.0001C31.5098 64.0961 31.4225 64.1834 31.3264 64.262C31.1081 64.3843 30.8942 64.4061 30.6846 64.3275C30.4925 64.2489 30.3659 64.0961 30.3047 63.8691C30.2524 63.6333 30.2785 63.3888 30.3833 63.1356ZM32.7803 63.2404C32.9899 63.1094 33.1907 63.0832 33.3828 63.1618C33.4527 63.1967 33.5094 63.2229 33.5531 63.2404C33.6753 63.3277 33.7539 63.4587 33.7889 63.6333C33.8674 63.8516 33.8369 64.0874 33.6972 64.3406C33.6797 64.4192 33.6491 64.4934 33.6055 64.5633C33.5007 64.7117 33.3828 64.8253 33.2518 64.9038C33.0248 65.0261 32.8109 65.0479 32.61 64.9693C32.4179 64.9082 32.2913 64.7598 32.2302 64.524C32.1952 64.4105 32.1909 64.297 32.2171 64.1834C32.2171 64.0612 32.2433 63.9346 32.2957 63.8036C32.4092 63.5416 32.5707 63.3539 32.7803 63.2404Z" fill="#E6E9EC"/>
<path d="M33.383 63.1618C33.1909 63.0832 32.9901 63.1094 32.7805 63.2404C32.5709 63.3539 32.4094 63.5417 32.2959 63.8036C32.2435 63.9346 32.2173 64.0612 32.2173 64.1835C32.1911 64.297 32.1954 64.4105 32.2304 64.524C32.2915 64.7598 32.4181 64.9083 32.6102 64.9694C32.811 65.048 33.025 65.0261 33.252 64.9039C33.383 64.8253 33.5009 64.7118 33.6057 64.5633C33.6493 64.4935 33.6799 64.4193 33.6974 64.3407C33.8371 64.0874 33.8676 63.8517 33.789 63.6334C33.7541 63.4587 33.6755 63.3277 33.5533 63.2404C33.5096 63.223 33.4529 63.1968 33.383 63.1618ZM30.58 62.782C30.5101 62.8606 30.4446 62.9785 30.3835 63.1356C30.2787 63.3889 30.2525 63.6334 30.3049 63.8691C30.3661 64.0962 30.4927 64.249 30.6848 64.3276C30.8944 64.4062 31.1083 64.3843 31.3266 64.2621C31.4226 64.1835 31.51 64.0962 31.5886 64.0001C31.6759 63.9041 31.7501 63.7949 31.8112 63.6727C31.9073 63.4194 31.9247 63.1837 31.8636 62.9654C31.8025 62.7383 31.6715 62.5855 31.4707 62.5069C31.2698 62.4371 31.0603 62.4633 30.842 62.5855C30.7634 62.6379 30.676 62.7034 30.58 62.782ZM31.5755 60.9613C31.5231 60.7343 31.3877 60.5771 31.1694 60.4898C30.9948 60.4287 30.7939 60.4549 30.5669 60.5684C30.3748 60.6819 30.2307 60.8435 30.1347 61.053C30.1259 61.0792 30.1128 61.1054 30.0954 61.1316C29.9906 61.3936 29.9687 61.6337 30.0299 61.852C30.091 62.0965 30.222 62.2537 30.4228 62.3236H30.4359C30.628 62.3847 30.8376 62.3585 31.0646 62.245C31.248 62.114 31.3964 61.9306 31.51 61.6948C31.6235 61.4329 31.6453 61.1884 31.5755 60.9613ZM33.4092 59.8349C33.025 59.9135 32.7106 60.1143 32.4661 60.4374C32.2304 60.778 32.143 61.1316 32.2042 61.4984C32.2828 61.8739 32.4749 62.162 32.7805 62.3628C33.0948 62.5812 33.4572 62.6466 33.8676 62.5593C33.9113 62.5419 33.9637 62.5244 34.0248 62.5069C34.3304 62.4109 34.5706 62.2231 34.7452 61.9437C34.9897 61.6119 35.0901 61.2626 35.0465 60.8959C34.9679 60.5204 34.7714 60.2279 34.457 60.0183C34.1951 59.8611 33.9288 59.7869 33.6581 59.7956C33.5707 59.7956 33.4878 59.8087 33.4092 59.8349Z" fill="#D88BAE"/>
<path d="M64.9734 91.0803C63.0829 88.4794 60.9697 85.8424 58.6337 83.1692C57.2008 81.5076 55.6234 80.0205 53.9016 78.708C53.0226 79.8158 51.7823 82.3866 50.1809 86.4204C48.5673 90.4421 47.1886 93.8558 46.0447 96.6613C44.9008 99.4669 44.7443 101.123 45.5751 101.628C46.0447 101.929 46.4782 102.116 46.8756 102.188C50.6685 102.73 54.4916 102.784 58.3447 102.351C61.9812 101.905 65.5092 100.99 68.9289 99.6054C68.965 99.5572 69.0072 99.5151 69.0553 99.479C69.2962 99.2141 69.4406 98.8889 69.4888 98.5036C68.381 96.1436 66.8759 93.6691 64.9734 91.0803ZM57.0804 85.8966C57.2731 86.0651 57.3875 86.4083 57.4236 86.9261L57.821 93.9701C57.845 94.4397 57.7728 94.7649 57.6042 94.9455C57.5199 95.0418 57.3935 95.1141 57.2249 95.1622C57.0804 95.1983 56.9179 95.2284 56.7373 95.2525C56.2315 95.3248 55.8462 95.2886 55.5813 95.1441C55.3284 94.9997 55.0936 94.6986 54.8769 94.2411C54.4193 93.2778 54.0461 92.1339 53.7571 90.8093C53.6126 90.1591 53.438 89.2259 53.2333 88.0098C53.1972 87.7569 53.155 87.492 53.1069 87.2151C53.0466 86.7455 53.0888 86.4204 53.2333 86.2397C53.3778 86.0591 53.6607 85.9508 54.0822 85.9146L55.9425 85.6979C56.4844 85.6377 56.8637 85.7039 57.0804 85.8966ZM55.798 98.612C55.774 98.323 55.8221 98.0581 55.9425 97.8173C56.0027 97.733 56.063 97.6487 56.1232 97.5644C56.3881 97.2514 56.7132 97.0768 57.0985 97.0406C57.4838 97.0045 57.833 97.1129 58.1461 97.3657C58.4591 97.6186 58.6337 97.9437 58.6699 98.3411C58.706 98.7264 58.5976 99.0696 58.3447 99.3706C58.116 99.6355 57.8511 99.7981 57.55 99.8583C57.4898 99.8703 57.4296 99.8823 57.3694 99.8944C56.9841 99.9185 56.6349 99.8101 56.3218 99.5693C56.0088 99.3164 55.8342 98.9973 55.798 98.612Z" fill="#FFE52E"/>
<path d="M55.9423 97.8175C55.8219 98.0583 55.7737 98.3232 55.7978 98.6122C55.834 98.9975 56.0086 99.3166 56.3216 99.5695C56.6347 99.8103 56.9839 99.9187 57.3692 99.8946C57.4294 99.8826 57.4896 99.8705 57.5498 99.8585C57.8508 99.7983 58.1158 99.6357 58.3445 99.3708C58.5974 99.0698 58.7058 98.7266 58.6696 98.3413C58.6335 97.9439 58.4589 97.6188 58.1459 97.366C57.8328 97.1131 57.4836 97.0047 57.0983 97.0409C56.713 97.077 56.3878 97.2516 56.1229 97.5647C56.0627 97.6489 56.0025 97.7332 55.9423 97.8175ZM57.4234 86.9263C57.3873 86.4085 57.2729 86.0654 57.0802 85.8968C56.8635 85.7041 56.4842 85.6379 55.9423 85.6981L54.082 85.9149C53.6605 85.951 53.3776 86.0594 53.2331 86.24C53.0886 86.4206 53.0464 86.7457 53.1066 87.2153C53.1548 87.4922 53.1969 87.7571 53.2331 88.01C53.4378 89.2262 53.6124 90.1594 53.7569 90.8096C54.0458 92.1341 54.4191 93.278 54.8767 94.2413C55.0934 94.6989 55.3282 94.9999 55.5811 95.1444C55.846 95.2889 56.2313 95.325 56.737 95.2528C56.9177 95.2287 57.0802 95.1986 57.2247 95.1624C57.3933 95.1143 57.5197 95.042 57.604 94.9457C57.7726 94.7651 57.8448 94.44 57.8207 93.9704L57.4234 86.9263ZM64.3952 86.6193C62.6854 84.5361 60.8611 82.4049 58.9225 80.2254C56.9839 78.058 55.545 77.2151 54.6058 77.6968L54.1181 78.3651C54.1542 78.3651 54.1843 78.3651 54.2084 78.3651C54.2686 78.3891 54.3288 78.4132 54.389 78.4373C54.389 78.4494 54.4673 78.4554 54.6238 78.4554C56.3457 79.7558 57.9231 81.2369 59.356 82.8986C61.6799 85.5717 63.7931 88.2087 65.6956 90.8096C67.5861 93.3984 69.0912 95.8729 70.2111 98.2329C70.1629 98.6183 70.0184 98.9434 69.7776 99.2083C70.1268 98.9795 70.476 98.7507 70.8252 98.5219C71.2105 98.257 71.4152 97.8837 71.4393 97.4021C70.8613 96.1257 70.2111 94.9156 69.4886 93.7717C67.8149 91.0865 66.1171 88.7024 64.3952 86.6193Z" fill="#E79800"/>
<path d="M65.6957 90.8097C63.7932 88.2089 61.6799 85.5719 59.356 82.8987C57.9231 81.237 56.3457 79.756 54.6238 78.4555C54.4673 78.4555 54.389 78.4495 54.389 78.4375C54.3288 78.4134 54.2686 78.3893 54.2084 78.3652C54.1843 78.3652 54.1542 78.3652 54.1181 78.3652L53.9014 78.7084C55.6232 80.0209 57.2006 81.508 58.6335 83.1696C60.9695 85.8428 63.0827 88.4798 64.9732 91.0807C66.8757 93.6695 68.3808 96.144 69.4886 98.504C69.4404 98.8893 69.296 99.2145 69.0551 99.4794C69.007 99.5155 68.9648 99.5576 68.9287 99.6058L69.7776 99.2084C70.0184 98.9435 70.1629 98.6184 70.2111 98.2331C69.0913 95.873 67.5861 93.3986 65.6957 90.8097Z" fill="#FFED74"/>
<path d="M63.4427 89.1447C63.9994 89.256 64.419 90.5578 64.7016 93.05C64.5218 90.1124 64.5903 88.8106 64.9072 89.1447L66.513 87.8728C65.785 87.7701 65.1299 87.723 64.5475 87.7315L63.7253 83.4922C63.6311 84.9053 63.524 86.3398 63.4041 87.7958L61.4258 88.5923L63.4427 89.1447Z" fill="#FEFEFE"/>
<path d="M48.8903 105.422C48.7104 102.493 48.7789 101.191 49.0958 101.516L50.7016 100.244C49.9651 100.142 49.3056 100.095 48.7233 100.103L47.9011 95.8638C47.8154 97.2769 47.7127 98.7157 47.5928 100.18L45.6016 100.964L47.6313 101.516C48.188 101.628 48.6076 102.929 48.8903 105.422Z" fill="#FEFEFE"/>
<defs>
<radialGradient id="paint0_radial_1044_295088" cx="0" cy="0" r="1" gradientUnits="userSpaceOnUse" gradientTransform="translate(59.8938 87.7361) scale(39.5171 18.3309)">
<stop stop-opacity="0.498039"/>
<stop offset="1" stop-opacity="0"/>
</radialGradient>
<radialGradient id="paint1_radial_1044_295088" cx="0" cy="0" r="1" gradientUnits="userSpaceOnUse" gradientTransform="translate(59.8938 87.7361) scale(39.5171 18.3309)">
<stop stop-opacity="0.498039"/>
<stop offset="1" stop-opacity="0"/>
</radialGradient>
</defs>
</svg>
