<svg width="21" height="20" viewBox="0 0 21 20" fill="none" xmlns="http://www.w3.org/2000/svg">
<g clip-path="url(#clip0_836_14097)">
<path fill-rule="evenodd" clip-rule="evenodd" d="M6.23145 18.3334L8.83173 19.1072V18.0953L9.04399 17.8572H10.5298V19.0477V19.881H8.93786L6.97437 18.9286L6.23145 18.3334Z" fill="#CDBDB2"/>
<path fill-rule="evenodd" clip-rule="evenodd" d="M14.7217 18.3334L12.1745 19.1072V18.0953L11.9622 17.8572H10.4764V19.0477V19.881H12.0684L14.0318 18.9286L14.7217 18.3334Z" fill="#CDBDB2"/>
<path fill-rule="evenodd" clip-rule="evenodd" d="M9.04381 16.1312L8.83154 18.0954L9.09683 17.8573H11.8563L12.1747 18.0954L11.9624 16.1312L11.5379 15.8335L9.41522 15.8931L9.04381 16.1312Z" fill="#393939"/>
<path fill-rule="evenodd" clip-rule="evenodd" d="M7.61084 2.85718L8.88442 6.19051L9.4682 15.8929H11.5377L12.1745 6.19051L13.342 2.85718H7.61084Z" fill="#F89C35"/>
<path fill-rule="evenodd" clip-rule="evenodd" d="M2.03907 10.1788L0.553223 15.0002L4.26785 14.7621H6.65577V12.6788L6.54964 8.39307L6.01898 8.86926L2.03907 10.1788Z" fill="#F89D35"/>
<path fill-rule="evenodd" clip-rule="evenodd" d="M4.85156 10.7144L9.20298 10.8334L8.72543 13.3334L6.65581 12.7382L4.85156 10.7144Z" fill="#D87C30"/>
<path fill-rule="evenodd" clip-rule="evenodd" d="M4.85156 10.7739L6.65581 12.6787V14.5834L4.85156 10.7739Z" fill="#EA8D3A"/>
<path fill-rule="evenodd" clip-rule="evenodd" d="M6.65576 12.738L8.7784 13.3333L9.46831 15.8929L8.99067 16.1904L6.65576 14.6428V12.738Z" fill="#F89D35"/>
<path fill-rule="evenodd" clip-rule="evenodd" d="M6.65597 14.6428L6.23145 18.3333L9.04399 16.131L6.65597 14.6428Z" fill="#EB8F35"/>
<path fill-rule="evenodd" clip-rule="evenodd" d="M9.20302 10.8335L9.4684 15.8931L8.67236 13.3038L9.20302 10.8335Z" fill="#EA8E3A"/>
<path fill-rule="evenodd" clip-rule="evenodd" d="M4.21484 14.7024L6.65588 14.6428L6.23135 18.3333L4.21484 14.7024Z" fill="#D87C30"/>
<path fill-rule="evenodd" clip-rule="evenodd" d="M1.72068 19.9405L6.23124 18.3333L4.21473 14.7024L0.553223 15L1.72068 19.9405Z" fill="#EB8F35"/>
<path fill-rule="evenodd" clip-rule="evenodd" d="M8.88458 6.19043L6.60279 8.33329L4.85156 10.7142L9.20298 10.8929L8.88458 6.19043Z" fill="#E8821E"/>
<path fill-rule="evenodd" clip-rule="evenodd" d="M6.23145 18.3334L9.04399 16.1311L8.83173 18.0359V19.1073L6.92135 18.6906L6.23145 18.3334Z" fill="#DFCEC3"/>
<path fill-rule="evenodd" clip-rule="evenodd" d="M14.7217 18.3334L11.9622 16.1311L12.1745 18.0359V19.1073L14.0849 18.6906L14.7217 18.3334Z" fill="#DFCEC3"/>
<path fill-rule="evenodd" clip-rule="evenodd" d="M8.03537 11.9048L8.61914 13.2739L6.54952 12.6786L8.03537 11.9048Z" fill="#393939"/>
<path fill-rule="evenodd" clip-rule="evenodd" d="M1.66748 0.0595703L8.88446 6.19047L7.66399 2.85714L1.66748 0.0595703Z" fill="#E88F35"/>
<path fill-rule="evenodd" clip-rule="evenodd" d="M1.66759 0.0595703L0.712402 3.33338L1.24306 6.90481L0.8716 7.1429L1.40226 7.67862L0.977733 8.09529L1.56146 8.69052L1.19 9.04767L2.03905 10.2381L6.01901 8.86909C7.96476 7.12306 8.91995 6.23021 8.88457 6.19052C8.84919 6.15084 6.44353 4.10719 1.66759 0.0595703Z" fill="#8E5A30"/>
<path fill-rule="evenodd" clip-rule="evenodd" d="M18.9141 10.1788L20.3999 15.0002L16.6853 14.7621H14.2974V12.6788L14.4035 8.39307L14.9341 8.86926L18.9141 10.1788Z" fill="#F89D35"/>
<path fill-rule="evenodd" clip-rule="evenodd" d="M16.1016 10.7144L11.7501 10.8334L12.2277 13.3334L14.2973 12.7382L16.1016 10.7144Z" fill="#D87C30"/>
<path fill-rule="evenodd" clip-rule="evenodd" d="M16.1016 10.7739L14.2973 12.6787V14.5834L16.1016 10.7739Z" fill="#EA8D3A"/>
<path fill-rule="evenodd" clip-rule="evenodd" d="M14.2974 12.738L12.1747 13.3333L11.4848 15.8929L11.9625 16.1904L14.2974 14.6428V12.738Z" fill="#F89D35"/>
<path fill-rule="evenodd" clip-rule="evenodd" d="M14.2972 14.6428L14.7217 18.3333L11.9622 16.1904L14.2972 14.6428Z" fill="#EB8F35"/>
<path fill-rule="evenodd" clip-rule="evenodd" d="M11.7501 10.8335L11.4847 15.8931L12.2808 13.3038L11.7501 10.8335Z" fill="#EA8E3A"/>
<path fill-rule="evenodd" clip-rule="evenodd" d="M16.7383 14.7024L14.2972 14.6428L14.7218 18.3333L16.7383 14.7024Z" fill="#D87C30"/>
<path fill-rule="evenodd" clip-rule="evenodd" d="M19.2324 19.9405L14.7219 18.3333L16.7384 14.7024L20.3999 15L19.2324 19.9405Z" fill="#EB8F35"/>
<path fill-rule="evenodd" clip-rule="evenodd" d="M12.0685 6.19043L14.3503 8.33329L16.1016 10.7142L11.7501 10.8929L12.0685 6.19043Z" fill="#E8821E"/>
<path fill-rule="evenodd" clip-rule="evenodd" d="M12.9178 11.9048L12.334 13.2739L14.4036 12.6786L12.9178 11.9048Z" fill="#393939"/>
<path fill-rule="evenodd" clip-rule="evenodd" d="M19.2856 0.0595703L12.0687 6.19047L13.2891 2.85714L19.2856 0.0595703Z" fill="#E88F35"/>
<path fill-rule="evenodd" clip-rule="evenodd" d="M19.2855 0.0595703L20.2407 3.33338L19.7101 6.90481L20.0815 7.1429L19.5509 7.67862L19.9754 8.09529L19.3917 8.69052L19.7631 9.04767L18.9141 10.2381L14.9341 8.86909C12.9884 7.12306 12.0332 6.23021 12.0686 6.19052C12.1039 6.15084 14.5096 4.10719 19.2855 0.0595703Z" fill="#8E5A30"/>
</g>
<defs>
<clipPath id="clip0_836_14097">
<rect width="20" height="20" fill="white" transform="translate(0.5)"/>
</clipPath>
</defs>
</svg>
