<svg width="48" height="48" viewBox="0 0 48 48" fill="none" xmlns="http://www.w3.org/2000/svg">
<rect width="48" height="48" rx="24" fill="black"/>
<g clip-path="url(#clip0_216_7834)">
<path d="M35.5269 11.588L25.5332 19.3074L27.3813 14.7531L35.5269 11.588Z" fill="#E2761B" stroke="#E2761B" stroke-width="0.102428" stroke-linecap="round" stroke-linejoin="round"/>
<path d="M12.4609 11.588L22.3742 19.3805L20.6165 14.7531L12.4609 11.588ZM31.936 29.4815L29.2744 33.7224L34.9693 35.352L36.6064 29.5755L31.936 29.4815ZM11.4062 29.5755L13.0334 35.352L18.7283 33.7224L16.0666 29.4815L11.4062 29.5755Z" fill="#E4761B" stroke="#E4761B" stroke-width="0.102428" stroke-linecap="round" stroke-linejoin="round"/>
<path d="M18.4014 22.3158L16.8145 24.8123L22.4692 25.0734L22.2683 18.7538L18.4014 22.3158ZM29.5803 22.3158L25.6631 18.6807L25.5326 25.0734L31.1772 24.8123L29.5803 22.3158ZM18.7228 33.7225L22.1176 31.9989L19.1848 29.6173L18.7228 33.7225ZM25.864 31.9989L29.2689 33.7225L28.7968 29.6173L25.864 31.9989Z" fill="#E4761B" stroke="#E4761B" stroke-width="0.102428" stroke-linecap="round" stroke-linejoin="round"/>
<path d="M29.2707 33.7224L25.8658 31.9989L26.137 34.3074L26.1069 35.2788L29.2707 33.7224ZM18.7246 33.7224L21.8884 35.2788L21.8684 34.3074L22.1195 31.9989L18.7246 33.7224Z" fill="#D7C1B3" stroke="#D7C1B3" stroke-width="0.102428" stroke-linecap="round" stroke-linejoin="round"/>
<path d="M21.9379 28.0925L19.1055 27.2255L21.1042 26.2749L21.9379 28.0925ZM26.0458 28.0925L26.8795 26.2749L28.8882 27.2255L26.0458 28.0925Z" fill="#233447" stroke="#233447" stroke-width="0.102428" stroke-linecap="round" stroke-linejoin="round"/>
<path d="M18.728 33.7224L19.2101 29.4815L16.0664 29.5755L18.728 33.7224ZM28.792 29.4815L29.2741 33.7224L31.9358 29.5755L28.792 29.4815ZM31.1825 24.8123L25.5378 25.0734L26.0601 28.0922L26.8937 26.2747L28.9025 27.2252L31.1825 24.8123ZM19.1097 27.2252L21.1185 26.2747L21.9421 28.0922L22.4744 25.0734L16.8197 24.8123L19.1097 27.2252Z" fill="#CD6116" stroke="#CD6116" stroke-width="0.102428" stroke-linecap="round" stroke-linejoin="round"/>
<path d="M16.8145 24.8123L19.1848 29.6173L19.1045 27.2252L16.8145 24.8123ZM28.8973 27.2252L28.7968 29.6173L31.1772 24.8123L28.8973 27.2252ZM22.4692 25.0734L21.9368 28.0922L22.5997 31.6542L22.7504 26.9641L22.4692 25.0734ZM25.5326 25.0734L25.2614 26.9536L25.3819 31.6542L26.0548 28.0922L25.5326 25.0734Z" fill="#E4751F" stroke="#E4751F" stroke-width="0.102428" stroke-linecap="round" stroke-linejoin="round"/>
<path d="M26.0559 28.0923L25.3829 31.6543L25.865 31.999L28.7978 29.6174L28.8983 27.2253L26.0559 28.0923ZM19.1055 27.2253L19.1858 29.6174L22.1186 31.999L22.6007 31.6543L21.9379 28.0923L19.1055 27.2253Z" fill="#F6851B" stroke="#F6851B" stroke-width="0.102428" stroke-linecap="round" stroke-linejoin="round"/>
<path d="M26.1069 35.2788L26.137 34.3074L25.8859 34.0776H22.0994L21.8684 34.3074L21.8884 35.2788L18.7246 33.7224L19.8294 34.6625L22.0692 36.2816H25.916L28.1659 34.6625L29.2707 33.7224L26.1069 35.2788Z" fill="#C0AD9E" stroke="#C0AD9E" stroke-width="0.102428" stroke-linecap="round" stroke-linejoin="round"/>
<path d="M25.8686 31.9991L25.3865 31.6544H22.6043L22.1222 31.9991L21.8711 34.3076L22.1021 34.0778H25.8887L26.1398 34.3076L25.8686 31.9991Z" fill="#161616" stroke="#161616" stroke-width="0.102428" stroke-linecap="round" stroke-linejoin="round"/>
<path d="M35.9496 19.8088L36.8034 15.5469L35.5278 11.588L25.8656 19.0462L29.5818 22.3157L34.8348 23.9139L35.9999 22.5038L35.4977 22.1277L36.3012 21.3652L35.6785 20.8638L36.482 20.2266L35.9496 19.8088ZM11.1914 15.5469L12.0451 19.8088L11.5028 20.2266L12.3063 20.8638L11.6936 21.3652L12.4971 22.1277L11.9949 22.5038L13.15 23.9139L18.4029 22.3157L22.1192 19.0462L12.4569 11.588L11.1914 15.5469Z" fill="#763D16" stroke="#763D16" stroke-width="0.102428" stroke-linecap="round" stroke-linejoin="round"/>
<path d="M34.8387 23.9139L29.5857 22.3157L31.1827 24.8123L28.8023 29.6173L31.936 29.5755H36.6064L34.8387 23.9139ZM18.4069 22.3157L13.1539 23.9139L11.4062 29.5755H16.0666L19.1903 29.6173L16.8199 24.8123L18.4069 22.3157ZM25.538 25.0734L25.8695 19.0462L27.3962 14.7531H20.6165L22.1231 19.0462L22.4746 25.0734L22.5952 26.9745L22.6052 31.6542H25.3874L25.4075 26.9745L25.538 25.0734Z" fill="#F6851B" stroke="#F6851B" stroke-width="0.102428" stroke-linecap="round" stroke-linejoin="round"/>
</g>
<defs>
<clipPath id="clip0_216_7834">
<rect width="26" height="26" fill="white" transform="translate(11 11)"/>
</clipPath>
</defs>
</svg>
