<svg width="48" height="48" viewBox="0 0 48 48" fill="none" xmlns="http://www.w3.org/2000/svg">
<path d="M32 18.6666C32 16.5449 31.1571 14.5101 29.6569 13.0098C28.1566 11.5095 26.1217 10.6666 24 10.6666C21.8783 10.6666 19.8434 11.5095 18.3431 13.0098C16.8429 14.5101 16 16.5449 16 18.6666C16 28 12 30.6666 12 30.6666H36C36 30.6666 32 28 32 18.6666Z" stroke="black" stroke-width="2" stroke-linecap="round" stroke-linejoin="round"/>
<path d="M26.3067 36C26.0723 36.4041 25.7358 36.7395 25.331 36.9727C24.9262 37.2059 24.4672 37.3286 24 37.3286C23.5329 37.3286 23.0739 37.2059 22.6691 36.9727C22.2642 36.7395 21.9278 36.4041 21.6934 36" stroke="black" stroke-width="2" stroke-linecap="round" stroke-linejoin="round"/>
</svg>
