<svg width="48" height="48" viewBox="0 0 48 48" fill="none" xmlns="http://www.w3.org/2000/svg">
<rect width="48" height="48" rx="24" fill="black"/>
<g clip-path="url(#clip0_216_7837)">
<path d="M18.8052 35.0973C29.3717 35.0973 35.1502 26.3403 35.1502 18.7465C35.1502 18.498 35.1444 18.2507 35.1339 18.0033C36.2581 17.1897 37.2284 16.1823 37.9992 15.0283C36.9509 15.4933 35.8387 15.798 34.6999 15.9325C35.8996 15.2145 36.7976 14.0851 37.2269 12.7545C36.099 13.4235 34.8653 13.895 33.5787 14.1487C32.7133 13.2256 31.5675 12.6139 30.3189 12.4085C29.0704 12.2031 27.789 12.4155 26.6735 13.0128C25.558 13.61 24.6707 14.5587 24.1495 15.7116C23.6282 16.8646 23.5019 18.1573 23.7904 19.3893C21.5057 19.2751 19.2707 18.6815 17.2304 17.6472C15.1901 16.6128 13.3902 15.1609 11.9475 13.3857C11.4367 14.2626 11.1677 15.2594 11.1682 16.2743C11.1682 18.2682 12.1832 20.0275 13.7255 21.0577C12.8133 21.0298 11.9211 20.7834 11.1239 20.339L11.1227 20.4125C11.123 21.7389 11.5821 23.0244 12.422 24.051C13.2619 25.0776 14.431 25.7821 15.731 26.0452C14.885 26.2756 13.9975 26.3095 13.1364 26.1443C13.5032 27.286 14.2177 28.2845 15.18 29.0001C16.1422 29.7157 17.3041 30.1127 18.503 30.1355C16.4685 31.7328 13.9556 32.5991 11.3689 32.5948C10.9104 32.5948 10.453 32.5692 9.99805 32.5155C12.6245 34.2039 15.6828 35.1003 18.8052 35.0973Z" fill="white"/>
</g>
<defs>
<clipPath id="clip0_216_7837">
<rect width="28" height="23.3333" fill="white" transform="translate(10 12.3334)"/>
</clipPath>
</defs>
</svg>
