<svg width="20" height="20" viewBox="0 0 20 20" fill="none" xmlns="http://www.w3.org/2000/svg">
<path d="M17.1452 6.62578C17.1452 6.7944 17.1452 6.94897 17.1452 7.08948C17.1452 8.35412 16.9063 9.6047 16.4286 10.8412C15.9789 12.0497 15.3185 13.1597 14.4473 14.1714C13.6042 15.1832 12.4941 16.0122 11.1171 16.6586C9.76815 17.2768 8.27869 17.586 6.64871 17.586C4.59719 17.586 2.71429 17.038 1 15.9419C1.28103 15.97 1.57611 15.9841 1.88525 15.9841C3.59953 15.9841 5.13115 15.4642 6.48009 14.4244C5.6651 14.3963 4.93443 14.1433 4.28806 13.6656C3.66979 13.1878 3.24824 12.5836 3.02342 11.8529C3.24824 11.9092 3.47307 11.9373 3.69789 11.9373C4.03513 11.9373 4.35831 11.881 4.66745 11.7686C3.82436 11.6 3.12178 11.1785 2.55972 10.504C1.99766 9.82953 1.71663 9.05669 1.71663 8.1855C1.71663 8.1574 1.71663 8.14334 1.71663 8.14334C2.25059 8.42438 2.81265 8.57894 3.40281 8.60704C2.30679 7.84826 1.75878 6.8225 1.75878 5.52976C1.75878 4.85529 1.9274 4.23702 2.26464 3.67496C3.19204 4.79908 4.30211 5.69838 5.59485 6.37285C6.91569 7.04733 8.33489 7.42672 9.85246 7.51103C9.79625 7.23 9.76815 6.94897 9.76815 6.66794C9.76815 5.65623 10.1194 4.79908 10.822 4.09651C11.5527 3.36583 12.4239 3.00049 13.4356 3.00049C14.5035 3.00049 15.4028 3.37988 16.1335 4.13866C16.9766 3.97004 17.7635 3.67496 18.4941 3.25342C18.2131 4.12461 17.6651 4.79908 16.8501 5.27683C17.6089 5.19253 18.3255 5.00986 19 4.72883C18.4941 5.4595 17.8759 6.09182 17.1452 6.62578Z" fill="#6B7280"/>
</svg>
