<svg width="16" height="16" viewBox="0 0 16 16" fill="none" xmlns="http://www.w3.org/2000/svg">
<path d="M13.716 5.30062C13.716 5.43552 13.716 5.55917 13.716 5.67158C13.716 6.68329 13.5249 7.68376 13.1427 8.67299C12.7829 9.63973 12.2546 10.5278 11.5576 11.3372C10.8832 12.1465 9.99512 12.8098 8.89348 13.3269C7.81432 13.8215 6.62276 14.0688 5.31877 14.0688C3.67756 14.0688 2.17123 13.6304 0.799805 12.7536C1.02463 12.776 1.26069 12.7873 1.508 12.7873C2.87943 12.7873 4.10472 12.3713 5.18388 11.5395C4.53189 11.517 3.94735 11.3147 3.43025 10.9325C2.93564 10.5503 2.5984 10.0669 2.41854 9.48236C2.5984 9.52732 2.77826 9.5498 2.95812 9.5498C3.22791 9.5498 3.48646 9.50484 3.73376 9.41491C3.05929 9.28001 2.49723 8.94278 2.04758 8.4032C1.59793 7.86362 1.37311 7.24536 1.37311 6.5484C1.37311 6.52592 1.37311 6.51468 1.37311 6.51468C1.80027 6.7395 2.24992 6.86315 2.72205 6.88564C1.84524 6.27861 1.40683 5.458 1.40683 4.42381C1.40683 3.88423 1.54173 3.38962 1.81151 2.93997C2.55343 3.83927 3.44149 4.5587 4.47568 5.09828C5.53236 5.63786 6.66772 5.94137 7.88177 6.00882C7.83681 5.784 7.81432 5.55917 7.81432 5.33435C7.81432 4.52498 8.09535 3.83927 8.65742 3.27721C9.24196 2.69266 9.93891 2.40039 10.7483 2.40039C11.6026 2.40039 12.3221 2.7039 12.9066 3.31093C13.5811 3.17603 14.2106 2.93997 14.7951 2.60273C14.5703 3.29969 14.1319 3.83927 13.4799 4.22147C14.0869 4.15402 14.6602 4.00788 15.1998 3.78306C14.7951 4.3676 14.3005 4.87346 13.716 5.30062Z" fill="white"/>
</svg>
