<svg width="96" height="96" viewBox="0 0 96 96" fill="none" xmlns="http://www.w3.org/2000/svg">
<g clip-path="url(#clip0_2052_381617)">
<rect width="96" height="96" rx="8" fill="#F3F4F6"/>
<path d="M43.5 78H41.25H39V80.25H43.5V78ZM61.5 64.5V66.75H63.75V64.5H61.5ZM32.25 69V66.75H30V69H32.25ZM30 62.25H27.75V66.75H30V62.25Z" fill="#3A140D"/>
<path d="M41.25 78V75.75H39V78H41.25Z" fill="#865A38"/>
<path d="M43.5 78V75.75H41.25V78H43.5ZM59.25 60V62.25H61.5V64.5H63.75V60H59.25ZM45.75 71.25H39V73.5H45.75V71.25ZM32.25 66.75V64.5H34.5V62.25H30V66.75H32.25Z" fill="#643825"/>
<path d="M63.75 66.75H66V64.5H63.75V66.75ZM66 35.25H63.75V37.5V39.75H66V35.25ZM57 69H59.25H61.5H63.75V66.75H61.5H57V69ZM54.75 64.5V66.75H57V64.5H54.75ZM54.75 60H52.5V62.25V64.5H54.75V60ZM43.5 48.75H41.25V51H43.5H45.75V48.75H43.5ZM39 46.5V48.75H41.25V46.5H39ZM39 44.25H36.75V46.5H39V44.25ZM36.75 39.75H34.5V44.25H36.75V39.75ZM34.5 39.75V37.5V35.25H32.25V39.75H34.5ZM39 39.75V37.5H36.75V39.75H39ZM59.25 46.5H57V48.75H59.25V46.5ZM52.5 48.75V51H54.75H57V48.75H54.75H52.5ZM61.5 39.75V44.25H63.75V39.75H61.5ZM61.5 44.25H59.25V46.5H61.5V44.25ZM32.25 57.75H30V60H32.25V57.75ZM61.5 35.25H59.25V37.5V39.75H61.5V37.5V35.25ZM61.5 33V35.25H63.75V33H61.5Z" fill="#8B2D20"/>
<path d="M66 57.75V55.5H63.75V57.75H66ZM66 24V26.25V30.75V33H63.75V35.25H66H68.25V24H66ZM66 21.75V19.5H63.75V21.75H66ZM59.25 69H57V71.25H59.25V69ZM52.5 64.5H50.25V66.75V69H52.5H57V66.75H54.75V64.5H52.5ZM36.75 66.75H39H41.25V64.5V62.25H39V64.5H36.75V66.75ZM41.25 60V57.75H39V60H41.25ZM32.25 55.5V57.75H34.5V55.5H32.25ZM30 21.75H32.25V19.5H30V21.75ZM30 15H27.75V19.5H30V17.25V15ZM61.5 17.25V19.5H63.75V17.25H61.5ZM61.5 30.75V28.5H59.25V33H57V35.25H59.25H61.5V33H63.75V30.75H61.5ZM54.75 30.75V33H57V30.75H54.75ZM52.5 33V30.75H50.25V33H52.5ZM52.5 28.5V30.75H54.75V28.5H52.5ZM48 33V35.25H50.25V33H48ZM39 35.25V30.75H36.75V33H32.25H30H27.75V35.25H32.25H34.5H36.75V37.5H39H45.75H48V35.25H43.5H39ZM34.5 24V21.75H32.25V24H34.5ZM36.75 10.5V12.75V15H39V10.5H36.75Z" fill="#670A17"/>
<path d="M66 48.75H63.75V51H66V48.75ZM36.75 51V53.25V55.5H39V53.25H41.25V51V48.75H39V51H36.75ZM39 48.75V46.5H36.75H34.5V48.75H39ZM59.25 48.75H57V51V53.25H59.25V55.5H61.5V53.25V51H59.25V48.75ZM59.25 46.5V48.75H63.75V46.5H61.5H59.25ZM32.25 48.75V51H34.5V48.75H32.25Z" fill="#C3D1D7"/>
<path d="M66 48.75V46.5H63.75V48.75H66ZM61.5 53.25V55.5H63.75H66H68.25V48.75H66V51V53.25H61.5ZM61.5 57.75V55.5H59.25V57.75H61.5ZM39 55.5H36.75V57.75H39V55.5ZM36.75 44.25H34.5V46.5H36.75V44.25ZM61.5 44.25V46.5H63.75V44.25H61.5ZM32.25 48.75H30V55.5H32.25H34.5H36.75V53.25H32.25V51V48.75ZM32.25 46.5V48.75H34.5V46.5H32.25Z" fill="#576171"/>
<path d="M66 33V30.75H63.75V33H66ZM66 21.75H63.75V24H66V21.75ZM48 66.75V69H50.25V66.75H48ZM48 71.25V69H45.75V71.25H48ZM30 26.25H27.75V33H30V26.25ZM30 26.25H32.25V24H30V26.25ZM32.25 17.25H30V19.5H32.25V17.25ZM61.5 28.5V30.75H63.75V28.5H61.5ZM59.25 24V26.25V28.5H61.5V26.25V24H59.25ZM48 30.75H45.75V33H43.5V35.25H48V33H50.25V30.75H52.5V28.5V26.25V24H50.25V26.25H48V30.75ZM34.5 21.75V19.5H32.25V21.75H34.5ZM39 26.25H36.75V28.5H34.5V30.75H32.25V33H36.75V30.75H39V26.25ZM36.75 24V21.75H34.5V24H36.75ZM41.25 26.25V24H39V26.25H41.25ZM45.75 21.75V19.5H43.5V21.75H45.75ZM43.5 17.25H41.25V19.5H43.5V17.25ZM45.75 12.75H48V10.5H45.75V12.75ZM36.75 15V12.75H27.75V15H30H32.25H36.75ZM36.75 10.5H39H41.25H45.75V8.25H36.75V10.5ZM39 15V17.25H41.25V15H39ZM61.5 17.25V15H59.25V17.25H61.5ZM50.25 15V17.25H48V19.5H50.25V21.75H54.75V19.5H52.5V15H59.25V12.75H48V15H50.25Z" fill="#8B180D"/>
<path d="M61.5 35.25V37.5H63.75V35.25H61.5ZM54.75 60V64.5H57V60H54.75ZM61.5 66.75V64.5H57V66.75H61.5ZM52.5 53.25V51H45.75V53.25H52.5ZM52.5 44.25V42H45.75V44.25H41.25V46.5H43.5V48.75H45.75H52.5H54.75V46.5H57V44.25H52.5ZM32.25 66.75V69H36.75V66.75H32.25ZM36.75 35.25H34.5V37.5H36.75V35.25Z" fill="#EFA889"/>
<path d="M52.5 69V71.25H57V69H52.5ZM41.25 64.5V66.75H45.75V69H48V66.75H50.25V64.5H45.75H41.25ZM39 66.75V69H41.25V66.75H39ZM32.25 15H30V17.25H32.25V15ZM34.5 19.5V17.25H32.25V19.5H34.5ZM61.5 26.25V28.5H63.75V30.75H66V26.25H61.5ZM54.75 28.5V30.75H57V33H59.25V28.5H54.75ZM54.75 26.25H52.5V28.5H54.75V26.25ZM34.5 30.75V28.5H32.25V26.25H30V33H32.25V30.75H34.5ZM34.5 26.25V24H32.25V26.25H34.5ZM48 26.25H45.75V28.5H43.5V30.75H41.25V26.25H39V30.75V35.25H43.5V33H45.75V30.75H48V26.25ZM50.25 17.25V15H48H43.5V12.75H41.25V10.5H39V15H41.25V17.25H43.5V19.5H45.75V21.75H43.5V19.5H41.25H34.5V21.75H36.75H41.25V24V26.25H43.5V24H48V26.25H50.25V24H52.5H57V26.25H59.25V24V21.75H61.5V19.5V17.25H59.25V15H52.5V19.5H54.75V21.75H50.25V19.5H48V17.25H50.25Z" fill="#AB4413"/>
<path d="M52.5 69H50.25V75.75H52.5V78H59.25V75.75H61.5V69H59.25V71.25H57H52.5V69Z" fill="#230708"/>
<path d="M52.5 62.25H50.25V64.5H52.5V62.25ZM48 57.75V55.5H50.25H52.5V53.25H45.75V55.5H43.5V57.75V60H45.75V57.75H48ZM43.5 42H41.25V44.25H45.75V42H43.5ZM57 44.25V42H54.75H52.5V44.25H57ZM52.5 35.25H54.75V33H52.5V35.25Z" fill="#1B89A7"/>
<path d="M50.25 60V62.25H52.5V60H50.25ZM45.75 62.25V64.5H50.25V62.25H45.75ZM43.5 57.75H41.25V60H43.5V57.75ZM45.75 39.75H43.5V42H45.75V39.75ZM57 42V39.75H54.75V42H57ZM54.75 33V35.25H57V33H54.75ZM50.25 33V35.25H52.5V33H50.25Z" fill="#135884"/>
<path d="M59.25 62.25V60H63.75V64.5H66V57.75H63.75H61.5H59.25H54.75V55.5H52.5H50.25V57.75H52.5V60H54.75H57V64.5H61.5V62.25H59.25Z" fill="#320F0B"/>
<path d="M59.25 57.75V55.5H54.75V57.75H59.25ZM43.5 57.75V55.5H39V57.75H41.25H43.5ZM45.75 53.25V51H43.5V55.5H45.75V53.25ZM54.75 51H52.5V53.25V55.5H54.75V51Z" fill="#343A4A"/>
<path d="M61.5 55.5V57.75H63.75V55.5H61.5ZM39 62.25H36.75V64.5H39V62.25ZM39 44.25V46.5H41.25V44.25H39ZM43.5 48.75V46.5H41.25V48.75H43.5ZM39 44.25V42V39.75H36.75V44.25H39ZM36.75 37.5H34.5V39.75H36.75V37.5ZM54.75 46.5V48.75H57V46.5H54.75ZM52.5 51V48.75H45.75V51H52.5ZM52.5 42V39.75V37.5H48H45.75V39.75V42H52.5ZM59.25 44.25H57V46.5H59.25V44.25ZM59.25 42V44.25H61.5V39.75H59.25V42ZM61.5 37.5V39.75H63.75V37.5H61.5ZM32.25 57.75V60H39V57.75H36.75V55.5H34.5V57.75H32.25Z" fill="#D27C60"/>
<path d="M48 69V71.25V75.75H45.75V78H43.5V80.25H39V78H36.75V71.25H32.25V73.5H30V80.25H32.25V82.5H34.5V84.75H39V87H59.25V84.75H63.75V82.5H66V80.25H68.25V73.5H66V71.25H63.75V69H61.5V75.75H59.25V78H52.5V75.75H50.25V69H48Z" fill="#3C4044"/>
<path d="M39 69V71.25H45.75V69V66.75H41.25V69H39ZM59.25 26.25H57V24H52.5V26.25H54.75V28.5H59.25V26.25ZM61.5 19.5V21.75H59.25V24H61.5V26.25H66V24H63.75V21.75V19.5H61.5ZM41.25 24V21.75H36.75V24H34.5V26.25H32.25V28.5H34.5H36.75V26.25H39V24H41.25ZM43.5 26.25H41.25V30.75H43.5V28.5H45.75V26.25H48V24H43.5V26.25ZM48 12.75H45.75V10.5H41.25V12.75H43.5V15H48V12.75ZM39 17.25V15H36.75H32.25V17.25H34.5V19.5H41.25V17.25H39Z" fill="#CB722B"/>
<path d="M39 71.25H36.75V78H39V75.75H41.25H43.5V78H45.75V75.75H48V71.25H45.75V73.5H39V71.25Z" fill="#34100B"/>
<path d="M48 57.75V60H50.25H52.5V57.75H50.25H48Z" fill="#B89A23"/>
<path d="M48 55.5V57.75H50.25V55.5H48Z" fill="#D5CD4F"/>
<path d="M43.5 51H41.25V53.25H39V55.5H43.5V51ZM59.25 53.25H57V51H54.75V55.5H59.25V53.25Z" fill="#84929E"/>
<path d="M41.25 42V39.75H39V42H41.25ZM59.25 39.75H57V42H59.25V39.75Z" fill="#C2B2B2"/>
<path d="M41.25 44.25V42H39V44.25H41.25ZM61.5 51V53.25H66V51H63.75V48.75H59.25V51H61.5ZM57 42V44.25H59.25V42H57ZM32.25 51V53.25H36.75V51H39V48.75H34.5V51H32.25Z" fill="white"/>
<path d="M43.5 39.75H41.25V42H43.5V39.75ZM54.75 42V39.75H52.5V42H54.75Z" fill="#33BBC6"/>
<path d="M45.75 39.75V37.5H39V39.75H41.25H43.5H45.75ZM59.25 39.75V37.5H52.5V39.75H54.75H57H59.25Z" fill="#0F1011"/>
<path d="M32.25 69V71.25H36.75H39V69V66.75H36.75V69H32.25Z" fill="#8B271B"/>
<path d="M30 60V62.25H34.5V64.5H32.25V66.75H36.75V64.5V62.25H39H41.25V64.5H45.75V62.25H50.25V60H48V57.75H45.75V60H43.5H41.25H39H32.25H30Z" fill="#2F0E0B"/>
<path d="M54.75 35.25H52.5H50.25H48V37.5H52.5H59.25V35.25H57H54.75ZM54.75 30.75H52.5V33H54.75V30.75Z" fill="#081C3E"/>
</g>
<rect x="0.5" y="0.5" width="95" height="95" rx="7.5" stroke="#E5E7EB"/>
<defs>
<clipPath id="clip0_2052_381617">
<rect width="96" height="96" rx="8" fill="white"/>
</clipPath>
</defs>
</svg>
