<svg width="96" height="96" viewBox="0 0 96 96" fill="none" xmlns="http://www.w3.org/2000/svg">
<g clip-path="url(#clip0_2052_370273)">
<rect y="0.00012207" width="96" height="96" rx="8" fill="#F3F4F6"/>
<path d="M32.2506 67.4912H30.0003V69.7408H32.2506V67.4912ZM36.7512 71.9905V69.7408H32.2506V71.9905H36.7512ZM39.0015 69.7408V67.4912H36.7512V69.7408H39.0015ZM57.004 65.2415H54.7537V67.4912H57.004V65.2415ZM57.004 62.9919V65.2415H59.2543V62.9919H57.004ZM52.5034 60.7422V65.2415H54.7537V60.7422H52.5034ZM57.004 51.7436V49.4939H54.7537H52.5034V51.7436H57.004ZM36.7512 65.2415H34.5009V67.4912H36.7512V65.2415ZM45.7525 51.7436V49.4939H43.5022H41.2519V51.7436H45.7525ZM41.2519 47.2443H39.0015V49.4939H41.2519V47.2443ZM36.7512 44.9946V47.2443H39.0015V44.9946H36.7512ZM36.7512 40.4953H34.5009V44.9946H36.7512V40.4953ZM39.0015 38.2457H36.7512V40.4953H39.0015V38.2457ZM59.2543 47.2443H57.004V49.4939H59.2543V47.2443ZM59.2543 44.9946V47.2443H61.5046V44.9946H59.2543ZM59.2543 35.996V38.2457V40.4953H61.5046V38.2457V35.996H59.2543ZM30.0003 62.9919H27.75V67.4912H30.0003V62.9919ZM30.0003 62.9919H32.2506V60.7422V58.4926H30.0003V62.9919ZM32.2506 35.996V40.4953H34.5009V38.2457V35.996H32.2506ZM63.7549 69.7408V67.4912H57.004V69.7408H61.5046H63.7549ZM66.0052 58.4926H63.7549V67.4912H66.0052V58.4926ZM63.7549 44.9946V40.4953H61.5046V44.9946H63.7549ZM66.0052 35.996H63.7549V38.2457V40.4953H66.0052V35.996ZM63.7549 35.996V33.7463H61.5046V35.996H63.7549Z" fill="#8B2D20"/>
<path d="M41.2515 78.7397V76.4897H39.0015V78.7397H41.2515Z" fill="#3C3F41"/>
<path d="M39.0015 78.7394V80.9891H43.5021V78.7394H41.2518H39.0015ZM48.0028 71.9905H45.7525V74.2401H41.2518H39.0015H36.7512V78.7394H39.0015V76.4898H41.2518H43.5021V78.7394H45.7525V76.4898H48.0028V71.9905ZM54.7537 76.4898V74.2401H52.5034V71.9905H50.2531V76.4898H52.5034V78.7394H59.2543V76.4898H54.7537ZM59.2543 74.2401V76.4898H61.5046V71.9905H59.2543V74.2401ZM41.2518 40.4953H43.5021H45.7525V38.2456H39.0015V40.4953H41.2518ZM59.2543 38.2456H57.004H52.5034V40.4953H54.7537H57.004H59.2543V38.2456Z" fill="#0F1011"/>
<path d="M39.0015 71.9903V69.7406H36.7512V71.9903V74.2399H39.0015V71.9903ZM45.7525 71.9903H48.0028V69.7406H45.7525V71.9903ZM50.2531 69.7406V67.491H48.0028V69.7406H50.2531Z" fill="#0E335E"/>
<path d="M41.2518 74.24V71.9903H39.0015V74.24H41.2518ZM41.2518 69.7407V67.491H39.0015V69.7407H41.2518ZM59.2542 71.9903H57.0039V69.7407H52.5033V71.9903V74.24H54.7536H59.2542V71.9903ZM43.5021 62.9917H41.2518V67.491H45.7524V69.7407H48.0027V67.491H50.253V65.2413H43.5021V62.9917ZM45.7524 42.7448V40.4951H43.5021V42.7448H45.7524ZM54.7536 40.4951V42.7448H57.0039V40.4951H54.7536Z" fill="#135884"/>
<path d="M41.252 71.9904V74.2401H45.7526V71.9904H41.252ZM36.7514 62.9918V65.2414H39.0017V62.9918H36.7514ZM43.5023 56.2428H41.252V60.7421H39.0017V62.9918H41.252H43.5023V65.2414H50.2532H52.5035V60.7421H54.7538V58.4925H43.5023V56.2428ZM43.5023 47.2442H41.252V49.4938H43.5023V47.2442ZM39.0017 44.9945V47.2442H41.252V44.9945H39.0017ZM39.0017 42.7449V40.4952H36.7514V44.9945H39.0017V42.7449ZM36.7514 38.2456H34.501V40.4952H36.7514V38.2456ZM57.0041 47.2442H54.7538V49.4938H57.0041V47.2442ZM59.2544 47.2442V44.9945H57.0041V47.2442H59.2544ZM59.2544 40.4952V42.7449V44.9945H61.5047V40.4952H59.2544ZM50.2532 33.7462V35.9959H52.5035V33.7462H50.2532ZM50.2532 38.2456V35.9959H48.0029V38.2456H45.7526V40.4952V42.7449H52.5035V40.4952V38.2456H50.2532ZM54.7538 31.4966H52.5035V33.7462H54.7538V31.4966ZM57.0041 35.9959V33.7462H54.7538V35.9959H57.0041ZM59.2544 35.9959H57.0041V38.2456H59.2544V35.9959ZM32.2507 58.4925V60.7421H34.501V62.9918H36.7514V60.7421H39.0017V56.2428H36.7514V53.9931H34.501V58.4925H32.2507ZM63.7551 58.4925V51.7435H61.5047V53.9931H57.0041V51.7435H52.5035V49.4938H45.7526V51.7435V53.9931H52.5035V56.2428H54.7538V58.4925H57.0041V56.2428H59.2544V58.4925H57.0041V60.7421H61.5047V58.4925H63.7551ZM63.7551 40.4952V38.2456H61.5047V40.4952H63.7551Z" fill="#D27C60"/>
<path d="M43.5023 76.4896H41.252V78.7393H43.5023V76.4896ZM59.2544 76.4896V74.24H54.7538V76.4896H59.2544Z" fill="#232527"/>
<path d="M45.7524 71.9904V69.7408V67.4911H41.2518V69.7408H39.0015V71.9904H41.2518H45.7524ZM43.5021 42.7449H41.2518V44.9945H45.7524V42.7449H43.5021ZM52.5033 42.7449V44.9945H57.0039V42.7449H54.7536H52.5033Z" fill="#1B89A7"/>
<path d="M61.5047 71.9904V69.7408H57.0041V71.9904H59.2544H61.5047ZM52.5035 65.2415H50.2532V67.4911V69.7408V71.9904H52.5035V69.7408H57.0041V67.4911H54.7538V65.2415H52.5035Z" fill="#081C3E"/>
<path d="M54.7538 58.4924V60.7421H57.0041V58.4924H54.7538ZM59.2544 56.2428H57.0041V58.4924H59.2544V56.2428ZM41.252 56.2428H39.0017V60.7421H41.252V56.2428ZM36.7513 62.9917H39.0017V60.7421H36.7513V62.9917ZM39.0017 62.9917V65.2414H36.7513V67.4911H39.0017H41.252V62.9917H39.0017ZM36.7513 49.4938H34.501V51.7435H36.7513V49.4938ZM41.252 53.9931V56.2428H43.5023V53.9931H41.252ZM39.0017 47.2441H36.7513V49.4938H39.0017V47.2441ZM32.2507 51.7435V58.4924H34.501V53.9931V51.7435H32.2507ZM63.7551 49.4938V47.2441H61.5047V49.4938H63.7551ZM63.7551 51.7435V58.4924H66.0054V49.4938H63.7551V51.7435Z" fill="#670A17"/>
<path d="M41.2518 51.7436V49.4939H39.0015H36.7512V51.7436H34.5009V53.9932H36.7512V56.2429H39.0015H41.2518V53.9932H43.5021V56.2429V58.4926H54.7536V56.2429H52.5033V53.9932H45.7524V51.7436H41.2518ZM34.5009 38.2457H36.7512V35.996H34.5009V38.2457ZM52.5033 44.9946V42.745H45.7524V44.9946H41.2518V47.2443H43.5021V49.4939H45.7524H52.5033H54.7536V47.2443H57.004V44.9946H52.5033ZM57.004 38.2457V35.996H54.7536V33.7463H52.5033V35.996H50.253V38.2457H52.5033H57.004ZM32.2506 62.9919H30.0002V67.4912H32.2506V69.7408H36.7512V67.4912H34.5009V65.2415H36.7512V62.9919H34.5009V60.7422H32.2506V62.9919ZM63.7549 67.4912V58.4926H61.5046V60.7422H57.004H54.7536V65.2415H57.004V62.9919H59.2543V65.2415H57.004V67.4912H63.7549ZM63.7549 51.7436V49.4939H61.5046V47.2443H59.2543V49.4939H57.004V51.7436V53.9932H61.5046V51.7436H63.7549ZM63.7549 38.2457V35.996H61.5046V38.2457H63.7549Z" fill="#EFA889"/>
<path d="M41.252 42.7448H43.5023V40.4951H41.252V42.7448ZM54.7538 42.7448V40.4951H52.5035V42.7448H54.7538Z" fill="#33BBC6"/>
<path d="M39.0015 42.7449V44.9945H41.2518V42.7449H39.0015ZM59.2542 42.7449H57.0039V44.9945H59.2542V42.7449Z" fill="white"/>
<path d="M39.0015 40.4951V42.7448H41.2518V40.4951H39.0015ZM59.2542 40.4951H57.0039V42.7448H59.2542V40.4951Z" fill="#C2B2B2"/>
<path d="M50.2531 35.996V33.7463H48.0028V35.996H50.2531ZM52.5034 33.7463V31.4967H50.2531V33.7463H52.5034ZM57.004 33.7463V31.4967H54.7537V33.7463H57.004ZM27.75 33.7463V35.996H32.2506H34.5009H36.7512V38.2456H39.0015H45.7525H48.0028V35.996H43.5022H39.0015V31.4967H36.7512V33.7463H32.2506H30.0003H27.75ZM32.2506 20.2484H30.0003V22.498H32.2506V20.2484ZM30.0003 20.2484V17.9987V15.7491H27.75V20.2484H30.0003ZM54.7537 29.247H52.5034V31.4967H54.7537V29.247ZM34.5009 24.7477V22.498H32.2506V24.7477H34.5009ZM39.0015 11.2498H36.7512V13.4994V15.7491H39.0015V11.2498ZM63.7549 33.7463V31.4967H61.5046V29.247H59.2543V33.7463H57.004V35.996H59.2543H61.5046V33.7463H63.7549ZM66.0053 24.7477V26.9974V31.4967V33.7463H63.7549V35.996H66.0053H68.2556V24.7477H66.0053ZM66.0053 20.2484H63.7549V22.498H66.0053V20.2484ZM63.7549 20.2484V17.9987H61.5046V20.2484H63.7549Z" fill="#6A1E06"/>
<path d="M32.2506 26.9974H30.0002V33.7463H32.2506V31.4967H34.5009V29.247H32.2506V26.9974ZM32.2506 15.7491H30.0002V17.9987H32.2506V15.7491ZM59.2543 29.247H54.7536V31.4967H57.004V33.7463H59.2543V29.247ZM52.5033 26.9974V29.247H54.7536V26.9974H52.5033ZM48.0027 26.9974H45.7524V29.247H43.5021V31.4967H41.2518V26.9974H39.0015V31.4967V35.996H43.5021V33.7463H45.7524V31.4967H48.0027V26.9974ZM34.5009 26.9974V24.7477H32.2506V26.9974H34.5009ZM34.5009 20.2484V17.9987H32.2506V20.2484H34.5009ZM41.2518 11.2498H39.0015V15.7491H41.2518V17.9987H43.5021V20.2484H45.7524V22.498H43.5021V20.2484H41.2518H34.5009V22.498H36.7512H41.2518V24.7477V26.9974H43.5021V24.7477H48.0027V26.9974H50.253V24.7477H52.5033H57.004V26.9974H59.2543V24.7477V22.498H61.5046V20.2484V17.9987H59.2543V15.7491H52.5033V20.2484H54.7536V22.498H50.253V20.2484H48.0027V17.9987H50.253V15.7491H48.0027H43.5021V13.4994H41.2518V11.2498ZM63.7549 31.4967H66.0052V26.9974H61.5046V29.247H63.7549V31.4967Z" fill="#B0800D"/>
<path d="M30.0003 26.9973H27.75V33.7462H30.0003V26.9973ZM32.2506 26.9973V24.7476H30.0003V26.9973H32.2506ZM32.2506 20.2483V17.9986H30.0003V20.2483H32.2506ZM59.2543 26.9973V29.2469H61.5046V26.9973V24.7476H59.2543V26.9973ZM52.5034 26.9973V24.7476H50.2531V26.9973H48.0028V31.4966H45.7525V33.7462H43.5022V35.9959H48.0028V33.7462H50.2531V31.4966H52.5034V29.2469V26.9973ZM61.5046 17.9986V15.749H59.2543V17.9986H61.5046ZM34.5009 22.4979V20.2483H32.2506V22.4979H34.5009ZM39.0015 24.7476V26.9973H41.2519V24.7476H39.0015ZM36.7512 26.9973V29.2469H34.5009V31.4966H32.2506V33.7462H36.7512V31.4966H39.0015V26.9973H36.7512ZM36.7512 22.4979H34.5009V24.7476H36.7512V22.4979ZM36.7512 15.749V13.4993H27.75V15.749H30.0003H32.2506H36.7512ZM41.2519 17.9986V15.749H39.0015V17.9986H41.2519ZM45.7525 20.2483H43.5022V22.4979H45.7525V20.2483ZM41.2519 17.9986V20.2483H43.5022V17.9986H41.2519ZM48.0028 13.4993V15.749H50.2531V17.9986H48.0028V20.2483H50.2531V22.4979H54.7537V20.2483H52.5034V15.749H59.2543V13.4993H48.0028ZM48.0028 11.2497H45.7525V13.4993H48.0028V11.2497ZM36.7512 9V11.2497H39.0015H41.2519H45.7525V9H36.7512ZM63.7549 31.4966V29.2469H61.5046V31.4966H63.7549ZM63.7549 31.4966V33.7462H66.0052V31.4966H63.7549ZM63.7549 24.7476H66.0052V22.4979H63.7549V24.7476Z" fill="#8F4708"/>
<path d="M52.5035 24.7477V26.9974H54.7538V29.247H59.2544V26.9974H57.0041V24.7477H52.5035ZM43.5023 26.9974H41.252V31.4967H43.5023V29.247H45.7526V26.9974H48.0029V24.7477H43.5023V26.9974ZM36.7513 22.498V24.7477H34.501V26.9974H32.2507V29.247H34.501H36.7513V26.9974H39.0017V24.7477H41.252V22.498H36.7513ZM41.252 20.2484V17.9987H39.0017V15.7491H36.7513H32.2507V17.9987H34.501V20.2484H41.252ZM45.7526 11.2498H41.252V13.4994H43.5023V15.7491H48.0029V13.4994H45.7526V11.2498ZM66.0054 26.9974V24.7477H63.7551V22.498V20.2484H61.5047V22.498H59.2544V24.7477H61.5047V26.9974H66.0054Z" fill="#D0B225"/>
<path d="M68.2555 74.24H66.0052V71.9904H63.7549V69.7407H61.5046V71.9904V76.4897H59.2543V78.7393H52.5033V76.4897H50.253V71.9904V69.7407H48.0027V71.9904V76.4897H45.7524V78.7393H43.5021V80.989H39.0015V78.7393H36.7512V74.24V71.9904H32.2506V74.24H30.0002V80.989H32.2506V83.2387H34.5009V85.4883H39.0015V87.738H59.2543V85.4883H63.7549V83.2387H66.0052V80.989H68.2555V74.24Z" fill="#3C4044"/>
</g>
<rect x="0.5" y="0.500122" width="95" height="95" rx="7.5" stroke="#E5E7EB"/>
<defs>
<clipPath id="clip0_2052_370273">
<rect y="0.00012207" width="96" height="96" rx="8" fill="white"/>
</clipPath>
</defs>
</svg>
