<svg width="96" height="96" viewBox="0 0 96 96" fill="none" xmlns="http://www.w3.org/2000/svg">
<g clip-path="url(#clip0_2052_381614)">
<rect width="96" height="96" rx="8" fill="#F3F4F6"/>
<path d="M69 57.75V55.5H66.75V57.75H69Z" fill="#1B34AC"/>
<path d="M71.25 51H69V55.5V57.75H66.75V64.5H69V60H71.25V55.5H73.5V48.75H71.25V51Z" fill="#091765"/>
<path d="M69 51H71.25V48.75H69V51Z" fill="#182AAB"/>
<path d="M64.5 51H66.75V48.75H64.5V51ZM37.5 46.5H35.25V48.75H39.75V46.5H37.5ZM42 51V48.75H39.75V51H37.5V53.25V55.5H39.75V53.25H42V51ZM62.25 46.5H60V48.75H64.5V46.5H62.25ZM60 51V48.75H57.75V51V53.25H60V55.5H62.25V53.25V51H60ZM33 48.75V51H35.25V48.75H33Z" fill="#C6FAA0"/>
<path d="M66.75 46.5H64.5V48.75H66.75V46.5ZM39.75 57.75V55.5H37.5V57.75H39.75ZM35.25 44.25V46.5H37.5V44.25H35.25ZM60 57.75H62.25V55.5H60V57.75ZM62.25 53.25V55.5H64.5H66.75H69V51V48.75H66.75V51V53.25H62.25ZM62.25 44.25V46.5H64.5V44.25H62.25ZM33 46.5V48.75H35.25V46.5H33ZM33 51V48.75H30.75V55.5H33H35.25H37.5V53.25H33V51Z" fill="#57BE0A"/>
<path d="M71.25 44.25H69V48.75H71.25V44.25ZM69 42H66.75V44.25H69V42ZM66.75 42V39.75H64.5V42H66.75Z" fill="#08165F"/>
<path d="M66.75 42H64.5V44.25V46.5H66.75V48.75H69V44.25H66.75V42Z" fill="#2037AF"/>
<path d="M66.75 35.25H64.5V37.5V39.75H66.75V35.25ZM62.25 42V44.25H64.5V42H62.25ZM39.75 46.5V44.25H37.5V46.5H39.75ZM42 48.75V46.5H39.75V48.75H42ZM44.25 48.75H42V51H44.25H46.5V48.75H44.25ZM57.75 51V48.75H55.5H53.25V51H55.5H57.75ZM60 46.5H57.75V48.75H60V46.5ZM62.25 46.5V44.25H60V46.5H62.25Z" fill="#8B2D20"/>
<path d="M66.75 30.75H64.5V33H66.75V30.75ZM66.75 24V21.75H64.5V24H66.75ZM28.5 26.25V28.5V33H30.75V26.25H28.5ZM33 24H30.75V26.25H33V24ZM33 19.5V17.25H30.75V19.5H33ZM62.25 28.5V30.75H64.5V28.5H62.25ZM35.25 28.5V30.75H33V33H37.5V30.75H39.75V26.25H37.5V28.5H35.25ZM42 24H39.75V26.25H42V24ZM39.75 17.25H42V15H39.75V17.25ZM46.5 21.75V19.5H44.25V21.75H46.5ZM42 19.5H44.25V17.25H42V19.5ZM35.25 24H37.5V21.75H35.25V24ZM35.25 21.75V19.5H33V21.75H35.25ZM37.5 15V12.75H28.5V15H30.75H33H37.5ZM48.75 10.5H46.5V12.75H48.75V10.5ZM46.5 10.5V8.25H37.5V10.5H39.75H42H46.5ZM62.25 24H60V26.25V28.5H62.25V26.25V24ZM53.25 24H51V26.25H48.75V30.75H46.5V33H44.25V35.25H48.75V33H51V30.75H53.25V28.5V26.25V24ZM62.25 15H60V17.25H62.25V15ZM60 15V12.75H48.75V15H51V17.25H48.75V19.5H51V21.75H55.5V19.5H53.25V15H60Z" fill="#1A5F7E"/>
<path d="M69 24H66.75V26.25V30.75V33H64.5V35.25H66.75H69V24ZM66.75 19.5H64.5V21.75H66.75V19.5ZM33 33H30.75H28.5V35.25H33V33ZM33 19.5H30.75V21.75H33V19.5ZM30.75 15H28.5V19.5H30.75V17.25V15ZM51 30.75V33H53.25V30.75H51ZM55.5 28.5H53.25V30.75H55.5V28.5ZM62.25 28.5H60V33H64.5V30.75H62.25V28.5ZM60 33H57.75V35.25H60V33ZM57.75 33V30.75H55.5V33H57.75ZM48.75 33V35.25H51V33H48.75ZM48.75 37.5V35.25H44.25H42V37.5H48.75ZM39.75 30.75H37.5V33V35.25H39.75V30.75ZM35.25 24V21.75H33V24H35.25ZM37.5 15H39.75V10.5H37.5V12.75V15ZM62.25 17.25V19.5H64.5V17.25H62.25Z" fill="#13465D"/>
<path d="M53.25 66.75V69V71.25H60V69H55.5V66.75H53.25ZM57.75 66.75V64.5H55.5V66.75H57.75ZM62.25 66.75V69H64.5V66.75H62.25ZM37.5 66.75V69H39.75V66.75H37.5ZM39.75 57.75V60H37.5V62.25H39.75V64.5V66.75H42V64.5V60V57.75H39.75ZM62.25 57.75V60H64.5V66.75H66.75V64.5V57.75V55.5H64.5V57.75H62.25ZM55.5 60H53.25H51V62.25V64.5V66.75H53.25V62.25H55.5V60ZM33 69V71.25H37.5V69H33ZM33 66.75H30.75V69H33V66.75ZM30.75 64.5V62.25H28.5V66.75H30.75V64.5ZM33 55.5V57.75H35.25V55.5H33ZM33 60V57.75H30.75V62.25H33V60Z" fill="#5B2534"/>
<path d="M51 66.75V69H53.25V66.75H51Z" fill="#67550A"/>
<path d="M62.25 62.25V66.75H64.5V60H62.25V62.25ZM62.25 69V66.75H57.75H55.5V69H60H62.25ZM33 66.75V69H37.5V66.75H35.25H33ZM33 64.5H30.75V66.75H33V64.5Z" fill="#C33259"/>
<path d="M62.25 69H60V71.25H53.25V69H51V75.75H53.25V78H60V75.75H62.25V69Z" fill="#230708"/>
<path d="M57.75 66.75H62.25V62.25H55.5H53.25V66.75H55.5V64.5H57.75V66.75ZM30.75 62.25V64.5H33V66.75H35.25V64.5H39.75V62.25H37.5H35.25V60H33V62.25H30.75Z" fill="#FF53A5"/>
<path d="M44.25 78H42H39.75V80.25H44.25V78Z" fill="#3A140D"/>
<path d="M42 78H44.25V75.75H42V78ZM39.75 71.25V73.5H46.5V71.25H39.75Z" fill="#643825"/>
<path d="M39.75 75.75V78H42V75.75H39.75Z" fill="#865A38"/>
<path d="M37.5 78H39.75V75.75H42H44.25V78H46.5V75.75H48.75V71.25H46.5V73.5H39.75V71.25H37.5V78Z" fill="#34100B"/>
<path d="M39.75 69H37.5V71.25H39.75V69Z" fill="#868B0D"/>
<path d="M35.25 66.75H37.5H39.75V64.5H35.25V66.75ZM62.25 55.5V57.75H64.5V55.5H62.25ZM57.75 57.75V60H55.5V62.25H62.25V60V57.75H60H57.75ZM33 57.75V60H35.25V62.25H37.5V60H39.75V57.75H37.5V55.5H35.25V57.75H33Z" fill="#934B5E"/>
<path d="M42 64.5V66.75H46.5V71.25H48.75V69H51V66.75V64.5H46.5H42Z" fill="#82A111"/>
<path d="M42 66.75V69H39.75V71.25H46.5V66.75H42Z" fill="#8CCB2B"/>
<path d="M42 69V66.75H39.75V69H42Z" fill="#81AB13"/>
<path d="M46.5 62.25V64.5H51V62.25H46.5ZM44.25 60V57.75H42V60H44.25ZM55.5 35.25H57.75V33H55.5V35.25ZM53.25 33H51V35.25H53.25V33Z" fill="#5E8413"/>
<path d="M44.25 60H42V64.5H46.5V62.25H51V60H48.75V57.75H46.5V60H44.25Z" fill="#2B0B0A"/>
<path d="M39.75 55.5V57.75H42H44.25V55.5H39.75ZM46.5 51H44.25V55.5H46.5V53.25V51ZM55.5 55.5V57.75H57.75H60V55.5H55.5ZM55.5 51H53.25V53.25V55.5H55.5V51Z" fill="#387807"/>
<path d="M44.25 51H42V53.25H39.75V55.5H44.25V51ZM60 55.5V53.25H57.75V51H55.5V55.5H60Z" fill="#83F42E"/>
<path d="M44.25 46.5H42V48.75H44.25V46.5ZM42 46.5V44.25H39.75V46.5H42ZM53.25 51V48.75H46.5V51H53.25ZM57.75 48.75V46.5H55.5V48.75H57.75ZM60 44.25H57.75V46.5H60V44.25Z" fill="#D27C60"/>
<path d="M53.25 53.25V51H46.5V53.25H53.25ZM57.75 46.5V44.25H53.25H46.5H42V46.5H44.25V48.75H46.5H53.25H55.5V46.5H57.75Z" fill="#EFA889"/>
<path d="M51 57.75V55.5H48.75V57.75H51Z" fill="#D5CD4F"/>
<path d="M53.25 60V57.75H51H48.75V60H51H53.25Z" fill="#B89A23"/>
<path d="M53.25 55.5V53.25H46.5V55.5H44.25V57.75V60H46.5V57.75H48.75V55.5H51H53.25ZM55.5 33H53.25V35.25H55.5V33Z" fill="#8FA71B"/>
<path d="M55.5 55.5H53.25H51V57.75H53.25V60H55.5H57.75V57.75H55.5V55.5Z" fill="#200508"/>
<path d="M60 48.75V51H62.25V53.25H66.75V51H64.5V48.75H60ZM33 51V53.25H37.5V51H39.75V48.75H35.25V51H33Z" fill="white"/>
<path d="M33 73.5H30.75V80.25H33V82.5H35.25V84.75H39.75V87H60V84.75H64.5V82.5H66.75V80.25H69V73.5H66.75V71.25H64.5V69H62.25V75.75H60V78H53.25V75.75H51V69H48.75V71.25V75.75H46.5V78H44.25V80.25H39.75V78H37.5V71.25H33V73.5Z" fill="#3C4044"/>
<path d="M28.5 28.5V26.25H26.25V28.5H28.5ZM26.25 24H24H21.75V26.25H26.25V24Z" fill="#3E1E05"/>
<path d="M21.75 24H24V21.75H28.5V24H26.25V26.25H28.5H30.75V24H33V21.75H30.75V19.5H28.5H21.75V24Z" fill="#E0CB69"/>
<path d="M24 24H26.25H28.5V21.75H24V24Z" fill="#9AA0BE"/>
<path d="M33 15H30.75V17.25H33V15ZM35.25 26.25V24H33V26.25H35.25ZM55.5 28.5V26.25H53.25V28.5H55.5ZM57.75 30.75V33H60V28.5H55.5V30.75H57.75ZM62.25 26.25V28.5H64.5V30.75H66.75V26.25H62.25ZM35.25 30.75V28.5H33V26.25H30.75V33H33V30.75H35.25ZM46.5 26.25V28.5H44.25V30.75H42V26.25H39.75V30.75V35.25H42H44.25V33H46.5V30.75H48.75V26.25H46.5ZM35.25 19.5V17.25H33V19.5H35.25ZM55.5 19.5V21.75H51V19.5H48.75V17.25H51V15H48.75H44.25V12.75H42V10.5H39.75V15H42V17.25H44.25V19.5H46.5V21.75H44.25V19.5H42H35.25V21.75H37.5H42V24V26.25H44.25V24H48.75V26.25H51V24H53.25H57.75V26.25H60V24V21.75H62.25V19.5V17.25H60V15H53.25V19.5H55.5Z" fill="#21779E"/>
<path d="M53.25 42H46.5V44.25H53.25V42Z" fill="#DF549F"/>
<path d="M62.25 39.75V37.5H60V39.75H62.25ZM62.25 39.75V42H64.5V39.75H62.25ZM35.25 39.75V37.5H33V39.75H35.25ZM39.75 39.75V37.5H37.5V39.75H39.75ZM35.25 39.75V42V44.25H37.5V39.75H35.25Z" fill="#AE166A"/>
<path d="M62.25 37.5V39.75H64.5V37.5H62.25ZM60 39.75V42V44.25H62.25V42V39.75H60ZM46.5 39.75V42H53.25V39.75H46.5ZM39.75 42V39.75H37.5V44.25H39.75V42ZM37.5 37.5H35.25V39.75H37.5V37.5Z" fill="#D13E8A"/>
<path d="M60 42H57.75V44.25H60V42ZM42 42H39.75V44.25H42V42Z" fill="#E77FD9"/>
<path d="M60 39.75H57.75V42H60V39.75ZM39.75 39.75V42H42V39.75H39.75ZM35.25 42V39.75H33V42H35.25Z" fill="#C75BB5"/>
<path d="M55.5 35.25V37.5H60H62.25H64.5V35.25V33H60V35.25H57.75H55.5ZM42 39.75H44.25H46.5H53.25H55.5V37.5H48.75H42V39.75ZM35.25 37.5H37.5H39.75H42V35.25H39.75H37.5V33H33V35.25V37.5H35.25Z" fill="#D000B4"/>
<path d="M55.5 39.75V42H57.75V39.75H55.5ZM44.25 39.75V42H46.5V39.75H44.25Z" fill="#722894"/>
<path d="M55.5 42H53.25V44.25H57.75V42H55.5ZM44.25 42H42V44.25H46.5V42H44.25Z" fill="#7644AE"/>
<path d="M53.25 42H55.5V39.75H53.25V42ZM42 39.75V42H44.25V39.75H42Z" fill="#825DBD"/>
<path d="M55.5 37.5V39.75H57.75H60V37.5H55.5ZM39.75 37.5V39.75H42V37.5H39.75Z" fill="#700863"/>
<path d="M53.25 33H55.5V30.75H53.25V33ZM48.75 35.25V37.5H55.5V35.25H53.25H51H48.75Z" fill="#3E2A08"/>
<path d="M48.75 24H44.25V26.25H42V30.75H44.25V28.5H46.5V26.25H48.75V24ZM37.5 24H35.25V26.25H33V28.5H35.25H37.5V26.25H39.75V24H42V21.75H37.5V24ZM39.75 15H37.5H33V17.25H35.25V19.5H42V17.25H39.75V15ZM44.25 12.75V15H48.75V12.75H46.5V10.5H42V12.75H44.25ZM57.75 24H53.25V26.25H55.5V28.5H60V26.25H57.75V24ZM62.25 19.5V21.75H60V24H62.25V26.25H66.75V24H64.5V21.75V19.5H62.25Z" fill="#2A9ACC"/>
</g>
<rect x="0.5" y="0.5" width="95" height="95" rx="7.5" stroke="#E5E7EB"/>
<defs>
<clipPath id="clip0_2052_381614">
<rect width="96" height="96" rx="8" fill="white"/>
</clipPath>
</defs>
</svg>
