<svg width="40" height="40" viewBox="0 0 40 40" fill="none" xmlns="http://www.w3.org/2000/svg">
<path fill-rule="evenodd" clip-rule="evenodd" d="M27 20C27 20.4142 26.6642 20.75 26.25 20.75L15.6121 20.75L19.7698 24.7094C20.0684 24.9965 20.0777 25.4713 19.7906 25.7698C19.5035 26.0684 19.0287 26.0777 18.7302 25.7906L13.2302 20.5406C13.0831 20.3992 13 20.204 13 20C13 19.796 13.0831 19.6008 13.2302 19.4594L18.7302 14.2094C19.0287 13.9223 19.5035 13.9316 19.7906 14.2302C20.0777 14.5287 20.0684 15.0035 19.7698 15.2906L15.6121 19.25L26.25 19.25C26.6642 19.25 27 19.5858 27 20Z" fill="#64748B"/>
<rect x="0.5" y="0.5" width="39" height="39" rx="7.5" stroke="#CBD5E1"/>
</svg>
