<svg width="20" height="20" viewBox="0 0 20 20" fill="none" xmlns="http://www.w3.org/2000/svg">
<path fill-rule="evenodd" clip-rule="evenodd" d="M19.9935 10.0004C19.9935 15.5159 15.5194 19.9871 10.0002 19.9871C4.48101 19.9871 0.00683594 15.5159 0.00683594 10.0004C0.00683594 4.48487 4.48101 0.0136719 10.0002 0.0136719C15.5194 0.0136719 19.9935 4.48487 19.9935 10.0004ZM7.16835 13.9746H5.22893C4.82139 13.9746 4.62009 13.9746 4.49735 13.8961C4.36477 13.8102 4.28376 13.6679 4.27394 13.5109C4.26657 13.3662 4.36724 13.1895 4.56854 12.8362L9.35723 4.4011C9.56099 4.04291 9.66409 3.86382 9.79421 3.79758C9.93414 3.72644 10.1011 3.72644 10.241 3.79758C10.3711 3.86382 10.4742 4.04291 10.678 4.4011L11.6625 6.11845L11.6675 6.12721C11.8876 6.51148 11.9992 6.70634 12.0479 6.91087C12.1019 7.13412 12.1019 7.36964 12.0479 7.5929C11.9988 7.79898 11.8883 7.99525 11.6649 8.38533L9.14952 12.8289L9.14302 12.8402C8.92149 13.2277 8.80922 13.424 8.65362 13.5722C8.48423 13.7341 8.28046 13.8518 8.05706 13.9182C7.85329 13.9746 7.62499 13.9746 7.16835 13.9746ZM12.0661 13.9746H14.845C15.255 13.9746 15.4613 13.9746 15.5841 13.8937C15.7166 13.8078 15.8001 13.663 15.8075 13.5061C15.8146 13.3661 15.7161 13.1963 15.5231 12.8635C15.5165 12.8522 15.5098 12.8406 15.503 12.8289L14.111 10.4492L14.0952 10.4224C13.8996 10.0918 13.8008 9.92489 13.674 9.86037C13.5342 9.78922 13.3696 9.78922 13.2297 9.86037C13.102 9.92661 12.9989 10.1008 12.7952 10.4516L11.4081 12.8314L11.4034 12.8396C11.2003 13.1898 11.0988 13.3649 11.1062 13.5085C11.116 13.6655 11.197 13.8102 11.3296 13.8961C11.4499 13.9746 11.6561 13.9746 12.0661 13.9746Z" fill="#E84142"/>
</svg>
