<svg width="96" height="96" viewBox="0 0 96 96" fill="none" xmlns="http://www.w3.org/2000/svg">
<rect width="96" height="96" fill="white"/>
<path d="M44.3382 16.3537L45.0923 16.7117C45.9747 17.2058 46.8497 18.0809 47.3439 18.9632L47.7018 19.7173C47.8446 19.9723 48.2115 19.9723 48.3542 19.7173L48.7122 18.9632C49.0224 18.4092 49.5099 17.813 49.985 17.4001C50.1433 17.2626 50.5452 17.1179 50.5452 17.1179C50.6804 17.0254 50.8201 16.9387 50.9638 16.8581L51.8643 16.3537C52.1193 16.2109 52.1193 15.8441 51.8643 15.7013L50.9638 15.1969C50.0814 14.7028 49.3528 13.9742 48.8586 13.0918L48.3542 12.1912C48.2115 11.9363 47.8446 11.9363 47.7018 12.1912L47.1974 13.0918C46.9254 13.5774 46.5826 14.0163 46.1821 14.3954C46.1821 14.3954 45.9877 14.6998 45.8593 14.8013C45.6336 14.9796 45.3452 15.2017 45.0923 15.3433L44.3382 15.7013C44.0832 15.8441 44.0832 16.2109 44.3382 16.3537Z" fill="#FFE07D"/>
<path d="M50.5449 17.1179C49.8493 17.5939 49.2727 18.2244 48.8582 18.964L48.3544 19.8632C48.2109 20.1195 47.8448 20.1195 47.7012 19.8632L47.1974 18.964C46.7024 18.0809 45.9746 17.353 45.0914 16.858L44.1922 16.3542C43.9359 16.2107 43.9359 15.8445 44.1922 15.701L45.0914 15.1972C45.4883 14.9746 45.8553 14.706 46.1819 14.3955C46.86 16.0006 48.4467 17.126 50.2979 17.126C50.3815 17.126 50.4629 17.1223 50.5449 17.1179Z" fill="#FFD064"/>
<path d="M24.3382 22.3976L25.0923 22.7555C25.9747 23.2496 26.8497 24.1247 27.3439 25.0071L27.7018 25.7611C27.8446 26.0161 28.2115 26.0161 28.3542 25.7611L28.7122 25.0071C29.0224 24.453 29.5099 23.8568 29.985 23.444C30.1433 23.3064 30.5452 23.1617 30.5452 23.1617C30.6804 23.0692 30.8201 22.9825 30.9638 22.9019L31.8643 22.3976C32.1193 22.2548 32.1193 21.8879 31.8643 21.7451L30.9638 21.2407C30.0814 20.7466 29.3528 20.018 28.8586 19.1356L28.3542 18.2351C28.2115 17.9801 27.8446 17.9801 27.7018 18.2351L27.1974 19.1356C26.9254 19.6212 26.5826 20.0602 26.1821 20.4392C26.1821 20.4392 25.9877 20.7437 25.8593 20.8451C25.6336 21.0234 25.3452 21.2455 25.0923 21.3872L24.3382 21.7451C24.0832 21.8877 24.0832 22.2548 24.3382 22.3976Z" fill="#C3DDFF"/>
<path d="M30.5449 23.1616C29.8493 23.6376 29.2727 24.2681 28.8582 25.0077L28.3544 25.9069C28.2109 26.1632 27.8448 26.1632 27.7012 25.9069L27.1974 25.0077C26.7024 24.1246 25.9746 23.3967 25.0914 22.9017L24.1922 22.3979C23.9359 22.2544 23.9359 21.8882 24.1922 21.7447L25.0914 21.2409C25.4883 21.0183 25.8553 20.7497 26.1819 20.4392C26.86 22.0443 28.4467 23.1697 30.2979 23.1697C30.3815 23.1697 30.4629 23.166 30.5449 23.1616Z" fill="#A4CCFF"/>
<path d="M7.8194 44.2011L9.06483 44.8341C10.4286 45.5978 11.701 46.8702 12.4646 48.2338L12.9511 49.3328C13.1718 49.7268 13.7387 49.7268 13.9595 49.3328L14.5924 48.2338C14.9741 47.5522 15.4732 46.9059 16.047 46.3588C16.1234 46.2859 16.3623 46.1684 16.3623 46.1684C16.8541 45.711 17.4008 45.3118 17.9922 44.9805L19.3841 44.2011C19.778 43.9804 19.778 43.4135 19.3841 43.1928L17.9922 42.4133C16.6284 41.6496 15.5025 40.5236 14.7389 39.16L13.9595 37.7681C13.7387 37.3742 13.1718 37.3742 12.9511 37.7681L12.1717 39.16C11.7865 39.8478 11.3092 40.475 10.7558 41.0258C10.7558 41.0258 10.7322 41.0777 10.714 41.0955C10.1834 41.6143 9.57508 42.0923 8.92146 42.4583L7.8194 43.1928C7.42544 43.4135 7.42544 43.9804 7.8194 44.2011Z" fill="#FFE07D"/>
<path d="M16.3624 46.1684C15.7203 46.7677 15.1714 47.4618 14.7394 48.2336L13.9586 49.6261C13.7381 50.0191 13.1726 50.0191 12.9521 49.6261L12.1713 48.2336C11.4084 46.8697 10.2827 45.7439 8.91873 44.981L7.52626 44.2003C7.13318 43.9797 7.13318 43.4142 7.52626 43.1937L8.91873 42.4129C9.59447 42.036 10.2116 41.5682 10.7558 41.0259C11.6716 43.528 13.7641 45.4659 16.3624 46.1684Z" fill="#FFD064"/>
<path d="M67.6976 27.9785L68.4517 28.3364C69.334 28.8306 70.2091 29.7056 70.7032 30.588L71.0612 31.3421C71.204 31.5971 71.5708 31.5971 71.7136 31.3421L72.0716 30.588C72.3817 30.034 72.8693 29.4377 73.3444 29.0249C73.5027 28.8874 73.9046 28.7427 73.9046 28.7427C74.0397 28.6501 74.1795 28.5634 74.3231 28.4829L75.2237 27.9785C75.4786 27.8357 75.4786 27.4688 75.2237 27.326L74.3231 26.8217C73.4407 26.3275 72.7121 25.5989 72.218 24.7165L71.7136 23.816C71.5708 23.561 71.204 23.561 71.0612 23.816L70.5568 24.7165C70.2848 25.2022 69.942 25.6411 69.5414 26.0201C69.5414 26.0201 69.3471 26.3246 69.2186 26.4261C68.993 26.6043 68.7046 26.8265 68.4517 26.9681L67.6976 27.326C67.4426 27.4688 67.4426 27.8357 67.6976 27.9785Z" fill="#C3DDFF"/>
<path d="M73.9043 28.7427C73.2086 29.2187 72.6321 29.8491 72.2176 30.5887L71.7138 31.488C71.5703 31.7442 71.2041 31.7442 71.0606 31.488L70.5568 30.5887C70.0618 29.7056 69.3339 28.9777 68.4508 28.4827L67.5516 27.9789C67.2953 27.8354 67.2953 27.4693 67.5516 27.3257L68.4508 26.8219C68.8477 26.5993 69.2147 26.3307 69.5413 26.0203C70.2194 27.6254 71.8061 28.7507 73.6572 28.7507C73.7409 28.7507 73.8223 28.7471 73.9043 28.7427Z" fill="#A4CCFF"/>
<path d="M76.1397 57.8732L77.3851 58.5062C78.7489 59.2699 80.0213 60.5423 80.7849 61.906L81.2714 63.0049C81.4921 63.3989 82.0591 63.3989 82.2798 63.0049L82.9127 61.906C83.2944 61.2244 83.7935 60.5781 84.3673 60.0309C84.4438 59.958 84.6826 59.8405 84.6826 59.8405C85.1744 59.3831 85.7211 58.9839 86.3125 58.6526L87.7044 57.8732C88.0984 57.6525 88.0984 57.0856 87.7044 56.8649L86.3125 56.0855C84.9487 55.3217 83.8228 54.1958 83.0592 52.8321L82.2798 51.4402C82.0591 51.0463 81.4921 51.0463 81.2714 51.4402L80.492 52.8321C80.1068 53.5199 79.6295 54.1471 79.0761 54.698C79.0761 54.698 79.0525 54.7498 79.0344 54.7677C78.5038 55.2864 77.8954 55.7644 77.2418 56.1304L76.1397 56.8649C75.7457 57.0856 75.7457 57.6527 76.1397 57.8732Z" fill="#FFE07D"/>
<path d="M84.6827 59.8406C84.0406 60.4398 83.4917 61.1339 83.0597 61.9057L82.2789 63.2982C82.0584 63.6913 81.4929 63.6913 81.2724 63.2982L80.4916 61.9057C79.7288 60.5418 78.603 59.416 77.239 58.6531L75.8466 57.8724C75.4535 57.6518 75.4535 57.0864 75.8466 56.8658L77.239 56.0851C77.9148 55.7081 78.5319 55.2403 79.0762 54.698C79.9919 57.2002 82.0845 59.138 84.6827 59.8406Z" fill="#FFD064"/>
<path d="M16.3381 55.8939L17.3637 56.4153C18.4869 57.0443 19.5347 58.0922 20.1636 59.2152L20.5643 60.1202C20.7461 60.4448 21.213 60.4448 21.3947 60.1202L21.9161 59.2152C22.2304 58.654 22.6415 58.1216 23.1141 57.671C23.177 57.6109 23.3737 57.5141 23.3737 57.5141C23.7788 57.1374 24.229 56.8086 24.7161 56.5358L25.8624 55.8939C26.187 55.7121 26.187 55.2453 25.8624 55.0635L24.7161 54.4216C23.593 53.7927 22.6658 52.8654 22.0368 51.7422L21.3949 50.5959C21.2131 50.2714 20.7462 50.2714 20.5645 50.5959L19.9226 51.7422C19.6053 52.3086 19.2123 52.8253 18.7565 53.279C18.7565 53.279 18.737 53.3217 18.7221 53.3364C18.2851 53.7636 17.784 54.1573 17.2458 54.4587L16.3383 55.0635C16.0136 55.2453 16.0136 55.7121 16.3381 55.8939Z" fill="#C3DDFF"/>
<path d="M23.3737 57.5141C22.845 58.0076 22.3929 58.5792 22.037 59.2148L21.3941 60.3616C21.2125 60.6852 20.7468 60.6852 20.5652 60.3616L19.9223 59.2148C19.294 58.0915 18.3669 57.1645 17.2435 56.5361L16.0968 55.8931C15.7731 55.7115 15.7731 55.2458 16.0968 55.0642L17.2435 54.4213C17.8 54.1108 18.3082 53.7256 18.7563 53.2789C19.5106 55.3395 21.2339 56.9354 23.3737 57.5141Z" fill="#A4CCFF"/>
<mask id="mask0_2512_32292" style="mask-type:luminance" maskUnits="userSpaceOnUse" x="24" y="24" width="48" height="48">
<path d="M24 24H72V72H24V24Z" fill="white"/>
</mask>
<g mask="url(#mask0_2512_32292)">
<path d="M25.8887 31.8369V51.5428H70.1118V31.8369C70.1118 28.7074 67.5748 26.1704 64.4453 26.1704H31.5551C28.4256 26.1704 25.8887 28.7074 25.8887 31.8369Z" fill="#FF993A"/>
<path d="M70.1119 31.8372V51.5425H51.5503C60.8325 49.3984 67.7512 41.0819 67.7512 31.1481C67.7512 29.7137 67.6069 28.3131 67.3312 26.9594C68.9962 27.9465 70.1119 29.7615 70.1119 31.8372Z" fill="#F97C15"/>
<path d="M70.1117 41.8515V51.5425H64.1079C66.9438 48.9822 69.0588 45.6381 70.1117 41.8515Z" fill="#E86300"/>
<path d="M29.1699 51.5428V31.8369C29.1699 30.5217 30.2399 29.4517 31.5551 29.4517H64.4453C65.7605 29.4517 66.8305 30.5217 66.8305 31.8369V51.5428H29.1699Z" fill="#E01152"/>
<path d="M71.0024 72H24.9976C24.4466 72 24 71.5534 24 71.0024V52.4803C24 51.9626 24.4197 51.5428 24.9375 51.5428H71.0625C71.5803 51.5428 72 51.9626 72 52.4803V71.0024C72 71.5534 71.5534 72 71.0024 72Z" fill="#FFAF40"/>
<path d="M25.9662 55.0317C24.8803 55.0317 24 55.912 24 56.9979V67.9609C24 69.0468 24.8803 69.9271 25.9662 69.9271C27.0521 69.9271 27.9324 69.0468 27.9324 67.9609V56.9979C27.9324 55.912 27.0521 55.0317 25.9662 55.0317Z" fill="#FFC751"/>
<path d="M27.9324 61.7425V59.7456C27.9324 58.6597 27.0521 57.7795 25.9662 57.7795C24.8803 57.7795 24 58.6597 24 59.7456V61.7425C24 62.8284 24.8803 63.7087 25.9662 63.7087C27.0521 63.7087 27.9324 62.8284 27.9324 61.7425Z" fill="#FFE059"/>
<path d="M71.9998 52.4803V71.0022C71.9998 71.5531 71.5532 71.9998 71.0023 71.9998H49.208C59.3754 71.9998 66.8862 60.2653 69.863 51.5428H71.0623C71.5801 51.5428 71.9998 51.9626 71.9998 52.4803Z" fill="#FF993A"/>
<path d="M71.9999 60.5994V71.0023C71.9999 71.5528 71.553 71.9998 71.0023 71.9998H60.0039C65.755 71.9998 70.0756 65.6761 71.9999 60.5994Z" fill="#F97C15"/>
<path d="M38.409 72H28.6382V55.5232C28.6382 54.9722 29.0848 54.5256 29.6358 54.5256H37.4114C37.9624 54.5256 38.409 54.9722 38.409 55.5232V72Z" fill="#A74B2B"/>
<path d="M52.8854 55.5228V71.9994H43.1147V55.5228C43.1147 54.9725 43.561 54.5253 44.1122 54.5253H51.8879C52.4391 54.5253 52.8854 54.9725 52.8854 55.5228Z" fill="#A74B2B"/>
<path d="M52.8854 55.5229V57.471C52.5544 58.1338 51.9207 58.6279 51.1613 58.7544C50.7929 58.8163 50.4385 58.79 50.1122 58.6972C49.9913 59.8944 48.9807 60.8291 47.7516 60.8291C46.5226 60.8291 45.5119 59.8944 45.391 58.6972C45.0647 58.79 44.7104 58.8163 44.3419 58.7544C43.8704 58.6757 43.4466 58.4554 43.1147 58.1404V55.5229C43.1147 54.9725 43.561 54.5254 44.1122 54.5254H51.8879C52.4391 54.5254 52.8854 54.9725 52.8854 55.5229Z" fill="#933A25"/>
<path d="M52.8711 55.5228V71.9999H44.9463C48.4617 68.8534 50.6744 64.2815 50.6744 59.1929C50.6744 57.5748 50.4509 56.0096 50.033 54.5252H51.8735C52.4242 54.5252 52.8711 54.9721 52.8711 55.5228Z" fill="#933A25"/>
<path d="M67.3616 72H57.5908V55.5232C57.5908 54.9722 58.0374 54.5256 58.5884 54.5256H66.364C66.915 54.5256 67.3616 54.9722 67.3616 55.5232V72Z" fill="#A74B2B"/>
<path d="M38.4092 55.5228V71.9999H30.4844C33.9998 68.8534 36.2125 64.2815 36.2125 59.1929C36.2125 57.5748 35.989 56.0096 35.5711 54.5252H37.4116C37.9622 54.5252 38.4092 54.9721 38.4092 55.5228Z" fill="#933A25"/>
<path d="M67.3618 55.5228V71.9999H59.437C62.9524 68.8534 65.1651 64.2815 65.1651 59.1929C65.1651 57.5748 64.9416 56.0096 64.5237 54.5252H66.3642C66.9149 54.5252 67.3618 54.9721 67.3618 55.5228Z" fill="#933A25"/>
<path d="M38.4091 55.5228V57.8541C38.4091 57.3034 37.9622 56.8565 37.4115 56.8565H29.6353C29.0847 56.8565 28.6377 57.3034 28.6377 57.8541V55.5228C28.6377 54.9721 29.0847 54.5252 29.6353 54.5252H37.4115C37.9622 54.5252 38.4091 54.9721 38.4091 55.5228Z" fill="#933A25"/>
<path d="M67.3622 55.5228V57.8541C67.3622 57.3034 66.9152 56.8565 66.3646 56.8565H58.5884C58.0377 56.8565 57.5908 57.3034 57.5908 57.8541V55.5228C57.5908 54.9721 58.0377 54.5252 58.5884 54.5252H66.3646C66.9152 54.5252 67.3622 54.9721 67.3622 55.5228Z" fill="#933A25"/>
<path d="M52.8856 55.5228V57.8541C52.8856 57.3034 52.4387 56.8565 51.888 56.8565H44.1119C43.5613 56.8565 43.1143 57.3034 43.1143 57.8541V55.5228C43.1143 54.9721 43.5613 54.5252 44.1119 54.5252H51.888C52.4387 54.5252 52.8856 54.9721 52.8856 55.5228Z" fill="#933A25"/>
<path d="M66.8305 31.8372V51.5425H47.9614C56.7017 48.924 63.0711 40.8184 63.0711 31.225C63.0711 30.6278 63.0467 30.0362 62.9971 29.4512H64.4446C65.7599 29.4512 66.8305 30.5219 66.8305 31.8372Z" fill="#C40047"/>
<path d="M66.8305 43.945V51.5425H60.5474C63.4986 49.9112 65.7692 47.2009 66.8305 43.945Z" fill="#A80045"/>
<path d="M31.5554 26.17C28.4255 26.17 25.8882 28.7073 25.8882 31.8372V41.705C25.8882 42.611 26.6227 43.3456 27.5288 43.3456C28.4349 43.3456 29.1694 42.611 29.1694 41.705V31.8372C29.1694 30.5196 30.2376 29.4513 31.5554 29.4513H36.4387C37.3448 29.4513 38.0793 28.7167 38.0793 27.8106C38.0793 26.9046 37.3448 26.17 36.4387 26.17H31.5554Z" fill="#FFAF40"/>
<path d="M29.1694 38.3771V34.3874C29.1694 33.4813 28.4349 32.7467 27.5288 32.7467C26.6227 32.7467 25.8882 33.4813 25.8882 34.3874V38.3771C25.8882 39.2832 26.6227 40.0177 27.5288 40.0177C28.4349 40.0177 29.1694 39.2832 29.1694 38.3771Z" fill="#FFC751"/>
<path d="M60.3164 26.1699H49.3276C48.4215 26.1699 47.687 26.9045 47.687 27.8105C47.687 28.7166 48.4215 29.4512 49.3276 29.4512H60.3164C61.2225 29.4512 61.9571 28.7166 61.9571 27.8105C61.9571 26.9045 61.2225 26.1699 60.3164 26.1699Z" fill="#FFAF40"/>
<path d="M45.503 29.4517H34.5142C33.6081 29.4517 32.8735 30.1862 32.8735 31.0923C32.8735 31.9984 33.6081 32.7329 34.5142 32.7329H45.503C46.4091 32.7329 47.1436 31.9984 47.1436 31.0923C47.1436 30.1862 46.4091 29.4517 45.503 29.4517Z" fill="#FE255F"/>
<path d="M39.9308 29.4517H37.436C36.5299 29.4517 35.7954 30.1862 35.7954 31.0923C35.7954 31.9984 36.5299 32.7329 37.436 32.7329H39.9308C40.8369 32.7329 41.5714 31.9984 41.5714 31.0923C41.5714 30.1862 40.8369 29.4517 39.9308 29.4517Z" fill="#FC709B"/>
<path d="M55.9502 26.1699H51.7114C50.8053 26.1699 50.0708 26.9045 50.0708 27.8105C50.0708 28.7166 50.8053 29.4512 51.7114 29.4512H55.9502C56.8563 29.4512 57.5909 28.7166 57.5909 27.8105C57.5909 26.9045 56.8563 26.1699 55.9502 26.1699Z" fill="#FFC751"/>
<path d="M37.6296 51.5425H32.7017C32.0843 51.5425 31.584 51.042 31.584 50.4248C31.584 49.8075 32.0843 49.3071 32.7017 49.3071H37.6296C38.2469 49.3071 38.7473 49.8075 38.7473 50.4248C38.7473 51.042 38.2469 51.5425 37.6296 51.5425Z" fill="#FFC751"/>
<path d="M35.6249 49.3071H34.0693C33.452 49.3071 32.9517 49.8074 32.9517 50.4248C32.9517 51.042 33.452 51.5425 34.0693 51.5425H35.6249C36.2422 51.5425 36.7426 51.042 36.7426 50.4248C36.7426 49.8074 36.2422 49.3071 35.6249 49.3071Z" fill="#FFE059"/>
<path d="M37.6296 49.3071H32.7017C32.0843 49.3071 31.584 48.8067 31.584 48.1894C31.584 47.5722 32.0843 47.0718 32.7017 47.0718H37.6296C38.2469 47.0718 38.7473 47.5722 38.7473 48.1894C38.7473 48.8067 38.2469 49.3071 37.6296 49.3071Z" fill="#FF993A"/>
<path d="M35.6249 47.0718H34.0693C33.452 47.0718 32.9517 47.5721 32.9517 48.1894C32.9517 48.8067 33.452 49.3071 34.0693 49.3071H35.6249C36.2422 49.3071 36.7426 48.8067 36.7426 48.1894C36.7426 47.5721 36.2422 47.0718 35.6249 47.0718Z" fill="#FFAF40"/>
<path d="M37.6296 47.0718H32.7017C32.0843 47.0718 31.584 46.5714 31.584 45.9541C31.584 45.3368 32.0843 44.8364 32.7017 44.8364H37.6296C38.2469 44.8364 38.7473 45.3368 38.7473 45.9541C38.7473 46.5714 38.2469 47.0718 37.6296 47.0718Z" fill="#FFC751"/>
<path d="M35.6249 44.8364H34.0693C33.452 44.8364 32.9517 45.3368 32.9517 45.9541C32.9517 46.5713 33.452 47.0718 34.0693 47.0718H35.6249C36.2422 47.0718 36.7426 46.5713 36.7426 45.9541C36.7426 45.3368 36.2422 44.8364 35.6249 44.8364Z" fill="#FFE059"/>
<path d="M42.7883 51.5425H37.8603C37.243 51.5425 36.7427 51.042 36.7427 50.4248C36.7427 49.8075 37.243 49.3071 37.8603 49.3071H42.7883C43.4056 49.3071 43.906 49.8075 43.906 50.4248C43.906 51.042 43.4056 51.5425 42.7883 51.5425Z" fill="#FF993A"/>
<path d="M40.7832 49.3071H39.2276C38.6103 49.3071 38.1099 49.8074 38.1099 50.4248C38.1099 51.042 38.6103 51.5425 39.2276 51.5425H40.7832C41.4005 51.5425 41.9008 51.042 41.9008 50.4248C41.9008 49.8074 41.4005 49.3071 40.7832 49.3071Z" fill="#FFAF40"/>
<path d="M42.7883 49.3071H37.8603C37.243 49.3071 36.7427 48.8067 36.7427 48.1894C36.7427 47.5722 37.243 47.0718 37.8603 47.0718H42.7883C43.4056 47.0718 43.906 47.5722 43.906 48.1894C43.906 48.8067 43.4056 49.3071 42.7883 49.3071Z" fill="#FFC751"/>
<path d="M40.7832 47.0718H39.2276C38.6103 47.0718 38.1099 47.5721 38.1099 48.1894C38.1099 48.8067 38.6103 49.3071 39.2276 49.3071H40.7832C41.4005 49.3071 41.9008 48.8067 41.9008 48.1894C41.9008 47.5721 41.4005 47.0718 40.7832 47.0718Z" fill="#FFE059"/>
<path d="M42.7883 47.0718H37.8603C37.243 47.0718 36.7427 46.5714 36.7427 45.9541C36.7427 45.3368 37.243 44.8364 37.8603 44.8364H42.7883C43.4056 44.8364 43.906 45.3368 43.906 45.9541C43.906 46.5714 43.4056 47.0718 42.7883 47.0718Z" fill="#FF993A"/>
<path d="M40.7832 44.8364H39.2276C38.6103 44.8364 38.1099 45.3368 38.1099 45.9541C38.1099 46.5713 38.6103 47.0718 39.2276 47.0718H40.7832C41.4005 47.0718 41.9008 46.5713 41.9008 45.9541C41.9008 45.3368 41.4005 44.8364 40.7832 44.8364Z" fill="#FFAF40"/>
<path d="M42.7883 44.8364H37.8603C37.243 44.8364 36.7427 44.3361 36.7427 43.7188C36.7427 43.1015 37.243 42.6011 37.8603 42.6011H42.7883C43.4056 42.6011 43.906 43.1015 43.906 43.7188C43.906 44.3361 43.4056 44.8364 42.7883 44.8364Z" fill="#FFC751"/>
<path d="M40.7832 42.6011H39.2276C38.6103 42.6011 38.1099 43.1015 38.1099 43.7188C38.1099 44.3361 38.6103 44.8364 39.2276 44.8364H40.7832C41.4005 44.8364 41.9008 44.3361 41.9008 43.7188C41.9008 43.1015 41.4005 42.6011 40.7832 42.6011Z" fill="#FFE059"/>
<path d="M47.8845 51.5425H42.9565C42.3392 51.5425 41.8389 51.042 41.8389 50.4248C41.8389 49.8075 42.3392 49.3071 42.9565 49.3071H47.8845C48.5018 49.3071 49.0022 49.8075 49.0022 50.4248C49.0022 51.042 48.5018 51.5425 47.8845 51.5425Z" fill="#FFC751"/>
<path d="M45.8798 49.3071H44.3242C43.707 49.3071 43.2065 49.8074 43.2065 50.4248C43.2065 51.042 43.707 51.5425 44.3242 51.5425H45.8798C46.4971 51.5425 46.9975 51.042 46.9975 50.4248C46.9975 49.8074 46.4971 49.3071 45.8798 49.3071Z" fill="#FFE059"/>
<path d="M47.8845 49.3071H42.9565C42.3392 49.3071 41.8389 48.8067 41.8389 48.1894C41.8389 47.5722 42.3392 47.0718 42.9565 47.0718H47.8845C48.5018 47.0718 49.0022 47.5722 49.0022 48.1894C49.0022 48.8067 48.5018 49.3071 47.8845 49.3071Z" fill="#FF993A"/>
<path d="M45.8798 47.0718H44.3242C43.707 47.0718 43.2065 47.5721 43.2065 48.1894C43.2065 48.8067 43.707 49.3071 44.3242 49.3071H45.8798C46.4971 49.3071 46.9975 48.8067 46.9975 48.1894C46.9975 47.5721 46.4971 47.0718 45.8798 47.0718Z" fill="#FFAF40"/>
<path d="M47.8845 47.0718H42.9565C42.3392 47.0718 41.8389 46.5714 41.8389 45.9541C41.8389 45.3368 42.3392 44.8364 42.9565 44.8364H47.8845C48.5018 44.8364 49.0022 45.3368 49.0022 45.9541C49.0022 46.5714 48.5018 47.0718 47.8845 47.0718Z" fill="#FFC751"/>
<path d="M45.8798 44.8364H44.3242C43.707 44.8364 43.2065 45.3368 43.2065 45.9541C43.2065 46.5713 43.707 47.0718 44.3242 47.0718H45.8798C46.4971 47.0718 46.9975 46.5713 46.9975 45.9541C46.9975 45.3368 46.4971 44.8364 45.8798 44.8364Z" fill="#FFE059"/>
<path d="M47.8845 44.8364H42.9565C42.3392 44.8364 41.8389 44.3361 41.8389 43.7188C41.8389 43.1015 42.3392 42.6011 42.9565 42.6011H47.8845C48.5018 42.6011 49.0022 43.1015 49.0022 43.7188C49.0022 44.3361 48.5018 44.8364 47.8845 44.8364Z" fill="#FF993A"/>
<path d="M45.8798 42.6011H44.3242C43.707 42.6011 43.2065 43.1015 43.2065 43.7188C43.2065 44.3361 43.707 44.8364 44.3242 44.8364H45.8798C46.4971 44.8364 46.9975 44.3361 46.9975 43.7188C46.9975 43.1015 46.4971 42.6011 45.8798 42.6011Z" fill="#FFAF40"/>
<path d="M47.8845 42.6012H42.9565C42.3392 42.6012 41.8389 42.1008 41.8389 41.4835C41.8389 40.8663 42.3392 40.3658 42.9565 40.3658H47.8845C48.5018 40.3658 49.0022 40.8663 49.0022 41.4835C49.0022 42.1008 48.5018 42.6012 47.8845 42.6012Z" fill="#FFC751"/>
<path d="M45.8798 40.3658H44.3242C43.707 40.3658 43.2065 40.8662 43.2065 41.4835C43.2065 42.1008 43.707 42.6012 44.3242 42.6012H45.8798C46.4971 42.6012 46.9975 42.1008 46.9975 41.4835C46.9975 40.8662 46.4971 40.3658 45.8798 40.3658Z" fill="#FFE059"/>
<path d="M47.8845 40.3657H42.9565C42.3392 40.3657 41.8389 39.8654 41.8389 39.248C41.8389 38.6308 42.3392 38.1303 42.9565 38.1303H47.8845C48.5018 38.1303 49.0022 38.6308 49.0022 39.248C49.0022 39.8654 48.5018 40.3657 47.8845 40.3657Z" fill="#FF993A"/>
<path d="M45.8798 38.1305H44.3242C43.707 38.1305 43.2065 38.6309 43.2065 39.2482C43.2065 39.8654 43.707 40.3658 44.3242 40.3658H45.8798C46.4971 40.3658 46.9975 39.8654 46.9975 39.2482C46.9975 38.6309 46.4971 38.1305 45.8798 38.1305Z" fill="#FFAF40"/>
<path d="M53.0433 51.5425H48.1152C47.498 51.5425 46.9976 51.042 46.9976 50.4248C46.9976 49.8075 47.498 49.3071 48.1152 49.3071H53.0433C53.6606 49.3071 54.1609 49.8075 54.1609 50.4248C54.1609 51.042 53.6606 51.5425 53.0433 51.5425Z" fill="#FF993A"/>
<path d="M51.0385 49.3071H49.4829C48.8656 49.3071 48.3652 49.8074 48.3652 50.4248C48.3652 51.042 48.8656 51.5425 49.4829 51.5425H51.0385C51.6558 51.5425 52.1562 51.042 52.1562 50.4248C52.1562 49.8074 51.6558 49.3071 51.0385 49.3071Z" fill="#FFAF40"/>
<path d="M53.0433 49.3071H48.1152C47.498 49.3071 46.9976 48.8067 46.9976 48.1894C46.9976 47.5722 47.498 47.0718 48.1152 47.0718H53.0433C53.6606 47.0718 54.1609 47.5722 54.1609 48.1894C54.1609 48.8067 53.6606 49.3071 53.0433 49.3071Z" fill="#FFC751"/>
<path d="M51.0385 47.0718H49.4829C48.8656 47.0718 48.3652 47.5721 48.3652 48.1894C48.3652 48.8067 48.8656 49.3071 49.4829 49.3071H51.0385C51.6558 49.3071 52.1562 48.8067 52.1562 48.1894C52.1562 47.5721 51.6558 47.0718 51.0385 47.0718Z" fill="#FFE059"/>
<path d="M53.0433 47.0718H48.1152C47.498 47.0718 46.9976 46.5714 46.9976 45.9541C46.9976 45.3368 47.498 44.8364 48.1152 44.8364H53.0433C53.6606 44.8364 54.1609 45.3368 54.1609 45.9541C54.1609 46.5714 53.6606 47.0718 53.0433 47.0718Z" fill="#FF993A"/>
<path d="M51.0385 44.8364H49.4829C48.8656 44.8364 48.3652 45.3368 48.3652 45.9541C48.3652 46.5713 48.8656 47.0718 49.4829 47.0718H51.0385C51.6558 47.0718 52.1562 46.5713 52.1562 45.9541C52.1562 45.3368 51.6558 44.8364 51.0385 44.8364Z" fill="#FFAF40"/>
<path d="M53.0433 44.8364H48.1152C47.498 44.8364 46.9976 44.3361 46.9976 43.7188C46.9976 43.1015 47.498 42.6011 48.1152 42.6011H53.0433C53.6606 42.6011 54.1609 43.1015 54.1609 43.7188C54.1609 44.3361 53.6606 44.8364 53.0433 44.8364Z" fill="#FFC751"/>
<path d="M51.0385 42.6011H49.4829C48.8656 42.6011 48.3652 43.1015 48.3652 43.7188C48.3652 44.3361 48.8656 44.8364 49.4829 44.8364H51.0385C51.6558 44.8364 52.1562 44.3361 52.1562 43.7188C52.1562 43.1015 51.6558 42.6011 51.0385 42.6011Z" fill="#FFE059"/>
<path d="M53.0433 42.6012H48.1152C47.498 42.6012 46.9976 42.1008 46.9976 41.4835C46.9976 40.8663 47.498 40.3658 48.1152 40.3658H53.0433C53.6606 40.3658 54.1609 40.8663 54.1609 41.4835C54.1609 42.1008 53.6606 42.6012 53.0433 42.6012Z" fill="#FF993A"/>
<path d="M51.0385 40.3658H49.4829C48.8656 40.3658 48.3652 40.8662 48.3652 41.4835C48.3652 42.1008 48.8656 42.6012 49.4829 42.6012H51.0385C51.6558 42.6012 52.1562 42.1008 52.1562 41.4835C52.1562 40.8662 51.6558 40.3658 51.0385 40.3658Z" fill="#FFAF40"/>
<path d="M58.14 51.5425H53.2119C52.5947 51.5425 52.0942 51.042 52.0942 50.4248C52.0942 49.8075 52.5947 49.3071 53.2119 49.3071H58.14C58.7572 49.3071 59.2576 49.8075 59.2576 50.4248C59.2576 51.042 58.7572 51.5425 58.14 51.5425Z" fill="#FFC751"/>
<path d="M56.1352 49.3071H54.5796C53.9623 49.3071 53.4619 49.8074 53.4619 50.4248C53.4619 51.042 53.9623 51.5425 54.5796 51.5425H56.1352C56.7524 51.5425 57.2529 51.042 57.2529 50.4248C57.2529 49.8074 56.7524 49.3071 56.1352 49.3071Z" fill="#FFE059"/>
<path d="M58.14 49.3071H53.2119C52.5947 49.3071 52.0942 48.8067 52.0942 48.1894C52.0942 47.5722 52.5947 47.0718 53.2119 47.0718H58.14C58.7572 47.0718 59.2576 47.5722 59.2576 48.1894C59.2576 48.8067 58.7572 49.3071 58.14 49.3071Z" fill="#FF993A"/>
<path d="M56.1352 47.0718H54.5796C53.9623 47.0718 53.4619 47.5721 53.4619 48.1894C53.4619 48.8067 53.9623 49.3071 54.5796 49.3071H56.1352C56.7524 49.3071 57.2529 48.8067 57.2529 48.1894C57.2529 47.5721 56.7524 47.0718 56.1352 47.0718Z" fill="#FFAF40"/>
<path d="M58.14 47.0718H53.2119C52.5947 47.0718 52.0942 46.5714 52.0942 45.9541C52.0942 45.3368 52.5947 44.8364 53.2119 44.8364H58.14C58.7572 44.8364 59.2576 45.3368 59.2576 45.9541C59.2576 46.5714 58.7572 47.0718 58.14 47.0718Z" fill="#FFC751"/>
<path d="M56.1352 44.8364H54.5796C53.9623 44.8364 53.4619 45.3368 53.4619 45.9541C53.4619 46.5713 53.9623 47.0718 54.5796 47.0718H56.1352C56.7524 47.0718 57.2529 46.5713 57.2529 45.9541C57.2529 45.3368 56.7524 44.8364 56.1352 44.8364Z" fill="#FFE059"/>
<path d="M58.14 44.8364H53.2119C52.5947 44.8364 52.0942 44.3361 52.0942 43.7188C52.0942 43.1015 52.5947 42.6011 53.2119 42.6011H58.14C58.7572 42.6011 59.2576 43.1015 59.2576 43.7188C59.2576 44.3361 58.7572 44.8364 58.14 44.8364Z" fill="#FF993A"/>
<path d="M56.1352 42.6011H54.5796C53.9623 42.6011 53.4619 43.1015 53.4619 43.7188C53.4619 44.3361 53.9623 44.8364 54.5796 44.8364H56.1352C56.7524 44.8364 57.2529 44.3361 57.2529 43.7188C57.2529 43.1015 56.7524 42.6011 56.1352 42.6011Z" fill="#FFAF40"/>
<path d="M63.2986 51.5425H58.3706C57.7533 51.5425 57.2529 51.042 57.2529 50.4248C57.2529 49.8075 57.7533 49.3071 58.3706 49.3071H63.2986C63.9158 49.3071 64.4163 49.8075 64.4163 50.4248C64.4163 51.042 63.9158 51.5425 63.2986 51.5425Z" fill="#FF993A"/>
<path d="M61.2939 49.3071H59.7383C59.1209 49.3071 58.6206 49.8074 58.6206 50.4248C58.6206 51.042 59.1209 51.5425 59.7383 51.5425H61.2939C61.9111 51.5425 62.4116 51.042 62.4116 50.4248C62.4116 49.8074 61.9111 49.3071 61.2939 49.3071Z" fill="#FFAF40"/>
<path d="M63.2986 49.3071H58.3706C57.7533 49.3071 57.2529 48.8067 57.2529 48.1894C57.2529 47.5722 57.7533 47.0718 58.3706 47.0718H63.2986C63.9158 47.0718 64.4163 47.5722 64.4163 48.1894C64.4163 48.8067 63.9158 49.3071 63.2986 49.3071Z" fill="#FFC751"/>
<path d="M61.2939 47.0718H59.7383C59.1209 47.0718 58.6206 47.5721 58.6206 48.1894C58.6206 48.8067 59.1209 49.3071 59.7383 49.3071H61.2939C61.9111 49.3071 62.4116 48.8067 62.4116 48.1894C62.4116 47.5721 61.9111 47.0718 61.2939 47.0718Z" fill="#FFE059"/>
<path d="M58.6984 36.7403C58.8975 36.6092 58.8975 36.3178 58.6984 36.1867C58.1844 35.8481 57.6966 35.4542 57.2436 35.0046C56.7905 34.5549 56.3936 34.0708 56.0524 33.5608C55.9202 33.3632 55.6267 33.3632 55.4945 33.5608C55.1533 34.0708 54.7564 34.5549 54.3034 35.0046C53.8504 35.4542 53.3624 35.8481 52.8486 36.1867C52.6494 36.3178 52.6494 36.6092 52.8486 36.7403C53.3624 37.0789 53.8504 37.4728 54.3034 37.9224C54.7564 38.372 55.1533 38.8561 55.4945 39.3662C55.6267 39.5638 55.9202 39.5638 56.0524 39.3662C56.3936 38.8561 56.7905 38.372 57.2436 37.9224C57.6966 37.4728 58.1844 37.0789 58.6984 36.7403Z" fill="#FFE059"/>
<path d="M58.6985 36.7402C58.1846 37.0788 57.6967 37.4726 57.2436 37.9223C56.7903 38.3721 56.3935 38.8562 56.0524 39.3662C55.9201 39.5635 55.6269 39.5635 55.4946 39.3662C55.1535 38.8562 54.7567 38.3721 54.3035 37.9223C54.2445 37.8638 54.1847 37.8062 54.124 37.7493C54.2041 37.756 54.2849 37.7594 54.3666 37.7594C55.9218 37.7594 57.1896 36.5337 57.2419 35.0029C57.2427 35.0038 57.2427 35.0038 57.2436 35.0046C57.6967 35.4544 58.1846 35.8482 58.6985 36.1867C58.8973 36.3181 58.8973 36.609 58.6985 36.7402Z" fill="#FFC751"/>
<path d="M62.3845 40.0174C62.516 39.9307 62.516 39.7383 62.3845 39.6517C62.0449 39.428 61.7227 39.1677 61.4235 38.8708C61.1241 38.5737 60.8619 38.2539 60.6365 37.917C60.5493 37.7864 60.3553 37.7864 60.268 37.917C60.0426 38.2539 59.7804 38.5737 59.4811 38.8708C59.1818 39.1677 58.8595 39.428 58.52 39.6517C58.3885 39.7383 58.3885 39.9307 58.52 40.0174C58.8595 40.2411 59.1818 40.5013 59.4811 40.7983C59.7804 41.0953 60.0426 41.4151 60.268 41.752C60.3553 41.8826 60.5493 41.8826 60.6365 41.752C60.8619 41.4151 61.1241 41.0953 61.4235 40.7983C61.7227 40.5013 62.0449 40.2411 62.3845 40.0174Z" fill="#FFE059"/>
<path d="M62.3842 40.0172C62.0448 40.2409 61.7226 40.5011 61.4231 40.7982C61.1237 41.0954 60.8616 41.4152 60.6362 41.752C60.5488 41.8823 60.3551 41.8823 60.2677 41.752C60.0424 41.4152 59.7802 41.0954 59.4808 40.7982C59.4419 40.7595 59.4023 40.7214 59.3623 40.6839C59.4152 40.6883 59.4686 40.6905 59.5226 40.6905C60.5499 40.6905 61.3875 39.8808 61.422 38.8696L61.4231 38.8707C61.7226 39.1678 62.0448 39.4279 62.3842 39.6516C62.5156 39.7383 62.5156 39.9305 62.3842 40.0172Z" fill="#FFC751"/>
<path d="M37.33 40.3507C37.4586 40.2659 37.4586 40.0778 37.33 39.9931C36.998 39.7745 36.683 39.52 36.3904 39.2297C36.0978 38.9394 35.8415 38.6266 35.6211 38.2973C35.5358 38.1697 35.3462 38.1697 35.2608 38.2973C35.0405 38.6266 34.7842 38.9394 34.4916 39.2297C34.199 39.52 33.8839 39.7745 33.552 39.9931C33.4234 40.0778 33.4234 40.2659 33.552 40.3507C33.8839 40.5693 34.199 40.8237 34.4916 41.1141C34.7842 41.4044 35.0405 41.7171 35.2608 42.0465C35.3462 42.1741 35.5358 42.1741 35.6211 42.0465C35.8415 41.7171 36.0978 41.4044 36.3904 41.1141C36.683 40.8237 36.998 40.5693 37.33 40.3507Z" fill="#FFE059"/>
<path d="M37.3297 40.3505C36.9979 40.5691 36.6829 40.8235 36.3902 41.1139C36.0974 41.4044 35.8412 41.717 35.6208 42.0463C35.5354 42.1738 35.3461 42.1738 35.2607 42.0463C35.0404 41.717 34.7841 41.4044 34.4914 41.1139C34.4533 41.0761 34.4147 41.0389 34.3755 41.0022C34.4271 41.0065 34.4794 41.0086 34.5321 41.0086C35.5365 41.0086 36.3553 40.2171 36.3891 39.2285C36.3896 39.2291 36.3896 39.2291 36.3902 39.2295C36.6829 39.5201 36.9979 39.7743 37.3297 39.993C37.4582 40.0778 37.4582 40.2657 37.3297 40.3505Z" fill="#FFC751"/>
<path d="M50.9035 52.6862V52.0877C50.9035 51.57 50.4838 51.1502 49.966 51.1502H45.5367C45.0189 51.1502 44.5992 51.57 44.5992 52.0877V52.6862C43.3052 52.7623 42.2899 53.8749 42.3724 55.2058C42.44 56.2955 43.265 57.2134 44.3418 57.394C44.71 57.4557 45.0643 57.4292 45.3907 57.3364C45.5115 58.5336 46.5223 59.468 47.7514 59.468C48.9804 59.468 49.9912 58.5336 50.1121 57.3364C50.4384 57.4292 50.7927 57.4557 51.161 57.3939C52.2378 57.2134 53.0628 56.2955 53.1304 55.2058C53.213 53.8749 52.1976 52.7623 50.9035 52.6862Z" fill="#FFF7C7"/>
<path d="M50.9042 52.6863V52.0877C50.9042 51.5699 50.4844 51.1502 49.9667 51.1502H49.1631C48.1948 53.8915 45.8925 56.0025 43.0352 56.7026C43.4652 57.1495 44.0707 57.4278 44.7411 57.4278C44.9666 57.4278 45.184 57.3949 45.3905 57.336C45.5122 58.5331 46.5227 59.4679 47.7518 59.4679C48.9808 59.4679 49.9914 58.5331 50.1121 57.336C50.3186 57.3949 50.537 57.4278 50.7625 57.4278C52.0733 57.4278 53.1358 56.3654 53.1358 55.0545C53.1358 53.7916 52.1482 52.7591 50.9042 52.6863Z" fill="#FFF370"/>
<path d="M46.5947 51.1503V52.1969C46.5947 52.8358 47.1127 53.3538 47.7516 53.3538C48.3906 53.3538 48.9086 52.8358 48.9086 52.1969V51.1503H46.5947Z" fill="#713327"/>
<path d="M53.1357 55.0545C53.1357 56.3653 52.0732 57.4278 50.7625 57.4278C50.537 57.4278 50.3185 57.3949 50.1121 57.336C49.9913 58.5331 48.9808 59.4679 47.7517 59.4679C46.9237 59.4679 46.1944 59.0439 45.7705 58.4005C48.6945 57.9875 51.0158 55.7 51.4788 52.7921C52.4394 53.0953 53.1357 53.9941 53.1357 55.0545Z" fill="#FFE059"/>
</g>
</svg>
