<svg width="200" height="200" viewBox="0 0 200 200" fill="none" xmlns="http://www.w3.org/2000/svg">
<g clip-path="url(#clip0_1256_296513)">
<mask id="mask0_1256_296513" style="mask-type:luminance" maskUnits="userSpaceOnUse" x="0" y="0" width="200" height="200">
<path d="M200 0H0V200H200V0Z" fill="white"/>
</mask>
<g mask="url(#mask0_1256_296513)">
<path d="M200 0H0V200H200V0Z" fill="#F9FAFB"/>
</g>
<path fill-rule="evenodd" clip-rule="evenodd" d="M80 72C80 60.9543 88.9543 52 100 52C111.046 52 120 60.9543 120 72C120 83.0457 111.046 92 100 92C88.9543 92 80 83.0457 80 72Z" fill="#D1D5DB"/>
<path fill-rule="evenodd" clip-rule="evenodd" d="M120 88C120 79.1634 127.163 72 136 72C144.837 72 152 79.1634 152 88C152 96.8366 144.837 104 136 104C127.163 104 120 96.8366 120 88Z" fill="#D1D5DB"/>
<path fill-rule="evenodd" clip-rule="evenodd" d="M48 88C48 79.1634 55.1634 72 64 72C72.8366 72 80 79.1634 80 88C80 96.8366 72.8366 104 64 104C55.1634 104 48 96.8366 48 88Z" fill="#D1D5DB"/>
<path fill-rule="evenodd" clip-rule="evenodd" d="M69.6516 116.627C76.0408 106.637 87.2435 100 99.999 100C112.756 100 123.96 106.638 130.349 116.63C134.766 123.538 136.677 131.868 135.78 139.989C135.64 141.258 134.903 142.384 133.795 143.02C123.836 148.734 112.293 152 99.999 152C87.7052 152 76.1621 148.734 66.203 143.02C65.0955 142.384 64.3579 141.258 64.2178 139.989C63.3213 131.866 65.2332 123.535 69.6516 116.627Z" fill="#D1D5DB"/>
<path d="M63.1055 112.02C63.0413 112.118 62.9775 112.217 62.914 112.316C57.7649 120.367 55.4084 129.956 56.1318 139.408C52.8889 138.915 49.7424 138.123 46.7223 137.06L46.1092 136.844C44.9907 136.45 44.2092 135.434 44.1152 134.252L44.0636 133.604C44.0214 133.074 44 132.539 44 132C44 121.254 52.4749 112.488 63.1055 112.02Z" fill="#D1D5DB"/>
<path d="M143.87 139.408C144.593 129.957 142.238 120.371 137.091 112.321C137.026 112.22 136.962 112.12 136.896 112.02C147.526 112.489 156 121.255 156 132C156 132.539 155.979 133.074 155.936 133.604L155.885 134.252C155.791 135.434 155.009 136.45 153.891 136.844L153.278 137.06C150.258 138.123 147.112 138.915 143.87 139.408Z" fill="#D1D5DB"/>
</g>
<defs>
<clipPath id="clip0_1256_296513">
<rect width="200" height="200" rx="100" fill="white"/>
</clipPath>
</defs>
</svg>
