<svg width="30" height="36" viewBox="0 0 30 36" fill="none" xmlns="http://www.w3.org/2000/svg">
<path d="M28.0539 9.3488L16.9316 14.1234C16.7399 14.2038 16.5314 14.2358 16.3244 14.2166C16.1174 14.1974 15.9184 14.1275 15.7448 14.0132C15.5712 13.8989 15.4284 13.7436 15.329 13.5611C15.2296 13.3785 15.1766 13.1743 15.1748 12.9665L15.1748 10.5915C10.5213 10.38 4.77343 12.1481 1.0469 16.3515L0.991699 14.6681C1.42982 9.57214 6.94202 3.58801 15.689 3.57645V1.76457C15.6909 1.54696 15.7488 1.33352 15.8572 1.14481C15.9656 0.956099 16.1207 0.798484 16.3077 0.687152C16.4947 0.57582 16.7072 0.514524 16.9248 0.509172C17.1423 0.50382 17.3576 0.554592 17.5498 0.656596L28.2008 6.4963C28.4581 6.643 28.6695 6.85824 28.8117 7.11805C28.9538 7.37786 29.021 7.67203 29.0057 7.96778C28.9905 8.26353 28.8935 8.54924 28.7254 8.79307C28.5573 9.03691 28.3249 9.2293 28.0539 9.3488ZM2.56484 16.6731C2.15797 17.1023 1.73856 17.5456 1.41416 17.888C1.95942 19.4352 2.84418 20.8407 4.00353 22.0014C4.09148 22.0843 4.20181 22.1395 4.32085 22.1603C4.43989 22.181 4.56241 22.1664 4.6732 22.1181C4.78399 22.0699 4.87819 21.9902 4.94412 21.8889C5.01004 21.7877 5.0448 21.6693 5.04406 21.5485C4.9033 18.9851 5.53811 15.2946 6.20719 13.8296C6.05564 13.9108 5.90203 13.9973 5.74634 14.0892C4.57068 14.7981 3.49983 15.6678 2.56484 16.6731ZM1.79899 29.5038L12.45 35.3435C12.6422 35.4455 12.8575 35.4962 13.0751 35.4909C13.2926 35.4855 13.5051 35.4242 13.6921 35.3129C13.8791 35.2016 14.0342 35.044 14.1426 34.8553C14.251 34.6665 14.3089 34.4531 14.3108 34.2355V32.4236C23.0578 32.4121 28.57 26.4279 29.0081 21.332L28.9529 19.6485C25.2264 23.8519 19.4785 25.6201 14.825 25.4085L14.825 23.0336C14.8232 22.8258 14.7702 22.6216 14.6708 22.439C14.5714 22.2565 14.4286 22.1012 14.255 21.9869C14.0814 21.8725 13.8824 21.8027 13.6754 21.7835C13.4684 21.7643 13.2599 21.7963 13.0682 21.8767L1.94589 26.6513C1.67493 26.7708 1.44248 26.9632 1.27442 27.207C1.10637 27.4509 1.00932 27.7366 0.994091 28.0323C0.97886 28.3281 1.04605 28.6222 1.18816 28.882C1.33028 29.1418 1.54174 29.3571 1.79899 29.5038ZM27.435 19.327C27.8419 18.8978 28.2613 18.4545 28.5857 18.1121C28.0404 16.5649 27.1556 15.1593 25.9963 13.9987C25.9083 13.9158 25.798 13.8606 25.679 13.8398C25.5599 13.8191 25.4374 13.8337 25.3266 13.882C25.2158 13.9302 25.1216 14.0099 25.0557 14.1111C24.9898 14.2124 24.955 14.3308 24.9558 14.4516C25.0965 17.015 24.4617 20.7055 23.7926 22.1705C23.9442 22.0893 24.0978 22.0028 24.2535 21.9109C25.4291 21.202 26.5 20.3323 27.435 19.327Z" fill="url(#paint0_linear_2052_382445)"/>
<defs>
<linearGradient id="paint0_linear_2052_382445" x1="0.991787" y1="18" x2="29.008" y2="18" gradientUnits="userSpaceOnUse">
<stop stop-color="#00C0FF"/>
<stop offset="1" stop-color="#5558FF"/>
</linearGradient>
</defs>
</svg>
