<svg width="33" height="29" viewBox="0 0 33 29" fill="none" xmlns="http://www.w3.org/2000/svg">
<g clip-path="url(#clip0_366_34989)">
<path fill-rule="evenodd" clip-rule="evenodd" d="M30.0862 16.1273C33.3385 12.234 33.0954 6.49769 29.3675 2.88171C25.8661 -0.514657 20.46 -0.907112 16.5169 1.69529C12.5737 -0.907111 7.16768 -0.514657 3.66622 2.88171C-0.0616303 6.49769 -0.30481 12.234 2.94754 16.1273C3.01359 16.2418 3.09567 16.3477 3.1923 16.4414L15.5143 28.3936C16.0729 28.9354 16.9609 28.9354 17.5195 28.3936L29.8414 16.4414C29.9381 16.3477 30.0201 16.2418 30.0862 16.1273ZM22.2769 7.19996C23.8675 7.19996 25.1569 8.48938 25.1569 10.08H28.0369C28.0369 6.8988 25.458 4.31996 22.2769 4.31996V7.19996Z" fill="#F0AD00"/>
</g>
<defs>
<clipPath id="clip0_366_34989">
<rect width="31.68" height="28.8" fill="white" transform="translate(0.67688)"/>
</clipPath>
</defs>
</svg>
