<svg width="24" height="24" viewBox="0 0 24 24" fill="none" xmlns="http://www.w3.org/2000/svg">
<path d="M15.7557 5.00586H8.2443C8.06974 5.00586 7.90843 5.09898 7.82115 5.25017L4.06546 11.7552C3.97818 11.9064 3.97818 12.0926 4.06546 12.2438L7.82115 18.7489C7.90843 18.9001 8.06974 18.9932 8.2443 18.9932H15.7557C15.9302 18.9932 16.0916 18.9001 16.1788 18.7489L19.9345 12.2438C20.0218 12.0926 20.0218 11.9064 19.9345 11.7552L16.1788 5.25017C16.0916 5.09898 15.9302 5.00586 15.7557 5.00586Z" fill="#FFD45D"/>
<path d="M20.0001 12H16.7976L14.3988 16.1548L16.0001 18.9282C16.0731 18.886 16.1353 18.8249 16.1789 18.7493L19.9346 12.2443C19.9782 12.1687 20.0001 12.0843 20.0001 12Z" fill="#FF6500"/>
<path d="M14.3988 16.1543H9.60125L8 18.9277C8.07306 18.9699 8.15703 18.9932 8.24431 18.9932H15.7557C15.843 18.9932 15.9269 18.9699 16 18.9277L14.3988 16.1543Z" fill="#FF9416"/>
<path d="M9.60125 16.1548L7.20247 12H4C4 12.0843 4.02181 12.1687 4.06547 12.2443L7.82116 18.7494C7.86481 18.825 7.92694 18.886 8 18.9282L9.60125 16.1548Z" fill="#FFC13F"/>
<path d="M9.60125 7.8457L8 5.07227C7.92694 5.11445 7.86478 5.17552 7.82116 5.25111L4.06547 11.7562C4.02181 11.8318 4 11.9161 4 12.0005H7.20247L9.60125 7.8457Z" fill="#FFD45D"/>
<path d="M9.60125 7.84477H14.3988L16 5.07133C15.9269 5.02914 15.843 5.00586 15.7557 5.00586H8.24431C8.15703 5.00586 8.07306 5.02914 8 5.07133L9.60125 7.84477Z" fill="#FFC13F"/>
<path d="M14.3988 7.8457L16.7976 12.0005H20.0001C20.0001 11.9161 19.9782 11.8318 19.9346 11.7562L16.1789 5.25111C16.1353 5.17552 16.0731 5.11445 16.0001 5.07227L14.3988 7.8457Z" fill="#FF9416"/>
<path d="M14.3988 7.8457H9.60126L7.20251 12.0005L9.60126 16.1553H14.3988L16.7976 12.0005L14.3988 7.8457Z" fill="#FF7B05"/>
<path d="M9.68763 7.55428L9.99344 7.32587C10.063 7.2739 10.1551 7.35153 10.1156 7.4289L9.94219 7.7689C9.92366 7.80524 9.93463 7.84965 9.96794 7.87318L10.2797 8.09343C10.3506 8.14356 10.3052 8.25512 10.2194 8.24146L9.84247 8.18156C9.80219 8.17515 9.76332 8.19931 9.75122 8.23828L9.63807 8.60281C9.61232 8.68574 9.49219 8.67706 9.47866 8.59128L9.41913 8.21428C9.41275 8.17399 9.37778 8.14449 9.337 8.14503L8.95535 8.15006C8.8685 8.15121 8.83963 8.03428 8.91703 7.9949L9.25719 7.82178C9.29353 7.80328 9.31078 7.7609 9.29766 7.72228L9.17494 7.36087C9.147 7.27862 9.24928 7.21506 9.31069 7.27649L9.58044 7.54653C9.60932 7.57537 9.65494 7.57868 9.68763 7.55428Z" fill="white"/>
</svg>
