<svg width="48" height="48" viewBox="0 0 48 48" fill="none" xmlns="http://www.w3.org/2000/svg">
<g id="podium(2) 1" clip-path="url(#clip0_2516_32726)">
<g id="Group">
<g id="Group_2">
<path id="Vector" d="M44.9461 32.0309L44.1482 39.716L34.1674 40.1394L31.7544 37.3765V31.9114C31.7544 30.17 33.1661 28.7583 34.9075 28.7583H39.055L42.9108 29.4422C44.6521 29.4421 44.9461 30.2895 44.9461 32.0309Z" fill="#FFA785"/>
<path id="Vector_2" d="M46.3555 42.0118V31.9114C46.3555 30.17 44.9438 28.7583 43.2024 28.7583H38.7271C39.7878 28.7583 40.6476 29.6181 40.6476 30.6788V34.3107C40.6476 36.0039 39.275 37.3765 37.5819 37.3765H31.7544V42.0118H46.3555Z" fill="#FF7D87"/>
<path id="Vector_3" d="M14.6176 39.1506L14.4561 21.6109C14.2564 21.5712 13.8367 20.7802 13.6254 20.7802L11.152 20.6763H5.70534C3.96393 20.6763 2.55225 22.088 2.55225 23.8294V37.3764L3.95034 38.7639L14.6176 39.1506Z" fill="#98E8F2"/>
<path id="Vector_4" d="M17.1533 41.4151V23.8294C17.1533 22.088 15.7417 20.6763 14.0002 20.6763H11.1519C12.46 20.6763 13.5205 21.7367 13.5205 23.0449V34.3107C13.5205 36.0038 12.1479 37.3764 10.4548 37.3764H2.55225V41.4151L10.3851 43.1138L17.1533 41.4151Z" fill="#A6AFF4"/>
<path id="Vector_5" d="M30.1262 11.0683C29.6044 10.6861 29.5126 10.2087 28.8163 10.2087L27.4107 9.97256L25.0046 11.5866L21.4137 9.92334H20.3064C18.565 9.92334 17.1533 11.335 17.1533 13.0764V37.3225L17.6825 38.5904H30.4625L30.1262 11.0683Z" fill="#FFF2A5"/>
<path id="Vector_6" d="M31.7539 41.415V13.0764C31.7539 11.335 30.3422 9.92334 28.6008 9.92334H26.6624C28.1089 9.92334 29.2815 11.096 29.2815 12.5425V34.2568C29.2815 35.9499 27.909 37.3225 26.2158 37.3225H17.1528V41.415L24.4533 43.1137L31.7539 41.415Z" fill="#FFB7A9"/>
<path id="Vector_7" d="M27.4938 21.2249V9.92334H21.4136V21.3769" fill="#FFC5DD"/>
<path id="Vector_8" d="M41.3948 45.4995L41.3394 41.9963L39.4376 41.3733H2.36073C1.17217 41.3733 0.188734 42.2517 0.0242968 43.3947C0.00835932 43.5054 0.139047 44.1262 0.139047 44.2414C0.139047 44.2414 1.25242 45.3866 1.26892 45.4995H41.3948Z" fill="#AD84E6"/>
<path id="Vector_9" d="M45.578 41.3733H39.4375C39.4718 41.5179 39.4971 41.7096 39.4971 41.8647V43.0331C39.4971 44.1059 38.6273 44.9756 37.5546 44.9756H1.9425C0.989344 44.9756 0.198094 44.2885 0.0331875 43.383C0.0117188 43.5107 0 43.6418 0 43.7755V45.1955C0 46.4993 1.05694 47.5561 2.36063 47.5561H45.6394C46.9431 47.5561 48 46.4992 48 45.1955V43.7755C48 42.4719 46.8818 41.3733 45.578 41.3733Z" fill="#A862E6"/>
<path id="Vector_10" d="M25.2079 18.6465L25.8828 20.014C25.9715 20.1939 26.1431 20.3184 26.3414 20.3473L27.8506 20.5666C28.5404 20.6668 28.8159 21.5145 28.3168 22.0011L27.2247 23.0656C27.0811 23.2056 27.0156 23.4071 27.0494 23.6048L27.3073 25.1079C27.4251 25.7949 26.704 26.3187 26.087 25.9944L24.7372 25.2848C24.5597 25.1915 24.3478 25.1915 24.1703 25.2848L22.8205 25.9944C22.2035 26.3188 21.4824 25.7949 21.6002 25.1079L21.858 23.6048C21.892 23.4071 21.8264 23.2056 21.6828 23.0656L20.5908 22.0011C20.0917 21.5145 20.3671 20.6668 21.0568 20.5666L22.566 20.3473C22.7644 20.3185 22.936 20.1939 23.0247 20.014L23.6996 18.6465C24.0081 18.0215 24.8995 18.0215 25.2079 18.6465Z" fill="#FFE35C"/>
<path id="Vector_11" d="M25.0294 37.8987C24.6507 37.8987 24.3438 37.5917 24.3438 37.213V36.1349C24.3438 35.7562 24.6508 35.4492 25.0294 35.4492C25.4081 35.4492 25.7151 35.7562 25.7151 36.1349V37.213C25.7151 37.5917 25.4081 37.8987 25.0294 37.8987Z" fill="#E68F7E"/>
<path id="Vector_12" d="M27.4938 35.4897C27.115 35.4897 26.8081 35.1828 26.8081 34.804V33.726C26.8081 33.3472 27.115 33.0403 27.4938 33.0403C27.8725 33.0403 28.1795 33.3473 28.1795 33.726V34.804C28.1795 35.1827 27.8725 35.4897 27.4938 35.4897Z" fill="#E68F7E"/>
<path id="Vector_13" d="M24.4538 23.6291C24.075 23.6291 23.7681 23.3221 23.7681 22.9434V21.8654C23.7681 21.4866 24.0751 21.1797 24.4538 21.1797C24.8324 21.1797 25.1394 21.4867 25.1394 21.8654V22.9434C25.1395 23.3222 24.8325 23.6291 24.4538 23.6291Z" fill="#E78546"/>
<g id="Group_3">
<path id="Vector_14" d="M6.81797 32.8716C6.27694 32.8716 5.83838 32.433 5.83838 31.892V28.6783C5.83838 28.1373 6.27694 27.6987 6.81797 27.6987C7.359 27.6987 7.79757 28.1373 7.79757 28.6783V31.892C7.79757 32.433 7.359 32.8716 6.81797 32.8716Z" fill="white"/>
<path id="Vector_15" d="M6.81797 25.7403C6.27694 25.7403 5.83838 25.3017 5.83838 24.7607V24.5848C5.83838 24.0438 6.27694 23.6052 6.81797 23.6052C7.359 23.6052 7.79757 24.0438 7.79757 24.5848V24.7607C7.79757 25.3017 7.359 25.7403 6.81797 25.7403Z" fill="white"/>
</g>
</g>
<g id="Group_4">
<path id="Vector_16" d="M38.0439 5.14145L37.2388 7.40523C37.2043 7.50217 37.1361 7.57895 37.05 7.61776L35.0388 8.52385C34.7546 8.65192 34.7546 9.10464 35.0388 9.2326L37.05 10.1387C37.1361 10.1775 37.2043 10.2543 37.2388 10.3512L38.0439 12.615C38.1576 12.9348 38.5599 12.9348 38.6736 12.615L39.4786 10.3512C39.5131 10.2543 39.5813 10.1775 39.6674 10.1387L41.6786 9.2326C41.9628 9.10454 41.9628 8.65182 41.6786 8.52385L39.6674 7.61776C39.5813 7.57895 39.5131 7.50217 39.4786 7.40523L38.6736 5.14145C38.5599 4.82167 38.1577 4.82167 38.0439 5.14145Z" fill="#FFF2A5"/>
<path id="Vector_17" d="M12.482 1.64573L11.8848 3.32489C11.8592 3.3968 11.8086 3.4538 11.7447 3.48258L10.2528 4.15477C10.042 4.24973 10.042 4.58555 10.2528 4.68052L11.7447 5.3527C11.8086 5.38148 11.8592 5.43848 11.8848 5.5103L12.482 7.18955C12.5664 7.42673 12.8647 7.42673 12.949 7.18955L13.5462 5.5103C13.5718 5.43839 13.6224 5.38139 13.6863 5.3527L15.1782 4.68052C15.389 4.58555 15.389 4.24973 15.1782 4.15477L13.6863 3.48258C13.6224 3.4538 13.5718 3.3968 13.5462 3.32489L12.949 1.64573C12.8647 1.40845 12.5664 1.40845 12.482 1.64573Z" fill="#FFF2A5"/>
<g id="Group_5">
<path id="Vector_18" d="M26.4756 2.2016C26.4756 3.17248 27.2626 3.95951 28.2335 3.95951C29.2044 3.95951 29.9914 3.17248 29.9914 2.2016C29.9914 1.23073 29.2044 0.443697 28.2335 0.443604C27.2626 0.443604 26.4756 1.23073 26.4756 2.2016Z" fill="#FFE35C"/>
<path id="Vector_19" d="M8.07689 14.6948C8.48287 14.6948 8.81199 14.3657 8.81199 13.9597C8.81199 13.5537 8.48287 13.2246 8.07689 13.2246C7.67091 13.2246 7.3418 13.5537 7.3418 13.9597C7.3418 14.3657 7.67091 14.6948 8.07689 14.6948Z" fill="#FFE35C"/>
</g>
</g>
</g>
</g>
<defs>
<clipPath id="clip0_2516_32726">
<rect width="48" height="48" fill="white"/>
</clipPath>
</defs>
</svg>
