<svg width="28" height="29" viewBox="0 0 28 29" fill="none" xmlns="http://www.w3.org/2000/svg">
<path fill-rule="evenodd" clip-rule="evenodd" d="M11.5136 2.45962C12.7215 0.792431 15.2057 0.792432 16.4136 2.45962C16.5335 2.62502 16.7573 2.6761 16.937 2.57907C18.7487 1.60109 20.9869 2.67895 21.3518 4.70514C21.388 4.90615 21.5675 5.04928 21.7715 5.03984C23.8281 4.94477 25.377 6.88701 24.8267 8.87088C24.7721 9.0677 24.8717 9.27452 25.0596 9.35454C26.9538 10.1612 27.5066 12.5831 26.15 14.1318C26.0154 14.2854 26.0154 14.515 26.15 14.6686C27.5066 16.2172 26.9538 18.6392 25.0596 19.4458C24.8717 19.5259 24.7721 19.7327 24.8267 19.9295C25.377 21.9134 23.8281 23.8556 21.7715 23.7605C21.5675 23.7511 21.388 23.8942 21.3518 24.0952C20.9869 26.1214 18.7487 27.1993 16.937 26.2213C16.7573 26.1243 16.5335 26.1754 16.4136 26.3407C15.2057 28.0079 12.7215 28.0079 11.5136 26.3407C11.3937 26.1754 11.1699 26.1243 10.9902 26.2213C9.17852 27.1993 6.94031 26.1214 6.57537 24.0952C6.53917 23.8942 6.35969 23.7511 6.15566 23.7605C4.09907 23.8556 2.55019 21.9134 3.10051 19.9295C3.15511 19.7327 3.05551 19.5259 2.86759 19.4458C0.973415 18.6392 0.420625 16.2172 1.77722 14.6686C1.91181 14.515 1.91181 14.2854 1.77722 14.1318C0.420624 12.5831 0.973416 10.1612 2.86759 9.35454C3.05551 9.27452 3.15511 9.0677 3.10051 8.87088C2.55019 6.88701 4.09907 4.94477 6.15566 5.03984C6.3597 5.04928 6.53917 4.90615 6.57537 4.70514C6.94031 2.67895 9.17852 1.60109 10.9902 2.57907C11.1699 2.6761 11.3937 2.62502 11.5136 2.45962ZM14.2935 3.99576C14.1308 3.77129 13.7964 3.77129 13.6337 3.99576C12.7437 5.22423 11.0814 5.60363 9.74648 4.883C9.50257 4.75133 9.20123 4.89644 9.15209 5.16924C8.88318 6.66225 7.55017 7.72529 6.03476 7.65523C5.75787 7.64243 5.54933 7.90393 5.62342 8.17103C6.02893 9.63286 5.28917 11.169 3.89343 11.7634C3.63841 11.872 3.56398 12.1981 3.74663 12.4066C4.74625 13.5477 4.74625 15.2527 3.74663 16.3938C3.56398 16.6023 3.63841 16.9284 3.89343 17.037C5.28917 17.6314 6.02893 19.1675 5.62342 20.6293C5.54933 20.8964 5.75787 21.1579 6.03476 21.1451C7.55017 21.0751 8.88318 22.1381 9.15209 23.6311C9.20123 23.9039 9.50257 24.049 9.74648 23.9174C11.0814 23.1967 12.7437 23.5761 13.6337 24.8046C13.7964 25.0291 14.1308 25.0291 14.2935 24.8046C15.1835 23.5761 16.8458 23.1967 18.1807 23.9174C18.4246 24.049 18.726 23.9039 18.7751 23.6311C19.044 22.1381 20.377 21.0751 21.8924 21.1451C22.1693 21.1579 22.3779 20.8964 22.3038 20.6293C21.8983 19.1675 22.638 17.6314 24.0338 17.037C24.2888 16.9284 24.3632 16.6023 24.1806 16.3938C23.181 15.2527 23.181 13.5477 24.1806 12.4066C24.3632 12.1981 24.2888 11.872 24.0338 11.7634C22.638 11.169 21.8983 9.63286 22.3038 8.17103C22.3779 7.90393 22.1693 7.64243 21.8924 7.65523C20.377 7.72529 19.044 6.66225 18.7751 5.16924C18.726 4.89645 18.4246 4.75133 18.1807 4.883C16.8458 5.60363 15.1835 5.22423 14.2935 3.99576Z" fill="#F0AD00"/>
<path fill-rule="evenodd" clip-rule="evenodd" d="M4.91882 14.4001C4.91882 9.40489 8.96824 5.35547 13.9635 5.35547C18.9587 5.35547 23.0081 9.40489 23.0081 14.4001C23.0081 19.3953 18.9587 23.4447 13.9635 23.4447C8.96824 23.4447 4.91882 19.3953 4.91882 14.4001ZM13.6987 18.8959L19.6491 12.9455L17.7978 11.0941L12.773 16.1189L10.1284 13.4743L8.27711 15.3256L11.8474 18.8959C12.0929 19.1414 12.4258 19.2793 12.773 19.2793C13.1202 19.2793 13.4532 19.1414 13.6987 18.8959Z" fill="#F0AD00"/>
</svg>
