<svg width="16" height="19" viewBox="0 0 16 19" fill="none" xmlns="http://www.w3.org/2000/svg">
<path d="M12.9911 12.3652C12.1103 12.3652 11.3167 12.7456 10.766 13.3507L5.81215 10.2825C5.94441 9.94395 6.01776 9.57621 6.01776 9.1915C6.01776 8.80665 5.94441 8.43892 5.81215 8.10049L10.766 5.03221C11.3167 5.63726 12.1103 6.01776 12.9911 6.01776C14.6502 6.01776 16 4.66798 16 3.00881C16 1.34964 14.6502 0 12.9911 0C11.3319 0 9.9821 1.34978 9.9821 3.00895C9.9821 3.39366 10.0556 3.7614 10.1877 4.09996L5.23404 7.1681C4.68327 6.56306 3.88973 6.18255 3.00895 6.18255C1.34978 6.18255 0 7.53247 0 9.1915C0 10.8507 1.34978 12.2005 3.00895 12.2005C3.88973 12.2005 4.68327 11.8201 5.23404 11.2149L10.1877 14.283C10.0556 14.6216 9.9821 14.9894 9.9821 15.3742C9.9821 17.0332 11.3319 18.383 12.9911 18.383C14.6502 18.383 16 17.0332 16 15.3742C16 13.715 14.6502 12.3652 12.9911 12.3652ZM11.0793 3.00895C11.0793 1.95482 11.9369 1.09719 12.9911 1.09719C14.0452 1.09719 14.9028 1.95482 14.9028 3.00895C14.9028 4.06308 14.0452 4.92071 12.9911 4.92071C11.9369 4.92071 11.0793 4.06308 11.0793 3.00895ZM3.00895 11.1033C1.95468 11.1033 1.09705 10.2456 1.09705 9.1915C1.09705 8.13738 1.95468 7.27974 3.00895 7.27974C4.06308 7.27974 4.92057 8.13738 4.92057 9.1915C4.92057 10.2456 4.06308 11.1033 3.00895 11.1033ZM11.0793 15.3741C11.0793 14.3199 11.9369 13.4623 12.9911 13.4623C14.0452 13.4623 14.9028 14.3199 14.9028 15.3741C14.9028 16.4282 14.0452 17.2858 12.9911 17.2858C11.9369 17.2858 11.0793 16.4282 11.0793 15.3741Z" fill="#334155"/>
</svg>
