<svg width="24" height="24" viewBox="0 0 24 24" fill="none" xmlns="http://www.w3.org/2000/svg">
<rect width="24" height="24" rx="8" fill="#E3FFF2"/>
<path d="M7.36217 11.4459C7.58686 11.7843 7.5845 12.225 7.35621 12.561L5.73844 14.942C5.43289 15.3917 5.755 16 6.29868 16C6.52515 16 6.73663 15.8868 6.86225 15.6984L7.69285 14.4525C8.10969 13.8272 9.04272 13.8679 9.44804 14.5007C9.48509 14.5585 9.52281 14.6168 9.56132 14.6758L10.2523 15.6954C10.3814 15.8859 10.5965 16 10.8266 16C11.3784 16 11.7094 15.3872 11.4068 14.9258L9.84403 12.5425C9.62582 12.2097 9.62568 11.7792 9.84367 11.4463L11.4117 9.05164C11.7076 8.59977 11.3834 8 10.8433 8C10.6106 8 10.3942 8.11904 10.2695 8.3155L9.52297 9.49242C9.11377 10.1375 8.15748 10.1053 7.73513 9.46874C7.72738 9.45706 7.7196 9.44537 7.71179 9.43365L6.94459 8.30439C6.81523 8.11399 6.59998 8 6.36979 8C5.81538 8 5.48421 8.61738 5.79087 9.07926L7.36217 11.4459Z" fill="#10B981"/>
<path d="M16.3319 13.2421C17.9297 13.2421 18.9803 12.1587 18.9803 10.6156C18.9803 9.05062 17.9407 8 16.3319 8H14.1691C13.6168 8 13.1691 8.44772 13.1691 9V15.2996C13.1691 15.6864 13.4827 16 13.8695 16C14.2564 16 14.57 15.6864 14.57 15.2996V14.2421C14.57 13.6898 15.0177 13.2421 15.57 13.2421H16.3319ZM16.0583 9.24761C16.9886 9.24761 17.5139 9.72914 17.5139 10.6047C17.5139 11.4802 16.9995 11.9945 16.0364 11.9945H15.57C15.0177 11.9945 14.57 11.5468 14.57 10.9945V10.2476C14.57 9.69532 15.0177 9.24761 15.57 9.24761H16.0583Z" fill="#10B981"/>
</svg>
